<?xml version="1.0" encoding="utf-8"?>
<!-- Generator: Adobe Illustrator 18.1.1, SVG Export Plug-In . SVG Version: 6.00 Build 0)  -->
<!DOCTYPE svg PUBLIC "-//W3C//DTD SVG 1.1//EN" "http://www.w3.org/Graphics/SVG/1.1/DTD/svg11.dtd">
<svg version="1.1" xmlns="http://www.w3.org/2000/svg" xmlns:xlink="http://www.w3.org/1999/xlink" x="0px" y="0px"
	 viewBox="0 0 255 337.1" enable-background="new 0 0 255 337.1" xml:space="preserve">
<g id="Layer_2">
	<path fill="#FCFBFA" d="M60.1,203.1c0,0,2.6,2.9,2.6,4.9s1.9,9.6,1.9,9.6s3.8,2.4,5.4,2.9c1.6,0.5,20.4,7.1,42,5.5
		s48.5-9.6,48.9-11.2s4.2-6,3.2-17.4C119.7,212.6,65,205.3,60.1,203.1z"/>
	<path fill="#4D494D" d="M171.3,272c3,2.3,5.7,3.7,7.1,5.9c0.6,1-1.4,5.3-2.3,5.4c-2.7,0.1-7-0.3-8-2c-1.4-2.6-2-7.5-0.4-9.7
		c3.6-4.8,9.1-6.2,15-3.3c5.6,2.8,7.9,7.1,6,13.1c-2.3,7.4-7.5,11.3-15.2,11.9c-9,0.7-14.2-2.7-19.8-13.9c-1,9.2-1.9,16.8-2.7,24.4
		c-0.6,5.6-0.9,11.2-1.8,16.8c-0.9,5.6-3.6,11.1-9.6,11.5c-14.7,1.1-29.4,1.9-44.1,1.2c-10.4-0.5-14.9-8.8-16.8-18.2
		c-9.5-45-19-90.1-28.4-135.1c-0.4-1.7-0.8-3.5-0.9-5.2c-0.3-4.9,0.9-6.4,6.7-5.3c16.3,2.9,32.7,5.9,49.1,6.4
		c23.1,0.8,45.5-4.4,68.5-16.4c-1.2,10.6-2.3,19.4-3.4,28.7c6.1-9,13.6-15.6,24.9-17.2c12.8-1.8,27,4.9,33.4,16.8
		c6.1,11.4,4.9,23.9-5.5,33.5c-7.6,7-17.1,11.9-25.5,18.1c-10.7,7.8-21.8,15.2-31.4,24.2c-9.5,8.9-8.1,19.7,1.4,25.1
		c4.9,2.8,9.5,1.3,12.2-2.6c2.1-3.1,3.6-8.3,2.4-11.5C180.3,269,175.5,268.4,171.3,272z M158.9,220.1c-31.2,8.9-61.4,10.8-91,4.8
		c2.6,16.5,5,32.3,7.6,48c2.4,14.3,4.9,28.6,7.8,42.7c1.7,8.3,7,13.6,15.7,14.4c7.9,0.7,15.8,1.7,23.7,1.3
		c15.3-0.7,20.6-4.7,23-16.3c1-4.7,1.5-9.6,2-14.4c2.1-18.3,3.8-36.5,6.1-54.8C155,237.7,157,229.6,158.9,220.1z M167.2,168.4
		c-4,1.5-8,3.2-12,4.6c-28.1,9.4-56.8,9.1-85.6,4.4c-5.6-0.9-10.5-1.2-12.4,5.1c-2,6.2,2.2,14.6,8.2,16.1c27.9,7,55.9,9,83.8,0.3
		C165.7,193.7,169.5,186.8,167.2,168.4z M202.5,208.5c-3.4-0.5-6.9-0.4-9.6-1.8c-1.1-0.6-1.5-5.2-0.4-6.6c1.5-2.1,4.6-4,7.2-4.2
		c6.7-0.4,11.4,6.7,9.6,13.5c-1.7,6.5-8.9,12.5-15.7,12.8c-13.6,0.5-21.1-7.4-26.6-19.3c-4.1,20.3-8.3,40.6-12.4,61
		c7.6-6,13.8-11.6,20.6-16.2c6.7-4.5,14.3-7.9,21.3-12.1c12.4-7.4,22.3-17,25.8-31.8c2.3-9.6-0.4-19-7.3-24.1
		c-8-5.9-17.6-6.6-25-1.6c-7.7,5.2-11.8,15.5-9.6,25c1.5,6.5,5.5,11.3,12.2,12.2C197.7,216.1,201.3,212.8,202.5,208.5z M60.1,203.1
		c4.4,6.7,1.1,15.2,9.9,17.4c27.1,6.8,54.1,6.5,80.8-1.8c11.8-3.7,14.1-7.7,13.2-21.3C130.7,210.8,96.5,210.8,60.1,203.1z"/>
	<path fill="#726072" d="M158.9,220.1c-1.8,9.6-3.9,17.6-4.9,25.9c-2.3,18.2-4.1,36.5-6.1,54.8c-0.5,4.8-1,9.6-2,14.4
		c-2.4,11.6-7.7,15.6-23,16.3c-7.9,0.3-15.8-0.6-23.7-1.3c-8.7-0.8-14-6.1-15.7-14.4c-2.9-14.2-5.4-28.5-7.8-42.7
		c-2.7-15.8-5-31.6-7.6-48C97.4,230.8,127.7,229,158.9,220.1z"/>
	<path fill="#726072" d="M167.2,168.4c2.4,18.4-1.4,25.3-18,30.4c-27.9,8.7-55.9,6.7-83.8-0.3c-5.9-1.5-10.1-9.9-8.2-16.1
		c2-6.3,6.8-6,12.4-5.1c28.8,4.8,57.5,5,85.6-4.4C159.2,171.6,163.1,170,167.2,168.4z"/>
</g>
<g id="Layer_3" display="none">
	<g id="b0vuy2.tif" display="inline">
		<g>
			<path fill="#4D494D" d="M159.1,203.7c-1.8,0-3.7,0-5.5,0c-2.6-0.3-5.1-0.5-7.7-1.1c-9.4-2-17.1-6.5-22.5-14.7
				c-3.3-5-5.5-10.4-7.3-16c-0.6-1.9-1.4-3.7-2.5-5.3c-0.7-1-1.6-1.8-2.9-1.8c-1.5,0-2.9,0-4.4,0c-1.2,0-2,0.6-2.6,1.6
				c-1.1,1.9-1.8,4-2.3,6.1c-1.6,7.1-5.1,13.2-9.5,18.9c-4.6,5.9-10.3,10.2-17.7,11.9c-2.1,0.5-4.2,0.7-6.3,1.1
				c-3.8,0-7.5,0.1-11.3,0.1c-4.9-0.7-9.8-1.6-14.4-3.7c-4.4-2-8.2-4.7-10.3-9.2c-3.2-6.7-5.9-13.6-7.7-20.8c-0.8-3.1-2.2-5.7-4.5-8
				c-1.6-1.6-3-3.3-3.4-5.6c0-3,0-6.1-0.1-9.1c4.9-1,9.9-1.9,14.8-3c6-1.3,12-2.3,18.1-3.1c3.7,0,7.3-0.1,11-0.1
				c0.2,0.1,0.5,0.1,0.7,0.2c10,0.7,20,2.1,29.8,4.3c9,2,18.1,2.4,27.2,1.2c6.9-0.9,13.7-2.3,20.5-3.7c5.6-1.1,11.2-1.9,16.8-2.6
				c3.8,0,7.5-0.1,11.3-0.1c3.8,0.5,7.5,0.9,11.3,1.5c6.2,0.9,12.2,3,18.4,4c1.3,0.2,2.3,1.1,2.9,2.2c0,3.2,0,6.3,0.1,9.5
				c-0.4,0.8-1,1.5-1.8,2c-1.8,1.2-3,2.8-3.7,4.9c-1.7,4.6-2.8,9.4-4,14.2c-2.8,11-9.4,18.4-20.2,22.1
				C166.3,202.7,162.7,203.2,159.1,203.7z M153.9,147.7c-10.2,0-18.5,1.5-26.2,5.3c-5.7,2.9-7.7,7.2-6.4,13.5
				c1.2,5.8,3.8,10.9,6.6,16c3.8,6.8,9.6,11.3,17.1,13.5c7.7,2.2,15.4,1.8,23-0.2c6.3-1.7,10.6-5.8,13-11.8c0.8-2,1.4-4,2-6.1
				c1.6-5.7,2.7-11.6,2.4-17.6c-0.2-3.3-1.5-5.9-4.2-7.7c-2.2-1.5-4.8-2.3-7.3-2.9C166.8,148.2,159.5,147.8,153.9,147.7z
				 M61.4,198.3c0.9,0,1.7-0.1,2.4-0.1c0.8-0.1,1.5-0.1,2.3-0.2c9.2-1.1,16.8-5,22.1-12.8c3.1-4.6,5.2-9.7,6.9-14.9
				c0.6-1.8,0.9-3.6,1.2-5.5c0.6-4.9-1.7-8.9-6.7-11.4c-6.6-3.3-13.6-4.6-20.9-5c-5.3-0.2-10.7,0.1-16,0.8
				c-4.5,0.5-9.1,1.1-13.4,2.7c-5.3,2-7.7,5.3-7.7,11c0.1,8.1,2.1,15.9,5.4,23.3c2.4,5.4,6.6,8.8,12.2,10.4
				C53.2,197.7,57.3,198,61.4,198.3z"/>
		</g>
	</g>
</g>
<g id="Layer_3_copy" display="none">
	<g id="b0vuy2.tif_1_" display="inline">
		<g>
			<path fill="#BF765E" d="M168.2,165.7c-1.7,0.7-3.4,1.3-5.1,2c-2.5,0.6-5,1.3-7.6,1.7c-9.5,1.5-18.3-0.1-26.2-5.8
				c-4.8-3.5-8.8-7.8-12.5-12.4c-1.2-1.6-2.6-3-4.3-4.1c-1-0.7-2.1-1.1-3.3-0.7c-1.4,0.5-2.8,1-4.1,1.5c-1.1,0.4-1.7,1.2-1.9,2.4
				c-0.4,2.2-0.3,4.4,0,6.5c1,7.2-0.2,14.2-2.3,21C98.9,185,95,191,88.7,195.2c-1.8,1.2-3.7,2.2-5.5,3.2c-3.5,1.4-7,2.7-10.5,4.1
				c-4.9,1.1-9.7,1.9-14.7,1.6c-4.8-0.3-9.3-1.5-12.9-5c-5.3-5.1-10.3-10.6-14.5-16.7c-1.8-2.6-4.1-4.6-7-5.9c-2.1-0.9-4-2-5.2-4
				c-1.1-2.8-2.2-5.7-3.3-8.5c4.3-2.6,8.6-5.2,12.8-8c5.2-3.3,10.4-6.4,15.9-9.3c3.4-1.3,6.8-2.6,10.2-3.9c0.3,0,0.5,0,0.8-0.1
				c9.6-2.9,19.4-5,29.4-6.5c9.1-1.3,17.8-4.1,25.9-8.5c6.1-3.3,12-7,17.9-10.7c4.8-3,9.8-5.7,14.8-8.4c3.5-1.4,7-2.7,10.5-4.1
				c3.7-0.9,7.4-1.8,11.1-2.6c6.2-1.4,12.5-1.5,18.7-2.8c1.3-0.3,2.5,0.2,3.5,1c1.1,2.9,2.3,5.9,3.4,8.8c-0.1,0.9-0.4,1.8-0.9,2.5
				c-1.3,1.7-1.8,3.7-1.8,5.9c0,4.9,0.7,9.8,1.3,14.7c1.2,11.3-2.3,20.6-11.1,27.8C174.5,162.3,171.4,164,168.2,165.7z M143.6,115.2
				c-9.6,3.6-16.8,7.9-22.6,14.2c-4.3,4.7-4.6,9.5-1.2,14.9c3.1,5,7.4,8.9,11.8,12.6c6,5.1,13,7.2,20.8,6.6c8-0.6,15-3.7,21.4-8.3
				c5.3-3.8,7.9-9.2,8-15.7c0-2.1-0.1-4.3-0.3-6.4c-0.5-5.9-1.5-11.8-3.9-17.3c-1.3-3-3.4-5-6.7-5.7c-2.6-0.6-5.3-0.5-7.9-0.1
				C155.9,111.1,148.9,113.3,143.6,115.2z M74.8,195c0.8-0.4,1.5-0.7,2.2-1c0.7-0.3,1.4-0.7,2.1-1c8.2-4.2,14-10.6,16.2-19.7
				c1.3-5.4,1.4-10.9,1.2-16.4c-0.1-1.9-0.4-3.7-0.9-5.6c-1.2-4.8-4.7-7.7-10.3-8.3c-7.3-0.8-14.4,0.5-21.3,2.7
				c-5.1,1.6-9.9,3.9-14.7,6.3c-4.1,2.1-8.1,4.2-11.6,7.3c-4.3,3.8-5.4,7.7-3.3,13c3,7.6,7.6,14.1,13.2,19.9
				c4.1,4.2,9.3,5.9,15.1,5.4C67,197.4,70.9,196.2,74.8,195z"/>
		</g>
	</g>
</g>
<g id="Layer_4" display="none">
	<g display="inline">
		<path fill="#815F82" stroke="#4D494D" stroke-width="7" stroke-miterlimit="10" d="M97,161.8l-81.5-11v-108L86.6,52
			c12.3,1.6,21.4,12,21.4,24.4v75.8C108,158.1,102.8,162.6,97,161.8z"/>
		<path fill="#815F82" stroke="#4D494D" stroke-width="7" stroke-miterlimit="10" d="M200.5,150.8l-80.3,10.9
			c-6.4,0.9-12.2-4.1-12.2-10.6V74c0-10.9,8.1-20.2,19-21.6l73.5-9.5V150.8z"/>
		<line fill="none" stroke="#4D494D" stroke-width="12" stroke-miterlimit="10" x1="22.5" y1="172.8" x2="197.5" y2="172.8"/>
	</g>
</g>
<g id="Layer_5" display="none">
	<path display="inline" fill="#F9F7F7" stroke="#BF765E" stroke-width="8" stroke-miterlimit="10" d="M97,161.8l-81.5-11v-108
		L86.6,52c12.3,1.6,21.4,12,21.4,24.4v75.8C108,158.1,102.8,162.6,97,161.8z"/>
	<path display="inline" fill="#F9F7F7" stroke="#BF765E" stroke-width="8" stroke-miterlimit="10" d="M200.5,150.8l-80.3,10.9
		c-6.4,0.9-12.2-4.1-12.2-10.6V74c0-10.9,8.1-20.2,19-21.6l73.5-9.5V150.8z"/>
	
		<line display="inline" fill="none" stroke="#4D494D" stroke-width="12" stroke-miterlimit="10" x1="22.5" y1="172.8" x2="197.5" y2="172.8"/>
	<path display="inline" fill="none" stroke="#232323" stroke-width="3" stroke-miterlimit="10" d="M24.5,62.8c0,0,7,16.5,14,14.5
		s11-12.5,18.5-8.5s9.5,13,16.5,12s13-12,17.5-8.5s3.5,11,7,12"/>
	<path display="inline" fill="none" stroke="#232323" stroke-width="3" stroke-miterlimit="10" d="M24.5,82.3c0,0,7,16.5,14,14.5
		s11-12.5,18.5-8.5s9.5,13,16.5,12s13-12,17.5-8.5s3.5,11,7,12"/>
	<path display="inline" fill="none" stroke="#232323" stroke-width="3" stroke-miterlimit="10" d="M24.5,102.3c0,0,7,16.5,14,14.5
		s11-12.5,18.5-8.5s9.5,13,16.5,12s13-12,17.5-8.5s3.5,11,7,12"/>
	<path display="inline" fill="none" stroke="#232323" stroke-width="3" stroke-miterlimit="10" d="M24.5,122.3c0,0,7,16.5,14,14.5
		s11-12.5,18.5-8.5s9.5,13,16.5,12s13-12,17.5-8.5s3.5,11,7,12"/>
	<g id="WLW0cS.tif_1_" display="inline">
		<g>
			<path fill="#232323" d="M192.1,65.7c-0.6,1.1-1.6,2-2.6,2.6c-0.9,0.6-1.8,1.2-2.7,1.8c-0.6,0.5-0.9,0.4-1.3-0.2
				c-2.9-4.2-5.7-8.3-8.6-12.5c-0.5-0.7-0.9-1.3-1.4-2c-0.3-0.4-0.2-0.7,0.2-1c1.3-0.9,2.5-1.7,3.8-2.6c0.7-0.5,1.6-0.7,2.4-0.9
				c0.9,0.2,1.7,0.3,2.6,0.5c1.1,0.6,1.9,1.5,2.6,2.6c1.3,1.9,2.6,3.9,4,5.8c0.7,1,1.3,2.1,1.5,3.3C192.4,64,192.2,64.9,192.1,65.7z
				"/>
			<path fill="#232323" d="M122.5,102.9c0.2-1.3,0.8-2.5,1.2-3.7c1.2-3.5,2.4-6.9,3.6-10.4c0.1-0.3,0.1-0.7,0.4-0.7
				c0.4-0.1,0.4,0.4,0.6,0.6c3.2,4.6,6.4,9.3,9.6,14c0.2,0.2,0.5,0.5,0.3,0.8c-0.1,0.2-0.5,0.1-0.8,0.1c-4.5-0.1-9-0.3-13.5-0.4
				c-0.1,0-0.3,0-0.4,0C123.2,103,122.9,103,122.5,102.9z"/>
			<path fill="#232323" d="M174.7,58.5c0,0.2-0.2,0.3-0.3,0.4c-0.2,0.2-0.4,0.3-0.6,0.4c-13.1,9.1-26.2,18.1-39.4,27.2
				c-0.9,0.6-0.9,0.6-0.3,1.5c0.1,0.2,0.3,0.3,0.3,0.5c0.3,0.6,0.6,0.5,1.1,0.2c2.8-2,5.6-3.9,8.4-5.8c10.4-7.2,20.9-14.4,31.3-21.6
				c0.9-0.6,0.9-0.6,1.6,0.3c2.2,3.2,4.5,6.5,6.7,9.7c0.4,0.5,0.4,0.8-0.2,1.2c-14.1,9.7-28.2,19.5-42.3,29.3
				c-0.6,0.4-0.9,0.3-1.3-0.2c-3.3-4.8-6.6-9.6-9.9-14.3c-0.4-0.5-0.4-0.8,0.2-1.2c14.1-9.8,28.3-19.5,42.4-29.3
				c0.5-0.4,0.8-0.4,1.2,0.2c0.2,0.4,0.6,0.8,0.8,1.2C174.5,58.3,174.6,58.4,174.7,58.5z"/>
		</g>
	</g>
</g>
<g id="Layer_6" display="none">
	<g display="inline">
		<path fill="#4D494D" d="M174.8,56.5l-9.4-5c0,0-14.1-8.9-54.5-8.9h-6.2c-31.9,0-53.2,8.9-53.2,8.9l-10.3,5.3
			c-12.7,6.6-6.1,17.7-6.1,17.7s1.4,2.7,3,6c1.7,3.4,6.2,4.5,10.1,2.5l21.3-10.8c3.9-2,6-5.3,4.8-7.6c-1.2-2.2-2.4-4.6-2.6-5.4
			c-0.1-0.8,4.3-2.6,8.4-3.9c6.3-2,15.6-4.8,24.6-4.8h7.5c0,0,22.7,0.5,32.2,8.6c0.1,0.1,0.3,0.4,0.4,0.5c0.2,0.1,0.3,0.4,0.1,0.6
			c-0.1,0.1-0.1,0.4-0.2,0.6c-0.6,1.4-1.2,2.8-1.9,4c-1.2,2.1,0.9,5.5,4.7,7.5l20.1,10.6c3.8,2,8.4,0.9,10.2-2.4l3.2-6.1
			C180.9,74.3,187.6,63.1,174.8,56.5"/>
		<path fill="#4D494D" d="M108.3,112.6c-9.3,0-16.8,7.5-16.8,16.8c0,9.3,7.5,16.8,16.8,16.8c9.3,0,16.8-7.5,16.8-16.8
			C125.1,120.1,117.6,112.6,108.3,112.6"/>
		<path fill="#4D494D" d="M83,127c0.4,0.1,0.7,0.2,1.1,0.2c2,0,3.7-1.3,4.2-3.2c0.6-2.3-0.8-4.7-3.1-5.3c-0.4-0.1-0.8-0.2-1.1-0.2
			c-1.9,0-3.7,1.3-4.2,3.2c-0.3,1.1-0.1,2.3,0.4,3.3C80.9,126,81.9,126.7,83,127"/>
		<path fill="#4D494D" d="M87.8,138c0.6-1,0.7-2.2,0.4-3.3c-0.5-1.9-2.2-3.2-4.2-3.2c-0.4,0-0.7,0-1.1,0.2c-2.3,0.6-3.7,3-3.1,5.3
			c0.5,1.9,2.2,3.2,4.2,3.2c0.4,0,0.8-0.1,1.1-0.2C86.3,139.7,87.3,139,87.8,138"/>
		<path fill="#4D494D" d="M103,149.4c-0.4-0.1-0.7-0.2-1.1-0.2c-2,0-3.7,1.3-4.2,3.2c-0.3,1.1-0.1,2.3,0.4,3.3c0.6,1,1.5,1.7,2.6,2
			c2.3,0.6,4.7-0.8,5.3-3c0.3-1.1,0.2-2.3-0.4-3.3C105,150.5,104.1,149.8,103,149.4"/>
		<path fill="#4D494D" d="M90.6,142.8c-1.1,0-2.2,0.4-3.1,1.3c-1.7,1.7-1.7,4.4,0,6.1c1.6,1.6,4.5,1.6,6.1,0c1.7-1.7,1.7-4.4,0-6.1
			C92.8,143.3,91.7,142.8,90.6,142.8"/>
		<path fill="#4D494D" d="M113.7,109.3c0.4,0.1,0.7,0.2,1.1,0.2c2,0,3.7-1.3,4.2-3.2c0.6-2.3-0.8-4.7-3.1-5.3
			c-0.4-0.1-0.7-0.1-1.1-0.1c-2,0-3.7,1.3-4.2,3.2C110.1,106.3,111.4,108.7,113.7,109.3"/>
		<path fill="#4D494D" d="M128.8,120.7c-0.6,1-0.7,2.2-0.4,3.3c0.5,1.9,2.2,3.2,4.2,3.2c0.4,0,0.8-0.1,1.1-0.2c1.1-0.3,2.1-1,2.6-2
			c0.6-1,0.7-2.2,0.4-3.3c-0.5-1.9-2.2-3.2-4.2-3.2c-0.4,0-0.8,0.1-1.1,0.2C130.4,119,129.4,119.7,128.8,120.7"/>
		<path fill="#4D494D" d="M101.8,109.4c0.4,0,0.7-0.1,1.1-0.2c1.1-0.3,2.1-1,2.6-2c0.6-1,0.7-2.2,0.4-3.3c-0.5-1.9-2.2-3.2-4.2-3.2
			c-0.4,0-0.8,0-1.1,0.1c-2.3,0.6-3.7,3-3.1,5.3C98.2,108.1,99.9,109.4,101.8,109.4"/>
		<path fill="#4D494D" d="M93.6,114.7c0.8-0.8,1.3-1.9,1.3-3.1c0-1.2-0.4-2.2-1.3-3c-0.8-0.8-1.9-1.3-3-1.3c-1.1,0-2.2,0.4-3.1,1.3
			c-0.8,0.8-1.3,1.9-1.3,3c0,1.2,0.4,2.2,1.3,3.1C89.2,116.3,92,116.3,93.6,114.7"/>
		<path fill="#4D494D" d="M133.7,131.7c-0.4-0.1-0.7-0.2-1.1-0.2c-2,0-3.7,1.3-4.2,3.2c-0.3,1.1-0.1,2.3,0.4,3.3
			c0.6,1,1.5,1.7,2.6,2c0.4,0.1,0.8,0.2,1.1,0.2c1.9,0,3.7-1.3,4.2-3.2C137.4,134.7,136,132.3,133.7,131.7"/>
		<path fill="#4D494D" d="M130.4,111.6c0-1.1-0.4-2.2-1.3-3c-0.8-0.8-1.9-1.3-3.1-1.3c-1.2,0-2.2,0.4-3.1,1.3
			c-1.7,1.7-1.7,4.4,0,6.1c0.8,0.8,1.9,1.2,3.1,1.2c1.2,0,2.2-0.4,3.1-1.3C130,113.9,130.4,112.8,130.4,111.6"/>
		<path fill="#4D494D" d="M173.3,141l-21.5-51.4c-0.8-2.1-3.3-4.2-5.5-4.2h-8.1V74c0-3.7-3-6.7-6.7-6.7h-2.1c-3.7,0-6.7,3-6.7,6.7
			v11.4H94.8V74c0-3.7-3-6.7-6.7-6.7H86c-3.7,0-6.7,3-6.7,6.7v11.4h-8.9c-2.2,0-4.7,2.1-5.5,4.2l-21.8,51.4
			c-0.8,2.1-0.8,5.5,0.1,7.6l10.4,20.5c0.9,2,3.4,4,5.6,4h98.3c2.2,0,4.8-1.9,5.7-4l10-20.4C174,146.7,174.1,143.1,173.3,141
			L173.3,141z M108.3,163.1c-18.6,0-33.7-15.1-33.7-33.7c0-18.6,15.1-33.7,33.7-33.7c18.6,0,33.7,15.1,33.7,33.7
			C142,147.9,126.9,163.1,108.3,163.1L108.3,163.1z M108.3,163.1"/>
	</g>
</g>
<g id="Layer_7" display="none">
	<g display="inline">
		<path fill="#4D494D" d="M108.2,112.6c-9.3,0-16.8,7.5-16.8,16.8c0,9.3,7.5,16.8,16.8,16.8c9.3,0,16.8-7.5,16.8-16.8
			C125,120.2,117.5,112.6,108.2,112.6"/>
		<path fill="#BF765E" d="M82.9,127.1c0.4,0.1,0.7,0.2,1.1,0.2c2,0,3.7-1.3,4.2-3.2c0.6-2.3-0.8-4.7-3.1-5.3
			c-0.4-0.1-0.8-0.2-1.1-0.2c-1.9,0-3.7,1.3-4.2,3.2c-0.3,1.1-0.1,2.3,0.4,3.3C80.8,126.1,81.7,126.8,82.9,127.1"/>
		<path fill="#BF765E" d="M87.7,138.1c0.6-1,0.7-2.2,0.4-3.3c-0.5-1.9-2.2-3.2-4.2-3.2c-0.4,0-0.7,0-1.1,0.2c-2.3,0.6-3.7,3-3.1,5.3
			c0.5,1.9,2.2,3.2,4.2,3.2c0.4,0,0.8-0.1,1.1-0.2C86.2,139.8,87.1,139.1,87.7,138.1"/>
		<path fill="#BF765E" d="M102.8,149.5c-0.4-0.1-0.7-0.2-1.1-0.2c-2,0-3.7,1.3-4.2,3.2c-0.3,1.1-0.1,2.3,0.4,3.3
			c0.6,1,1.5,1.7,2.6,2c2.3,0.6,4.7-0.8,5.3-3c0.3-1.1,0.2-2.3-0.4-3.3C104.9,150.5,103.9,149.8,102.8,149.5"/>
		<path fill="#BF765E" d="M90.5,142.9c-1.1,0-2.2,0.4-3.1,1.3c-1.7,1.7-1.7,4.4,0,6.1c1.6,1.6,4.5,1.6,6.1,0c1.7-1.7,1.7-4.4,0-6.1
			C92.7,143.3,91.6,142.9,90.5,142.9"/>
		<path fill="#BF765E" d="M113.6,109.4c0.4,0.1,0.7,0.2,1.1,0.2c2,0,3.7-1.3,4.2-3.2c0.6-2.3-0.8-4.7-3.1-5.3
			c-0.4-0.1-0.7-0.1-1.1-0.1c-2,0-3.7,1.3-4.2,3.2C109.9,106.4,111.3,108.8,113.6,109.4"/>
		<path fill="#BF765E" d="M101.7,109.5c0.4,0,0.7-0.1,1.1-0.2c1.1-0.3,2.1-1,2.6-2c0.6-1,0.7-2.2,0.4-3.3c-0.5-1.9-2.2-3.2-4.2-3.2
			c-0.4,0-0.8,0-1.1,0.1c-2.3,0.6-3.7,3-3.1,5.3C98.1,108.2,99.8,109.5,101.7,109.5"/>
		<path fill="#BF765E" d="M93.5,114.7c0.8-0.8,1.3-1.9,1.3-3.1c0-1.2-0.4-2.2-1.3-3c-0.8-0.8-1.9-1.3-3-1.3c-1.1,0-2.2,0.4-3.1,1.3
			c-0.8,0.8-1.3,1.9-1.3,3c0,1.2,0.4,2.2,1.3,3.1C89.1,116.4,91.9,116.4,93.5,114.7"/>
		<path fill="#4D494D" d="M173.2,141.1l-21.5-51.4c-0.8-2.1-3.3-4.2-5.5-4.2H138V74.1c0-3.7-3-6.7-6.7-6.7h-2.1
			c-3.7,0-6.7,3-6.7,6.7v11.4H94.6V74.1c0-3.7-3-6.7-6.7-6.7h-2.1c-3.7,0-6.7,3-6.7,6.7v11.4h-8.9c-2.2,0-4.7,2.1-5.5,4.2L42.9,141
			c-0.8,2.1-0.8,5.5,0.1,7.6l10.4,20.5c0.9,2,3.4,4,5.6,4h98.3c2.2,0,4.8-1.9,5.7-4l10-20.4C173.9,146.8,174,143.1,173.2,141.1
			L173.2,141.1z M108.2,163.1c-18.6,0-33.7-15.1-33.7-33.7c0-18.6,15.1-33.7,33.7-33.7c18.6,0,33.7,15.1,33.7,33.7
			C141.9,148,126.8,163.1,108.2,163.1L108.2,163.1z M108.2,163.1"/>
		<path fill="#BF765E" d="M158.7,26.1l-10.6-1.3c0,0-16.3-3.2-54,11.5l-5.8,2.3C58.7,50.2,42,66.2,42,66.2l-7.7,8.7
			C24.8,85.7,35,93.6,35,93.6s2.2,2,5,4.5c2.8,2.5,7.4,1.9,10.3-1.3L66.2,79c2.9-3.3,3.7-7.2,1.8-8.8c-1.9-1.6-4-3.4-4.4-4.1
			c-0.4-0.7,3-4,6.4-6.7c5.1-4.1,12.8-10.2,21.2-13.4l6.9-2.7c0,0,21.3-7.8,33.1-3.7c0.2,0.1,0.4,0.3,0.5,0.3c0.2,0,0.4,0.2,0.3,0.6
			c0,0.2,0,0.4,0,0.6c0,1.5-0.1,3.1-0.3,4.4c-0.3,2.4,2.8,4.8,7.1,5.3l22.5,2.6c4.3,0.5,8.2-2.2,8.6-6l0.8-6.9
			C170.9,40.5,173,27.6,158.7,26.1"/>
	</g>
</g>
</svg>
