<?xml version="1.0" encoding="utf-8"?>
<!-- Generator: Adobe Illustrator 18.1.1, SVG Export Plug-In . SVG Version: 6.00 Build 0)  -->
<!DOCTYPE svg PUBLIC "-//W3C//DTD SVG 1.1//EN" "http://www.w3.org/Graphics/SVG/1.1/DTD/svg11.dtd">
<svg version="1.1" id="Layer_1" xmlns="http://www.w3.org/2000/svg" xmlns:xlink="http://www.w3.org/1999/xlink" x="0px" y="0px"
	 viewBox="0 0 360 360" style="enable-background:new 0 0 360 360;" xml:space="preserve">
<style type="text/css">
	.st0{fill:#C9E0D3;}
</style>
<g id="TyJfaS.tif">
	<g>
		<path class="st0" d="M177,261.1c-11.7-0.4-26.8,1-41.8-2.4c-32.9-7.5-52.1-27.7-57.3-61.8c-3.3-21.5-1.2-41.9,13.7-59.3
			c1.7-2,1.3-4.4,1.2-6.7c-0.5-13.6,1.9-26.8,6-39.8c1.5-4.9,4-5.6,8.6-4.4c14.8,4.2,28.1,11.2,40.9,19.4c2.8,1.8,5.4,2.5,8.8,1.9
			c15.5-2.6,31.2-2.9,46.7,0c3.7,0.7,6.4-0.4,9.3-2.2c12.3-7.7,25-14.6,39.2-18.5c7.8-2.2,8.2-2.1,10.6,5.7
			c3.8,12.5,6,25.3,5.3,38.4c-0.1,2.3-0.2,4.6,1.5,6.6c15.2,18.2,16.8,39.2,12.9,61.4c-3.3,19.1-11.4,35.5-27.6,47
			c-13.9,9.8-29.8,13.9-46.5,14.7C199.2,261.5,189.8,261.1,177,261.1z M179.5,249.9c12.2,0.1,24.3-0.4,36.4-2.2
			c27.8-4.1,40.7-19.6,39.1-46.5c-0.9-14.1-10.8-25.9-24.4-28.7c-6.9-1.4-13.9-1.5-20.9-1c-15.1,1.1-30.2,2.2-45.4,0.9
			c-8.3-0.7-16.6-1.3-24.9-1.1c-16.3,0.3-28.3,8.4-31.8,22.5c-5.3,21.3,1,44.3,27.8,51.7C149.9,249.5,164.7,249.7,179.5,249.9z"/>
		<path class="st0" d="M231.2,207.7c0.4,5.5-1,10.4-4,14.7c-6.1,8.9-16.9,8.6-22.6-0.5c-5.2-8.2-4.9-20.4,0.7-28.4
			c5.4-7.8,15.9-8,21.5-0.2C229.7,197.7,231.6,202.4,231.2,207.7z"/>
		<path class="st0" d="M129.7,209c-0.1-6.3,1.3-11.7,5-16.2c5.7-7.2,15.4-6.8,20.8,0.6c5.9,8.1,6.1,20.2,0.6,28.7
			c-6.1,9.2-16.9,9.2-22.8-0.2C130.9,217.8,129.5,213.4,129.7,209z"/>
	</g>
</g>
</svg>
