<?xml version="1.0" encoding="utf-8"?>
<!-- Generator: Adobe Illustrator 18.1.1, SVG Export Plug-In . SVG Version: 6.00 Build 0)  -->
<!DOCTYPE svg PUBLIC "-//W3C//DTD SVG 1.1//EN" "http://www.w3.org/Graphics/SVG/1.1/DTD/svg11.dtd">
<svg version="1.1" id="Layer_1" xmlns="http://www.w3.org/2000/svg" xmlns:xlink="http://www.w3.org/1999/xlink" x="0px" y="0px"
	 viewBox="140 -19.1 620 338.2" enable-background="new 140 -19.1 620 338.2" xml:space="preserve">
<g id="Layer_2" display="none">
	<path display="inline" fill="#AB988B" d="M462.1,30.5c1.5-4.1,3.5-7.7,4.1-11.4c0.8-4.8-2-8.3-6.4-9.9c-4-1.4-10.4,0.9-12.1,4.7
		c-1.4,3.1-2.7,6.8-2.7,10.1c0,12.8,1,25.7,0.8,38.5c-0.1,5.9-2,11.8-3.1,17.7c-0.5-0.1-1.1-0.2-1.6-0.3c-0.4-6.9-0.6-13.6-1.5-20.4
		c-1.3-10.4-3.4-20.6-4.6-31.1c-0.5-4.8-0.5-10,0.4-14.8c1.4-7.5,7.1-11.9,14.2-12.4c9.5-0.6,19.3,4.8,22.7,12.7
		c3.4,7.8,1.9,15.3-4.1,20.4c-3.6,3.2-8.2,4.4-12.3,1.9c-2.5-1.5-4.7-4.8-5.3-7.7c-0.5-2.1,1.2-5.3,2.8-7.3c0.6-0.8,4.4-0.6,5.3,0.4
		C460.1,23.7,460.6,26.4,462.1,30.5z"/>
	<path display="inline" fill="#AB988B" d="M487.1,123.5c3.1-0.9,6.4-1.4,9.3-2.8c4.4-2.2,6.6-7.8,5.1-11.7
		c-1.9-4.8-8.6-8.7-13.1-6.4c-5.8,2.9-11.1,6.9-16,11.1c-7.7,6.7-14.6,14.2-22.4,20.7c-3.9,3.3-9,5.3-13.8,8.1
		c12.3-14.6,23.9-28.6,35.7-42.5c0.7-0.8,1.5-1.5,2.3-2.3c9.2-8.5,19.7-9.3,26.7-2c8.4,8.5,8.7,22.7,0.7,31c-7.8,8.2-21,6-23.9-4.1
		c-1.2-4.2,2.3-10.7,6.6-11.2c2-0.2,5.2,0.7,5.9,2c0.8,1.7-0.2,4.4-0.9,6.7c-0.3,0.8-1.6,1.2-2.4,1.9
		C486.8,122.5,486.9,123,487.1,123.5z"/>
	<path display="inline" fill="#AB988B" d="M432.1,109.6c-2.7-1.6-5.7-2.8-7.9-4.8c-4.9-4.4-9.3-9.5-14.2-14
		c-6.8-6.1-15.6-6.1-21.3-0.7c-3.8,3.6-3.6,7,0.4,10.4c4.5,3.7,10.1,3.9,13.9,0.7c-1.8-1.4-3.6-2.8-5.4-4.3c1.2-1.5,2.7-4.4,3.7-4.4
		c2.5,0.3,5.4,1.4,7,3.3c2.7,3.1,2.1,7-0.2,10.4c-2.9,4.4-8.5,6.5-13.1,5.3c-7.1-2-11.9-8.9-11.9-17.2c0-7.8,4.7-14.1,12.7-16.6
		c8.2-2.6,16.3,0.3,22.4,8.3c2.7,3.6,4.5,7.7,6.9,11.4c2.4,3.6,5.1,7.1,7.7,10.6C432.6,108.8,432.4,109.2,432.1,109.6z"/>
	<path display="inline" fill="#231717" d="M438.4,66.4c0,7.4-3,12.9-7.8,14.5c-5.4,1.7-14.2-1.6-17.9-7.1
		c-4.5-6.9-6.8-14.5-5.5-22.9c1.4-9.3,10.9-13.7,18.9-8.7C433.1,46.6,438.3,57,438.4,66.4z M431.8,75.3c4.7-4.6,4.2-10.7,1.9-16.7
		c-2.6-6.5-6.3-12.2-13.7-13.9c-2.9-0.6-4.2,2.5-2.3,4c5,4.1,6.9,9,7.9,15.3C426.1,67.8,429.4,71.2,431.8,75.3z M413.1,48.8
		c-2.3,14,2.8,24.6,14,27.7c0-2.2,0.7-5.6-0.1-6c-5.3-2.6-4.6-6.9-4.6-11.4c0-1.4-1.6-2.9-2.8-4.1C417.5,52.8,415.4,50.9,413.1,48.8
		z"/>
	<path display="inline" fill="#231717" d="M447,90.4c-0.4-7.7,2.2-14.4,6.7-20.4c4-5.3,11.6-7.7,17.1-5.6c6.8,2.6,10,9.5,6.7,17.8
		c-2.3,6-6.1,11.6-10.1,16.6c-3.5,4.4-8.7,7.7-14.5,5.3C447.1,101.6,446.6,95.8,447,90.4z M463.3,81.2c1.7-4.7,3.2-9,4.9-13.9
		c-9.9,0.4-13.8,6.2-16.5,13c-2.2,5.9-3.1,12.1,1.1,18.2c1.8-3.8,2.8-7.2,4.8-10C459.4,85.8,457.8,80,463.3,81.2z M456.8,100
		c9.7-3,17.7-14.2,17-24.3c-0.2-2.3-1.6-4.4-2.1-5.9c-2.4,4.7-4.6,9.1-6.8,13.4C462,88.8,455.9,92.7,456.8,100z"/>
	<path display="inline" fill="#231717" d="M431.9,136.7c0,1.1,0.1,2.1,0,3.2c-1.2,10.1-9.7,14.5-18.1,8.9
		c-8.5-5.6-13.5-13.5-13.3-24.2c0.1-5.3,1.8-10,6.9-12.4c5.7-2.7,10.9-0.9,15.3,3C429,121,431.9,128.2,431.9,136.7z M407.5,115.2
		c-1.4,3.6-3,6.3-3.4,9.2c-1,7.6,2.5,13.9,7.4,19.2c2,2.1,5,3.3,7.7,4.4c0.5,0.3,2-1.6,2.9-2.5c-3.8-2.1-3.5-6.2-4.8-9.7
		C414.8,129.4,411.4,123.3,407.5,115.2z M411.1,115.1c5.1,10.9,9.9,21.2,15,32c4.7-7.3,3.5-14.2-0.1-20.6
		C422.8,120.9,418.6,116,411.1,115.1z"/>
	<path display="inline" fill="#4F3938" d="M431.8,75.3c-2.3-4.1-5.6-7.5-6.2-11.2c-0.9-6.3-2.9-11.2-7.9-15.3c-2-1.6-0.7-4.7,2.3-4
		c7.3,1.6,11.1,7.4,13.7,13.9C435.9,64.6,436.4,70.7,431.8,75.3z"/>
	<path display="inline" fill="#4F3938" d="M413.1,48.8c2.3,2.2,4.4,4,6.4,6.1c1.2,1.2,2.8,2.8,2.8,4.1c0.1,4.5-0.5,8.9,4.6,11.4
		c0.8,0.4,0.1,3.7,0.1,6C415.7,73.3,410.8,62.7,413.1,48.8z"/>
	<path display="inline" fill="#4F3938" d="M463.3,81.2c-5.4-1.2-3.8,4.6-5.7,7.2c-2,2.8-3,6.2-4.8,10c-4.2-6.1-3.3-12.3-1.1-18.2
		c2.6-6.9,6.6-12.6,16.5-13C466.5,72.2,465,76.4,463.3,81.2z"/>
	<path display="inline" fill="#4F3938" d="M456.8,100c-0.9-7.3,5.3-11.2,8-16.7c2.1-4.4,4.4-8.6,6.8-13.4c0.5,1.4,2,3.6,2.1,5.9
		C474.5,85.9,466.5,97,456.8,100z"/>
	<path display="inline" fill="#4F3938" d="M407.5,115.2c3.9,8,7.4,14.2,9.9,20.6c1.3,3.5,1,7.6,4.8,9.7c-1,0.9-2.4,2.8-2.9,2.5
		c-2.8-1.2-5.8-2.3-7.7-4.4c-4.9-5.3-8.4-11.7-7.4-19.2C404.4,121.6,406,118.9,407.5,115.2z"/>
	<path display="inline" fill="#4F3938" d="M411.1,115.1c7.5,0.9,11.7,5.8,14.9,11.5c3.6,6.4,4.8,13.3,0.1,20.6
		C421,136.3,416.2,125.9,411.1,115.1z"/>
	<path display="inline" fill="#A97C50" d="M390,180.7c0,0,2.3,2.6,2.3,4.4c0,1.8,1.7,8.5,1.7,8.5s3.4,2.1,4.8,2.6
		c1.4,0.4,18.2,6.3,37.4,4.9c19.2-1.4,43.2-8.5,43.5-10c0.4-1.4,3.7-5.3,2.8-15.5C443.1,189.2,394.4,182.7,390,180.7z"/>
	<path display="inline" fill="#4D494D" d="M489,242.1c2.7,2,5.1,3.3,6.3,5.3c0.5,0.9-1.2,4.7-2,4.8c-2.4,0.1-6.2-0.3-7.1-1.8
		c-1.2-2.3-1.8-6.7-0.4-8.6c3.2-4.3,8.1-5.5,13.3-2.9c5,2.5,7,6.3,5.3,11.7c-2,6.6-6.7,10.1-13.5,10.6c-8,0.6-12.6-2.4-17.6-12.4
		c-0.9,8.2-1.7,15-2.4,21.7c-0.5,5-0.8,10-1.6,15c-0.8,5-3.2,9.9-8.5,10.2c-13.1,1-26.2,1.7-39.2,1.1c-9.3-0.4-13.3-7.8-15-16.2
		c-8.5-40-16.9-80.2-25.3-120.2c-0.4-1.5-0.7-3.1-0.8-4.6c-0.3-4.4,0.8-5.7,6-4.7c14.5,2.6,29.1,5.3,43.7,5.7
		c20.6,0.7,40.5-3.9,61-14.6c-1.1,9.4-2,17.3-3,25.5c5.4-8,12.1-13.9,22.2-15.3c11.4-1.6,24,4.4,29.7,15c5.4,10.1,4.4,21.3-4.9,29.8
		c-6.8,6.2-15.2,10.6-22.7,16.1c-9.5,6.9-19.4,13.5-27.9,21.5c-8.5,7.9-7.2,17.5,1.2,22.3c4.4,2.5,8.5,1.2,10.9-2.3
		c1.9-2.8,3.2-7.4,2.1-10.2C497,239.4,492.7,238.9,489,242.1z M477.9,195.9c-27.8,7.9-54.6,9.6-81,4.3c2.3,14.7,4.4,28.7,6.8,42.7
		c2.1,12.7,4.4,25.5,6.9,38c1.5,7.4,6.2,12.1,14,12.8c7,0.6,14.1,1.5,21.1,1.2c13.6-0.6,18.3-4.2,20.5-14.5
		c0.9-4.2,1.3-8.5,1.8-12.8c1.9-16.3,3.4-32.5,5.4-48.8C474.5,211.5,476.3,204.3,477.9,195.9z M485.3,149.9
		c-3.6,1.3-7.1,2.8-10.7,4.1c-25,8.4-50.5,8.1-76.2,3.9c-5-0.8-9.3-1.1-11,4.5c-1.8,5.5,2,13,7.3,14.3c24.8,6.2,49.7,8,74.6,0.3
		C484,172.4,487.4,166.2,485.3,149.9z M516.7,185.6c-3-0.4-6.1-0.4-8.5-1.6c-1-0.5-1.3-4.6-0.4-5.9c1.3-1.9,4.1-3.6,6.4-3.7
		c6-0.4,10.1,6,8.5,12c-1.5,5.8-7.9,11.1-14,11.4c-12.1,0.4-18.8-6.6-23.7-17.2c-3.6,18.1-7.4,36.1-11,54.3
		c6.8-5.3,12.3-10.3,18.3-14.4c6-4,12.7-7,19-10.8c11-6.6,19.8-15.1,23-28.3c2-8.5-0.4-16.9-6.5-21.4c-7.1-5.3-15.7-5.9-22.2-1.4
		c-6.9,4.6-10.5,13.8-8.5,22.2c1.3,5.8,4.9,10.1,10.9,10.9C512.5,192.3,515.7,189.4,516.7,185.6z M390,180.7c3.9,6,1,13.5,8.8,15.5
		c24.1,6.1,48.1,5.8,71.9-1.6c10.5-3.3,12.5-6.9,11.7-19C452.8,187.6,422.4,187.6,390,180.7z"/>
	<path display="inline" fill="#726072" d="M477.9,195.9c-1.6,8.5-3.5,15.7-4.4,23c-2,16.2-3.6,32.5-5.4,48.8
		c-0.4,4.3-0.9,8.5-1.8,12.8c-2.1,10.3-6.9,13.9-20.5,14.5c-7,0.3-14.1-0.5-21.1-1.2c-7.7-0.7-12.5-5.4-14-12.8
		c-2.6-12.6-4.8-25.4-6.9-38c-2.4-14.1-4.4-28.1-6.8-42.7C423.2,205.4,450.2,203.8,477.9,195.9z"/>
	<path display="inline" fill="#726072" d="M485.3,149.9c2.1,16.4-1.2,22.5-16,27.1c-24.8,7.7-49.7,6-74.6-0.3
		c-5.3-1.3-9-8.8-7.3-14.3c1.8-5.6,6.1-5.3,11-4.5c25.6,4.3,51.2,4.4,76.2-3.9C478.2,152.7,481.7,151.3,485.3,149.9z"/>
</g>
<g id="Layer_3" display="none">
	<g id="b0vuy2.tif" display="inline">
		<g>
			<path fill="#4D494D" d="M502.3,272.6c-1.9,0-3.7,0-5.6,0c-2.6-0.4-5.3-0.5-7.8-1.1c-9.6-2-17.4-6.7-22.9-15
				c-3.4-5.1-5.6-10.6-7.5-16.4c-0.6-2-1.4-3.8-2.6-5.4c-0.7-1-1.6-1.8-2.9-1.8c-1.5,0-3,0-4.5,0c-1.2,0-2,0.6-2.7,1.6
				c-1.2,2-1.8,4.1-2.3,6.2c-1.7,7.2-5.3,13.4-9.7,19.3c-4.6,6.1-10.5,10.3-18.1,12.1c-2.1,0.4-4.3,0.7-6.4,1.1
				c-3.8,0-7.7,0.1-11.5,0.1c-5-0.7-10-1.6-14.7-3.7c-4.4-2-8.4-4.8-10.5-9.4c-3.2-6.9-6-13.9-7.8-21.2c-0.8-3.2-2.2-5.9-4.5-8.1
				c-1.6-1.6-3.1-3.4-3.5-5.7c0-3.1-0.1-6.2-0.1-9.3c5-1,10.1-2,15-3c6.1-1.3,12.3-2.4,18.5-3.1c3.7,0,7.5-0.1,11.2-0.1
				c0.3,0.1,0.5,0.2,0.7,0.2c10.2,0.7,20.4,2.1,30.3,4.4c9.2,2,18.4,2.4,27.8,1.2c7-1,14-2.4,20.9-3.7c5.7-1.2,11.4-2,17.2-2.7
				c3.8,0,7.7-0.1,11.5-0.1c3.8,0.5,7.7,1,11.5,1.5c6.3,0.9,12.5,3,18.8,4.1c1.3,0.2,2.3,1.1,3,2.2c0,3.2,0.1,6.4,0.1,9.6
				c-0.4,0.9-1,1.6-1.8,2c-1.9,1.2-3,2.9-3.8,5c-1.8,4.7-2.8,9.6-4.1,14.5c-2.8,11.2-9.6,18.8-20.6,22.6
				C509.5,271.6,505.9,272.1,502.3,272.6z M497,215.5c-10.4,0-18.9,1.5-26.7,5.4c-5.8,2.9-7.8,7.4-6.5,13.8
				c1.2,5.9,3.8,11.1,6.8,16.3c3.9,6.9,9.8,11.6,17.4,13.8c7.8,2.2,15.7,1.9,23.4-0.3c6.4-1.8,10.9-5.9,13.3-12.1
				c0.8-2,1.4-4.1,2-6.2c1.7-5.9,2.8-11.7,2.5-17.9c-0.2-3.3-1.5-6-4.3-7.8c-2.3-1.5-4.8-2.3-7.5-2.9
				C510.2,216.1,502.7,215.6,497,215.5z M402.6,267.1c0.9-0.1,1.7-0.1,2.5-0.2c0.8-0.1,1.5-0.2,2.3-0.3c9.3-1.1,17.1-5.1,22.5-13
				c3.1-4.6,5.3-9.9,7-15.1c0.6-1.8,1-3.7,1.2-5.6c0.5-5-1.8-9-6.9-11.6c-6.7-3.3-13.9-4.7-21.3-5.1c-5.4-0.3-10.9,0.2-16.3,0.8
				c-4.6,0.5-9.3,1.2-13.6,2.8c-5.4,2-7.9,5.4-7.8,11.2c0.1,8.3,2.1,16.2,5.5,23.8c2.4,5.4,6.8,8.9,12.5,10.6
				C394.3,266.5,398.5,266.8,402.6,267.1z"/>
		</g>
	</g>
</g>
<g id="Layer_3_copy" display="none">
	<g id="b0vuy2.tif_2_" display="inline">
		<g>
			<path fill="#BF765E" d="M503.8,230.1c-1.8,0.6-3.5,1.2-5.3,1.9c-2.6,0.5-5.2,1.2-7.7,1.5c-9.7,1.2-18.6-0.5-26.5-6.6
				c-4.8-3.6-8.8-8.2-12.4-13c-1.2-1.6-2.6-3.1-4.3-4.3c-1-0.7-2.1-1.2-3.4-0.8c-1.4,0.4-2.8,1-4.3,1.4c-1.2,0.4-1.7,1.2-2,2.4
				c-0.4,2.2-0.4,4.4-0.2,6.7c0.8,7.4-0.5,14.4-2.8,21.4c-2.4,7.2-6.6,13.3-13.1,17.4c-1.9,1.2-3.8,2.1-5.7,3.1
				c-3.6,1.2-7.2,2.6-10.9,3.8c-5,1-10,1.7-15,1.2c-4.9-0.4-9.4-1.8-13-5.4c-5.3-5.3-10.2-11.1-14.4-17.4c-1.8-2.8-4-4.8-6.9-6.1
				c-2-1-4-2.1-5.2-4.3c-1.1-2.9-2-5.9-3.1-8.8c4.4-2.6,8.9-5.2,13.3-7.8c5.3-3.3,10.8-6.3,16.4-9.1c3.5-1.2,7-2.5,10.5-3.7
				c0.3,0,0.5,0,0.8-0.1c9.9-2.7,19.9-4.6,30.1-5.9c9.3-1.2,18.2-3.7,26.6-8c6.3-3.2,12.4-6.9,18.5-10.4c5-2.9,10.1-5.6,15.3-8.2
				c3.6-1.2,7.2-2.6,10.9-3.8c3.8-0.8,7.6-1.6,11.4-2.4c6.3-1.2,12.7-1.2,19-2.3c1.3-0.3,2.6,0.3,3.6,1.2c1.1,3,2.1,6.1,3.2,9.1
				c-0.1,1-0.4,1.8-1,2.6c-1.4,1.7-2,3.7-2,6c-0.1,5.1,0.4,10.1,0.9,15c1,11.5-2.8,20.9-12,28.1C510.2,226.8,507,228.4,503.8,230.1z
				 M479.9,178c-9.9,3.5-17.3,7.6-23.4,13.9c-4.5,4.6-5,9.5-1.6,15.1c3,5.2,7.3,9.3,11.7,13.2c6,5.3,13.1,7.7,21,7.2
				c8.1-0.4,15.4-3.4,22.1-7.9c5.5-3.7,8.3-9.2,8.5-15.8c0.1-2.1,0-4.4-0.1-6.5c-0.4-6.1-1.2-12-3.6-17.7c-1.2-3.1-3.4-5.2-6.7-6
				c-2.7-0.7-5.3-0.6-8-0.3C492.5,174.2,485.4,176.2,479.9,178z M407.8,257.7c0.9-0.4,1.6-0.6,2.3-1c0.7-0.3,1.4-0.6,2.1-1
				c8.5-4.1,14.5-10.4,16.9-19.7c1.4-5.4,1.7-11,1.7-16.6c0-2-0.3-3.8-0.7-5.7c-1.1-4.9-4.6-7.9-10.3-8.7c-7.4-1-14.7,0.1-21.8,2.2
				c-5.3,1.5-10.2,3.7-15.1,6.1c-4.2,2-8.4,4.1-12,7.1c-4.4,3.7-5.7,7.7-3.7,13.1c2.8,7.8,7.4,14.6,13,20.6c4.1,4.4,9.3,6.2,15.3,6
				C399.7,260,403.8,258.8,407.8,257.7z"/>
		</g>
	</g>
</g>
<g id="Layer_5" display="none">
	<g display="inline">
		<path fill="#F9F7F7" stroke="#BF765E" stroke-width="9.3838" stroke-miterlimit="10" d="M438.5,270.5L353.4,259V146.2l74.2,9.6
			c12.8,1.7,22.3,12.5,22.3,25.5v79.1C450,266.5,444.6,271.3,438.5,270.5z"/>
		<path fill="#F9F7F7" stroke="#BF765E" stroke-width="9.3838" stroke-miterlimit="10" d="M546.6,259l-83.8,11.3
			c-6.8,0.9-12.7-4.4-12.7-11.1v-80.5c0-11.4,8.5-21.1,19.8-22.5l76.8-10V259z"/>
		<line fill="none" stroke="#4D494D" stroke-width="14.0757" stroke-miterlimit="10" x1="360.7" y1="281.9" x2="543.4" y2="281.9"/>
		<path fill="none" stroke="#232323" stroke-width="3.5189" stroke-miterlimit="10" d="M362.9,167.1c0,0,7.3,17.3,14.6,15.1
			c7.3-2,11.5-13.1,19.3-8.9c7.8,4.2,9.9,13.5,17.2,12.5c7.3-1,13.5-12.5,18.2-8.9s3.6,11.5,7.3,12.5"/>
		<path fill="none" stroke="#232323" stroke-width="3.5189" stroke-miterlimit="10" d="M362.9,187.4c0,0,7.3,17.3,14.6,15.1
			c7.3-2,11.5-13.1,19.3-8.9c7.8,4.2,9.9,13.5,17.3,12.5c7.3-1.1,13.5-12.5,18.2-8.9s3.6,11.5,7.3,12.5"/>
		<path fill="none" stroke="#232323" stroke-width="3.5189" stroke-miterlimit="10" d="M362.9,208.3c0,0,7.3,17.3,14.6,15.1
			c7.3-2,11.5-13.1,19.3-8.9c7.8,4.2,9.9,13.5,17.3,12.5s13.5-12.5,18.2-8.9c4.7,3.6,3.6,11.5,7.3,12.5"/>
		<path fill="none" stroke="#232323" stroke-width="3.5189" stroke-miterlimit="10" d="M362.9,229.2c0,0,7.3,17.3,14.6,15.1
			c7.3-2.1,11.5-13.1,19.3-8.9c7.8,4.2,9.9,13.5,17.3,12.5s13.5-12.5,18.2-8.9s3.6,11.5,7.3,12.5"/>
		<g id="WLW0cS.tif_1_">
			<g>
				<path fill="#232323" d="M537.7,170.1c-0.7,1.2-1.6,2-2.8,2.8c-1,0.6-1.9,1.2-2.8,2c-0.6,0.4-1,0.4-1.4-0.3
					c-2.9-4.4-6-8.7-9-13.1c-0.4-0.7-0.9-1.4-1.4-2c-0.4-0.4-0.3-0.7,0.2-1.1c1.3-0.9,2.7-1.8,4-2.8c0.8-0.5,1.7-0.7,2.6-0.9
					c0.9,0.2,1.8,0.4,2.7,0.5c1.2,0.6,2,1.6,2.7,2.7c1.3,2,2.8,4,4.2,6.1c0.8,1.1,1.4,2.1,1.6,3.5
					C538.1,168.3,537.9,169.2,537.7,170.1z"/>
				<path fill="#232323" d="M465.1,209c0.2-1.3,0.8-2.6,1.2-3.9c1.2-3.6,2.5-7.2,3.7-10.9c0.1-0.3,0.2-0.7,0.4-0.7
					c0.4-0.1,0.4,0.4,0.6,0.6c3.4,4.9,6.8,9.7,10.1,14.6c0.2,0.3,0.5,0.5,0.4,0.8c-0.2,0.3-0.5,0.1-0.8,0.1
					c-4.7-0.2-9.3-0.3-14.1-0.4c-0.1,0-0.3,0-0.4,0C465.9,209,465.5,209,465.1,209z"/>
				<path fill="#232323" d="M519.6,162.6c0,0.3-0.2,0.4-0.3,0.4c-0.2,0.2-0.4,0.3-0.6,0.4c-13.7,9.4-27.4,19-41.1,28.4
					c-1,0.6-0.9,0.6-0.3,1.6c0.1,0.2,0.3,0.4,0.4,0.5c0.3,0.6,0.6,0.5,1.2,0.2c2.9-2,5.9-4.1,8.8-6.1c10.9-7.6,21.8-15,32.7-22.6
					c1-0.6,1-0.6,1.6,0.3c2.3,3.4,4.6,6.8,7,10.1c0.4,0.5,0.4,0.9-0.2,1.2c-14.8,10.1-29.5,20.4-44.2,30.5c-0.6,0.4-0.9,0.4-1.3-0.3
					c-3.5-5-6.9-10-10.3-15c-0.4-0.5-0.4-0.9,0.2-1.2c14.8-10.1,29.5-20.4,44.2-30.6c0.5-0.4,0.9-0.4,1.2,0.2
					c0.3,0.4,0.5,0.8,0.9,1.2C519.5,162.3,519.5,162.5,519.6,162.6z"/>
			</g>
		</g>
	</g>
</g>
<g id="Layer_6" display="none">
	<g display="inline">
		<path fill="#4D494D" d="M492.1,50.3l-8.4-4.4c0,0-12.5-7.9-48.5-7.9h-5.5c-28.4,0-47.3,7.9-47.3,7.9l-9.2,4.7
			c-11.3,5.9-5.4,15.8-5.4,15.8s1.2,2.4,2.7,5.3c1.5,3,5.5,4,9,2.2l19-9.6c3.5-1.8,5.3-4.7,4.3-6.8c-1.1-2-2.1-4.1-2.3-4.8
			c-0.1-0.7,3.8-2.3,7.5-3.5c5.6-1.8,13.9-4.3,21.9-4.3h6.7c0,0,20.2,0.4,28.7,7.7c0.1,0.1,0.3,0.4,0.4,0.4c0.2,0.1,0.3,0.4,0.1,0.5
			c-0.1,0.1-0.1,0.4-0.2,0.5c-0.5,1.2-1.1,2.5-1.7,3.6c-1.1,1.9,0.8,4.9,4.2,6.7l17.9,9.4c3.4,1.8,7.5,0.8,9.1-2.1l2.8-5.4
			C497.5,66.1,503.5,56.2,492.1,50.3"/>
		<path fill="#4D494D" d="M432.9,100.2c-8.3,0-15,6.7-15,15s6.7,15,15,15c8.3,0,15-6.7,15-15S441.2,100.2,432.9,100.2"/>
		<path fill="#4D494D" d="M410.4,113c0.4,0.1,0.6,0.2,1,0.2c1.8,0,3.3-1.2,3.7-2.8c0.5-2-0.7-4.2-2.8-4.7c-0.4-0.1-0.7-0.2-1-0.2
			c-1.7,0-3.3,1.2-3.7,2.8c-0.3,1-0.1,2,0.4,2.9C408.5,112.1,409.4,112.8,410.4,113"/>
		<path fill="#4D494D" d="M414.7,122.8c0.5-0.9,0.6-2,0.4-2.9c-0.4-1.7-2-2.8-3.7-2.8c-0.4,0-0.6,0-1,0.2c-2,0.5-3.3,2.7-2.8,4.7
			c0.4,1.7,2,2.8,3.7,2.8c0.4,0,0.7-0.1,1-0.2C413.3,124.3,414.2,123.7,414.7,122.8"/>
		<path fill="#4D494D" d="M428.2,133c-0.4-0.1-0.6-0.2-1-0.2c-1.8,0-3.3,1.2-3.7,2.8c-0.3,1-0.1,2,0.4,2.9c0.5,0.9,1.3,1.5,2.3,1.8
			c2,0.5,4.2-0.7,4.7-2.7c0.3-1,0.2-2-0.4-2.9C430,133.9,429.2,133.3,428.2,133"/>
		<path fill="#4D494D" d="M417.2,127.1c-1,0-2,0.4-2.8,1.2c-1.5,1.5-1.5,3.9,0,5.4c1.4,1.4,4,1.4,5.4,0c1.5-1.5,1.5-3.9,0-5.4
			C419.1,127.5,418.1,127.1,417.2,127.1"/>
		<path fill="#4D494D" d="M437.7,97.3c0.4,0.1,0.6,0.2,1,0.2c1.8,0,3.3-1.2,3.7-2.8c0.5-2-0.7-4.2-2.8-4.7c-0.4-0.1-0.6-0.1-1-0.1
			c-1.8,0-3.3,1.2-3.7,2.8C434.5,94.6,435.7,96.7,437.7,97.3"/>
		<path fill="#4D494D" d="M451.2,107.4c-0.5,0.9-0.6,2-0.4,2.9c0.4,1.7,2,2.8,3.7,2.8c0.4,0,0.7-0.1,1-0.2c1-0.3,1.9-0.9,2.3-1.8
			c0.5-0.9,0.6-2,0.4-2.9c-0.4-1.7-2-2.8-3.7-2.8c-0.4,0-0.7,0.1-1,0.2C452.6,105.9,451.7,106.5,451.2,107.4"/>
		<path fill="#4D494D" d="M427.1,97.4c0.4,0,0.6-0.1,1-0.2c1-0.3,1.9-0.9,2.3-1.8c0.5-0.9,0.6-2,0.4-2.9c-0.4-1.7-2-2.8-3.7-2.8
			c-0.4,0-0.7,0-1,0.1c-2,0.5-3.3,2.7-2.8,4.7C423.9,96.2,425.4,97.4,427.1,97.4"/>
		<path fill="#4D494D" d="M419.8,102.1c0.7-0.7,1.2-1.7,1.2-2.8s-0.4-2-1.2-2.7c-0.7-0.7-1.7-1.2-2.7-1.2c-1,0-2,0.4-2.8,1.2
			c-0.7,0.7-1.2,1.7-1.2,2.7c0,1.1,0.4,2,1.2,2.8C415.9,103.5,418.4,103.5,419.8,102.1"/>
		<path fill="#4D494D" d="M455.5,117.2c-0.4-0.1-0.6-0.2-1-0.2c-1.8,0-3.3,1.2-3.7,2.8c-0.3,1-0.1,2,0.4,2.9
			c0.5,0.9,1.3,1.5,2.3,1.8c0.4,0.1,0.7,0.2,1,0.2c1.7,0,3.3-1.2,3.7-2.8C458.8,119.9,457.6,117.7,455.5,117.2"/>
		<path fill="#4D494D" d="M452.6,99.3c0-1-0.4-2-1.2-2.7c-0.7-0.7-1.7-1.2-2.8-1.2c-1.1,0-2,0.4-2.8,1.2c-1.5,1.5-1.5,3.9,0,5.4
			c0.7,0.7,1.7,1.1,2.8,1.1c1.1,0,2-0.4,2.8-1.2C452.2,101.4,452.6,100.4,452.6,99.3"/>
		<path fill="#4D494D" d="M490.8,125.5l-19.1-45.7c-0.7-1.9-2.9-3.7-4.9-3.7h-7.2V65.9c0-3.3-2.7-6-6-6h-1.9c-3.3,0-6,2.7-6,6V76
			h-24.8V65.9c0-3.3-2.7-6-6-6h-1.9c-3.3,0-6,2.7-6,6V76h-7.9c-2,0-4.2,1.9-4.9,3.7l-19.4,45.7c-0.7,1.9-0.7,4.9,0.1,6.8l9.3,18.2
			c0.8,1.8,3,3.6,5,3.6h87.5c2,0,4.3-1.7,5.1-3.6l8.9-18.2C491.4,130.6,491.5,127.4,490.8,125.5L490.8,125.5z M432.9,145.1
			c-16.6,0-30-13.4-30-30s13.4-30,30-30s30,13.4,30,30C462.9,131.6,449.5,145.1,432.9,145.1L432.9,145.1z"/>
	</g>
</g>
<g id="Layer_7" display="none">
	<g display="inline">
		<path fill="#4D494D" d="M432.8,100.2c-8.3,0-15,6.7-15,15s6.7,15,15,15c8.3,0,15-6.7,15-15C447.8,107,441.1,100.2,432.8,100.2"/>
		<path fill="#BF765E" d="M410.3,113.1c0.4,0.1,0.6,0.2,1,0.2c1.8,0,3.3-1.2,3.7-2.8c0.5-2-0.7-4.2-2.8-4.7c-0.4-0.1-0.7-0.2-1-0.2
			c-1.7,0-3.3,1.2-3.7,2.8c-0.3,1-0.1,2,0.4,2.9C408.4,112.2,409.2,112.8,410.3,113.1"/>
		<path fill="#BF765E" d="M414.6,122.9c0.5-0.9,0.6-2,0.4-2.9c-0.4-1.7-2-2.8-3.7-2.8c-0.4,0-0.6,0-1,0.2c-2,0.5-3.3,2.7-2.8,4.7
			c0.4,1.7,2,2.8,3.7,2.8c0.4,0,0.7-0.1,1-0.2C413.2,124.4,414,123.8,414.6,122.9"/>
		<path fill="#BF765E" d="M428,133c-0.4-0.1-0.6-0.2-1-0.2c-1.8,0-3.3,1.2-3.7,2.8c-0.3,1-0.1,2,0.4,2.9c0.5,0.9,1.3,1.5,2.3,1.8
			c2,0.5,4.2-0.7,4.7-2.7c0.3-1,0.2-2-0.4-2.9C429.9,133.9,429,133.3,428,133"/>
		<path fill="#BF765E" d="M417.1,127.2c-1,0-2,0.4-2.8,1.2c-1.5,1.5-1.5,3.9,0,5.4c1.4,1.4,4,1.4,5.4,0c1.5-1.5,1.5-3.9,0-5.4
			C419,127.5,418.1,127.2,417.1,127.2"/>
		<path fill="#BF765E" d="M437.6,97.4c0.4,0.1,0.6,0.2,1,0.2c1.8,0,3.3-1.2,3.7-2.8c0.5-2-0.7-4.2-2.8-4.7c-0.4-0.1-0.6-0.1-1-0.1
			c-1.8,0-3.3,1.2-3.7,2.8C434.3,94.7,435.6,96.8,437.6,97.4"/>
		<path fill="#BF765E" d="M427,97.4c0.4,0,0.6-0.1,1-0.2c1-0.3,1.9-0.9,2.3-1.8c0.5-0.9,0.6-2,0.4-2.9c-0.4-1.7-2-2.8-3.7-2.8
			c-0.4,0-0.7,0-1,0.1c-2,0.5-3.3,2.7-2.8,4.7C423.8,96.3,425.3,97.4,427,97.4"/>
		<path fill="#BF765E" d="M419.7,102.1c0.7-0.7,1.2-1.7,1.2-2.8s-0.4-2-1.2-2.7c-0.7-0.7-1.7-1.2-2.7-1.2c-1,0-2,0.4-2.8,1.2
			c-0.7,0.7-1.2,1.7-1.2,2.7c0,1.1,0.4,2,1.2,2.8C415.8,103.6,418.3,103.6,419.7,102.1"/>
		<path fill="#4D494D" d="M490.7,125.6l-19.1-45.7c-0.7-1.9-2.9-3.7-4.9-3.7h-7.3V65.9c0-3.3-2.7-6-6-6h-1.9c-3.3,0-6,2.7-6,6v10.1
			h-24.8V65.9c0-3.3-2.7-6-6-6h-1.9c-3.3,0-6,2.7-6,6v10.1H399c-2,0-4.2,1.9-4.9,3.7l-19.4,45.7c-0.7,1.9-0.7,4.9,0.1,6.8l9.3,18.2
			c0.8,1.8,3,3.6,5,3.6h87.5c2,0,4.3-1.7,5.1-3.6l8.9-18.2C491.3,130.6,491.4,127.4,490.7,125.6L490.7,125.6z M432.8,145.1
			c-16.6,0-30-13.4-30-30s13.4-30,30-30s30,13.4,30,30S449.4,145.1,432.8,145.1L432.8,145.1z"/>
		<path fill="#BF765E" d="M477.8,23.2l-9.4-1.2c0,0-14.5-2.8-48.1,10.2l-5.2,2c-26.3,10.3-41.2,24.6-41.2,24.6l-6.9,7.7
			c-8.5,9.6,0.6,16.6,0.6,16.6s2,1.8,4.4,4c2.5,2.2,6.6,1.7,9.2-1.2l14.2-15.8c2.6-2.9,3.3-6.4,1.6-7.8c-1.7-1.4-3.6-3-3.9-3.6
			c-0.4-0.6,2.7-3.6,5.7-6c4.5-3.6,11.4-9.1,18.9-11.9l6.1-2.4c0,0,19-6.9,29.5-3.3c0.2,0.1,0.4,0.3,0.4,0.3c0.2,0,0.4,0.2,0.3,0.5
			c0,0.2,0,0.4,0,0.5c0,1.3-0.1,2.8-0.3,3.9c-0.3,2.1,2.5,4.3,6.3,4.7l20,2.3c3.8,0.4,7.3-2,7.7-5.3l0.7-6.1
			C488.6,36,490.5,24.6,477.8,23.2"/>
	</g>
</g>
<g>
	<g>
		<path fill="#BF765E" d="M269.9,278.1l-36-111.7v82.9c0.2,3,1.3,4.5,3.3,4.5c1,0,1.7,0,2.1,0c0.4,0,0.9,0,1.4,0c0.7,0,1.1,0,1.3,0
			c2.9,0,5.3,1.5,7.3,4.5c2,3,3,6.7,3,11.1c0,5.6-1.5,10.1-4.5,13.8c-3,3.6-6.8,5.4-11.4,5.4c-2,0-4.8-0.3-8.3-0.8
			c-3.5-0.5-6.7-0.8-9.6-0.8c-2,0-5.1,0.3-9.3,0.8c-4.2,0.5-7.3,0.8-9.3,0.8c-4.5,0-8.3-1.8-11.4-5.4c-3-3.6-4.5-8.2-4.5-13.8
			c0-4.4,1-8.1,3-11.1c2-3,4.4-4.5,7.1-4.5c0.2,0,0.6,0,1.3,0c0.7,0,1.2,0,1.6,0c0.4,0,1.1,0,1.9,0c2.4,0,3.5-1.5,3.5-4.5V158
			c0-3-1.2-4.5-3.5-4.5c-0.5,0-1.3,0-2.4,0c-1.1,0-1.9,0-2.4,0c-2.9,0-5.3-1.5-7.2-4.5c-1.9-3-2.9-6.7-2.9-11.1
			c0-5.6,1.5-10.1,4.5-13.8c3-3.6,6.9-5.4,11.6-5.4c2.4,0,6,0.3,10.9,0.9c4.9,0.6,8.5,0.9,10.9,0.9c3.7,0,7.6-0.3,11.6-0.8
			c5.4-0.7,8.7-1,9.9-1c5.4,0,9,2.9,10.9,8.8L286,238.6v-77c0-3.9-0.3-6.3-0.9-7.3c-0.6-1-1.6-1.5-2.9-1.5h-1.3
			c-0.7,0.5-1.3,0.8-2,0.8c-3.2,0-5.8-1.5-7.7-4.4c-1.9-2.9-2.9-6.6-2.9-11c0-13,4.9-19.5,14.6-19.5c1.3,0,3.4,0.2,6.1,0.5
			c6.6,0.8,11,1.3,13.4,1.3c3.4,0,6.5-0.3,9.3-0.8c3.7-0.7,6.8-1,9.3-1c3.9,0,7.1,1.8,9.6,5.4c2.5,3.6,3.8,8.1,3.8,13.6
			c0,4.4-0.9,8.2-2.7,11.3c-1.8,3.1-4,4.6-6.7,4.6h-2.8c-2.2,0-3.5,0.9-3.8,2.8c-0.2,0.7-0.3,2.6-0.3,5.8v111.3c0,6-1,10.1-3,12.2
			c-2,2.1-5.7,3.1-11.1,3.1h-19.9c-4.4,0-7.5-0.7-9.4-2.1C272.9,285.1,271.3,282.3,269.9,278.1z"/>
		<path fill="#BF765E" d="M401.4,158v5.2v86c0.2,3,1.3,4.5,3.3,4.5c1,0,1.7,0,2.1,0c0.4,0,0.9,0,1.4,0c0.7,0,1.1,0,1.3,0
			c2.9,0,5.3,1.5,7.3,4.5c2,3,3,6.7,3,11.1c0,5.6-1.5,10.1-4.5,13.8c-3,3.6-6.8,5.4-11.4,5.4c-2.4,0-6-0.3-10.9-0.8
			c-4.9-0.5-8.5-0.8-10.9-0.8c-4.4,0-8.1,0.2-11.1,0.5l-6.6,0.8c-1.9,0.2-3.2,0.3-4,0.3c-4.4,0-8.1-1.9-11.1-5.6
			c-3-3.7-4.5-8.2-4.5-13.6c0-4.4,1-8.1,3-11.1c2-3,4.4-4.5,7.1-4.5c0.2,0,0.6,0,1.3,0c0.7,0,1.2,0,1.6,0c0.4,0,1.1,0,1.9,0
			c2.4,0,3.5-1.5,3.5-4.5V158c0-3-1.2-4.5-3.5-4.5c-0.8,0-1.5,0-2,0c-0.3,0-0.8,0-1.5,0c-0.7,0-1.1,0-1.3,0c-2.9,0-5.3-1.5-7.2-4.5
			c-1.9-3-2.9-6.7-2.9-11.1c0-5.6,1.5-10.1,4.5-13.8c3-3.6,6.9-5.4,11.6-5.4c2.4,0,5.9,0.3,10.6,0.9c4.7,0.6,8.2,0.9,10.6,0.9
			c2.4,0,5.9-0.3,10.7-0.9c4.8-0.6,8.4-0.9,10.7-0.9c4.7,0,8.6,1.8,11.6,5.4c3,3.6,4.5,8.2,4.5,13.8c0,4.4-1,8.1-3,11.1
			c-2,3-4.4,4.5-7.1,4.5c-0.5,0-1.3,0-2.4,0c-1.1,0-1.9,0-2.4,0C402.7,153.5,401.5,155,401.4,158z"/>
		<path fill="#BF765E" d="M484.7,159.1l10.9,28.8l11.9-28.8c1-2.5,1.5-4.1,1.5-4.8c0-1-0.3-1.9-1-2.5l-4-3
			c-2.5-1.9-3.8-5.7-3.8-11.6c0-5.6,1.2-10,3.7-13.4c2.4-3.4,5.6-5.1,9.5-5.1c2,0,5.1,0.3,9.1,0.9c4,0.6,7.2,0.9,9.3,0.9
			c3.4,0,7.7-0.4,12.9-1.3c2-0.3,4.6-0.5,7.8-0.5c10.8,0,16.2,6.4,16.2,19.2c0,10.4-3.4,15.5-10.1,15.2h-5.8l-4.3,2.5l-2.3,4.8
			L519.5,213c-3.4,6.7-5.1,13.7-5.1,20.9v11.8l0.5,4.5c0.3,2.7,0.6,4.3,0.9,4.8c0.3,0.5,1.1,0.8,2.4,0.8c0.8,0,2-0.2,3.5-0.6
			c1.5-0.4,2.7-0.6,3.5-0.6c8.1,0,12.1,5.4,12.1,16.3c0,11.9-5.1,17.8-15.4,17.8c-1.9,0-6.1-0.3-12.6-1c-3.4-0.3-9-0.5-16.9-0.5
			c-4.7,0-7.9,0.1-9.6,0.2l-12.1,1.1c-0.3,0.1-0.9,0.2-1.8,0.2c-4.5,0-8.3-1.7-11.1-5.2c-2.9-3.5-4.3-7.9-4.3-13.3
			c0-10.4,4-15.7,12.1-15.7c0.8,0,2,0.2,3.5,0.6c1.5,0.4,2.7,0.6,3.5,0.6c2.2,0,3.4-1.9,3.5-5.6v-6.3v-8.1c0-8.2-1.3-15-4-20.2
			l-2.8-5.3l-24.9-51.3c-2-4-3.8-6.1-5.3-6.1h-5.3c-7.4,0-11.1-5.1-11.1-15.4c0-12.6,5.3-18.9,15.9-18.9c1.7,0,4,0.2,6.8,0.5
			c7.1,0.8,11.7,1.3,13.9,1.3c2.2,0,5.5-0.3,9.9-0.9c4.4-0.6,7.7-0.9,9.8-0.9c8.4,0,12.6,5.8,12.6,17.4c0,6.1-1.3,10.1-3.8,12.1
			l-4,3.3c-0.8,0.5-1.3,1.3-1.3,2.5C482.9,154.4,483.5,156.1,484.7,159.1z"/>
		<path fill="#BF765E" d="M655.4,251.1l-2.5-15h-33.1l-2.3,13.3c-0.5,3-0.8,4.3-0.8,3.9c0,2,0.9,3,2.8,3c0.5,0,0.9,0,1.3,0
			c0.3,0,0.8,0,1.5,0c0.5,0,0.8,0,1,0c2.4,0,4.4,1.5,6.1,4.5c1.7,3,2.5,6.6,2.5,10.6c0,4.9-1.4,9-4.3,12.2
			c-2.9,3.3-6.5,4.9-10.9,4.9c-2.4,0-5.9-0.3-10.7-0.8c-4.8-0.5-8.4-0.8-10.7-0.8c-3.5,0-7.3,0.3-11.2,0.8s-7,0.8-9.2,0.8
			c-4.5,0-8.4-1.7-11.5-5c-3.1-3.3-4.7-7.5-4.7-12.7c0-4.5,1-8.2,2.9-11.3c1.9-3.1,4.3-4.6,7.2-4.6c0.7,0,1.7,0,3,0c1.3,0,2.4,0,3,0
			c1.5,0,2.9-2.4,4.3-7.1l32.6-120c1.7-6.2,6.1-9.3,13.4-9.3h12.4l12.4,0.3c6.7,0.2,10.9,3.2,12.4,9.1L694,248.2
			c1.2,4.5,2.4,6.8,3.8,6.8c0.7,0,1.6,0,2.9,0c1.3,0,2.2,0,2.9,0c6.9,0,10.4,5,10.4,14.9c0,5.6-1.5,10.2-4.5,13.6
			c-3,3.4-7,5.1-11.9,5.1c-2.4,0-5.8-0.3-10.2-0.8c-4.5-0.5-7.9-0.8-10.2-0.8c-2.4,0-5.8,0.3-10.5,0.8c-4.6,0.5-8.1,0.8-10.5,0.8
			c-10.4,0-15.7-6-15.7-18.1c0-9.5,2.8-14.3,8.3-14.3h3.3c2.4,0,3.5-1.2,3.5-3.5C655.6,252,655.6,251.4,655.4,251.1z M625.6,205
			h21.5l-10.9-54.3L625.6,205z"/>
	</g>
	<g>
		<path fill="#4D494D" d="M204.5,68.7V56.6V33.7c0-7.1-2.4-10.7-7.3-10.7c-1.2,0-2.2,0.1-2.9,0.4c-1.5,0.4-2.8,0.6-3.7,0.6
			c-1.2,0-2.3-0.5-3.1-1.4c-0.9-0.9-1.3-2.1-1.3-3.5c0-3.5,2-5.2,6-5.2c0.5,0,1.2,0.1,2.2,0.1l9.9,1c3.7,0.4,7.9,0.6,12.5,0.6
			c2.5,0,7.9-0.1,16.1-0.4l16.6-0.6c2.2-0.1,4.8-0.2,7.8-0.4c1.3-0.2,2.8-0.3,4.3-0.3c5.1,0,7.6,2.3,7.6,6.8c0,1.7-0.2,4.4-0.7,7.9
			c-0.5,3.6-0.7,6.2-0.7,8.1c0,1.5,0.1,3.5,0.3,5.8c0.2,2.3,0.3,4.4,0.3,6.3c0,3.9-1.7,5.9-5.2,5.9c-3.6,0-5.3-2.2-5.3-6.7
			c0-1.3,0.1-3.4,0.2-6.2c0.1-2.8,0.2-4.8,0.2-6.2c0-5.1-1.4-8.3-4.3-9.6c-2.9-1.3-9.7-2-20.5-2c-9.1,0-14.3,0.8-15.6,2.4
			c-1,1.2-1.4,5.7-1.4,13.3v10.7c0,2.7,0.4,4.3,1.1,5c0.7,0.6,2.7,0.9,6,0.9h4.8c6.2,0,9.4-2.3,9.4-6.9c0-1.1-0.1-2.5-0.4-4.3
			c-0.2-1.8-0.4-3.2-0.4-4.2c0-3.6,1.7-5.5,5.2-5.5c3.3,0,4.9,2.1,4.9,6.3c0,0.6-0.1,1.7-0.3,3.5l-1,7.8c-0.4,3.5-0.7,6-0.7,7.8
			c0,3.9,0.5,8.9,1.5,15c0.3,2,0.5,3.9,0.5,5.8c0,3.7-1.7,5.6-5.2,5.6c-3.3,0-4.9-2-4.9-6c0-1,0.1-2.4,0.2-4.3
			c0.1-1.9,0.2-3.4,0.2-4.3c0-3-0.8-4.9-2.4-5.8c-1.1-0.7-3.3-1-6.6-1h-4.5c-3.4,0-5.4,0.4-6.2,1.1c-0.8,0.8-1.2,2.9-1.2,6.3v17
			c0,4.5,0.5,7.5,1.5,9.1c1,1.6,2.9,2.4,5.7,2.4c0.7,0,1.7,0,3.2,0c1.4,0,2.5,0,3.2,0c4.4,0,6.6,1.6,6.6,4.9c0,1.3-0.5,2.5-1.5,3.5
			c-1,1-2.2,1.4-3.7,1.4c-1.5,0-3.8-0.2-6.8-0.7c-4.2-0.7-9-1-14.4-1c-3.5,0-7.2,0.3-11.1,0.9l-4.9,0.7c-0.3,0-0.6,0-1,0.1
			c-0.4,0-0.7,0-0.9,0c-4.2,0-6.3-1.7-6.3-5.2c0-3.1,1.5-4.6,4.5-4.6c0.4,0,1.6,0.1,3.7,0.3c1.1,0.3,2.1,0.4,3,0.4
			c2.6,0,4.4-0.8,5.4-2.4c1-1.6,1.6-4.4,1.7-8.4V68.7z"/>
		<path fill="#4D494D" d="M322.3,113.8c-12.8,0-22.9-4.6-30.3-13.8c-7.4-9.2-11.2-21.7-11.2-37.4c0-15.9,3.7-28.4,11.2-37.5
			c7.5-9.1,17.8-13.6,31-13.6c12.6,0,22.6,4.4,30,13.3c7.4,8.8,11.2,20.8,11.2,35.9c0,16.3-3.8,29.3-11.3,38.9
			C345.4,109,335.2,113.8,322.3,113.8z M322.6,21.7c-9.2,0-16.4,3.6-21.5,10.7c-5.1,7.1-7.6,17.1-7.6,30c0,13.1,2.5,23.2,7.6,30.3
			c5.1,7.2,12.2,10.7,21.3,10.7c8.9,0,16-3.7,21.2-11.2c5.2-7.4,7.8-17.5,7.8-30.3c0-12.9-2.5-22.8-7.5-29.7
			C339.1,25.2,331.9,21.7,322.6,21.7z"/>
		<path fill="#4D494D" d="M402.4,36.7v9.2l-0.9,11.7v22.2c0,6.7,0.7,11.6,2.2,14.7c1.5,3.1,4.3,5.5,8.4,7.2
			c3.8,1.6,7.8,2.4,11.8,2.4c5.3,0,9.8-1,13.5-3c3.7-2,6.2-4.7,7.3-8.1c1.1-3.4,1.7-7.8,1.8-13v-37c0-7.3-0.1-11.4-0.3-12.4
			c-0.8-4.9-3.3-7.3-7.2-7.3c-0.7,0-1.6,0.1-2.8,0.2c-1.8,0.2-3.1,0.3-3.8,0.3c-1.2,0-2.3-0.5-3.2-1.4c-0.9-0.9-1.3-2-1.3-3.3
			c0-3.4,2.1-5.1,6.3-5.1c0.7,0,1.3,0.1,2,0.1l8.5,1.2c2.1,0.3,4.5,0.4,7.2,0.4c2.6,0,4.8-0.1,6.5-0.4l6.2-0.9
			c1.7-0.3,2.9-0.4,3.5-0.4c4,0,6,1.6,6,4.9c0,3.3-2,4.9-5.9,4.9h-1.6c-0.3,0-0.8,0-1.4,0c-2.9,0-4.7,1.4-5.3,4.3
			c-0.7,2.9-1,10.2-1,22.1v25.1c0,6.2-0.2,10.7-0.6,13.5c-0.8,4.8-2.4,8.9-4.9,12.5c-5.8,8.3-15.5,12.5-29.2,12.5
			c-16.9,0-27.8-5.5-32.7-16.5c-1.5-3.3-2.3-8.6-2.3-15.6c0-3.4,0.1-8.5,0.4-15.3c0.3-6.7,0.4-11.8,0.4-15.3v-7.6
			c0-7,0-10.9-0.1-11.8c-0.7-5.3-2.5-7.9-5.6-7.9c-0.2,0-0.5,0-1,0c-0.5,0-0.9,0-1.3,0c-0.4,0-1,0-1.9,0c-4,0-6-1.6-6-4.9
			c0-3.3,1.8-4.9,5.5-4.9c1.5,0,3.2,0.1,4.9,0.4c4.7,0.8,9.1,1.2,13.1,1.2c4.1,0,8.9-0.4,14.3-1.3c1.2-0.2,2.4-0.3,3.7-0.3
			c3.9,0,5.9,1.6,5.9,4.9c0,3.3-1.7,4.9-5,4.9c-0.8,0-1.9-0.1-3.5-0.4c-1.5-0.2-2.7-0.4-3.5-0.4c-3.1,0-5.1,1.6-6.2,4.9
			C402.8,29.4,402.5,32.3,402.4,36.7z"/>
		<path fill="#4D494D" d="M520.4,20.4l38.7,80.5v-58c0-7.5,0-11.6-0.1-12.4c-0.9-5-3.3-7.5-7.2-7.5c-0.8,0-1.9,0.1-3.5,0.4
			c-1.5,0.2-2.7,0.4-3.5,0.4c-1.2,0-2.3-0.5-3.2-1.4c-0.9-0.9-1.4-2-1.4-3.2c0-3.5,2.2-5.2,6.5-5.2c0.9,0,1.5,0.1,1.9,0.1l6.5,0.9
			c2.9,0.4,5.6,0.6,8.1,0.6s5.8-0.3,9.9-0.8c1.4-0.2,3.1-0.4,5-0.7c0.2,0,0.5,0,1-0.1c0.4,0,0.7,0,1,0c4.1,0,6.2,1.7,6.2,5
			c0,3.2-2,4.8-5.9,4.8c-0.7,0-1.2,0-1.6,0h-1.5c-2.9,0-4.8,0.6-5.7,1.9c-0.9,1.2-1.4,4-1.6,8.2V42v14.7v38.4
			c0,6.6-0.7,11.3-2.2,13.9c-1.5,2.7-4.1,4-7.7,4c-4.7,0-8.7-3.4-12-10.1l-37.9-78.5v67c0,7.2,2.4,10.8,7.3,10.8
			c0.8,0,1.9-0.1,3.5-0.2c1.5-0.1,2.7-0.2,3.5-0.2c3.1,0,4.6,1.5,4.6,4.6c0,3.3-2.2,4.9-6.5,4.9c-0.2,0-0.5,0-0.9,0
			c-0.5-0.1-0.8-0.1-1-0.1l-5.9-0.9c-3.3-0.5-6.3-0.7-9.2-0.7c-2.5,0-5.7,0.2-9.6,0.7l-7.1,0.9c-0.2,0-0.5,0-1,0.1
			c-0.5,0-0.9,0-1.2,0c-4.1,0-6.2-1.7-6.2-5c0-3,1.5-4.5,4.6-4.5c0.5,0,1.8,0.1,3.9,0.3c1.1,0.3,2.1,0.4,3,0.4
			c4.9,0,7.3-3.6,7.3-10.8V81.7V69V56.6V33.8c0-7.2-2.5-10.8-7.4-10.8c-0.7,0-1.6,0.1-2.9,0.3c-1.8,0.3-3.1,0.4-4,0.4
			c-3,0-4.6-1.6-4.6-4.8c0-3.4,2.1-5,6.2-5c0.6,0,1.3,0.1,2.3,0.1c4.8,0.5,8.5,0.7,11.1,0.7c1.4,0,3.6-0.1,6.5-0.4
			c2.9-0.3,5-0.4,6.5-0.4c3,0,4.9,1,5.9,3L520.4,20.4z"/>
		<path fill="#4D494D" d="M612.2,33.7c0-7.2-2.5-10.8-7.3-10.8c-0.9,0-1.9,0.1-3,0.3c-1.7,0.3-3,0.4-3.9,0.4c-3,0-4.5-1.5-4.5-4.6
			c0-3.4,2.2-5,6.5-5c0.5,0,1.1,0.1,1.9,0.1l7.6,1c2.9,0.4,6,0.6,9.2,0.6c2.7,0,5.4-0.1,8.1-0.4l9.4-1c1.8-0.2,4.2-0.3,7.2-0.3
			c8.7,0,16,1.2,21.9,3.7c7.7,3.3,13.8,8.9,18.2,17c4.5,8.1,6.7,17.4,6.7,28.1c0,9.4-1.8,17.9-5.3,25.4c-3.6,7.5-8.4,13.1-14.5,16.6
			c-7.4,4.3-16.3,6.5-26.8,6.5c-2.1,0-4.3-0.1-6.5-0.3l-9.9-0.9c-3.4-0.3-6.9-0.4-10.5-0.4c-3.2,0-5.8,0.1-7.8,0.4l-6.9,1
			c-0.2,0-0.5,0-1,0.1c-0.5,0-0.9,0-1.2,0c-4.1,0-6.2-1.7-6.2-5c0-1.3,0.4-2.5,1.3-3.4c0.9-0.9,1.9-1.4,3.2-1.4
			c1.1,0,2.4,0.1,3.9,0.4c0.7,0.2,1.7,0.3,3,0.3c4.9,0,7.3-3.6,7.3-10.8V33.7z M624.3,32.2v60.7c0,4.4,2.2,7.1,6.5,8
			c1.4,0.4,5.5,0.6,12.1,0.6c11.5,0,19.9-3.1,25.1-9.3c6.2-7.5,9.4-17.3,9.4-29.6c0-9.6-1.9-17.7-5.7-24.3
			c-3.8-6.6-9-10.9-15.6-12.8c-4.2-1.2-9.3-1.9-15.3-1.9c-7.6,0-12.2,0.4-13.9,1.3C625.2,25.8,624.3,28.2,624.3,32.2z"/>
	</g>
</g>
</svg>
