<?xml version="1.0" encoding="utf-8"?>
<!-- Generator: Adobe Illustrator 18.1.1, SVG Export Plug-In . SVG Version: 6.00 Build 0)  -->
<!DOCTYPE svg PUBLIC "-//W3C//DTD SVG 1.1//EN" "http://www.w3.org/Graphics/SVG/1.1/DTD/svg11.dtd">
<svg version="1.1" id="Layer_1" xmlns="http://www.w3.org/2000/svg" xmlns:xlink="http://www.w3.org/1999/xlink" x="0px" y="0px"
	 viewBox="0 0 360 360" style="enable-background:new 0 0 360 360;" xml:space="preserve">
<style type="text/css">
	.st0{fill:#C9E0D3;}
</style>
<g id="t417fV.tif_3_">
	<g>
		<path class="st0" d="M74.4,100.8c70.4,0,140.7,0,211.1,0c0.5,0.3,1.4,0.1,1.6,0.7c0.1,0.7-0.7,1-1.2,1.4c-9.4,8-18.7,16.1-28.1,24
			c-19.1,16.2-37.8,32.9-57.3,48.5c-6.4,5.1-12.7,10.4-19.1,15.6c-1.3,1.1-1.3,1.1-2.6,0c-1.2-1-2.4-2-3.6-2.9
			c-8.9-7.2-17.8-14.3-26.6-21.7c-8.5-7-16.7-14.3-25.1-21.4c-16.5-14.1-33-28.2-49.5-42.4C72.6,101.5,72.6,101.4,74.4,100.8z"/>
		<path class="st0" d="M285.3,259.2c-70.2,0-140.4,0-210.6,0c-0.2-0.1-0.4-0.1-0.5-0.2c-1.1-0.4-1.2-0.5-0.3-1.4
			c0.1-0.1,0.2-0.2,0.3-0.3c13.6-13,27.2-26.1,40.8-39.1c11.3-10.8,22.6-21.7,34-32.6c1.3-1.3,1-1.5,2.7-0.1c9,7.3,18,14.6,27,21.9
			c1.5,1.2,1.5,1.2,3,0c9-7.3,18.1-14.7,27.1-22c1.2-1,1.2-1,2.4,0.1c2,1.9,3.9,3.8,5.9,5.6c13.5,12.9,27,25.9,40.5,38.8
			c9.4,9.1,18.9,18.1,28.3,27.2c0.4,0.4,1.3,0.8,1.1,1.4C286.7,259.1,285.8,258.9,285.3,259.2z"/>
		<path class="st0" d="M62.7,113.5c0.1-0.7,0.3-1.3,0.4-2c0.1-0.9,0.5-1,1.1-0.4c3.5,3,6.9,5.9,10.4,8.9
			c21.2,18.1,42.4,36.2,63.6,54.4c2.1,1.8,2.1,1.8,0.1,3.7c-14,13.4-27.9,26.9-41.9,40.3c-10.6,10.2-21.2,20.4-31.9,30.6
			c-1,0.9-1.1,0.9-1.4-0.4c-0.2-0.6-0.3-1.2-0.4-1.8C62.7,202.3,62.7,157.9,62.7,113.5z"/>
		<path class="st0" d="M297.3,180c0,21.6,0,43.2,0,64.8c0,1.3-0.1,2.6-0.4,3.8c-0.3,1.1-0.4,1.2-1.2,0.4c-4.3-4.2-8.7-8.4-13-12.5
			c-13-12.5-26.1-25.1-39.1-37.6c-7.5-7.2-15-14.4-22.5-21.6c-1.1-1.1-1.1-1.1,0.1-2.1c13.6-11.7,27.2-23.3,40.8-35
			c11-9.5,22-18.9,33.1-28.3c0.5-0.4,1-1.3,1.6-1c0.6,0.2,0.5,1.2,0.6,1.8c0.2,0.8,0.1,1.6,0.1,2.5
			C297.3,136.7,297.3,158.4,297.3,180z"/>
	</g>
</g>
</svg>
