<?xml version="1.0" encoding="utf-8"?>
<!-- Generator: Adobe Illustrator 19.2.1, SVG Export Plug-In . SVG Version: 6.00 Build 0)  -->
<!DOCTYPE svg PUBLIC "-//W3C//DTD SVG 1.1//EN" "http://www.w3.org/Graphics/SVG/1.1/DTD/svg11.dtd">
<svg version="1.1" id="Layer_1" xmlns="http://www.w3.org/2000/svg" xmlns:xlink="http://www.w3.org/1999/xlink" x="0px" y="0px"
	 viewBox="0 0 231.5 212" style="enable-background:new 0 0 231.5 212;" xml:space="preserve">
<style type="text/css">
	.st0{fill:#815F82;}
	.st1{fill:#BF765E;}
	.st2{fill:#F7941E;}
	.st3{font-family:'BigBoss';}
	.st4{font-size:68px;}
</style>
<g>
	<g>
		<g>
			<path class="st0" d="M216.5,169.3c-0.5-10.2,0.8-20.4,2-30.5c1.3-10.8,1.4-21.3,1-32.1c-0.2-5.4-0.3-10.7-0.4-16.1
				c0-2.7,0-5.4-0.2-8.1c-0.1-0.9-0.2-1.9-0.3-2.8c-5.9,0.1-11.7,0.3-17.6,0.7c-15.5,0.9-30.9,2.4-46.4,2.5
				c-15.6,0.2-31.1-0.3-46.7-1.4c-15.6-1.1-31-2.7-46.6-2.9c-15.4-0.1-30.8,0.3-46.2,0.3c0,38.5-0.7,77-0.7,115.5
				c12,1.3,24.1,2.3,36.2,2.9c31.5,1.7,63.1,1.8,94.7,1.6c15.7-0.1,31.4-0.3,47.1-0.3c4.8,0,9.6,0.8,14.4,1.3
				c3.2,0.3,7.8,1.1,11.2,0c-0.3-1.2,0.1-2.6,1.2-3.2c-0.1-4.2-0.3-8.4-0.7-12.5C217.8,179.2,216.8,174.3,216.5,169.3z M210.3,191.1
				c-2.3,0-4.6,0.1-7,0.2c-7.1,0.3-14.2,0.8-21.4,1c-7.5,0.2-15.1,0-22.6-0.2c-7.8-0.2-15.6-0.7-23.4-0.7c-7.7,0-15.4-1.1-23.2-1
				c-7.8,0.1-15.6,0.6-23.3,0.6H65.2c-7.8,0-15.5-0.2-23.3-0.5c-3.8-0.2-7.6-0.1-11.4-0.1c-1,0-2-0.1-3-0.2
				c-0.4-0.1-0.7-0.1-1.1-0.2c-1.1,0.5-2.5,0.4-3.4-0.8c-0.1-0.2-0.2-0.4-0.3-0.6c-1.4-1-1.4-3.6,0.2-4.5c0.1-0.4,0.2-0.8,0.3-1.3
				c0.2-1.1,0.2-2.3,0.3-3.4c0.1-2.7,0-5.4-0.1-8c-0.3-7.6,0-15.2,0.2-22.8c0.3-10,0.1-19.9,0.6-29.9c0.2-4.8,0.7-9.5,0.8-14.3
				c0.1-2.4,0-4.7-0.1-7c-0.1-1.6-0.5-3.2-0.6-4.8c0-0.1,0-0.2,0-0.4v-0.3c0-1.5,1-2.4,2.1-2.7c0.4-0.3,0.9-0.5,1.6-0.5h48.2
				c15.4,0,30.7,0,46,1.5c15.4,1.5,30.8,2.1,46.3,2.1c6.4,0,12.7,0.3,19.1,0.6c4.2,0.2,8.8,0.6,13.1-0.2c0.4-0.6,1-1.1,2-1.1h1.6
				c1.6-0.9,4.4,0.3,4.2,2.8c-0.1,2,0.3,3.9,0.5,5.9c0.2,2,0.1,4,0.3,6c0.3,3.8,1.2,7.5,1.1,11.3c-0.1,3.7,0.4,7.2,0.7,10.9
				c0.4,3.8,0.4,7.7,0.3,11.5c-0.2,7.9-0.7,15.8-0.5,23.8c0.2,7.8,1.4,15.5,1.4,23.3c0,0.1,0,0.1,0,0.2
				C213.1,189,212.4,191.1,210.3,191.1z"/>
		</g>
	</g>
	<g>
		<g>
			<path class="st1" d="M124.4,12.2c-2.2-0.8-5.1-1.6-7.3-0.6c-2,0.9-3.2,2.5-2.9,4.7c0.2,1.1-0.3,1.9-1,2.4
				c0.5,3.5,1.8,7.2,5.6,8.1c3.6,0.9,9.6,0.2,11-3.9C131.3,18.5,128.5,13.8,124.4,12.2z"/>
		</g>
	</g>
	<g>
		<g>
			<path class="st2" d="M205.6,163.5c-0.1-8.2,0.5-16.4,0.5-24.7c0-4.1-0.1-8.1-0.6-12.2c-0.5-3.7-0.2-7.3-0.4-11
				c-0.2-3.8-1.2-7.6-1.2-11.4c0-2.2-0.3-4.3-0.5-6.5c-4,1-8.3,1-12.4,0.8c-6.1-0.2-12.2-0.7-18.3-0.7c-7.7,0-15.5,0-23.2-0.3
				c-15.3-0.5-30.5-2.8-45.8-3.3c-15.4-0.5-30.9-0.1-46.4-0.1H29.8c0.2,1.3,0.4,2.5,0.5,3.8c0.1,2.6,0,5.2,0,7.8
				c-0.1,5.4-0.7,10.8-0.9,16.3C29,133,29,144,28.7,154.9c-0.2,7.1,0.1,14,0.1,21.1c0,2.1,0.3,5.9-0.5,8.9c0.2,0,0.4,0.1,0.6,0.1
				c2.7,0.4,6.7,0,9.8,0.1c3.6,0.1,7.1,0.4,10.7,0.5c8,0.3,16,0.1,24,0.1c8,0,16,0.2,24-0.1c7.8-0.3,15.5-0.7,23.2-0.3
				c15.5,0.9,31,1.4,46.6,1.6c13.2,0.2,26.4-1,39.6-1.2c0-0.1,0.1-0.1,0.1-0.2C206.8,178.2,205.7,170.9,205.6,163.5z"/>
		</g>
	</g>
	<g>
		<g>
			<path d="M212.4,187.4c0-0.1,0-0.1,0-0.2c-0.1-7.8-1.2-15.5-1.4-23.3c-0.2-7.9,0.3-15.8,0.5-23.8c0.1-3.8,0.1-7.7-0.3-11.5
				c-0.4-3.7-0.8-7.2-0.7-10.9c0.1-3.8-0.8-7.5-1.1-11.3c-0.2-2-0.1-4-0.3-6c-0.2-2-0.7-3.9-0.5-5.9c0.2-2.5-2.6-3.7-4.2-2.8h-1.6
				c-1,0-1.7,0.5-2,1.1c-4.3,0.8-8.9,0.4-13.1,0.2c-6.4-0.3-12.7-0.6-19.1-0.6c-15.5,0-30.9-0.6-46.3-2.1c-15.4-1.5-30.6-1.5-46-1.5
				H27.9c-0.7,0-1.2,0.2-1.6,0.5c-1.1,0.3-2.1,1.2-2.1,2.7v0.3c0,0.1,0,0.3,0,0.4c0.1,1.6,0.6,3.2,0.6,4.8c0.1,2.3,0.1,4.7,0.1,7
				c-0.1,4.8-0.6,9.5-0.8,14.3c-0.5,9.9-0.3,19.9-0.6,29.9c-0.2,7.6-0.5,15.2-0.2,22.8c0.1,2.7,0.2,5.4,0.1,8c0,1.1-0.1,2.3-0.3,3.4
				c-0.1,0.4-0.2,0.8-0.3,1.3c-1.6,1-1.6,3.5-0.2,4.5c0.1,0.2,0.2,0.4,0.3,0.6c0.9,1.2,2.3,1.3,3.4,0.8c0.4,0,0.7,0.1,1.1,0.2
				c1,0.1,2,0.2,3,0.2c3.8,0,7.6,0,11.4,0.1c7.8,0.4,15.5,0.5,23.3,0.5h24.2c7.8,0,15.6-0.5,23.3-0.6c7.7-0.1,15.4,0.9,23.2,1
				c7.8,0,15.6,0.5,23.4,0.7c7.5,0.2,15,0.4,22.6,0.2c7.1-0.2,14.2-0.7,21.4-1c2.3-0.1,4.6-0.2,7-0.2
				C212.4,191.1,213.1,189,212.4,187.4z M206.9,185.8c-13.2,0.2-26.4,1.4-39.6,1.2c-15.5-0.3-31.1-0.8-46.6-1.6
				c-7.8-0.4-15.5,0-23.2,0.3c-8,0.3-16,0.1-24,0.1c-8,0-16,0.2-24-0.1c-3.6-0.1-7.1-0.4-10.7-0.5c-3.2-0.1-7.1,0.3-9.8-0.1
				c-0.2,0-0.4-0.1-0.6-0.1c0.8-3,0.5-6.9,0.5-8.9c-0.1-7-0.3-14-0.1-21.1c0.2-11,0.3-21.9,0.6-32.9c0.2-5.4,0.8-10.8,0.9-16.3
				c0.1-2.6,0.2-5.2,0-7.8c-0.1-1.3-0.3-2.5-0.5-3.8h27.5c15.4,0,30.9-0.4,46.4,0.1c15.3,0.5,30.5,2.8,45.8,3.3
				c7.7,0.2,15.5,0.3,23.2,0.3c6.1,0,12.2,0.5,18.3,0.7c4.1,0.1,8.4,0.2,12.4-0.8c0.2,2.2,0.5,4.3,0.5,6.5c0,3.9,1,7.6,1.2,11.4
				c0.2,3.7,0,7.3,0.4,11c0.5,4.1,0.6,8.1,0.6,12.2c-0.1,8.2-0.6,16.4-0.5,24.7c0.1,7.4,1.2,14.8,1.4,22.1
				C207,185.7,207,185.7,206.9,185.8z"/>
		</g>
	</g>
	<g>
		<g>
			<path d="M221.9,169.8c-0.8-10.6,0.8-21.3,2-31.8c1.2-10.3,1.3-20.5,0.9-30.8c-0.2-5.4-0.4-10.7-0.4-16.1c0-2.7,0-5.4-0.2-8.1
				c-0.1-2.1-0.5-4.2-0.5-6.3c0-1.8-1.5-2.5-2.9-2.3c0,0,0,0,0,0c-9.5,0-19,0.7-28.5,1.3c-0.1-0.3-0.2-0.6-0.4-0.9
				c-0.2-0.4-0.5-0.7-0.8-1c-9.2-10.5-20-19.1-30.2-28.7c-5.5-5.2-10.4-10.9-14.4-17.4c-1.6-2.6-3.1-5.1-5.1-7.4
				c-2.1-2.4-4.4-4.4-6.8-6.5c-0.4-0.3-0.8-0.5-1.2-0.6c-2.1-3.2-5.5-5.6-9.4-6.8c-3.7-1.1-7.1-0.9-10.5,0.9c-1.9,1-3.3,2.7-4.1,4.6
				c-0.5,0.2-1,0.6-1.3,1.4c-1.1,2.8-3.6,5-5.9,6.8c-2.7,2.2-5.6,4.3-8.5,6.4C86.5,31.9,79.5,37,72.9,43.1
				c-6.6,6.1-13.1,12.3-20,18.1c-2.7,2.3-5.4,4.4-8.3,6.4c-1.9,1.2-4.5,2.6-5.6,4.6c-0.2,0.4-0.3,0.8-0.3,1.1c-1.4,0-2.9,0-4.3,0.1
				c-6.9,0.1-13.8,0.2-20.7,0.2c-1.7,0-2.4,1.3-2.4,2.6c-0.9,0.4-1.5,1.3-1.5,2.5c0,39.5-0.7,79-0.7,118.5c0,1.9,1.6,2.6,3.1,2.3
				c0.2,0,0.3,0.1,0.5,0.1c31.3,3.4,62.7,4.5,94.2,4.7c15.8,0.1,31.5,0,47.3-0.1c7.9-0.1,15.7-0.1,23.6-0.2c6.5,0,13-0.4,19.5,0.2
				c4.6,0.5,9.1,1.1,13.7,1.3c3.9,0.2,8.3,0.2,11.7-2c0.8-0.5,1.1-1.2,1.2-1.9c0.5-0.5,0.7-1.3,0.7-2c0-5-0.2-10.1-0.7-15.1
				C223.3,179.6,222.3,174.7,221.9,169.8z M114.2,16.4c-0.4-2.2,0.8-3.8,2.9-4.7c2.2-1,5.1-0.2,7.3,0.6c4.2,1.6,6.9,6.2,5.4,10.6
				c-1.4,4.1-7.4,4.8-11,3.9c-3.9-0.9-5.1-4.6-5.6-8.1C113.9,18.3,114.4,17.5,114.2,16.4z M49.4,70.8c3.3-2.2,6.2-4.9,9.2-7.5
				c6.7-5.8,13.1-11.9,19.6-17.9c6.7-6.1,14.2-11,21.4-16.5c2.8-2.1,6.1-4.2,8.8-6.8c1.4,5,4.5,9.1,10.5,10.2
				c6.9,1.3,14.9-2.2,16.3-9.5c0.1-0.3,0.1-0.7,0.2-1c0.7,0.7,1.4,1.3,2,2.1c2.1,2.3,3.5,5.1,5.1,7.7c3.9,6.3,8.8,11.9,14.2,17
				c9.7,9.3,20.3,17.5,29.3,27.5c-3.7,0.3-7.5,0.5-11.3,0.8c-15.6,0.9-31.3,0.9-46.9,0.4c-15.6-0.6-31.1-2.4-46.6-3.3
				c-11.8-0.7-23.7-0.8-35.5-0.7C46.9,72.5,48.2,71.7,49.4,70.8z M216.5,169.3c0.3,5,1.3,9.9,1.8,14.9c0.4,4.2,0.7,8.3,0.7,12.5
				c-1.1,0.6-1.5,2-1.2,3.2c-3.4,1.1-8,0.3-11.2,0c-4.8-0.5-9.6-1.3-14.4-1.3c-15.7,0-31.4,0.2-47.1,0.3
				c-31.6,0.2-63.1,0.2-94.7-1.6c-12.1-0.7-24.2-1.6-36.2-2.9c0-38.5,0.7-77,0.7-115.5c15.4,0,30.8-0.5,46.2-0.3
				c15.6,0.1,31.1,1.8,46.6,2.9c15.5,1.1,31.1,1.6,46.7,1.4c15.5-0.2,30.9-1.6,46.4-2.5c5.9-0.4,11.7-0.6,17.6-0.7
				c0.1,0.9,0.2,1.9,0.3,2.8c0.2,2.7,0.2,5.4,0.2,8.1c0,5.4,0.2,10.7,0.4,16.1c0.4,10.8,0.3,21.4-1,32.1
				C217.3,148.9,216,159.1,216.5,169.3z"/>
		</g>
	</g>
	<text transform="matrix(1 0 0 1 48.4385 155.7513)" class="st3 st4">menu</text>
</g>
</svg>
