<?xml version="1.0" encoding="utf-8"?>
<!-- Generator: Adobe Illustrator 18.1.1, SVG Export Plug-In . SVG Version: 6.00 Build 0)  -->
<!DOCTYPE svg PUBLIC "-//W3C//DTD SVG 1.1//EN" "http://www.w3.org/Graphics/SVG/1.1/DTD/svg11.dtd">
<svg version="1.1" xmlns="http://www.w3.org/2000/svg" xmlns:xlink="http://www.w3.org/1999/xlink" x="0px" y="0px"
	 viewBox="0 0 255 337.1" style="enable-background:new 0 0 255 337.1;" xml:space="preserve">
<style type="text/css">
	.st0{display:none;}
	.st1{display:inline;fill:#AB988B;}
	.st2{display:inline;fill:#231717;}
	.st3{display:inline;fill:#4F3938;}
	.st4{display:inline;fill:#A97C50;}
	.st5{display:inline;fill:#4D494D;}
	.st6{display:inline;fill:#726072;}
	.st7{display:inline;}
	.st8{fill:#4D494D;}
	.st9{fill:#BF765E;}
	.st10{fill:#815F82;stroke:#4D494D;stroke-width:8.2108;stroke-miterlimit:10;}
	.st11{fill:none;stroke:#4D494D;stroke-width:14.0757;stroke-miterlimit:10;}
	.st12{fill:#F9F7F7;stroke:#BF765E;stroke-width:9.3838;stroke-miterlimit:10;}
	.st13{fill:none;stroke:#232323;stroke-width:3.5189;stroke-miterlimit:10;}
	.st14{fill:#232323;}
</style>
<g id="Layer_2" class="st0">
	<path class="st1" d="M141.1,34.3c1.7-4.6,3.9-8.6,4.6-12.8c0.9-5.4-2.3-9.3-7.2-11.1c-4.5-1.6-11.7,1-13.6,5.3
		c-1.6,3.5-3,7.6-3,11.4c0,14.4,1.1,28.9,0.9,43.3c-0.1,6.6-2.3,13.3-3.5,19.9c-0.6-0.1-1.2-0.2-1.8-0.3c-0.5-7.7-0.7-15.3-1.7-22.9
		c-1.5-11.7-3.8-23.2-5.2-34.9c-0.6-5.4-0.6-11.2,0.5-16.6c1.6-8.4,8-13.4,15.9-13.9C137.7,1,148.7,7.1,152.5,16
		c3.8,8.8,2.1,17.2-4.6,22.9c-4.1,3.6-9.2,4.9-13.8,2.1c-2.8-1.7-5.3-5.4-6-8.7c-0.6-2.4,1.4-5.9,3.2-8.2c0.7-0.9,4.9-0.7,5.9,0.4
		C138.9,26.6,139.4,29.7,141.1,34.3z"/>
	<path class="st1" d="M169.2,138.8c3.5-1,7.2-1.6,10.4-3.2c5-2.5,7.4-8.8,5.7-13.2c-2.1-5.4-9.7-9.8-14.7-7.2
		c-6.5,3.3-12.5,7.8-18,12.5c-8.7,7.5-16.4,16-25.2,23.3c-4.4,3.7-10.1,6-15.5,9.1c13.8-16.4,26.9-32.1,40.1-47.8
		c0.8-0.9,1.7-1.7,2.6-2.6c10.3-9.5,22.1-10.4,30-2.3c9.4,9.6,9.8,25.5,0.8,34.8c-8.8,9.2-23.6,6.7-26.8-4.6
		c-1.4-4.7,2.6-12,7.4-12.6c2.2-0.2,5.8,0.8,6.6,2.3c0.9,1.9-0.2,5-1,7.5c-0.3,0.9-1.8,1.4-2.7,2.1
		C168.9,137.6,169,138.2,169.2,138.8z"/>
	<path class="st1" d="M107.4,123.2c-3-1.8-6.4-3.1-8.9-5.4c-5.5-5-10.4-10.7-15.9-15.7c-7.6-6.8-17.5-6.9-23.9-0.8
		c-4.3,4.1-4.1,7.9,0.4,11.7c5.1,4.2,11.3,4.4,15.6,0.8c-2-1.6-4-3.2-6.1-4.8c1.4-1.7,3-5,4.2-4.9c2.8,0.3,6.1,1.6,7.9,3.7
		c3,3.5,2.4,7.9-0.2,11.7c-3.3,4.9-9.5,7.3-14.7,5.9c-8-2.2-13.4-10-13.4-19.3c0-8.8,5.3-15.8,14.3-18.6c9.2-2.9,18.3,0.3,25.2,9.3
		c3,4,5.1,8.6,7.8,12.8c2.7,4.1,5.7,8,8.6,11.9C108,122.2,107.7,122.7,107.4,123.2z"/>
	<path class="st2" d="M114.5,74.6c0,8.3-3.4,14.5-8.8,16.3c-6.1,1.9-16-1.8-20.1-8c-5.1-7.7-7.6-16.3-6.2-25.7
		c1.6-10.5,12.2-15.4,21.2-9.8C108.5,52.4,114.4,64.1,114.5,74.6z M107,84.6c5.3-5.2,4.7-12,2.1-18.8c-2.9-7.3-7.1-13.7-15.4-15.6
		c-3.3-0.7-4.7,2.8-2.6,4.5c5.6,4.6,7.8,10.1,8.9,17.2C100.6,76.2,104.3,80,107,84.6z M86,54.8c-2.6,15.7,3.1,27.6,15.7,31.1
		c0-2.5,0.8-6.3-0.1-6.7c-5.9-2.9-5.2-7.8-5.2-12.8c0-1.6-1.8-3.3-3.1-4.6C91,59.3,88.6,57.2,86,54.8z"/>
	<path class="st2" d="M124.1,101.6c-0.4-8.7,2.5-16.2,7.5-22.9c4.5-6,13-8.7,19.2-6.3c7.6,2.9,11.2,10.7,7.5,20
		c-2.6,6.7-6.8,13-11.3,18.7c-3.9,5-9.8,8.6-16.3,5.9C124.2,114.2,123.7,107.7,124.1,101.6z M142.4,91.2c1.9-5.3,3.6-10.1,5.5-15.6
		c-11.1,0.4-15.5,7-18.5,14.6c-2.5,6.6-3.5,13.6,1.2,20.4c2-4.3,3.2-8.1,5.4-11.2C138.1,96.4,136.3,89.9,142.4,91.2z M135.1,112.4
		C146,109,155,96.5,154.2,85.1c-0.2-2.6-1.8-5-2.4-6.6c-2.7,5.3-5.2,10.2-7.6,15.1C141,99.8,134.1,104.2,135.1,112.4z"/>
	<path class="st2" d="M107.2,153.6c0,1.2,0.1,2.4,0,3.6c-1.3,11.3-10.9,16.3-20.3,10c-9.5-6.3-15.2-15.2-15-27.2
		c0.1-6,2-11.2,7.7-13.9c6.4-3,12.2-1,17.2,3.4C103.9,136,107.2,144.1,107.2,153.6z M79.7,129.5c-1.6,4.1-3.4,7.1-3.8,10.3
		c-1.1,8.5,2.8,15.6,8.3,21.6c2.2,2.4,5.6,3.7,8.7,5c0.6,0.3,2.2-1.8,3.3-2.8c-4.3-2.4-3.9-7-5.4-10.9
		C88,145.4,84.1,138.5,79.7,129.5z M83.8,129.3c5.7,12.3,11.1,23.8,16.8,36c5.3-8.2,3.9-15.9-0.1-23.1
		C96.9,135.8,92.2,130.3,83.8,129.3z"/>
	<path class="st3" d="M107,84.6c-2.6-4.6-6.3-8.4-7-12.6c-1-7.1-3.3-12.6-8.9-17.2c-2.2-1.8-0.8-5.3,2.6-4.5
		c8.2,1.8,12.5,8.3,15.4,15.6C111.7,72.6,112.2,79.4,107,84.6z"/>
	<path class="st3" d="M86,54.8c2.6,2.5,5,4.5,7.2,6.9c1.3,1.4,3.1,3.1,3.1,4.6c0.1,5.1-0.6,10,5.2,12.8c0.9,0.4,0.1,4.2,0.1,6.7
		C89,82.4,83.4,70.5,86,54.8z"/>
	<path class="st3" d="M142.4,91.2c-6.1-1.4-4.3,5.2-6.4,8.1c-2.2,3.1-3.4,7-5.4,11.2c-4.7-6.8-3.7-13.8-1.2-20.4
		c2.9-7.7,7.4-14.2,18.5-14.6C146,81.1,144.3,85.9,142.4,91.2z"/>
	<path class="st3" d="M135.1,112.4c-1-8.2,5.9-12.6,9-18.8c2.4-4.9,4.9-9.7,7.6-15.1c0.6,1.6,2.3,4.1,2.4,6.6
		C155,96.5,146,109,135.1,112.4z"/>
	<path class="st3" d="M79.7,129.5c4.4,9,8.3,15.9,11.1,23.2c1.5,3.9,1.1,8.5,5.4,10.9c-1.1,1-2.7,3.1-3.3,2.8
		c-3.1-1.3-6.5-2.6-8.7-5c-5.5-6-9.4-13.1-8.3-21.6C76.3,136.6,78.1,133.6,79.7,129.5z"/>
	<path class="st3" d="M83.8,129.3c8.4,1,13.1,6.5,16.7,12.9c4.1,7.2,5.4,14.9,0.1,23.1C94.9,153.1,89.5,141.5,83.8,129.3z"/>
	<path class="st4" d="M60.1,203.1c0,0,2.6,2.9,2.6,4.9s1.9,9.6,1.9,9.6s3.8,2.4,5.4,2.9c1.6,0.5,20.4,7.1,42,5.5s48.5-9.6,48.9-11.2
		s4.2-6,3.2-17.4C119.7,212.6,65,205.3,60.1,203.1z"/>
	<path class="st5" d="M171.3,272c3,2.3,5.7,3.7,7.1,5.9c0.6,1-1.4,5.3-2.3,5.4c-2.7,0.1-7-0.3-8-2c-1.4-2.6-2-7.5-0.4-9.7
		c3.6-4.8,9.1-6.2,15-3.3c5.6,2.8,7.9,7.1,6,13.1c-2.3,7.4-7.5,11.3-15.2,11.9c-9,0.7-14.2-2.7-19.8-13.9c-1,9.2-1.9,16.8-2.7,24.4
		c-0.6,5.6-0.9,11.2-1.8,16.8c-0.9,5.6-3.6,11.1-9.6,11.5c-14.7,1.1-29.4,1.9-44.1,1.2c-10.4-0.5-14.9-8.8-16.8-18.2
		c-9.5-45-19-90.1-28.4-135.1c-0.4-1.7-0.8-3.5-0.9-5.2c-0.3-4.9,0.9-6.4,6.7-5.3c16.3,2.9,32.7,5.9,49.1,6.4
		c23.1,0.8,45.5-4.4,68.5-16.4c-1.2,10.6-2.3,19.4-3.4,28.7c6.1-9,13.6-15.6,24.9-17.2c12.8-1.8,27,4.9,33.4,16.8
		c6.1,11.4,4.9,23.9-5.5,33.5c-7.6,7-17.1,11.9-25.5,18.1c-10.7,7.8-21.8,15.2-31.4,24.2c-9.5,8.9-8.1,19.7,1.4,25.1
		c4.9,2.8,9.5,1.3,12.2-2.6c2.1-3.1,3.6-8.3,2.4-11.5C180.3,269,175.5,268.4,171.3,272z M158.9,220.1c-31.2,8.9-61.4,10.8-91,4.8
		c2.6,16.5,5,32.3,7.6,48c2.4,14.3,4.9,28.6,7.8,42.7c1.7,8.3,7,13.6,15.7,14.4c7.9,0.7,15.8,1.7,23.7,1.3
		c15.3-0.7,20.6-4.7,23-16.3c1-4.7,1.5-9.6,2-14.4c2.1-18.3,3.8-36.5,6.1-54.8C155,237.7,157,229.6,158.9,220.1z M167.2,168.4
		c-4,1.5-8,3.2-12,4.6c-28.1,9.4-56.8,9.1-85.6,4.4c-5.6-0.9-10.5-1.2-12.4,5.1c-2,6.2,2.2,14.6,8.2,16.1c27.9,7,55.9,9,83.8,0.3
		C165.7,193.7,169.5,186.8,167.2,168.4z M202.5,208.5c-3.4-0.5-6.9-0.4-9.6-1.8c-1.1-0.6-1.5-5.2-0.4-6.6c1.5-2.1,4.6-4,7.2-4.2
		c6.7-0.4,11.4,6.7,9.6,13.5c-1.7,6.5-8.9,12.5-15.7,12.8c-13.6,0.5-21.1-7.4-26.6-19.3c-4.1,20.3-8.3,40.6-12.4,61
		c7.6-6,13.8-11.6,20.6-16.2c6.7-4.5,14.3-7.9,21.3-12.1c12.4-7.4,22.3-17,25.8-31.8c2.3-9.6-0.4-19-7.3-24.1
		c-8-5.9-17.6-6.6-25-1.6c-7.7,5.2-11.8,15.5-9.6,25c1.5,6.5,5.5,11.3,12.2,12.2C197.7,216.1,201.3,212.8,202.5,208.5z M60.1,203.1
		c4.4,6.7,1.1,15.2,9.9,17.4c27.1,6.8,54.1,6.5,80.8-1.8c11.8-3.7,14.1-7.7,13.2-21.3C130.7,210.8,96.5,210.8,60.1,203.1z"/>
	<path class="st6" d="M158.9,220.1c-1.8,9.6-3.9,17.6-4.9,25.9c-2.3,18.2-4.1,36.5-6.1,54.8c-0.5,4.8-1,9.6-2,14.4
		c-2.4,11.6-7.7,15.6-23,16.3c-7.9,0.3-15.8-0.6-23.7-1.3c-8.7-0.8-14-6.1-15.7-14.4c-2.9-14.2-5.4-28.5-7.8-42.7
		c-2.7-15.8-5-31.6-7.6-48C97.4,230.8,127.7,229,158.9,220.1z"/>
	<path class="st6" d="M167.2,168.4c2.4,18.4-1.4,25.3-18,30.4c-27.9,8.7-55.9,6.7-83.8-0.3c-5.9-1.5-10.1-9.9-8.2-16.1
		c2-6.3,6.8-6,12.4-5.1c28.8,4.8,57.5,5,85.6-4.4C159.2,171.6,163.1,170,167.2,168.4z"/>
</g>
<g id="Layer_3" class="st0">
	<g id="b0vuy2.tif" class="st7">
		<g>
			<path class="st8" d="M186.3,306.3c-2.1,0-4.2,0-6.3,0c-2.9-0.4-5.9-0.6-8.8-1.2c-10.8-2.3-19.6-7.5-25.7-16.8
				c-3.8-5.7-6.3-11.9-8.4-18.4c-0.7-2.2-1.6-4.3-2.9-6.1c-0.8-1.1-1.8-2-3.3-2c-1.7,0-3.4,0-5.1,0c-1.4,0-2.3,0.7-3,1.8
				c-1.3,2.2-2,4.6-2.6,7c-1.9,8.1-5.9,15.1-10.9,21.7c-5.2,6.8-11.8,11.6-20.3,13.6c-2.4,0.5-4.8,0.8-7.2,1.2
				c-4.3,0-8.6,0.1-12.9,0.1c-5.6-0.8-11.2-1.8-16.5-4.2c-5-2.3-9.4-5.4-11.8-10.6c-3.6-7.7-6.7-15.6-8.8-23.8
				c-0.9-3.6-2.5-6.6-5.1-9.1c-1.8-1.8-3.5-3.8-3.9-6.4c0-3.5-0.1-7-0.1-10.5c5.6-1.1,11.3-2.2,16.9-3.4c6.9-1.5,13.8-2.7,20.8-3.5
				c4.2,0,8.4-0.1,12.6-0.1c0.3,0.1,0.6,0.2,0.8,0.2c11.5,0.8,22.9,2.4,34.1,4.9c10.3,2.3,20.7,2.7,31.2,1.4
				c7.9-1.1,15.7-2.7,23.5-4.2c6.4-1.3,12.8-2.2,19.3-3c4.3,0,8.6-0.1,12.9-0.1c4.3,0.6,8.6,1.1,12.9,1.7c7.1,1,14,3.4,21.1,4.6
				c1.5,0.2,2.6,1.2,3.4,2.5c0,3.6,0.1,7.2,0.1,10.8c-0.5,1-1.1,1.8-2,2.3c-2.1,1.3-3.4,3.3-4.3,5.6c-2,5.3-3.2,10.8-4.6,16.3
				c-3.2,12.6-10.8,21.1-23.1,25.4C194.4,305.2,190.3,305.8,186.3,306.3z M180.3,242.2c-11.7,0-21.2,1.7-30,6.1
				c-6.5,3.3-8.8,8.3-7.3,15.5c1.4,6.6,4.3,12.5,7.6,18.3c4.4,7.8,11,13,19.6,15.5c8.8,2.5,17.6,2.1,26.3-0.3
				c7.2-2,12.2-6.6,14.9-13.6c0.9-2.3,1.6-4.6,2.3-7c1.9-6.6,3.1-13.2,2.8-20.1c-0.2-3.7-1.7-6.7-4.8-8.8c-2.6-1.7-5.4-2.6-8.4-3.3
				C195.1,242.8,186.7,242.3,180.3,242.2z M74.2,300.1c1-0.1,1.9-0.1,2.8-0.2c0.9-0.1,1.7-0.2,2.6-0.3c10.5-1.2,19.2-5.7,25.3-14.6
				c3.5-5.2,5.9-11.1,7.9-17c0.7-2,1.1-4.2,1.3-6.3c0.6-5.6-2-10.1-7.7-13c-7.5-3.7-15.6-5.3-23.9-5.7c-6.1-0.3-12.2,0.2-18.3,0.9
				c-5.2,0.6-10.4,1.3-15.3,3.1c-6.1,2.3-8.9,6.1-8.8,12.6c0.1,9.3,2.4,18.2,6.2,26.7c2.7,6.1,7.6,10,14,11.9
				C64.9,299.5,69.6,299.8,74.2,300.1z"/>
		</g>
	</g>
</g>
<g id="Layer_3_copy" class="st0">
	<g id="b0vuy2.tif_2_" class="st7">
		<g>
			<path class="st9" d="M187.9,258.6c-2,0.7-3.9,1.4-5.9,2.1c-2.9,0.6-5.8,1.4-8.7,1.7c-10.9,1.4-20.9-0.6-29.8-7.4
				c-5.4-4.1-9.9-9.2-13.9-14.6c-1.4-1.8-2.9-3.5-4.8-4.8c-1.1-0.8-2.4-1.3-3.8-0.9c-1.6,0.5-3.2,1.1-4.8,1.6
				c-1.3,0.4-1.9,1.4-2.2,2.7c-0.5,2.5-0.4,5-0.2,7.5c0.9,8.3-0.6,16.2-3.2,24c-2.7,8.1-7.4,14.9-14.7,19.5
				c-2.1,1.3-4.3,2.4-6.4,3.5c-4.1,1.4-8.1,2.9-12.2,4.3c-5.6,1.1-11.2,1.9-16.9,1.4c-5.5-0.5-10.6-2-14.6-6.1
				c-6-6-11.5-12.5-16.2-19.6c-2-3.1-4.5-5.4-7.8-6.9c-2.3-1.1-4.5-2.4-5.8-4.8c-1.2-3.3-2.3-6.6-3.5-9.9c5-2.9,10-5.8,14.9-8.8
				c6-3.7,12.1-7.1,18.4-10.2c3.9-1.4,7.9-2.8,11.8-4.2c0.3,0,0.6,0,0.9-0.1c11.1-3,22.4-5.2,33.8-6.6c10.5-1.3,20.5-4.2,29.9-9
				c7.1-3.6,13.9-7.7,20.8-11.7c5.6-3.3,11.4-6.3,17.2-9.2c4.1-1.4,8.1-2.9,12.2-4.3c4.3-0.9,8.5-1.8,12.8-2.7
				c7.1-1.4,14.3-1.4,21.4-2.6c1.5-0.3,2.9,0.3,4,1.3c1.2,3.4,2.4,6.8,3.6,10.2c-0.1,1.1-0.5,2-1.1,2.9c-1.6,1.9-2.2,4.2-2.2,6.7
				c-0.1,5.7,0.5,11.3,1,16.9c1.1,12.9-3.2,23.5-13.5,31.6C195.2,254.8,191.6,256.7,187.9,258.6z M161.1,200
				c-11.1,3.9-19.4,8.5-26.3,15.6c-5.1,5.2-5.6,10.7-1.8,17c3.4,5.8,8.2,10.4,13.2,14.8c6.7,6,14.7,8.6,23.6,8.1
				c9.1-0.5,17.3-3.8,24.8-8.9c6.2-4.2,9.3-10.3,9.6-17.7c0.1-2.4,0-4.9-0.1-7.3c-0.4-6.8-1.4-13.5-4-19.9c-1.4-3.5-3.8-5.8-7.5-6.7
				c-3-0.8-6-0.7-9-0.3C175.3,195.7,167.3,198,161.1,200z M80.1,289.6c1-0.4,1.8-0.7,2.6-1.1c0.8-0.3,1.6-0.7,2.4-1.1
				c9.6-4.6,16.3-11.7,19-22.1c1.6-6.1,1.9-12.4,1.9-18.7c0-2.2-0.3-4.3-0.8-6.4c-1.2-5.5-5.2-8.9-11.6-9.8
				c-8.3-1.1-16.5,0.1-24.5,2.5c-5.9,1.7-11.5,4.2-17,6.8c-4.7,2.3-9.4,4.6-13.5,8c-5,4.2-6.4,8.6-4.2,14.7
				c3.2,8.8,8.3,16.4,14.6,23.2c4.6,4.9,10.5,7,17.2,6.7C71,292.1,75.6,290.8,80.1,289.6z"/>
		</g>
	</g>
</g>
<g id="Layer_4" class="st0">
	<g class="st7">
		<path class="st10" d="M114.6,303.9L19,291V164.3l83.4,10.8c14.4,1.9,25.1,14.1,25.1,28.6v88.9
			C127.5,299.5,121.4,304.8,114.6,303.9z"/>
		<path class="st10" d="M236,291l-94.2,12.7c-7.6,1-14.3-4.9-14.3-12.5v-90.4c0-12.8,9.5-23.7,22.2-25.3l86.3-11.2V291z"/>
		<line class="st11" x1="27.2" y1="316.8" x2="232.5" y2="316.8"/>
	</g>
</g>
<g id="Layer_5" class="st0">
	<g class="st7">
		<path class="st12" d="M114.6,303.9L19,291V164.3l83.4,10.8c14.4,1.9,25.1,14.1,25.1,28.6v88.9
			C127.5,299.5,121.4,304.8,114.6,303.9z"/>
		<path class="st12" d="M236,291l-94.2,12.7c-7.6,1-14.3-4.9-14.3-12.5v-90.4c0-12.8,9.5-23.7,22.2-25.3l86.3-11.2V291z"/>
		<line class="st11" x1="27.2" y1="316.8" x2="232.5" y2="316.8"/>
		<path class="st13" d="M29.6,187.8c0,0,8.2,19.4,16.4,17c8.2-2.3,12.9-14.7,21.7-10S78.8,210,87,208.9s15.2-14.1,20.5-10
			s4.1,12.9,8.2,14.1"/>
		<path class="st13" d="M29.6,210.6c0,0,8.2,19.4,16.4,17c8.2-2.3,12.9-14.7,21.7-10s11.1,15.2,19.4,14.1c8.2-1.2,15.2-14.1,20.5-10
			c5.3,4.1,4.1,12.9,8.2,14.1"/>
		<path class="st13" d="M29.6,234.1c0,0,8.2,19.4,16.4,17c8.2-2.3,12.9-14.7,21.7-10s11.1,15.2,19.4,14.1s15.2-14.1,20.5-10
			c5.3,4.1,4.1,12.9,8.2,14.1"/>
		<path class="st13" d="M29.6,257.5c0,0,8.2,19.4,16.4,17s12.9-14.7,21.7-10c8.8,4.7,11.1,15.2,19.4,14.1s15.2-14.1,20.5-10
			c5.3,4.1,4.1,12.9,8.2,14.1"/>
		<g id="WLW0cS.tif_1_">
			<g>
				<path class="st14" d="M226.1,191.1c-0.8,1.3-1.8,2.3-3.1,3.1c-1.1,0.7-2.1,1.4-3.1,2.2c-0.7,0.5-1.1,0.5-1.6-0.3
					c-3.3-4.9-6.7-9.8-10.1-14.7c-0.5-0.8-1-1.6-1.6-2.3c-0.4-0.5-0.3-0.8,0.2-1.2c1.5-1,3-2,4.5-3.1c0.9-0.6,1.9-0.8,2.9-1
					c1,0.2,2,0.4,3,0.6c1.3,0.7,2.2,1.8,3,3c1.5,2.3,3.1,4.5,4.7,6.8c0.9,1.2,1.6,2.4,1.8,3.9C226.5,189.1,226.3,190.1,226.1,191.1z
					"/>
				<path class="st14" d="M144.5,234.8c0.2-1.5,0.9-2.9,1.4-4.4c1.4-4.1,2.8-8.1,4.2-12.2c0.1-0.3,0.2-0.8,0.5-0.8
					c0.4-0.1,0.5,0.4,0.7,0.7c3.8,5.5,7.6,10.9,11.3,16.4c0.2,0.3,0.6,0.6,0.4,0.9c-0.2,0.3-0.6,0.1-0.9,0.1
					c-5.3-0.2-10.5-0.3-15.8-0.5c-0.1,0-0.3,0-0.4,0C145.4,234.9,144.9,234.9,144.5,234.8z"/>
				<path class="st14" d="M205.7,182.7c0,0.3-0.2,0.4-0.3,0.5c-0.2,0.2-0.5,0.3-0.7,0.5c-15.4,10.6-30.8,21.3-46.2,31.9
					c-1.1,0.7-1,0.7-0.3,1.8c0.1,0.2,0.3,0.4,0.4,0.6c0.3,0.7,0.7,0.6,1.3,0.2c3.3-2.3,6.6-4.6,9.9-6.9
					c12.2-8.5,24.5-16.9,36.7-25.4c1.1-0.7,1.1-0.7,1.8,0.3c2.6,3.8,5.2,7.6,7.9,11.4c0.5,0.6,0.4,1-0.2,1.4
					c-16.6,11.4-33.1,22.9-49.7,34.3c-0.7,0.5-1,0.4-1.5-0.3c-3.9-5.6-7.7-11.2-11.6-16.8c-0.4-0.6-0.5-1,0.2-1.4
					c16.6-11.4,33.2-22.9,49.7-34.4c0.6-0.4,1-0.4,1.3,0.2c0.3,0.5,0.6,0.9,1,1.4C205.6,182.4,205.6,182.6,205.7,182.7z"/>
			</g>
		</g>
	</g>
</g>
<g id="Layer_6">
	<g>
		<path class="st8" d="M238.6,180.8l-11.6-6.2c0,0-17.3-10.9-66.9-10.9h-7.6c-39.2,0-65.4,10.9-65.4,10.9l-12.7,6.5
			c-15.6,8.2-7.5,21.7-7.5,21.7s1.7,3.3,3.7,7.4c2.1,4.1,7.6,5.5,12.4,3.1l26.2-13.3c4.8-2.4,7.4-6.6,5.9-9.3
			c-1.5-2.7-3-5.7-3.2-6.6c-0.1-0.9,5.2-3.2,10.3-4.8c7.7-2.4,19.1-5.9,30.2-5.9h9.2c0,0,27.8,0.6,39.5,10.5
			c0.2,0.2,0.3,0.6,0.4,0.6c0.3,0.1,0.3,0.4,0.1,0.8c-0.1,0.2-0.2,0.5-0.3,0.7c-0.7,1.7-1.5,3.5-2.3,4.9c-1.4,2.6,1.1,6.7,5.8,9.2
			l24.7,13c4.7,2.5,10.3,1.2,12.5-3l4-7.5C246.1,202.7,254.3,189,238.6,180.8"/>
		<path class="st8" d="M156.9,249.7c-11.4,0-20.6,9.3-20.6,20.6c0,11.4,9.3,20.6,20.6,20.6c11.4,0,20.6-9.3,20.6-20.6
			C177.5,259,168.3,249.7,156.9,249.7"/>
		<path class="st8" d="M125.8,267.5c0.5,0.1,0.9,0.2,1.4,0.2c2.4,0,4.5-1.6,5.1-3.9c0.8-2.8-0.9-5.7-3.7-6.5
			c-0.5-0.1-0.9-0.2-1.4-0.2c-2.4,0-4.5,1.6-5.1,3.9c-0.4,1.4-0.2,2.8,0.5,4C123.2,266.3,124.4,267.1,125.8,267.5"/>
		<path class="st8" d="M131.7,281c0.7-1.2,0.9-2.6,0.5-4c-0.6-2.3-2.7-3.9-5.1-3.9c-0.5,0-0.9,0.1-1.4,0.2c-2.8,0.8-4.5,3.7-3.7,6.5
			c0.6,2.3,2.7,3.9,5.1,3.9c0.5,0,0.9-0.1,1.4-0.2C129.9,283.1,131,282.2,131.7,281"/>
		<path class="st8" d="M150.3,295c-0.5-0.1-0.9-0.2-1.4-0.2c-2.4,0-4.5,1.6-5.1,3.9c-0.4,1.4-0.2,2.8,0.5,4c0.7,1.2,1.9,2.1,3.2,2.5
			c2.8,0.8,5.8-1,6.5-3.7c0.4-1.4,0.2-2.8-0.5-4C152.8,296.3,151.7,295.4,150.3,295"/>
		<path class="st8" d="M135.1,286.9c-1.4,0-2.7,0.6-3.7,1.6c-2.1,2.1-2.1,5.4,0,7.5c2,2,5.5,2,7.5,0c2.1-2.1,2.1-5.4,0-7.5
			C137.9,287.4,136.5,286.9,135.1,286.9"/>
		<path class="st8" d="M163.5,245.7c0.5,0.1,0.9,0.2,1.4,0.2c2.4,0,4.5-1.6,5.1-3.9c0.8-2.8-0.9-5.7-3.7-6.5
			c-0.5-0.1-0.9-0.2-1.4-0.2c-2.4,0-4.5,1.6-5.1,3.9C159,242,160.7,244.9,163.5,245.7"/>
		<path class="st8" d="M182.1,259.7c-0.7,1.2-0.9,2.6-0.5,4c0.6,2.3,2.7,3.9,5.1,3.9c0.5,0,0.9-0.1,1.4-0.2c1.4-0.4,2.5-1.2,3.2-2.5
			c0.7-1.2,0.9-2.7,0.5-4c-0.6-2.3-2.7-3.9-5.1-3.9c-0.5,0-0.9,0.1-1.4,0.2C184,257.6,182.8,258.5,182.1,259.7"/>
		<path class="st8" d="M148.9,245.9c0.5,0,0.9-0.1,1.4-0.2c1.4-0.4,2.5-1.2,3.2-2.5c0.7-1.2,0.9-2.7,0.5-4c-0.6-2.3-2.7-3.9-5.1-3.9
			c-0.5,0-0.9,0.1-1.4,0.2c-2.8,0.8-4.5,3.7-3.7,6.5C144.4,244.2,146.5,245.9,148.9,245.9"/>
		<path class="st8" d="M138.9,252.3c1-1,1.6-2.3,1.6-3.7s-0.5-2.7-1.6-3.7c-1-1-2.3-1.6-3.7-1.6c-1.4,0-2.7,0.6-3.7,1.6
			c-1,1-1.6,2.3-1.6,3.7s0.5,2.7,1.6,3.7C133.4,254.3,136.9,254.3,138.9,252.3"/>
		<path class="st8" d="M188.1,273.2c-0.5-0.1-0.9-0.2-1.4-0.2c-2.4,0-4.5,1.6-5.1,3.9c-0.4,1.4-0.2,2.8,0.5,4
			c0.7,1.2,1.9,2.1,3.2,2.5c0.5,0.1,0.9,0.2,1.4,0.2c2.4,0,4.5-1.6,5.1-3.9C192.6,276.9,190.9,274,188.1,273.2"/>
		<path class="st8" d="M184,248.5c0-1.4-0.5-2.7-1.6-3.7c-1-1-2.3-1.6-3.7-1.6c-1.4,0-2.8,0.6-3.8,1.6c-2.1,2.1-2.1,5.4,0,7.5
			c1,1,2.3,1.5,3.7,1.5c1.4,0,2.8-0.5,3.8-1.6C183.5,251.3,184,250,184,248.5"/>
		<path class="st8" d="M236.7,284.6l-26.4-63.2c-1-2.6-4-5.1-6.8-5.1h-10v-14c0-4.5-3.7-8.2-8.2-8.2h-2.6c-4.5,0-8.2,3.7-8.2,8.2v14
			h-34.3v-14c0-4.5-3.7-8.2-8.2-8.2h-2.6c-4.5,0-8.2,3.7-8.2,8.2v14h-10.9c-2.7,0-5.8,2.6-6.8,5.1l-26.8,63.1
			c-1,2.6-0.9,6.8,0.1,9.3l12.8,25.2c1.1,2.5,4.2,4.9,6.9,4.9h120.7c2.7,0,5.9-2.3,6.9-4.9l12.3-25
			C237.6,291.6,237.7,287.2,236.7,284.6L236.7,284.6z M156.9,311.7c-22.8,0-41.4-18.6-41.4-41.4c0-22.8,18.6-41.4,41.4-41.4
			c22.8,0,41.4,18.6,41.4,41.4C198.3,293.2,179.7,311.7,156.9,311.7L156.9,311.7z M156.9,311.7"/>
	</g>
</g>
<g id="Layer_7" class="st0">
	<g class="st7">
		<path class="st8" d="M157.1,249.8c-11.4,0-20.6,9.3-20.6,20.6c0,11.4,9.3,20.6,20.6,20.6c11.4,0,20.6-9.3,20.6-20.6
			C177.8,259.1,168.5,249.8,157.1,249.8"/>
		<path class="st9" d="M126,267.6c0.5,0.1,0.9,0.2,1.4,0.2c2.4,0,4.5-1.6,5.1-3.9c0.8-2.8-0.9-5.7-3.7-6.5c-0.5-0.1-0.9-0.2-1.4-0.2
			c-2.4,0-4.5,1.6-5.1,3.9c-0.4,1.4-0.2,2.8,0.5,4C123.5,266.3,124.6,267.2,126,267.6"/>
		<path class="st9" d="M131.9,281.1c0.7-1.2,0.9-2.6,0.5-4c-0.6-2.3-2.7-3.9-5.1-3.9c-0.5,0-0.9,0.1-1.4,0.2
			c-2.8,0.8-4.5,3.7-3.7,6.5c0.6,2.3,2.7,3.9,5.1,3.9c0.5,0,0.9-0.1,1.4-0.2C130.1,283.2,131.2,282.3,131.9,281.1"/>
		<path class="st9" d="M150.5,295.1c-0.5-0.1-0.9-0.2-1.4-0.2c-2.4,0-4.5,1.6-5.1,3.9c-0.4,1.4-0.2,2.8,0.5,4
			c0.7,1.2,1.9,2.1,3.2,2.5c2.8,0.8,5.8-1,6.5-3.7c0.4-1.4,0.2-2.8-0.5-4C153,296.4,151.9,295.5,150.5,295.1"/>
		<path class="st9" d="M135.3,287c-1.4,0-2.7,0.6-3.7,1.6c-2.1,2.1-2.1,5.4,0,7.5c2,2,5.5,2,7.5,0c2.1-2.1,2.1-5.4,0-7.5
			C138.1,287.5,136.7,287,135.3,287"/>
		<path class="st9" d="M163.8,245.8c0.5,0.1,0.9,0.2,1.4,0.2c2.4,0,4.5-1.6,5.1-3.9c0.8-2.8-0.9-5.7-3.7-6.5
			c-0.5-0.1-0.9-0.2-1.4-0.2c-2.4,0-4.5,1.6-5.1,3.9C159.3,242.1,160.9,245,163.8,245.8"/>
		<path class="st9" d="M149.2,246c0.5,0,0.9-0.1,1.4-0.2c1.4-0.4,2.5-1.2,3.2-2.5c0.7-1.2,0.9-2.7,0.5-4c-0.6-2.3-2.7-3.9-5.1-3.9
			c-0.5,0-0.9,0.1-1.4,0.2c-2.8,0.8-4.5,3.7-3.7,6.5C144.7,244.3,146.8,246,149.2,246"/>
		<path class="st9" d="M139.1,252.4c1-1,1.6-2.3,1.6-3.7s-0.5-2.7-1.6-3.7c-1-1-2.3-1.6-3.7-1.6c-1.4,0-2.7,0.6-3.7,1.6
			c-1,1-1.6,2.3-1.6,3.7s0.5,2.7,1.6,3.7C133.6,254.4,137.1,254.4,139.1,252.4"/>
		<path class="st8" d="M236.9,284.7l-26.4-63.2c-1-2.6-4-5.1-6.8-5.1h-10v-14c0-4.5-3.7-8.2-8.2-8.2h-2.6c-4.5,0-8.2,3.7-8.2,8.2v14
			h-34.3v-14c0-4.5-3.7-8.2-8.2-8.2h-2.6c-4.5,0-8.2,3.7-8.2,8.2v14h-10.9c-2.7,0-5.8,2.6-6.8,5.1l-26.8,63.1
			c-1,2.6-0.9,6.8,0.1,9.3l12.8,25.2c1.1,2.5,4.2,4.9,6.9,4.9h120.7c2.7,0,5.9-2.3,6.9-4.9l12.3-25
			C237.9,291.7,237.9,287.3,236.9,284.7L236.9,284.7z M157.1,311.8c-22.8,0-41.4-18.6-41.4-41.4c0-22.8,18.6-41.4,41.4-41.4
			c22.8,0,41.4,18.6,41.4,41.4C198.5,293.3,180,311.8,157.1,311.8L157.1,311.8z M157.1,311.8"/>
		<path class="st9" d="M219.2,143.4l-13-1.5c0,0-20.1-3.9-66.3,14.2l-7.1,2.8c-36.5,14.2-57,33.9-57,33.9l-9.5,10.7
			c-11.6,13.3,0.9,23,0.9,23s2.7,2.4,6.2,5.6c3.4,3.1,9.1,2.4,12.7-1.6l19.5-21.9c3.6-4,4.5-8.8,2.2-10.8c-2.3-2-4.9-4.2-5.3-5
			c-0.5-0.8,3.7-4.9,7.9-8.3c6.3-5,15.7-12.5,26-16.5l8.5-3.3c0,0,26.1-9.6,40.7-4.6c0.2,0.1,0.5,0.4,0.6,0.4c0.3,0,0.5,0.3,0.4,0.7
			c0,0.2,0,0.5,0,0.8c0,1.9-0.2,3.8-0.4,5.4c-0.4,3,3.4,5.9,8.7,6.5l27.7,3.2c5.3,0.6,10.1-2.7,10.6-7.3l1-8.4
			C234.1,161.1,236.7,145.3,219.2,143.4"/>
	</g>
</g>
</svg>
