<?xml version="1.0" encoding="utf-8"?>
<!-- Generator: Adobe Illustrator 18.1.1, SVG Export Plug-In . SVG Version: 6.00 Build 0)  -->
<!DOCTYPE svg PUBLIC "-//W3C//DTD SVG 1.1//EN" "http://www.w3.org/Graphics/SVG/1.1/DTD/svg11.dtd">
<svg version="1.1" xmlns="http://www.w3.org/2000/svg" xmlns:xlink="http://www.w3.org/1999/xlink" x="0px" y="0px"
	 viewBox="0 0 360 360" style="enable-background:new 0 0 360 360;" xml:space="preserve">
<style type="text/css">
	.st0{display:none;}
	.st1{display:inline;}
	.st2{fill:none;stroke:#565656;stroke-width:3;stroke-linecap:round;stroke-linejoin:round;}
	.st3{fill:#FFFFFF;}
	.st4{fill:none;stroke:#000000;stroke-width:5;stroke-miterlimit:10;}
	.st5{fill:none;stroke:#000000;stroke-width:4.9999;stroke-miterlimit:10;}
	.st6{fill:#3A3A3A;}
	.st7{fill:#FEFEFE;}
	.st8{fill:#38393A;}
	.st9{fill:none;stroke:#565656;stroke-width:2.9895;stroke-linecap:round;stroke-linejoin:round;}
	.st10{display:inline;fill:#FFFFFF;}
	.st11{display:inline;fill:none;stroke:#000000;stroke-width:4.9825;stroke-miterlimit:10;}
	.st12{display:inline;fill:none;stroke:#000000;stroke-width:5;stroke-miterlimit:10;}
</style>
<g id="Layer_1" class="st0">
	<g class="st1">
		<g>
			<g>
				<path class="st2" d="M109.6,78.4c0.3,0.6,16.6-10.4,16.9-9.8C127,69.4,89,94.2,89.6,95.2c0.8,1.3,60.1-36.9,61.1-35.2
					c1,1.7-67.8,43.5-67,45c1.4,2.4,85.1-51.5,86.1-49.7c1.3,2.3-95.6,57.5-93.9,60.4c1.6,2.7,99.1-61.1,100.8-58.2
					c1.6,2.8-109.3,64.3-107.5,67.4c1.5,2.5,114.9-70.5,116.7-67.4c1.7,3-125.6,74.8-123.8,77.8c2.1,3.7,130.5-80.2,132.6-76.5
					c2,3.4-132,77.7-130.2,80.9c2,3.4,138.1-84.6,140.2-80.9c1.7,3-146.5,85.9-144.6,89.4c2.6,4.5,153.1-94,155.5-89.8
					c2.3,4-156.7,90.7-154.3,94.8c2.3,4,155.3-95,157.7-91c2.1,3.6-168,96.2-165.2,100.9c2,3.4,169.8-104.4,172.5-99.6
					c3,5.2-174.5,100.4-171.7,105.3c2.4,4.1,170.9-103.8,173.1-99.9c2.9,5-171.2,99.6-169,103.4c2.9,5,173.1-106.5,176-101.6
					C237,74.5,52.3,174.4,55.3,179.5c2.3,4,183.2-111.9,185.8-107.3c2.3,4-186.5,106.5-183.5,111.7C60.1,188.3,243,69.9,246,75.1
					c3.4,5.8-195.6,112-192.6,117.1C55.9,196.6,248,73,251,78.1c3.3,5.7-198.8,113.7-195.6,119.3c3.1,5.4,200.4-123.5,203.8-117.7
					C261.6,83.8,54.9,196.3,58,201.6c2.6,4.5,195.5-119.4,198.4-114.5c3,5.2-202.9,116.6-200.2,121.4c2.8,4.8,204-125.8,207.5-119.8
					C266.7,94.1,54.2,209,57.1,214c2.4,4.2,211-128.1,213.8-123.4c3.2,5.5-216,123.2-212.9,128.5c2.7,4.8,207.2-126.1,210-121.3
					c2.6,4.5-209.7,121.4-207.2,125.8c3.5,6,212.7-129,215.4-124.4c2.9,5.1-213.7,122.6-211,127.2c3.4,5.8,212.1-130,215.4-124.3
					c2.8,4.9-215.8,122.9-212.5,128.8c3.2,5.6,209.7-128.4,212.9-122.9c2.9,5.1-212.4,121.1-209.2,126.7
					c3.6,6.3,207.6-126.2,210.3-121.4c3.2,5.6-214.9,123.4-212.1,128.3c3.3,5.7,211.9-130.6,215.5-124.4
					c3.6,6.3-212.9,120.4-209.5,126.3c3,5.2,207.9-127.3,211.1-121.9c3.4,5.9-211.7,120.1-208.5,125.7
					c2.6,4.5,211.5-129.9,214.9-124.1c2.8,4.8-212.9,123.3-210.3,127.7c2.9,5,210.1-128,213-123c3.6,6.2-212.7,121.9-210.1,126.5
					c2.9,5.1,208.2-126.1,210.8-121.7c3,5.1-212.5,121.8-209.6,126.9c3.6,6.2,203.9-125.6,207.3-119.7
					c2.8,4.8-204.5,117.8-201.8,122.6c3.2,5.6,201.6-124,204.9-118.3c3.4,5.9-210.7,121.9-208.1,126.3
					c2.8,4.8,207.4-126.4,210.3-121.4c2.6,4.5-206.3,117.2-203.1,122.7c3.4,5.8,201.6-124.2,205-118.3
					c2.9,5.1-202.2,117.1-199.7,121.3c3.1,5.4,200-121,202.4-116.9c3.4,5.8-204.5,116.3-201,122.3c2.3,4,199.9-121.7,202.6-117
					c3.1,5.4-194.4,111.5-191.3,116.7c3.1,5.3,184.2-113,187.1-108c2.2,3.8-187.8,107.7-184.9,112.7c3,5.3,183.1-112.4,186-107.4
					c3.1,5.4-187.8,108.1-185,112.9c3.1,5.3,184.7-111.9,187-108c2.9,5-177.3,102.9-175.2,106.4c2.3,4,167.6-102.3,170-98.1
					c2.3,3.9-171.6,98.3-168.6,103.4c2.6,4.5,173.7-106.1,176.2-101.7c2.4,4.1-171.2,99.2-168.8,103.3
					c2.4,4.1,159.5-98.6,162.3-93.7c2.5,4.3-158.7,91.7-156.3,95.8c2.3,4,151.2-93.2,153.8-88.8c1.8,3-150.3,88.6-148.4,92
					c2.4,4.2,148.8-90.6,150.8-87.1c1.9,3.4-142.9,82.5-140.6,86.6c2,3.5,135.8-83.9,138.2-79.8c1.6,2.8-136.6,80.3-135,83.2
					c1.7,3,129.6-78.5,131.2-75.7c1.7,2.9-119.9,70.8-118.3,73.6c1.7,2.9,117.5-71.9,119.2-68.8c1.7,3-117.2,69.9-115.7,72.5
					c1.5,2.7,105.8-64.4,107.3-61.9c1.6,2.8-98.8,58.8-97.1,61.8c1.1,1.9,86.2-52.7,87.5-50.5c0.9,1.5-73.9,45.1-72.6,47.2
					c1,1.7,66.5-40.3,67.4-38.9c0.7,1.3-45.6,30.6-44.8,32c0.4,0.7,26.4-15.9,26.7-15.4"/>
			</g>
		</g>
		<circle class="st3" cx="180" cy="180" r="100.5"/>
		<path class="st3" d="M175.5,53.3v28.4c0,0-5.7,139.8,3.8,224.8c0,0-80,9.5-121.5-87.5c0,0-6.3-25.8-4.9-39
			C62.3,86.7,132,53.1,175.5,53.3z"/>
		<circle class="st4" cx="180" cy="180" r="128.5"/>
		<path d="M178.8,247.9c-37.8-0.2-67.5-30.2-67.3-68.1c0.2-37.8,30.2-67.7,67.9-67.6c38,0.1,67.9,30.2,67.7,68.4
			C247.1,218,216.6,248,178.8,247.9z M188,152.8c6.8,20.2,13.9,41.4,21.1,62.7c3.6-6.8,5.4-13.7,8-20.3c5.4-13.7,5.1-26.4-3.3-39.2
			c-7-10.6-5.1-15.9,5.6-21.9c-24.8-25.3-73.2-18.9-91.1,12.8c5.2-0.2,9.7-0.7,14.2-0.6c2.6,0.1,5.2,1.1,7.7,1.7
			c-2.3,1-4.6,1.9-6.8,2.9c-0.4,0.2-0.6,0.5-1.6,1.3c7.1,21,14.3,42.4,21.5,63.7c0.6-0.1,1.2-0.2,1.8-0.3c4-12,8.1-24,11.9-36
			c0.5-1.7,0.1-3.8-0.4-5.6c-2.2-6.4-4.4-12.8-7.1-19c-0.8-1.9-3.3-3.1-5.1-4.4c-1.4-1-2.9-1.7-4.4-2.5c1.7-0.7,3.4-2.1,5.1-2.1
			c7.8-0.1,15.6,0,23.4,0.2c2.7,0.1,5.4,0.8,8.1,1.3C194.1,149,191.7,150.4,188,152.8z M161.6,239.1c13.6,3.4,25.6,3.6,38.1-1.3
			c-6.4-17.5-12.6-34.4-18.8-51.2c-0.5,0.1-1,0.2-1.5,0.3C173.6,204,167.8,221.1,161.6,239.1z M123.6,155.3
			c-14.8,27.5,0,68.8,28.7,78.8C142.7,207.8,133.3,181.9,123.6,155.3z M233.9,153c-2.5,28.1-16.5,52.3-23.1,79.1
			C237,220.9,249.6,177.1,233.9,153z"/>
	</g>
</g>
<g id="Layer_2">
	<g>
		<circle class="st4" cx="180" cy="180" r="128.5"/>
		<g>
			<g>
				<path class="st2" d="M109.3,78.6c0.3,0.6,21.6-13.2,21.9-12.6c0.6,1.1-43.4,29.5-42.8,30.6c1,1.7,61.6-37.4,62.4-36
					c1.2,2.2-75,46.3-73.8,48.4c1.1,1.8,86.3-52.7,87.6-50.6c1.4,2.4-90.3,54.2-88.7,56.8c1.8,3,97.5-60.1,99.1-57.2
					c1.6,2.8-110.7,65.2-108.9,68.4C68,129.7,182.3,55,184.1,58.1c1.7,2.9-123.3,72.9-121.3,76.4c1.6,2.8,129.9-79.1,131.7-76
					c2.2,3.9-132.9,77.9-131.2,80.9c2,3.5,140.2-85.9,142.3-82.2c2,3.5-148.4,86.9-146.5,90.3c2.1,3.6,146.9-89.9,149.1-86.1
					c2.5,4.4-150.9,87.2-148.3,91.6c2.3,4,157.1-95.7,159.3-92c2.8,4.8-160.9,94.1-158.7,97.8c2,3.5,164.8-100.4,167.1-96.5
					c2.1,3.7-175.5,101-173.1,105.2c2.9,5,175.3-108.1,178.3-102.9c2.1,3.7-180.5,105.3-178.4,109c2.3,4,177.4-109.1,180.3-104.1
					C237.5,74.2,52,176.3,54.2,180.1C57,184.9,235,70.4,237.3,74.4c2.3,4-182.7,105.2-180.2,109.7c3.2,5.5,188-113.9,190.3-109.9
					c2.7,4.7-193.2,111.5-190.9,115.6C59,194.1,250.4,71.2,253.3,76.2c2.4,4.1-199.6,114.2-196.8,119c2.4,4.2,198.4-120.7,201-116.1
					c3.1,5.4-202.8,116.4-200,121.3c2.7,4.6,201.4-124.1,204.8-118.2C265,87,57.8,198.5,61.2,204.4c3.4,5.9,203-123,205.5-118.6
					c3,5.1-212.4,122.8-209.9,127.1c2.9,5,205.7-124.4,208.1-120.1c2.6,4.5-210.2,121.5-207.7,125.8C60.1,223.6,267.7,90,270.7,95.3
					c3.1,5.3-212.5,122.3-209.8,127c2.8,4.8,207.3-127.3,210.6-121.6c2.8,4.8-207.3,119.3-204.8,123.6
					c2.5,4.4,203.4-125.9,207.1-119.6c2.6,4.5-212.2,120.5-208.7,126.5c3.4,5.9,209.5-126.7,212-122.4
					c3,5.2-207.6,120.2-205.2,124.5c3.7,6.4,207.9-126.8,210.9-121.7c3.3,5.7-213.2,121.8-210,127.2
					c3.7,6.4,210.1-129.4,213.6-123.3c3.7,6.3-215.6,123.8-213.1,128.3c3.3,5.8,208.1-126.4,210.8-121.7
					c3.2,5.6-210.1,120-207,125.4C79.6,251.8,286,119,289.3,124.8c3.6,6.2-217.7,123.3-214,129.6C78.6,260.1,287.7,124,291,129.9
					C294.6,136,82,249.5,85.2,255c2.7,4.7,209.6-128.8,213-123c2.6,4.5-218.7,123.8-214.9,130.3c3.2,5.5,211.8-130.6,215.4-124.4
					c3.2,5.5-216.9,123.2-213.5,128.9c2.6,4.5,208.6-127.6,211.7-122.2c3.6,6.2-210.5,121.2-207.7,126.1
					c3.5,6.1,210.4-128.9,213.6-123.3c3.6,6.2-209.7,120.2-207,125C98.9,278,295,151,297.7,155.7c2.4,4.2-197.3,112.8-194.4,117.9
					c2.5,4.4,193.1-117.2,195.5-112.9c2.3,4-192.8,111-190.4,115.2c3.1,5.4,192.5-117,195.1-112.6c3,5.2-201.7,115.2-198.4,120.9
					c2.3,3.9,193.4-117.1,195.8-113c2.3,3.9-190.6,110.7-188.2,114.8c2.7,4.6,185.3-113.7,188.2-108.7
					c2.8,4.8-187.6,109.1-185.3,113c2.7,4.7,185.6-112.5,187.9-108.5c2.8,4.8-183.5,106.5-181.1,110.7
					c2.4,4.2,175.7-108,178.6-103.1c2.1,3.7-175.6,102-173.2,106.1c2.7,4.7,172.9-105.6,175.4-101.3c2.7,4.7-171.7,99.5-169.2,103.9
					c2.7,4.7,167.5-102.1,169.9-98.1c2.5,4.3-166.2,96-163.9,100c2.2,3.9,156.6-95.6,158.9-91.7c2.2,3.8-153.3,88.8-150.8,93.1
					c2.5,4.3,145.6-89.9,148.2-85.5c2,3.5-135.9,81-134.3,83.8c2.2,3.8,135.5-82.1,137.2-79.2c1.6,2.8-133.4,78.8-131.6,81.9
					c1.8,3.2,120.7-74.6,122.8-70.9c1.4,2.4-117.3,69.9-115.9,72.4c1.7,3,111.7-68.8,113.5-65.6c1.3,2.2-101.9,60.8-100.2,63.9
					c1.6,2.9,93.2-57.1,94.6-54.6c1.5,2.6-86.5,52.7-85.1,55.2c1.4,2.4,81.2-50,82.5-47.7c0.9,1.5-67.1,41.8-66.1,43.4
					c0.8,1.4,53.6-32.9,54.4-31.4"/>
			</g>
		</g>
		<circle class="st3" cx="180" cy="180" r="100.5"/>
		<g>
			<path d="M126.2,125.2c0,0,9.8-4.6,26.3-4.6c19.1,0,30,11,30,30.4c0,21-13.6,35.8-33.5,35.8c-3.2,0-6.1-0.3-9.5-0.9v30.8
				c-2.4,0.8-4.6,0.9-6.5,0.9c-3.3,0-6.7-0.9-6.7-0.9V125.2z M139.5,172.8c1.6,0.4,4.9,1.1,8.4,1.1c8.8,0,20.5-3.6,20.5-23
				c0-13.6-7.4-19-16.5-19c-6.6,0-12.9,2-12.9,2L139.5,172.8z"/>
			<path d="M214.3,190.8c-20.7,0-22-10.3-22-19.4c0-13.7,11.5-21.5,23.8-21.5c6.7,0,12,2.1,17.4,7.1c0.4,0.4,0.8,1.3,0.8,2.1
				c0,2.5-2.8,9.2-5.3,9.2c-4-5-7.9-6.7-12.8-6.7c-5.9,0-10.8,2.9-10.8,9.8c0,5.1,1.3,8.2,10.2,8.2c15.4,0,20.6,7.1,20.6,19.1
				c0,14.9-10.3,20.5-21.6,20.5c-8.1,0-16.4-2.8-21.6-7.4h0.1c-0.8-0.4-1.2-1.2-1.2-2c0-3.4,5.8-8.6,7.1-8.6
				c3.3,3.2,9.5,5.5,14.9,5.5c4.9,0,9.2-2.2,9.2-7.9C223,194.1,220.9,190.8,214.3,190.8z"/>
		</g>
	</g>
</g>
<g id="Layer_3" class="st0">
	<g class="st1">
		<g>
			<g>
				<path class="st2" d="M109.6,78.4c0.3,0.6,16.6-10.4,16.9-9.8C127,69.4,89,94.2,89.6,95.2c0.8,1.3,60.1-36.9,61.1-35.2
					c1,1.7-67.8,43.5-67,45c1.4,2.4,85.1-51.5,86.1-49.7c1.3,2.3-95.6,57.5-93.9,60.4c1.6,2.7,99.1-61.1,100.8-58.2
					c1.6,2.8-109.3,64.3-107.5,67.4c1.5,2.5,114.9-70.5,116.7-67.4c1.7,3-125.6,74.8-123.8,77.8c2.1,3.7,130.5-80.2,132.6-76.5
					c2,3.4-132,77.7-130.2,80.9c2,3.4,138.1-84.6,140.2-80.9c1.7,3-146.5,85.9-144.6,89.4c2.6,4.5,153.1-94,155.5-89.8
					c2.3,4-156.7,90.7-154.3,94.8c2.3,4,155.3-95,157.7-91c2.1,3.6-168,96.2-165.2,100.9c2,3.4,169.8-104.4,172.5-99.6
					c3,5.2-174.5,100.4-171.7,105.3c2.4,4.1,170.9-103.8,173.1-99.9c2.9,5-171.2,99.6-169,103.4c2.9,5,173.1-106.5,176-101.6
					C237,74.5,52.3,174.4,55.3,179.5c2.3,4,183.2-111.9,185.8-107.3c2.3,4-186.5,106.5-183.5,111.7C60.1,188.3,243,69.9,246,75.1
					c3.4,5.8-195.6,112-192.6,117.1C55.9,196.6,248,73,251,78.1c3.3,5.7-198.8,113.7-195.6,119.3c3.1,5.4,200.4-123.5,203.8-117.7
					C261.6,83.8,54.9,196.3,58,201.6c2.6,4.5,195.5-119.4,198.4-114.5c3,5.2-202.9,116.6-200.2,121.4c2.8,4.8,204-125.8,207.5-119.8
					C266.7,94.1,54.2,209,57.1,214c2.4,4.2,211-128.1,213.8-123.4c3.2,5.5-216,123.2-212.9,128.5c2.7,4.8,207.2-126.1,210-121.3
					c2.6,4.5-209.7,121.4-207.2,125.8c3.5,6,212.7-129,215.4-124.4c2.9,5.1-213.7,122.6-211,127.2c3.4,5.8,212.1-130,215.4-124.3
					c2.8,4.9-215.8,122.9-212.5,128.8c3.2,5.6,209.7-128.4,212.9-122.9c2.9,5.1-212.4,121.1-209.2,126.7
					c3.6,6.3,207.6-126.2,210.3-121.4c3.2,5.6-214.9,123.4-212.1,128.3c3.3,5.7,211.9-130.6,215.5-124.4
					c3.6,6.3-212.9,120.4-209.5,126.3c3,5.2,207.9-127.3,211.1-121.9c3.4,5.9-211.7,120.1-208.5,125.7
					c2.6,4.5,211.5-129.9,214.9-124.1c2.8,4.8-212.9,123.3-210.3,127.7c2.9,5,210.1-128,213-123c3.6,6.2-212.7,121.9-210.1,126.5
					c2.9,5.1,208.2-126.1,210.8-121.7c3,5.1-212.5,121.8-209.6,126.9c3.6,6.2,203.9-125.6,207.3-119.7
					c2.8,4.8-204.5,117.8-201.8,122.6c3.2,5.6,201.6-124,204.9-118.3c3.4,5.9-210.7,121.9-208.1,126.3
					c2.8,4.8,207.4-126.4,210.3-121.4c2.6,4.5-206.3,117.2-203.1,122.7c3.4,5.8,201.6-124.2,205-118.3
					c2.9,5.1-202.2,117.1-199.7,121.3c3.1,5.4,200-121,202.4-116.9c3.4,5.8-204.5,116.3-201,122.3c2.3,4,199.9-121.7,202.6-117
					c3.1,5.4-194.4,111.5-191.3,116.7c3.1,5.3,184.2-113,187.1-108c2.2,3.8-187.8,107.7-184.9,112.7c3,5.3,183.1-112.4,186-107.4
					c3.1,5.4-187.8,108.1-185,112.9c3.1,5.3,184.7-111.9,187-108c2.9,5-177.3,102.9-175.2,106.4c2.3,4,167.6-102.3,170-98.1
					c2.3,3.9-171.6,98.3-168.6,103.4c2.6,4.5,173.7-106.1,176.2-101.7c2.4,4.1-171.2,99.2-168.8,103.3
					c2.4,4.1,159.5-98.6,162.3-93.7c2.5,4.3-158.7,91.7-156.3,95.8c2.3,4,151.2-93.2,153.8-88.8c1.8,3-150.3,88.6-148.4,92
					c2.4,4.2,148.8-90.6,150.8-87.1c1.9,3.4-142.9,82.5-140.6,86.6c2,3.5,135.8-83.9,138.2-79.8c1.6,2.8-136.6,80.3-135,83.2
					c1.7,3,129.6-78.5,131.2-75.7c1.7,2.9-119.9,70.8-118.3,73.6c1.7,2.9,117.5-71.9,119.2-68.8c1.7,3-117.2,69.9-115.7,72.5
					c1.5,2.7,105.8-64.4,107.3-61.9c1.6,2.8-98.8,58.8-97.1,61.8c1.1,1.9,86.2-52.7,87.5-50.5c0.9,1.5-73.9,45.1-72.6,47.2
					c1,1.7,66.5-40.3,67.4-38.9c0.7,1.3-45.6,30.6-44.8,32c0.4,0.7,26.4-15.9,26.7-15.4"/>
			</g>
		</g>
		<circle class="st3" cx="180" cy="180" r="100.5"/>
		<circle class="st4" cx="180" cy="180" r="128.5"/>
		<g>
			<path d="M148.7,203.8c1.9-0.4,6.1-0.6,11.2-0.6c11.2,0,26.4-0.2,26.3-0.6c3.4,0,4.6,3.1,4.6,5.7c0,2-0.6,3.9-1.5,4.4
				c-3.5,0.6-15.9,1.1-27.7,1.1c-12.7,0-24.4-0.7-24.4-3v-80.5c1.2-0.8,4.5-2.1,7.1-2.1c2.5,0,4.5,0.7,4.5,2.9V203.8z"/>
			<path d="M212.2,174v36.7c-1.4,2.7-3.5,3.5-5.5,3.5c-3.2,0-6.1-2-6.1-3.1v-53.5c0,0,0.7-3.2,6.5-3.2c4.5,0,5.2,2.7,5.2,2.7v4
				c2.8-4,7.3-7.7,15.1-7.7c4.2,0,13.7,3.4,13.7,7.4c0,2.9-3.1,7.8-5.1,7.6c0,0-5-3.1-9.3-3.1C221.6,165.5,214.6,168.8,212.2,174z"
				/>
		</g>
	</g>
</g>
<g id="Layer_4" class="st0">
	<g class="st1">
		<g>
			<g>
				<path class="st2" d="M103.7,81.8c0.3,0.6,25.7-15.7,26-15c0.6,1-45.7,30.7-45,31.9c1.1,1.8,66.1-40.7,67.2-38.8
					c0.9,1.6-74.2,46.5-73.2,48.2c1.5,2.6,90.7-54.9,91.8-53c1.5,2.5-103.6,62.3-102,65c1.8,3.1,110.8-67.6,112.3-64.9
					c1.8,3.1-111,65.9-109.3,69c1.9,3.2,114.8-69.6,116.2-67.1c1.5,2.7-129,75.5-126.8,79.2c2,3.4,130.4-80.2,132.5-76.5
					c2.2,3.9-132.1,78.2-130.3,81.3c1.7,2.9,139.8-85.9,142.1-82C207,62,59.7,143.5,61.9,147.3c2.6,4.6,148.2-89.6,149.9-86.6
					c2.3,3.9-153.6,90-151.4,93.8c1.9,3.3,161.5-98,163.5-94.4c2.2,3.8-172.4,98.2-169.5,103.3c2.8,4.8,170.2-103.6,172.5-99.6
					c2.4,4.2-176.3,102-173.7,106.5c3,5.1,178.2-108,180.4-104.2c2.2,3.9-179.6,103.3-176.9,108c2.5,4.2,177.1-107.5,179.4-103.6
					c2.3,4-178.6,102.7-176,107.1C62.4,181.7,241.6,67.4,244,71.6c3,5.2-188.5,106.9-185.4,112.3c2.5,4.3,183.2-111.7,185.8-107.2
					C246.7,80.6,52.9,187.7,55.3,192c3.3,5.7,197.6-120.4,200.4-115.7c2.8,4.8-202.9,116.8-200.2,121.5
					c3.2,5.6,201.6-123.3,204.6-118.1c3.2,5.6-206.4,118.7-203.7,123.4C59.6,208.6,259.6,78.8,262.6,84
					c3,5.3-210.3,119.7-206.9,125.5c2.5,4.3,203.7-124.8,206.8-119.4C265,94.4,54.8,208.6,57.9,213.9
					C61,219.3,263.3,87.3,266.8,93.3C270.3,99.5,59.7,212,62.7,217.2c2.9,5,206.2-126.5,209.4-120.9
					c3.4,5.8-211.2,122.3-208.7,126.7c2.5,4.3,210.3-127.5,213-122.9c3.7,6.3-213.2,121.7-210.3,126.7
					c3,5.1,209.1-128.5,212.5-122.7c3.2,5.6-216.7,123-213.3,129c3.2,5.5,211.6-130.7,215.3-124.3c2.6,4.6-211.1,120.8-208,126.1
					c2.7,4.7,210.2-128.6,213.3-123.2c3.2,5.5-215.3,124.5-212.7,129C75.8,245,287,111.2,289.6,115.7c2.7,4.7-221,126.7-218.1,131.6
					c3.6,6.2,216.4-132.5,219.7-126.8c2.7,4.7-219.4,124.4-215.9,130.3c2.6,4.4,212.5-129.3,215.4-124.3
					c3.5,6.1-217.7,123.1-214.2,129.1c2.9,5,218-132.8,221-127.6c3.1,5.4-218.6,124.4-215.1,130.4c2.9,5,211.6-128.7,214.4-123.8
					c3.2,5.6-215.9,124.8-213.3,129.4c2.5,4.3,207.5-126.7,210.5-121.5c2.9,5.1-208.2,119.7-205.7,124
					c2.7,4.6,204.4-125.2,207.5-119.8c3.4,5.9-203.6,115.5-200.3,121.3c3,5.2,204.4-125.3,207.6-119.8
					c3.1,5.4-212.9,121.1-209.9,126.4c3.3,5.7,202.8-122.9,205.4-118.6c3,5.3-200.1,113.6-196.7,119.6
					c2.4,4.2,194.6-119.2,197.6-114.1c2.3,4-193.5,110.5-190.5,115.7c2.6,4.5,190.8-117.5,194-112c2.9,4.9-197.3,112.6-194.2,117.8
					c2.3,3.9,193.7-118,196.4-113.4c3,5.2-189.9,109.7-187.5,113.8c2.4,4.2,179.9-110.3,182.7-105.5
					c3.1,5.3-187.4,106.7-184.3,112.1c2.9,5,188-115.6,191.1-110.3c3.1,5.3-184.5,105.3-181.7,110.2
					c2.5,4.3,178.1-108.6,180.6-104.2c2.4,4.2-175.7,102.4-173.6,106c2.3,3.9,172.5-105.1,174.9-101c3,5.2-173.2,100.9-171.1,104.6
					c1.9,3.4,165.1-100,167.1-96.5c2.4,4.2-166.8,95.2-164,100c2.4,4.1,156.1-96.2,158.7-91.6c2.5,4.4-153,88.9-150.8,92.9
					c2.5,4.3,152.2-93.3,154.5-89.2c1.8,3.1-145.7,83.9-143.2,88.2c2.2,3.7,135.6-82.8,137.6-79.4c2.2,3.9-136.7,79.3-134.6,83
					c1.6,2.7,130-79.2,131.8-76.1c2,3.4-128.1,76-126.5,78.8c1.7,3,119.9-72.5,121.4-70.1c1.7,3-114,67.9-112.3,70.9
					c1.4,2.4,111.9-68,113.4-65.5c1.5,2.5-97,58.3-95.6,60.7c1.5,2.5,87.6-53.4,88.9-51.3c1.2,2-83,51.7-82,53.4
					c1,1.8,67.6-41.7,68.7-39.7c0.9,1.5-51.5,33.4-50.7,34.7c0.7,1.1,39.2-23.7,39.6-22.9"/>
			</g>
		</g>
		<circle class="st3" cx="180" cy="180" r="100.5"/>
		<path class="st3" d="M175.5,53.6V82c0,0-24.1-1.7-58.5,22L97.5,83.5C113.7,66.5,151.5,51,175.5,53.6z"/>
		<circle class="st4" cx="180" cy="180" r="128.5"/>
		<g>
			<path d="M147.6,228.7c0,2.9-4,4.4-7.4,4.4c-3.8,0-7.3-1.4-7.3-3.8l-0.2-103.7c0-1.4,4.9-3.8,8.8-3.8c3,0,5.6,0.9,5.9,3.5
				L147.6,228.7z"/>
			<path d="M224.8,227.4c0,0-11.4,7-30.2,7c-21.9,0-34.7-13.8-34.7-36.2c0-24.3,16-43,39.5-43c3.5,0,6.7,0.2,10.2,0.9v-29.5
				c0,0,1.5-3.3,9.4-3.3c5.8,0,5.8,3.8,5.8,3.8V227.4z M209.9,194.1c0-7.8-0.2-14.9-0.2-22.8h-0.5c-1.7-0.3-4.4-0.8-7.6-0.8
				c-10.3,0-25.7,4-25.7,27.7c0,15.8,8.7,21.7,19,21.7c7.8,0,14.9-2.9,14.9-2.9V194.1z"/>
		</g>
	</g>
</g>
<g id="Layer_5" class="st0">
	<g class="st1">
		<g>
			<g>
				<path class="st2" d="M109.3,78.6c0.3,0.6,21.6-13.2,21.9-12.6c0.6,1.1-43.4,29.5-42.8,30.6c1,1.7,61.6-37.4,62.4-36
					c1.2,2.2-75,46.3-73.8,48.4c1.1,1.8,86.3-52.7,87.6-50.5c1.4,2.4-90.3,54.2-88.7,56.8c1.8,3,97.5-60.1,99.1-57.2
					c1.6,2.8-110.7,65.2-108.9,68.4C68,129.7,182.3,55,184.1,58.1c1.7,2.9-123.3,72.9-121.3,76.4c1.6,2.8,129.9-79.1,131.7-76
					c2.2,3.9-132.9,77.9-131.2,80.9c2,3.5,140.2-85.9,142.3-82.2c2,3.5-148.4,86.9-146.5,90.2c2.1,3.6,146.9-89.9,149.1-86.1
					c2.5,4.4-150.8,87.2-148.3,91.6c2.3,4,157.1-95.7,159.3-92c2.8,4.8-160.9,94.1-158.7,97.8c2,3.5,164.8-100.4,167.1-96.5
					c2.1,3.7-175.5,101-173.1,105.2c2.9,5,175.3-108.1,178.3-102.9c2.1,3.7-180.5,105.3-178.4,109c2.3,4,177.4-109.1,180.3-104.1
					C237.5,74.2,52,176.3,54.2,180.1C57,184.9,235,70.4,237.3,74.4c2.3,4-182.7,105.2-180.1,109.7c3.2,5.5,188-113.9,190.3-109.9
					c2.7,4.7-193.2,111.5-190.9,115.6C59,194.1,250.4,71.2,253.3,76.2c2.4,4.1-199.6,114.2-196.8,119c2.4,4.2,198.4-120.7,201-116.1
					c3.1,5.4-202.8,116.4-200,121.3c2.7,4.6,201.4-124.1,204.8-118.2C265,87,57.8,198.5,61.2,204.4c3.4,5.9,203-123,205.5-118.6
					c3,5.1-212.4,122.8-209.9,127.1c2.9,5,205.7-124.4,208.1-120.1c2.6,4.5-210.2,121.5-207.7,125.8C60.1,223.6,267.7,90,270.7,95.3
					c3.1,5.3-212.5,122.3-209.8,127c2.8,4.8,207.3-127.3,210.6-121.6c2.8,4.8-207.3,119.3-204.8,123.6
					c2.5,4.4,203.4-125.9,207.1-119.6c2.6,4.5-212.2,120.5-208.7,126.5c3.4,5.9,209.5-126.7,212-122.4
					c3,5.2-207.6,120.2-205.2,124.5c3.7,6.4,207.9-126.8,210.8-121.7c3.3,5.7-213.2,121.8-210,127.2
					c3.7,6.4,210.1-129.4,213.6-123.3c3.7,6.3-215.6,123.8-213.1,128.3c3.3,5.8,208.1-126.4,210.8-121.7
					c3.2,5.6-210.1,120-207,125.4C79.6,251.8,286,119,289.3,124.8c3.6,6.2-217.7,123.3-214,129.6C78.6,260.1,287.7,124,291,129.9
					C294.6,136,82,249.5,85.2,254.9c2.7,4.7,209.6-128.8,213-123c2.6,4.5-218.7,123.8-214.9,130.3c3.2,5.5,211.8-130.6,215.4-124.4
					c3.2,5.5-216.9,123.2-213.5,128.9c2.6,4.5,208.6-127.5,211.7-122.2c3.6,6.2-210.5,121.2-207.7,126.1
					c3.5,6.1,210.4-128.9,213.6-123.3c3.6,6.2-209.7,120.2-207,125C98.9,278,295,151,297.7,155.7c2.4,4.2-197.3,112.8-194.4,117.9
					c2.5,4.4,193.1-117.2,195.5-112.9c2.3,4-192.8,111-190.4,115.2c3.1,5.4,192.5-117,195.1-112.6c3,5.2-201.7,115.2-198.4,120.9
					c2.3,3.9,193.4-117.1,195.8-113c2.3,3.9-190.6,110.7-188.2,114.8c2.7,4.6,185.3-113.7,188.2-108.7
					c2.8,4.8-187.6,109.1-185.3,113c2.7,4.7,185.6-112.5,187.9-108.5c2.8,4.8-183.5,106.5-181.1,110.7
					c2.4,4.2,175.7-108,178.6-103.1c2.1,3.7-175.6,102-173.2,106.1c2.7,4.7,172.9-105.6,175.4-101.3c2.7,4.7-171.7,99.5-169.2,103.9
					c2.7,4.7,167.5-102.1,169.9-98.1c2.5,4.3-166.2,96-163.9,100c2.2,3.9,156.6-95.6,158.9-91.7c2.2,3.8-153.3,88.8-150.8,93.1
					c2.5,4.3,145.6-89.9,148.2-85.5c2,3.5-135.9,81-134.3,83.8c2.2,3.8,135.5-82.1,137.2-79.2c1.6,2.8-133.4,78.8-131.6,81.9
					c1.8,3.2,120.7-74.6,122.8-70.9c1.4,2.4-117.3,69.9-115.9,72.4c1.7,3,111.6-68.8,113.5-65.6c1.3,2.2-101.9,60.8-100.2,63.9
					c1.6,2.9,93.2-57.1,94.6-54.6c1.5,2.6-86.5,52.7-85.1,55.2c1.4,2.4,81.2-50,82.5-47.7c0.9,1.5-67.1,41.8-66.1,43.4
					c0.8,1.4,53.6-32.9,54.4-31.4"/>
			</g>
		</g>
		<circle class="st3" cx="180" cy="180" r="100.5"/>
		<circle class="st5" cx="180" cy="180" r="128.5"/>
		<path d="M209.3,99c0,7.6,0,15.1,0,22.8c-2.5,0-4.9,0-7.6,0c0-3.5,0-7,0-10.5c-0.1,0-0.2-0.1-0.3-0.1c-1.6,2.5-3.2,4.9-5,7.6
			c-1.7-2.6-3.3-5.1-5.3-8c0,4,0,7.4,0,11c-2.6,0-5,0-7.6,0c0-0.7,0-1.3,0-2c0-6.3,0-12.6,0-18.9c0-0.7-0.1-1.3-0.2-2
			c2.8,0,5.5,0,8.3,0c1.5,2.6,3.1,5.2,4.8,7.9c1.7-2.8,3.3-5.4,4.9-7.9C204,99,206.6,99,209.3,99z"/>
		<path d="M155.9,99c0,7.6,0,15.1,0,22.8c-2.6,0-5.1,0-7.7,0c0-2.4,0-4.9,0-7.5c-2.4,0-4.6,0-7,0c0,2.5,0,4.9,0,7.5
			c-2.7,0-5.1,0-7.9,0c0-7.6,0-15.2,0-22.8c2.7,0,5.3,0,8,0c0,2.5,0,4.9,0,7.5c2.2,0,4.4,0,6.6,0c0-2.6,0-5,0-7.5
			C150.6,99,153.2,99,155.9,99z"/>
		<path d="M180.4,99c0,2.5,0,4.9,0,7.6c-2.4,0-4.5,0-6.9,0c0,5.2,0,10.2,0,15.3c-2.6,0-5.1,0-7.7,0c0-5,0-10,0-15.1
			c-2.3,0-4.4,0-7,0c0-2.7,0-5.2,0-7.7C166,99,173.2,99,180.4,99z"/>
		<path d="M220.9,99c0,5,0,10,0,15.2c3.6,0,7.1,0,10.7,0c0,2.6,0,5.1,0,7.6c-6.2,0-12.2,0-18.5,0c0-0.7,0-1.4,0-2
			c0-6.3,0-12.6,0-18.9c0-0.7-0.1-1.3-0.2-2C215.6,99,218.2,99,220.9,99z"/>
		<path class="st3" d="M147.9,99c0,2.5,0,4.9,0,7.5c-2.2,0-4.4,0-6.6,0c0-2.6,0-5,0-7.5C143.5,99,145.7,99,147.9,99z"/>
		<path class="st3" d="M201.3,99c-1.6,2.6-3.2,5.1-4.9,7.9c-1.7-2.8-3.2-5.4-4.8-7.9C194.9,99,198.1,99,201.3,99z"/>
		<path d="M242.4,132.7c-0.3,3.3-0.5,6.5-0.8,9.7c-0.5,5.7-1,11.4-1.5,17.2c-0.6,6.8-1.2,13.6-1.8,20.5c-0.6,6.8-1.2,13.5-1.8,20.3
			c-0.6,6.9-1.3,13.9-1.9,20.8c-0.6,6.8-1.2,13.5-1.8,20.3c-0.4,4.1-0.7,8.2-1.1,12.4c-0.1,1.1-0.6,1.6-1.6,1.9
			c-15.5,4.3-30.9,8.6-46.4,12.8c-0.7,0.2-1.6,0.3-2.4,0c-15.5-4.3-30.9-8.6-46.4-12.8c-1.2-0.3-1.7-0.9-1.8-2.1
			c-0.9-10.5-1.8-21-2.7-31.5c-0.9-10.6-2-21.1-2.9-31.7c-0.8-9.3-1.6-18.6-2.4-27.9c-0.8-9.3-1.7-18.6-2.6-27.9
			c-0.1-0.6,0-1.2,0-1.9C162.4,132.7,202.3,132.7,242.4,132.7z M144.5,157.3c0.1,1.1,0.1,1.8,0.1,2.6c0.6,6.9,1.2,13.9,1.9,20.8
			c0.6,6.9,1.3,13.7,1.8,20.6c0.1,1.6,0.7,2,2.2,2c15.9,0,31.8,0,47.8,0c0.7,0,1.4,0,2.3,0c-0.1,1.8-0.3,3.2-0.4,4.7
			c-0.4,4.2-0.7,8.4-1.1,12.5c-0.1,1.4-0.7,2.1-2.1,2.4c-4.5,1.1-8.9,2.4-13.4,3.6c-0.8,0.2-1.8,0.3-2.6,0.1
			c-4.6-1.2-9.3-2.5-13.9-3.7c-1.1-0.3-1.5-0.8-1.6-1.9c-0.2-3-0.5-5.9-0.7-8.9c-0.1-1.1-0.4-1.7-1.7-1.7c-4.2,0.1-8.4,0-12.6,0
			c-0.4,0-0.8,0.1-1.3,0.2c0,0.6,0,1,0,1.4c0.6,6.9,1.3,13.9,1.8,20.8c0.1,1.2,0.6,1.7,1.7,2c9.4,2.6,18.8,5.2,28.2,7.8
			c0.9,0.3,2.1,0.2,3-0.1c8.6-2.3,17.1-4.7,25.7-7.1c3.6-1,3.6-1,4-4.7c0-0.2,0.1-0.3,0.1-0.5c0.5-5.7,1-11.4,1.6-17.1
			c0.5-5.6,1-11.2,1.5-16.8c0.2-2.8,0.5-5.6,0.7-8.6c-18.4,0-36.7,0-55,0c-0.5-5.1-0.9-10-1.4-15.1c0.7,0,1.3,0,1.9,0
			c4.1,0,8.2,0,12.3,0c13.9,0,27.8,0,41.6,0.1c1.2,0,1.9-0.1,2-1.6c0.2-3.8,0.6-7.6,1-11.4c0.3-2.5,0.4-2.5-2.1-2.5
			c-23.8,0-47.7,0-71.5,0C146,157.3,145.4,157.3,144.5,157.3z"/>
		<polygon class="st6" points="221,246.1 182.6,257.9 182.6,141.6 231.4,141.6 		"/>
		<path class="st3" d="M144.5,157.3c0.8,0,1.4,0,2,0c23.8,0,47.7,0,71.5,0c2.4,0,2.4,0,2.1,2.5c-0.4,3.8-0.8,7.6-1,11.4
			c-0.1,1.5-0.8,1.6-2,1.6c-13.9,0-27.8-0.1-41.6-0.1c-4.1,0-8.2,0-12.3,0c-0.6,0-1.2,0-1.9,0c0.5,5.1,0.9,10,1.4,15.1
			c18.3,0,36.5,0,55,0c-0.2,3-0.5,5.8-0.7,8.6c-0.5,5.6-1,11.2-1.5,16.8c-0.5,5.7-1,11.4-1.6,17.1c0,0.2-0.1,0.3-0.1,0.5
			c-0.4,3.7-0.4,3.7-4,4.7c-8.6,2.4-17.1,4.8-25.7,7.1c-1,0.3-2.1,0.3-3,0.1c-9.4-2.6-18.8-5.2-28.2-7.8c-1.1-0.3-1.6-0.8-1.7-2
			c-0.6-6.9-1.2-13.9-1.8-20.8c0-0.4,0-0.9,0-1.4c0.4-0.1,0.8-0.2,1.3-0.2c4.2,0,8.4,0,12.6,0c1.3,0,1.6,0.6,1.7,1.7
			c0.2,3,0.5,5.9,0.7,8.9c0.1,1.1,0.5,1.6,1.6,1.9c4.6,1.2,9.3,2.5,13.9,3.7c0.8,0.2,1.7,0.2,2.6-0.1c4.5-1.1,8.9-2.4,13.4-3.6
			c1.4-0.3,2-1.1,2.1-2.4c0.3-4.2,0.7-8.4,1.1-12.5c0.1-1.5,0.2-2.9,0.4-4.7c-0.9,0-1.6,0-2.3,0c-15.9,0-31.8-0.1-47.8,0
			c-1.5,0-2.1-0.4-2.2-2c-0.5-6.9-1.2-13.8-1.8-20.6c-0.6-6.9-1.2-13.9-1.9-20.8C144.6,159.1,144.6,158.4,144.5,157.3z"/>
	</g>
</g>
<g id="Layer_6" class="st0">
	<g class="st1">
		<g>
			<g>
				<path class="st2" d="M109.6,78.4c0.3,0.6,16.6-10.4,16.9-9.8C127,69.4,89,94.2,89.6,95.2c0.8,1.3,60.1-36.9,61.1-35.2
					c1,1.7-67.8,43.5-67,45c1.4,2.4,85.1-51.5,86.1-49.7c1.3,2.3-95.6,57.5-93.9,60.4c1.6,2.7,99.1-61.1,100.8-58.2
					c1.6,2.8-109.3,64.3-107.5,67.4c1.5,2.5,114.9-70.5,116.7-67.4c1.7,3-125.6,74.8-123.8,77.8c2.1,3.7,130.5-80.2,132.6-76.5
					c2,3.4-132,77.7-130.2,80.9c2,3.4,138.1-84.6,140.2-80.9c1.7,3-146.5,85.9-144.6,89.4c2.6,4.5,153.1-94,155.5-89.8
					c2.3,4-156.7,90.7-154.3,94.8c2.3,4,155.3-95,157.7-91c2.1,3.6-168,96.2-165.2,100.9c2,3.4,169.8-104.4,172.5-99.6
					c3,5.2-174.5,100.4-171.7,105.3c2.4,4.1,170.9-103.8,173.1-99.9c2.9,5-171.2,99.6-169,103.4c2.9,5,173.1-106.5,176-101.6
					C237,74.5,52.3,174.4,55.3,179.5c2.3,4,183.2-111.9,185.8-107.3c2.3,4-186.5,106.5-183.5,111.7C60.1,188.3,243,69.9,246,75.1
					c3.4,5.8-195.6,112-192.6,117.1C55.9,196.6,248,73,251,78.1c3.3,5.7-198.8,113.7-195.6,119.3c3.1,5.4,200.4-123.5,203.8-117.7
					C261.6,83.8,54.9,196.3,58,201.6c2.6,4.5,195.5-119.4,198.4-114.5c3,5.2-202.9,116.6-200.2,121.4c2.8,4.8,204-125.8,207.5-119.8
					C266.7,94.1,54.2,209,57.1,214c2.4,4.2,211-128.1,213.8-123.4c3.2,5.5-216,123.2-212.9,128.5c2.7,4.8,207.2-126.1,210-121.3
					c2.6,4.5-209.7,121.4-207.2,125.8c3.5,6,212.7-129,215.4-124.4c2.9,5.1-213.7,122.6-211,127.2c3.4,5.8,212.1-130,215.4-124.3
					c2.8,4.9-215.8,122.9-212.5,128.8c3.2,5.6,209.7-128.4,212.9-122.9c2.9,5.1-212.4,121.1-209.2,126.7
					c3.6,6.3,207.6-126.2,210.3-121.4c3.2,5.6-214.9,123.4-212.1,128.3c3.3,5.7,211.9-130.6,215.5-124.4
					c3.6,6.3-212.9,120.4-209.5,126.3c3,5.2,207.9-127.3,211.1-121.9c3.4,5.9-211.7,120.1-208.5,125.7
					c2.6,4.5,211.5-129.9,214.9-124.1c2.8,4.8-212.9,123.3-210.3,127.7c2.9,5,210.1-128,213-123c3.6,6.2-212.7,121.9-210.1,126.5
					c2.9,5.1,208.2-126.1,210.8-121.7c3,5.1-212.5,121.8-209.6,126.9c3.6,6.2,203.9-125.6,207.3-119.7
					c2.8,4.8-204.5,117.8-201.8,122.6c3.2,5.6,201.6-124,204.9-118.3c3.4,5.9-210.7,121.9-208.1,126.3
					c2.8,4.8,207.4-126.4,210.3-121.4c2.6,4.5-206.3,117.2-203.1,122.7c3.4,5.8,201.6-124.2,205-118.3
					c2.9,5.1-202.2,117.1-199.7,121.3c3.1,5.4,200-121,202.4-116.9c3.4,5.8-204.5,116.3-201,122.3c2.3,4,199.9-121.7,202.6-117
					c3.1,5.4-194.4,111.5-191.3,116.7c3.1,5.3,184.2-113,187.1-108c2.2,3.8-187.8,107.7-184.9,112.7c3,5.3,183.1-112.4,186-107.4
					c3.1,5.4-187.8,108.1-185,112.9c3.1,5.3,184.7-111.9,187-108c2.9,5-177.3,102.9-175.2,106.4c2.3,4,167.6-102.3,170-98.1
					c2.3,3.9-171.6,98.3-168.6,103.4c2.6,4.5,173.7-106.1,176.2-101.7c2.4,4.1-171.2,99.2-168.8,103.3
					c2.4,4.1,159.5-98.6,162.3-93.7c2.5,4.3-158.7,91.7-156.3,95.8c2.3,4,151.2-93.2,153.8-88.8c1.8,3-150.3,88.6-148.4,92
					c2.4,4.2,148.8-90.6,150.8-87.1c1.9,3.4-142.9,82.5-140.6,86.6c2,3.5,135.8-83.9,138.2-79.8c1.6,2.8-136.6,80.3-135,83.2
					c1.7,3,129.6-78.5,131.2-75.7c1.7,2.9-119.9,70.8-118.3,73.6c1.7,2.9,117.5-71.9,119.2-68.8c1.7,3-117.2,69.9-115.7,72.5
					c1.5,2.7,105.8-64.4,107.3-61.9c1.6,2.8-98.8,58.8-97.1,61.8c1.1,1.9,86.2-52.7,87.5-50.5c0.9,1.5-73.9,45.1-72.6,47.2
					c1,1.7,66.5-40.3,67.4-38.9c0.7,1.3-45.6,30.6-44.8,32c0.4,0.7,26.4-15.9,26.7-15.4"/>
			</g>
		</g>
		<circle class="st3" cx="180" cy="180" r="100.5"/>
		<path class="st3" d="M175.5,53.6V82c0,0-24.1-1.7-58.5,22L97.5,83.5C113.7,66.5,151.5,51,175.5,53.6z"/>
		<circle class="st4" cx="180" cy="180" r="128.5"/>
		<path d="M182,269c-1.3,0-2.7,0-4,0c-13.1-1.6-25.8-4.7-38.3-8.5c-7-2.1-7.4-2.6-8.1-9.9c-3.2-31.4-5.6-62.9-8.8-94.3
			c-0.3-3.3-0.3-6.6-0.8-9.9c-0.3-2.1,0.3-3.9,2-5.3c37.3,0,74.7,0,112,0c1.9,1.5,2.2,3.5,2,5.8c-2.6,26.6-4.8,53.3-7.4,79.9
			c-0.8,8.3-1.5,16.5-2.3,24.8c-0.6,5.9-1.3,6.9-7.1,8.7C208.4,264.1,195.4,267.5,182,269z"/>
		<path class="st7" d="M180,245.1c-7.8-2.4-15.6-4.8-23.4-7c-2.6-0.7-3.8-1.9-3.9-4.7c-0.1-4.5-0.7-9-1.3-13.4
			c-0.3-2.2,0.3-3.1,2.5-2.9c2,0.1,4,0.2,6,0c4.6-0.6,7.4,0.6,7.1,5.8c-0.1,1.9,1.3,2.5,2.8,3c2.7,0.8,5.4,1.6,8.1,2.3
			c8.2-1.2,12.8-5.8,12.9-12.6c0-2.8-1-4-3.7-4.1c-2.6-0.1-5.3,0.1-7.3-2.3c-8.7-0.1-17.3-0.2-26-0.1c-2.7,0-3.7-0.8-4-3.6
			c-1.2-12.4-1.3-12.4,10.4-16.9c5.7-2.2,11.4-4.4,17.1-7.5c-8.1,0-16.3-0.2-24.4,0.1c-4,0.2-5.3-0.9-5.7-5
			C146.3,165,146,165,157,165c7.7,0,15.3-0.1,23-0.2c1.4-1.6,3.3-2.1,5.4-2.1c7.7-0.1,15.3-0.3,22.9,0.1c5.4,0.2,6.6,1.6,7,7
			c0.2,3.5-0.6,6.9-1.3,10.4c-0.4,1.9-1.6,3.3-3.4,4c-7.1,2.7-14,6.1-21.7,7.4c6.3-1.2,12.7-1,19.1-0.5c3.4,0.2,5.3,2.2,5,5.6
			c-1.2,12.6-1.9,25.2-3.6,37.7c-0.4,3-1.8,5-4.6,5.9c-6.6,2.2-13.3,4.2-20.1,6C182.9,246.5,181.3,246.4,180,245.1z"/>
		<path class="st8" d="M180,245.1c7.8-2.4,15.6-4.8,23.4-7c2.6-0.7,3.6-1.9,3.9-4.7c0.9-12.3,2.1-24.6,3.4-36.8
			c0.3-3.2-0.8-3.6-3.5-3.6c-8.2,0.1-16.3,0-24.7-0.8c7-2.7,14-5.2,20.9-8c2.9-1.1,7.3-1.1,8.2-3.9c1.5-4.1,1.2-8.8,1.5-13.3
			c0.2-2.8-2.2-1.9-3.6-1.9c-9.8-0.1-19.7-0.1-29.5-0.2c0-3.8,0.1-7.7,0-11.5c-0.1-2.8,0.9-4.4,4-4.4c13,0,26,0,38.9,0
			c2.8,0,3.7,0.9,3.4,3.9c-2.5,23.9-4.8,47.9-7.2,71.8c-0.7,6.8-1.4,13.5-2,20.3c-0.2,2.7-1.3,4.3-3.9,5c-9.9,2.9-19.8,5.9-29.6,8.9
			c-2.8,0.9-3.6-0.4-3.6-2.9C180,252.4,180,248.7,180,245.1z"/>
		<path class="st8" d="M180,209.2c3.5-0.1,6.9,0.1,10.4-0.2c3.4-0.3,4,1.2,3.4,4.1c-0.2,1.1-0.2,2.3-0.5,3.4
			c-0.6,2.8,1.1,6.7-1.5,8.4c-3.7,2.3-8.1,3.4-12.6,4c-0.4,0.1-0.8-0.5-1.2-0.7c2.1-0.9,2-2.8,2-4.6C180,218.7,180,213.9,180,209.2z
			"/>
		<g>
			<path d="M150.5,110.9c-1.2,0-2.2,0.3-3.1,0.8c-0.8,0.6-1.5,1.3-2,2.2c-0.5,0.9-0.9,1.9-1.1,2.9c-0.2,1.1-0.3,2.1-0.3,3.2
				c0,1,0.1,2,0.3,3.1c0.2,1,0.6,2,1.1,2.8c0.5,0.8,1.1,1.5,2,2.1c0.8,0.5,1.8,0.8,3,0.8c1.8,0,3.2-0.5,4.2-1.5c1-1,1.6-2.4,1.9-4.1
				h7.4c-0.5,3.7-1.9,6.5-4.3,8.5c-2.4,1.9-5.4,2.9-9.1,2.9c-2.1,0-4-0.4-5.8-1.1c-1.7-0.7-3.2-1.7-4.5-2.9
				c-1.2-1.3-2.2-2.8-2.9-4.5c-0.7-1.7-1-3.7-1-5.8c0-2.2,0.3-4.2,0.9-6c0.6-1.9,1.6-3.5,2.8-4.8c1.2-1.4,2.7-2.4,4.5-3.2
				c1.8-0.8,3.8-1.1,6-1.1c1.7,0,3.2,0.2,4.8,0.6c1.5,0.4,2.9,1.1,4.1,2c1.2,0.9,2.2,2,2.9,3.3c0.8,1.3,1.2,2.9,1.3,4.7h-7.5
				C155.7,112.5,153.8,110.9,150.5,110.9z"/>
			<path d="M174.6,126.9c0.3,0.6,0.8,1.1,1.3,1.5s1.2,0.7,1.9,0.8c0.7,0.2,1.4,0.3,2.2,0.3c0.5,0,1.1-0.1,1.7-0.2
				c0.6-0.1,1.1-0.3,1.6-0.6c0.5-0.3,0.9-0.6,1.2-1.1c0.3-0.4,0.5-1,0.5-1.7c0-1.2-0.8-2-2.3-2.6c-1.5-0.6-3.7-1.2-6.4-1.7
				c-1.1-0.3-2.2-0.5-3.3-0.9c-1.1-0.3-2-0.8-2.8-1.4c-0.8-0.6-1.5-1.3-2-2.1c-0.5-0.8-0.8-1.9-0.8-3.1c0-1.8,0.4-3.3,1.1-4.4
				c0.7-1.2,1.6-2.1,2.8-2.7c1.2-0.7,2.4-1.1,3.9-1.4c1.4-0.3,2.9-0.4,4.4-0.4c1.5,0,3,0.1,4.4,0.4c1.4,0.3,2.7,0.8,3.8,1.5
				c1.1,0.7,2,1.6,2.8,2.7c0.7,1.1,1.2,2.6,1.3,4.3h-7.3c-0.1-1.5-0.7-2.5-1.7-3c-1-0.5-2.2-0.8-3.6-0.8c-0.4,0-0.9,0-1.4,0.1
				c-0.5,0.1-1,0.2-1.4,0.4c-0.4,0.2-0.8,0.4-1.1,0.8c-0.3,0.3-0.4,0.8-0.4,1.4c0,0.7,0.3,1.2,0.8,1.7c0.5,0.4,1.2,0.8,2,1.1
				s1.7,0.5,2.8,0.7c1,0.2,2.1,0.5,3.2,0.7c1.1,0.3,2.2,0.6,3.3,0.9c1.1,0.4,2,0.8,2.8,1.4c0.8,0.6,1.5,1.3,2,2.2
				c0.5,0.9,0.8,2,0.8,3.3c0,1.8-0.4,3.4-1.1,4.6c-0.7,1.2-1.7,2.2-2.9,3s-2.5,1.3-4.1,1.6c-1.5,0.3-3.1,0.5-4.7,0.5
				c-1.6,0-3.2-0.2-4.8-0.5c-1.5-0.3-2.9-0.9-4.1-1.6c-1.2-0.8-2.2-1.8-3-3c-0.8-1.2-1.2-2.8-1.3-4.7h7.3
				C174.1,125.6,174.3,126.3,174.6,126.9z"/>
			<path d="M203.6,126.9c0.3,0.6,0.8,1.1,1.3,1.5s1.2,0.7,1.9,0.8c0.7,0.2,1.4,0.3,2.2,0.3c0.5,0,1.1-0.1,1.7-0.2
				c0.6-0.1,1.1-0.3,1.6-0.6c0.5-0.3,0.9-0.6,1.2-1.1c0.3-0.4,0.5-1,0.5-1.7c0-1.2-0.8-2-2.3-2.6c-1.5-0.6-3.7-1.2-6.4-1.7
				c-1.1-0.3-2.2-0.5-3.3-0.9c-1.1-0.3-2-0.8-2.8-1.4c-0.8-0.6-1.5-1.3-2-2.1c-0.5-0.8-0.8-1.9-0.8-3.1c0-1.8,0.4-3.3,1.1-4.4
				c0.7-1.2,1.6-2.1,2.8-2.7c1.2-0.7,2.4-1.1,3.9-1.4s2.9-0.4,4.4-0.4c1.5,0,3,0.1,4.4,0.4c1.4,0.3,2.7,0.8,3.8,1.5
				c1.1,0.7,2,1.6,2.8,2.7c0.7,1.1,1.2,2.6,1.3,4.3h-7.3c-0.1-1.5-0.7-2.5-1.7-3c-1-0.5-2.2-0.8-3.6-0.8c-0.4,0-0.9,0-1.4,0.1
				c-0.5,0.1-1,0.2-1.4,0.4c-0.4,0.2-0.8,0.4-1.1,0.8c-0.3,0.3-0.4,0.8-0.4,1.4c0,0.7,0.3,1.2,0.8,1.7c0.5,0.4,1.2,0.8,2,1.1
				c0.8,0.3,1.7,0.5,2.8,0.7c1,0.2,2.1,0.5,3.2,0.7c1.1,0.3,2.2,0.6,3.3,0.9c1.1,0.4,2,0.8,2.8,1.4c0.8,0.6,1.5,1.3,2,2.2
				c0.5,0.9,0.8,2,0.8,3.3c0,1.8-0.4,3.4-1.1,4.6c-0.7,1.2-1.7,2.2-2.9,3c-1.2,0.8-2.5,1.3-4.1,1.6c-1.5,0.3-3.1,0.5-4.7,0.5
				c-1.6,0-3.2-0.2-4.8-0.5c-1.5-0.3-2.9-0.9-4.1-1.6c-1.2-0.8-2.2-1.8-3-3c-0.8-1.2-1.2-2.8-1.3-4.7h7.3
				C203.1,125.6,203.3,126.3,203.6,126.9z"/>
		</g>
	</g>
</g>
<g id="Layer_7" class="st0">
	<g class="st1">
		<g>
			<path class="st9" d="M109.6,78.4c0.3,0.6,16.6-10.3,16.9-9.8c0.5,0.8-37.5,25.5-36.9,26.5c0.8,1.3,60-36.9,60.9-35.2
				c1,1.7-67.7,43.4-66.9,44.9c1.4,2.4,84.9-51.4,86-49.6c1.3,2.3-95.4,57.4-93.8,60.3c1.6,2.7,98.9-61,100.6-58.1
				c1.6,2.8-109.2,64.2-107.4,67.3c1.5,2.5,114.7-70.4,116.5-67.3c1.7,3-125.4,74.6-123.6,77.6c2.1,3.7,130.3-80.1,132.4-76.4
				c2,3.4-131.8,77.5-130,80.8c2,3.4,137.9-84.5,140-80.8c1.7,3-146.3,85.8-144.3,89.2c2.6,4.5,152.9-93.9,155.3-89.7
				c2.3,4-156.4,90.6-154.1,94.6c2.3,4,155.1-94.9,157.4-90.9c2.1,3.6-167.7,96-165,100.7c2,3.4,169.5-104.2,172.3-99.5
				c3,5.2-174.3,100.3-171.4,105.1c2.4,4.1,170.7-103.6,172.9-99.8c2.9,5-171,99.4-168.9,103.2c2.9,5,173-106.4,175.8-101.5
				c2.4,4.2-182,103.9-179.1,109c2.3,4,183-111.8,185.6-107.2c2.3,4-186.3,106.4-183.3,111.6C60.1,188,242.8,69.7,245.8,75
				c3.4,5.8-195.4,111.9-192.4,116.9c2.5,4.4,194.4-119.1,197.4-114C254,83.6,52.2,191.5,55.4,197.1
				c3.1,5.4,200.2-123.4,203.6-117.5c2.4,4.1-204.1,116.5-201,121.8C60.5,205.8,253.3,82,256.1,86.9c3,5.2-202.8,116.5-200,121.3
				c2.8,4.8,203.8-125.7,207.3-119.7C266.5,93.9,54.1,208.6,57,213.7c2.4,4.2,210.9-128,213.6-123.3
				c3.2,5.5-215.8,123.1-212.8,128.4c2.7,4.8,207.1-126.1,209.9-121.2c2.6,4.5-209.6,121.3-207.1,125.7
				c3.5,6,212.6-128.9,215.3-124.3c2.9,5.1-213.6,122.6-210.9,127.2c3.4,5.8,212-129.9,215.2-124.3c2.8,4.9-215.8,122.9-212.4,128.7
				c3.2,5.6,209.7-128.4,212.9-122.9c2.9,5.1-212.4,121.1-209.2,126.7c3.6,6.3,207.5-126.1,210.3-121.4
				C285,118.6,67,236.4,69.8,241.3c3.3,5.7,211.9-130.6,215.5-124.4c3.6,6.3-213,120.3-209.5,126.3c3,5.2,207.9-127.3,211.1-121.9
				c3.4,5.9-211.8,120.2-208.6,125.7c2.6,4.5,211.6-129.9,214.9-124.1c2.8,4.8-212.9,123.3-210.4,127.8c2.9,5,210.2-128,213.1-123
				c3.6,6.2-212.9,121.9-210.2,126.6c2.9,5.1,208.3-126.2,210.9-121.8c3,5.1-212.7,121.9-209.7,127c3.6,6.2,204-125.7,207.4-119.8
				c2.8,4.8-204.7,117.9-202,122.7c3.2,5.6,201.8-124.1,205.1-118.4c3.4,5.9-211,122-208.4,126.5c2.8,4.8,207.7-126.5,210.6-121.6
				c2.6,4.5-206.6,117.3-203.4,122.8c3.4,5.9,201.9-124.4,205.3-118.5c2.9,5.1-202.5,117.2-200.1,121.5
				c3.1,5.4,200.4-121.3,202.8-117.1c3.4,5.8-205,116.5-201.5,122.5c2.3,4,200.3-122,203.1-117.2c3.1,5.4-194.9,111.7-191.8,117
				c3.1,5.4,184.7-113.3,187.6-108.3c2.2,3.8-188.3,108-185.4,113c3,5.3,183.7-112.7,186.6-107.7c3.2,5.5-188.5,108.4-185.6,113.3
				c3.1,5.4,185.4-112.3,187.7-108.4c2.9,5-178.1,103.3-176,106.9c2.3,4,168.4-102.8,170.8-98.6c2.3,3.9-172.4,98.7-169.4,103.9
				c2.6,4.5,174.5-106.6,177-102.2c2.4,4.1-172.1,99.7-169.7,103.8c2.4,4.1,160.5-99.2,163.3-94.3c2.5,4.3-159.8,92.3-157.4,96.4
				c2.3,4.1,152.4-93.9,155-89.5c1.8,3.1-151.6,89.3-149.6,92.7c2.5,4.3,150.2-91.4,152.2-87.9c2,3.4-144.5,83.3-142.1,87.4
				c2,3.6,137.4-84.9,139.8-80.7c1.6,2.8-138.3,81.3-136.7,84.1c1.7,3,131.3-79.6,133-76.8c1.7,2.9-121.8,71.8-120.2,74.7
				c1.7,2.9,119.4-73.1,121.2-70c1.7,3-119.5,71.2-118,73.8c1.6,2.7,108.4-65.9,109.8-63.4c1.7,2.9-101.7,60.4-100,63.4
				c1.1,2,89.4-54.7,90.7-52.4c0.9,1.6-77.6,47-76.3,49.3c1,1.8,70.7-42.8,71.6-41.3c0.8,1.4-53,34.6-52.1,36.2
				c0.6,1,36.4-22,36.8-21.3"/>
		</g>
	</g>
	<circle class="st10" cx="180" cy="180" r="100.5"/>
	<path class="st10" d="M175.5,53.6V82c0,0-24.1-1.7-58.5,22L97.5,83.5C113.7,66.5,151.5,51,175.5,53.6z"/>
	<circle class="st11" cx="180" cy="180" r="128.5"/>
	<g class="st1">
		<path d="M141.4,130.4h39.9c7.9,0,13.8,0.3,17.7,1c3.9,0.7,7.4,2,10.4,4.1c3.1,2.1,5.6,4.9,7.7,8.3c2,3.5,3.1,7.4,3.1,11.7
			c0,4.7-1.3,9-3.8,12.9c-2.5,3.9-5.9,6.8-10.3,8.8c6.1,1.8,10.8,4.8,14,9.1c3.3,4.3,4.9,9.3,4.9,15.1c0,4.5-1.1,9-3.2,13.2
			c-2.1,4.3-5,7.7-8.7,10.3c-3.7,2.6-8.2,4.1-13.5,4.7c-3.4,0.4-11.5,0.6-24.3,0.7h-34V130.4z M161.6,147.1v23.1h13.2
			c7.9,0,12.7-0.1,14.6-0.3c3.5-0.4,6.2-1.6,8.1-3.6c2-2,3-4.6,3-7.8c0-3.1-0.9-5.6-2.6-7.5c-1.7-1.9-4.2-3.1-7.6-3.5
			c-2-0.2-7.7-0.3-17.2-0.3H161.6z M161.6,186.8v26.7h18.7c7.3,0,11.9-0.2,13.8-0.6c3-0.5,5.4-1.9,7.3-4c1.9-2.1,2.8-4.9,2.8-8.5
			c0-3-0.7-5.5-2.2-7.6c-1.5-2.1-3.6-3.6-6.3-4.6c-2.7-1-8.7-1.4-17.9-1.4H161.6z"/>
	</g>
</g>
<g id="Layer_8" class="st0">
	<g class="st1">
		<g>
			<path class="st2" d="M109.6,78.4c0.3,0.6,16.6-10.4,16.9-9.8C127,69.4,89,94.2,89.6,95.2c0.8,1.3,60.1-36.9,61.1-35.2
				c1,1.7-67.8,43.5-67,45c1.4,2.4,85.1-51.5,86.1-49.7c1.3,2.3-95.6,57.5-93.9,60.4c1.6,2.7,99.1-61.1,100.8-58.2
				c1.6,2.8-109.3,64.3-107.5,67.4c1.5,2.5,114.9-70.5,116.7-67.4c1.7,3-125.6,74.8-123.8,77.8c2.1,3.7,130.5-80.2,132.6-76.5
				c2,3.4-132,77.7-130.2,80.9c2,3.4,138.1-84.6,140.2-80.9c1.7,3-146.5,85.9-144.6,89.4c2.6,4.5,153.1-94,155.5-89.8
				c2.3,4-156.7,90.7-154.3,94.8c2.3,4,155.3-95,157.7-91c2.1,3.6-168,96.2-165.2,100.9c2,3.4,169.8-104.4,172.5-99.6
				c3,5.2-174.5,100.4-171.7,105.3c2.4,4.1,170.9-103.8,173.1-99.9c2.9,5-171.2,99.6-169,103.4c2.9,5,173.1-106.5,176-101.6
				C237,74.5,52.3,174.4,55.3,179.5c2.3,4,183.2-111.9,185.8-107.3c2.3,4-186.5,106.5-183.5,111.7C60.1,188.3,243,69.9,246,75.1
				c3.4,5.8-195.6,112-192.6,117.1C55.9,196.6,248,73,251,78.1c3.3,5.7-198.8,113.7-195.6,119.3c3.1,5.4,200.4-123.5,203.8-117.7
				C261.6,83.8,54.9,196.3,58,201.6c2.6,4.5,195.5-119.4,198.4-114.5c3,5.2-202.9,116.6-200.2,121.4c2.8,4.8,204-125.8,207.5-119.8
				C266.7,94.1,54.2,209,57.1,214c2.4,4.2,211-128.1,213.8-123.4c3.2,5.5-216,123.2-212.9,128.5c2.7,4.8,207.2-126.1,210-121.3
				c2.6,4.5-209.7,121.4-207.2,125.8c3.5,6,212.7-129,215.4-124.4c2.9,5.1-213.7,122.6-211,127.2c3.4,5.8,212.1-130,215.4-124.3
				c2.8,4.9-215.8,122.9-212.5,128.8c3.2,5.6,209.7-128.4,212.9-122.9c2.9,5.1-212.4,121.1-209.2,126.7
				c3.6,6.3,207.6-126.2,210.3-121.4c3.2,5.6-214.9,123.4-212.1,128.3c3.3,5.7,211.9-130.6,215.5-124.4
				c3.6,6.3-212.9,120.4-209.5,126.3c3,5.2,207.9-127.3,211.1-121.9c3.4,5.9-211.7,120.1-208.5,125.7
				c2.6,4.5,211.5-129.9,214.9-124.1c2.8,4.8-212.9,123.3-210.3,127.7c2.9,5,210.1-128,213-123c3.6,6.2-212.7,121.9-210.1,126.5
				c2.9,5.1,208.2-126.1,210.8-121.7c3,5.1-212.5,121.8-209.6,126.9c3.6,6.2,203.9-125.6,207.3-119.7
				c2.8,4.8-204.5,117.8-201.8,122.6c3.2,5.6,201.6-124,204.9-118.3c3.4,5.9-210.7,121.9-208.1,126.3
				c2.8,4.8,207.4-126.4,210.3-121.4c2.6,4.5-206.3,117.2-203.1,122.7c3.4,5.8,201.6-124.2,205-118.3
				c2.9,5.1-202.2,117.1-199.7,121.3c3.1,5.4,200-121,202.4-116.9c3.4,5.8-204.5,116.3-201,122.3c2.3,4,199.9-121.7,202.6-117
				c3.1,5.4-194.4,111.5-191.3,116.7c3.1,5.3,184.2-113,187.1-108c2.2,3.8-187.8,107.7-184.9,112.7c3,5.3,183.1-112.4,186-107.4
				c3.1,5.4-187.8,108.1-185,112.9c3.1,5.3,184.7-111.9,187-108c2.9,5-177.3,102.9-175.2,106.4c2.3,4,167.6-102.3,170-98.1
				c2.3,3.9-171.6,98.3-168.6,103.4c2.6,4.5,173.7-106.1,176.2-101.7c2.4,4.1-171.2,99.2-168.8,103.3c2.4,4.1,159.5-98.6,162.3-93.7
				c2.5,4.3-158.7,91.7-156.3,95.8c2.3,4,151.2-93.2,153.8-88.8c1.8,3-150.3,88.6-148.4,92c2.4,4.2,148.8-90.6,150.8-87.1
				c1.9,3.4-142.9,82.5-140.6,86.6c2,3.5,135.8-83.9,138.2-79.8c1.6,2.8-136.6,80.3-135,83.2c1.7,3,129.6-78.5,131.2-75.7
				c1.7,2.9-119.9,70.8-118.3,73.6c1.7,2.9,117.5-71.9,119.2-68.8c1.7,3-117.2,69.9-115.7,72.5c1.5,2.7,105.8-64.4,107.3-61.9
				c1.6,2.8-98.8,58.8-97.1,61.8c1.1,1.9,86.2-52.7,87.5-50.5c0.9,1.5-73.9,45.1-72.6,47.2c1,1.7,66.5-40.3,67.4-38.9
				c0.7,1.3-45.6,30.6-44.8,32c0.4,0.7,26.4-15.9,26.7-15.4"/>
		</g>
	</g>
	<circle class="st10" cx="180" cy="180" r="100.5"/>
	<path class="st10" d="M175.5,53.6V82c0,0-24.1-1.7-58.5,22L97.5,83.5C113.7,66.5,151.5,51,175.5,53.6z"/>
	<circle class="st12" cx="180" cy="180" r="128.5"/>
	<g class="st1">
		<path d="M155.2,121c0.8-1.3,4.6-2.4,7.9-2.4c3,0,5.7,0.6,6.5,2.2l34.5,101.2h-0.1c0,0,0.5,0.9,0.5,1.3c0,1.5-1.1,4-6.5,4
			c-7.2,0-8.4-2.4-8.8-3.5l-9.3-29.7h-38.7c-2,4.6-3.9,9.6-5.7,13.9c-1.9,4.6-3.6,8.4-5.5,13.3c-2.6,4.3-5.4,6-7.8,6
			c-4.7,0-8.5-3.3-8.5-5.9L155.2,121z M161,145c-2.2,5.4-4.3,10.5-6.5,15.6c-2.7,6.5-5.1,12.4-7.9,19.5h28L161,145z"/>
		<path d="M219.1,133.9c0-3.4,2.8-6.1,6.3-6.1h3.3c3.4,0,6.1,2.7,6.1,6.1v3.3c0,3.5-2.7,6.2-6.1,6.2h-3.3c-3.5,0-6.3-2.7-6.3-6.2
			V133.9z M234.2,223.6c0,2.9-4,4.4-7.7,4.4c-3.9,0-7.3-1.4-7.3-3.8l-0.1-70.2c0-1.3,4.9-3.8,9-3.8c3.2,0,5.7,0.9,6,3.5L234.2,223.6
			z"/>
	</g>
</g>
</svg>
