<?xml version="1.0" encoding="utf-8"?>
<!-- Generator: Adobe Illustrator 18.1.1, SVG Export Plug-In . SVG Version: 6.00 Build 0)  -->
<!DOCTYPE svg PUBLIC "-//W3C//DTD SVG 1.1//EN" "http://www.w3.org/Graphics/SVG/1.1/DTD/svg11.dtd">
<svg version="1.1" xmlns="http://www.w3.org/2000/svg" xmlns:xlink="http://www.w3.org/1999/xlink" x="0px" y="0px"
	 viewBox="0 0 360 360" style="enable-background:new 0 0 360 360;" xml:space="preserve">
<style type="text/css">
	.st0{display:none;}
	.st1{display:inline;}
	.st2{fill:#C9E0D3;}
	.st3{fill:#BF765E;}
</style>
<g id="Layer_1" class="st0">
	<g id="TyJfaS.tif" class="st1">
		<g>
			<path class="st2" d="M177,267.1c-11.7-0.4-26.8,1-41.8-2.4c-32.9-7.5-52.1-27.7-57.3-61.8c-3.3-21.5-1.2-41.9,13.7-59.3
				c1.7-2,1.3-4.4,1.2-6.7c-0.5-13.6,1.9-26.8,6-39.8c1.5-4.9,4-5.6,8.6-4.4c14.8,4.2,28.1,11.2,40.9,19.4c2.8,1.8,5.4,2.5,8.8,1.9
				c15.5-2.6,31.2-2.9,46.7,0c3.7,0.7,6.4-0.4,9.3-2.2c12.3-7.7,25-14.6,39.2-18.5c7.8-2.2,8.2-2.1,10.6,5.7
				c3.8,12.5,6,25.3,5.3,38.4c-0.1,2.3-0.2,4.6,1.5,6.6c15.2,18.2,16.8,39.2,12.9,61.4c-3.3,19.1-11.4,35.5-27.6,47
				c-13.9,9.8-29.8,13.9-46.5,14.7C199.2,267.5,189.8,267.1,177,267.1z M179.5,255.9c12.2,0.1,24.3-0.4,36.4-2.2
				c27.8-4.1,40.7-19.6,39.1-46.5c-0.9-14.1-10.8-25.9-24.4-28.7c-6.9-1.4-13.9-1.5-20.9-1c-15.1,1.1-30.2,2.2-45.4,0.9
				c-8.3-0.7-16.6-1.3-24.9-1.1c-16.3,0.3-28.3,8.4-31.8,22.5c-5.3,21.3,1,44.3,27.8,51.7C149.9,255.5,164.7,255.7,179.5,255.9z"/>
			<path class="st2" d="M231.2,213.7c0.4,5.5-1,10.4-4,14.7c-6.1,8.9-16.9,8.6-22.6-0.5c-5.2-8.2-4.9-20.4,0.7-28.4
				c5.4-7.8,15.9-8,21.5-0.2C229.7,203.7,231.6,208.4,231.2,213.7z"/>
			<path class="st2" d="M129.7,215c-0.1-6.3,1.3-11.7,5-16.2c5.7-7.2,15.4-6.8,20.8,0.6c5.9,8.1,6.1,20.2,0.6,28.7
				c-6.1,9.2-16.9,9.2-22.8-0.2C130.9,223.8,129.5,219.4,129.7,215z"/>
		</g>
	</g>
</g>
<g id="Layer_2">
</g>
<g id="Layer_3" class="st0">
	<g id="t417fV.tif_1_" class="st1">
		<g>
			<path class="st3" d="M74.4,100.8c70.4,0,140.7,0,211.1,0c0.5,0.3,1.4,0.1,1.6,0.7c0.1,0.7-0.7,1-1.2,1.4
				c-9.4,8-18.7,16.1-28.1,24c-19.1,16.2-37.8,32.9-57.3,48.5c-6.4,5.1-12.7,10.4-19.1,15.6c-1.3,1.1-1.3,1.1-2.6,0
				c-1.2-1-2.4-2-3.6-2.9c-8.9-7.2-17.8-14.3-26.6-21.7c-8.5-7-16.7-14.3-25.1-21.4c-16.5-14.1-33-28.2-49.5-42.4
				C72.6,101.5,72.6,101.4,74.4,100.8z"/>
			<path class="st3" d="M285.3,259.2c-70.2,0-140.4,0-210.6,0c-0.2-0.1-0.4-0.1-0.5-0.2c-1.1-0.4-1.2-0.5-0.3-1.4
				c0.1-0.1,0.2-0.2,0.3-0.3c13.6-13,27.2-26.1,40.8-39.1c11.3-10.8,22.6-21.7,34-32.6c1.3-1.3,1-1.5,2.7-0.1c9,7.3,18,14.6,27,21.9
				c1.5,1.2,1.5,1.2,3,0c9-7.3,18.1-14.7,27.1-22c1.2-1,1.2-1,2.4,0.1c2,1.9,3.9,3.8,5.9,5.6c13.5,12.9,27,25.9,40.5,38.8
				c9.4,9.1,18.9,18.1,28.3,27.2c0.4,0.4,1.3,0.8,1.1,1.4C286.7,259.1,285.8,258.9,285.3,259.2z"/>
			<path class="st3" d="M62.7,113.5c0.1-0.7,0.3-1.3,0.4-2c0.1-0.9,0.5-1,1.1-0.4c3.5,3,6.9,5.9,10.4,8.9
				c21.2,18.1,42.4,36.2,63.6,54.4c2.1,1.8,2.1,1.8,0.1,3.7c-14,13.4-27.9,26.9-41.9,40.3c-10.6,10.2-21.2,20.4-31.9,30.6
				c-1,0.9-1.1,0.9-1.4-0.4c-0.2-0.6-0.3-1.2-0.4-1.8C62.7,202.3,62.7,157.9,62.7,113.5z"/>
			<path class="st3" d="M297.3,180c0,21.6,0,43.2,0,64.8c0,1.3-0.1,2.6-0.4,3.8c-0.3,1.1-0.4,1.2-1.2,0.4c-4.3-4.2-8.7-8.4-13-12.5
				c-13-12.5-26.1-25.1-39.1-37.6c-7.5-7.2-15-14.4-22.5-21.6c-1.1-1.1-1.1-1.1,0.1-2.1c13.6-11.7,27.2-23.3,40.8-35
				c11-9.5,22-18.9,33.1-28.3c0.5-0.4,1-1.3,1.6-1c0.6,0.2,0.5,1.2,0.6,1.8c0.2,0.8,0.1,1.6,0.1,2.5
				C297.3,136.7,297.3,158.4,297.3,180z"/>
		</g>
	</g>
</g>
<g id="Layer_4">
	<path class="st2" d="M268,168.2c1.2-18.1-4.6-35.2-17.5-49.5c-37.3-41.3-98-29.9-119.4,22.1c-8.3,20.2-11.3,41.3-11.4,62.9
		c0,8.9-2.1,16.4-7.2,23.6c-5.1,7.3-9.9,14.9-14.6,22.5c-1.7,2.8-3.4,6-0.8,9.3c2.7,3.5,6.3,2.8,9.8,1.6c8.7-2.9,17.4-5.8,26.1-8.9
		c4.4-1.6,8.2-1.3,12.2,1.5c10.1,6.9,21.4,9.5,33.5,8.7C225.4,259,269,220,268,168.2z M249.7,172.2c0.1,34.9-25.2,62.1-63.8,68.8
		c-12.7,2.2-24.4,0.4-34-9.1c-2.4-2.4-4.9-2.2-7.7-0.8c-3.9,1.9-7.9,3.6-11.9,5.3c-1.6,0.7-3.5,1.3-5-0.4c-1.5-1.7-0.4-3.3,0.5-4.9
		c0.1-0.2,0.2-0.5,0.4-0.6c12-9.8,10.6-23.2,11-36.9c0.5-20.9,5.3-41,19-57.8c15.2-18.6,34-24.8,54.2-17.8
		c21.4,7.4,36.7,27.7,37.4,49.5C249.7,169.1,249.7,170.7,249.7,172.2z"/>
</g>
</svg>
