<?xml version="1.0" encoding="utf-8"?>
<!-- Generator: Adobe Illustrator 18.1.1, SVG Export Plug-In . SVG Version: 6.00 Build 0)  -->
<!DOCTYPE svg PUBLIC "-//W3C//DTD SVG 1.1//EN" "http://www.w3.org/Graphics/SVG/1.1/DTD/svg11.dtd">
<svg version="1.1" xmlns="http://www.w3.org/2000/svg" xmlns:xlink="http://www.w3.org/1999/xlink" x="0px" y="0px"
	 viewBox="0 0 360 360" style="enable-background:new 0 0 360 360;" xml:space="preserve">
<style type="text/css">
	.st0{fill:none;stroke:#565656;stroke-width:3;stroke-linecap:round;stroke-linejoin:round;}
	.st1{fill:#FFFFFF;}
	.st2{fill:none;stroke:#000000;stroke-width:5;stroke-miterlimit:10;}
	.st3{display:none;}
	.st4{display:inline;fill:none;stroke:#000000;stroke-width:5;stroke-miterlimit:10;}
	.st5{display:inline;}
	.st6{display:inline;fill:#FFFFFF;}
	.st7{font-family:'Candela-Bold';}
	.st8{font-size:132;}
	.st9{font-size:118;}
	.st10{font-size:152;}
	.st11{fill:none;stroke:#565656;stroke-width:2.5489;stroke-linecap:round;stroke-linejoin:round;}
	.st12{fill:none;stroke:#000000;stroke-width:4.2481;stroke-miterlimit:10;}
	.st13{fill:#3A3A3A;}
	.st14{display:inline;fill:#FEFEFE;}
	.st15{display:inline;fill:#38393A;}
	.st16{font-family:'Arial-BoldMT';}
	.st17{font-size:140;}
	.st18{font-size:150;}
</style>
<g id="Layer_1">
	<g>
		<g>
			<g>
				<path class="st0" d="M109.6,78.4c0.3,0.6,16.6-10.4,16.9-9.8C127,69.4,89,94.2,89.6,95.2c0.8,1.3,60.1-36.9,61.1-35.2
					c1,1.7-67.8,43.5-67,45c1.4,2.4,85.1-51.5,86.1-49.7c1.3,2.3-95.6,57.5-93.9,60.4c1.6,2.7,99.1-61.1,100.8-58.2
					c1.6,2.8-109.3,64.3-107.5,67.4c1.5,2.5,114.9-70.5,116.7-67.4c1.7,3-125.6,74.8-123.8,77.8c2.1,3.7,130.5-80.2,132.6-76.5
					c2,3.4-132,77.7-130.2,80.9c2,3.4,138.1-84.6,140.2-80.9c1.7,3-146.5,85.9-144.6,89.4c2.6,4.5,153.1-94,155.5-89.8
					c2.3,4-156.7,90.7-154.3,94.8c2.3,4,155.3-95,157.7-91c2.1,3.6-168,96.2-165.2,100.9c2,3.4,169.8-104.4,172.5-99.6
					c3,5.2-174.5,100.4-171.7,105.3c2.4,4.1,170.9-103.8,173.1-99.9c2.9,5-171.2,99.6-169,103.4c2.9,5,173.1-106.5,176-101.6
					C237,74.5,52.3,174.4,55.3,179.5c2.3,4,183.2-111.9,185.8-107.3c2.3,4-186.5,106.5-183.5,111.7C60.1,188.3,243,69.9,246,75.1
					c3.4,5.8-195.6,112-192.6,117.1C55.9,196.6,248,73,251,78.1c3.3,5.7-198.8,113.7-195.6,119.3c3.1,5.4,200.4-123.5,203.8-117.7
					C261.6,83.8,54.9,196.3,58,201.6c2.6,4.5,195.5-119.4,198.4-114.5c3,5.2-202.9,116.6-200.2,121.4c2.8,4.8,204-125.8,207.5-119.8
					C266.7,94.1,54.2,209,57.1,214c2.4,4.2,211-128.1,213.8-123.4c3.2,5.5-216,123.2-212.9,128.5c2.7,4.8,207.2-126.1,210-121.3
					c2.6,4.5-209.7,121.4-207.2,125.8c3.5,6,212.7-129,215.4-124.4c2.9,5.1-213.7,122.6-211,127.2c3.4,5.8,212.1-130,215.4-124.3
					c2.8,4.9-215.8,122.9-212.5,128.8c3.2,5.6,209.7-128.4,212.9-122.9c2.9,5.1-212.4,121.1-209.2,126.7
					c3.6,6.3,207.6-126.2,210.3-121.4c3.2,5.6-214.9,123.4-212.1,128.3c3.3,5.7,211.9-130.6,215.5-124.4
					c3.6,6.3-212.9,120.4-209.5,126.3c3,5.2,207.9-127.3,211.1-121.9c3.4,5.9-211.7,120.1-208.5,125.7
					c2.6,4.5,211.5-129.9,214.9-124.1c2.8,4.8-212.9,123.3-210.3,127.7c2.9,5,210.1-128,213-123c3.6,6.2-212.7,121.9-210.1,126.5
					c2.9,5.1,208.2-126.1,210.8-121.7c3,5.1-212.5,121.8-209.6,126.9c3.6,6.2,203.9-125.6,207.3-119.7
					c2.8,4.8-204.5,117.8-201.8,122.6c3.2,5.6,201.6-124,204.9-118.3c3.4,5.9-210.7,121.9-208.1,126.3
					c2.8,4.8,207.4-126.4,210.3-121.4c2.6,4.5-206.3,117.2-203.1,122.7c3.4,5.8,201.6-124.2,205-118.3
					c2.9,5.1-202.2,117.1-199.7,121.3c3.1,5.4,200-121,202.4-116.9c3.4,5.8-204.5,116.3-201,122.3c2.3,4,199.9-121.7,202.6-117
					c3.1,5.4-194.4,111.5-191.3,116.7c3.1,5.3,184.2-113,187.1-108c2.2,3.8-187.8,107.7-184.9,112.7c3,5.3,183.1-112.4,186-107.4
					c3.1,5.4-187.8,108.1-185,112.9c3.1,5.3,184.7-111.9,187-108c2.9,5-177.3,102.9-175.2,106.4c2.3,4,167.6-102.3,170-98.1
					c2.3,3.9-171.6,98.3-168.6,103.4c2.6,4.5,173.7-106.1,176.2-101.7c2.4,4.1-171.2,99.2-168.8,103.3
					c2.4,4.1,159.5-98.6,162.3-93.7c2.5,4.3-158.7,91.7-156.3,95.8c2.3,4,151.2-93.2,153.8-88.8c1.8,3-150.3,88.6-148.4,92
					c2.4,4.2,148.8-90.6,150.8-87.1c1.9,3.4-142.9,82.5-140.6,86.6c2,3.5,135.8-83.9,138.2-79.8c1.6,2.8-136.6,80.3-135,83.2
					c1.7,3,129.6-78.5,131.2-75.7c1.7,2.9-119.9,70.8-118.3,73.6c1.7,2.9,117.5-71.9,119.2-68.8c1.7,3-117.2,69.9-115.7,72.5
					c1.5,2.7,105.8-64.4,107.3-61.9c1.6,2.8-98.8,58.8-97.1,61.8c1.1,1.9,86.2-52.7,87.5-50.5c0.9,1.5-73.9,45.1-72.6,47.2
					c1,1.7,66.5-40.3,67.4-38.9c0.7,1.3-45.6,30.6-44.8,32c0.4,0.7,26.4-15.9,26.7-15.4"/>
			</g>
		</g>
		<circle class="st1" cx="180" cy="180" r="100.5"/>
		<path class="st1" d="M175.5,53.3v28.4c0,0-5.7,139.8,3.8,224.8c0,0-80,9.5-121.5-87.5c0,0-6.3-25.8-4.9-39
			C62.3,86.7,132,53.1,175.5,53.3z"/>
		<circle class="st2" cx="180" cy="180" r="128.5"/>
		<path d="M178.8,247.9c-37.8-0.2-67.5-30.2-67.3-68.1c0.2-37.8,30.2-67.7,67.9-67.6c38,0.1,67.9,30.2,67.7,68.4
			C247.1,218,216.6,248,178.8,247.9z M188,152.8c6.8,20.2,13.9,41.4,21.1,62.7c3.6-6.8,5.4-13.7,8-20.3c5.4-13.7,5.1-26.4-3.3-39.2
			c-7-10.6-5.1-15.9,5.6-21.9c-24.8-25.3-73.2-18.9-91.1,12.8c5.2-0.2,9.7-0.7,14.2-0.6c2.6,0.1,5.2,1.1,7.7,1.7
			c-2.3,1-4.6,1.9-6.8,2.9c-0.4,0.2-0.6,0.5-1.6,1.3c7.1,21,14.3,42.4,21.5,63.7c0.6-0.1,1.2-0.2,1.8-0.3c4-12,8.1-24,11.9-36
			c0.5-1.7,0.1-3.8-0.4-5.6c-2.2-6.4-4.4-12.8-7.1-19c-0.8-1.9-3.3-3.1-5.1-4.4c-1.4-1-2.9-1.7-4.4-2.5c1.7-0.7,3.4-2.1,5.1-2.1
			c7.8-0.1,15.6,0,23.4,0.2c2.7,0.1,5.4,0.8,8.1,1.3C194.1,149,191.7,150.4,188,152.8z M161.6,239.1c13.6,3.4,25.6,3.6,38.1-1.3
			c-6.4-17.5-12.6-34.4-18.8-51.2c-0.5,0.1-1,0.2-1.5,0.3C173.6,204,167.8,221.1,161.6,239.1z M123.6,155.3
			c-14.8,27.5,0,68.8,28.7,78.8C142.7,207.8,133.3,181.9,123.6,155.3z M233.9,153c-2.5,28.1-16.5,52.3-23.1,79.1
			C237,220.9,249.6,177.1,233.9,153z"/>
	</g>
</g>
<g id="Layer_2" class="st3">
	<circle class="st4" cx="180" cy="180" r="128.5"/>
	<g class="st5">
		<g>
			<path class="st0" d="M109.3,78.6c0.3,0.6,21.6-13.2,21.9-12.6c0.6,1.1-43.4,29.5-42.8,30.6c1,1.7,61.6-37.4,62.4-36
				c1.2,2.2-75,46.3-73.8,48.4c1.1,1.8,86.3-52.7,87.6-50.6c1.4,2.4-90.3,54.2-88.7,56.8c1.8,3,97.5-60.1,99.1-57.2
				c1.6,2.8-110.7,65.2-108.9,68.4C68,129.7,182.3,55,184.1,58.1c1.7,2.9-123.3,72.9-121.3,76.4c1.6,2.8,129.9-79.1,131.7-76
				c2.2,3.9-132.9,77.9-131.2,80.9c2,3.5,140.2-85.9,142.3-82.2c2,3.5-148.4,86.9-146.5,90.3c2.1,3.6,146.9-89.9,149.1-86.1
				c2.5,4.4-150.9,87.2-148.3,91.6c2.3,4,157.1-95.7,159.3-92c2.8,4.8-160.9,94.1-158.7,97.8c2,3.5,164.8-100.4,167.1-96.5
				c2.1,3.7-175.5,101-173.1,105.2c2.9,5,175.3-108.1,178.3-102.9c2.1,3.7-180.5,105.3-178.4,109c2.3,4,177.4-109.1,180.3-104.1
				C237.5,74.2,52,176.3,54.2,180.1C57,184.9,235,70.4,237.3,74.4c2.3,4-182.7,105.2-180.2,109.7c3.2,5.5,188-113.9,190.3-109.9
				c2.7,4.7-193.2,111.5-190.9,115.6C59,194.1,250.4,71.2,253.3,76.2c2.4,4.1-199.6,114.2-196.8,119c2.4,4.2,198.4-120.7,201-116.1
				c3.1,5.4-202.8,116.4-200,121.3c2.7,4.6,201.4-124.1,204.8-118.2C265,87,57.8,198.5,61.2,204.4c3.4,5.9,203-123,205.5-118.6
				c3,5.1-212.4,122.8-209.9,127.1c2.9,5,205.7-124.4,208.1-120.1c2.6,4.5-210.2,121.5-207.7,125.8C60.1,223.6,267.7,90,270.7,95.3
				c3.1,5.3-212.5,122.3-209.8,127c2.8,4.8,207.3-127.3,210.6-121.6c2.8,4.8-207.3,119.3-204.8,123.6
				c2.5,4.4,203.4-125.9,207.1-119.6c2.6,4.5-212.2,120.5-208.7,126.5c3.4,5.9,209.5-126.7,212-122.4c3,5.2-207.6,120.2-205.2,124.5
				c3.7,6.4,207.9-126.8,210.9-121.7c3.3,5.7-213.2,121.8-210,127.2c3.7,6.4,210.1-129.4,213.6-123.3
				c3.7,6.3-215.6,123.8-213.1,128.3c3.3,5.8,208.1-126.4,210.8-121.7c3.2,5.6-210.1,120-207,125.4C79.6,251.8,286,119,289.3,124.8
				c3.6,6.2-217.7,123.3-214,129.6C78.6,260.1,287.7,124,291,129.9C294.6,136,82,249.5,85.2,255c2.7,4.7,209.6-128.8,213-123
				c2.6,4.5-218.7,123.8-214.9,130.3c3.2,5.5,211.8-130.6,215.4-124.4c3.2,5.5-216.9,123.2-213.5,128.9
				c2.6,4.5,208.6-127.6,211.7-122.2c3.6,6.2-210.5,121.2-207.7,126.1c3.5,6.1,210.4-128.9,213.6-123.3c3.6,6.2-209.7,120.2-207,125
				C98.9,278,295,151,297.7,155.7c2.4,4.2-197.3,112.8-194.4,117.9c2.5,4.4,193.1-117.2,195.5-112.9c2.3,4-192.8,111-190.4,115.2
				c3.1,5.4,192.5-117,195.1-112.6c3,5.2-201.7,115.2-198.4,120.9c2.3,3.9,193.4-117.1,195.8-113c2.3,3.9-190.6,110.7-188.2,114.8
				c2.7,4.6,185.3-113.7,188.2-108.7c2.8,4.8-187.6,109.1-185.3,113c2.7,4.7,185.6-112.5,187.9-108.5
				c2.8,4.8-183.5,106.5-181.1,110.7c2.4,4.2,175.7-108,178.6-103.1c2.1,3.7-175.6,102-173.2,106.1c2.7,4.7,172.9-105.6,175.4-101.3
				c2.7,4.7-171.7,99.5-169.2,103.9c2.7,4.7,167.5-102.1,169.9-98.1c2.5,4.3-166.2,96-163.9,100c2.2,3.9,156.6-95.6,158.9-91.7
				c2.2,3.8-153.3,88.8-150.8,93.1c2.5,4.3,145.6-89.9,148.2-85.5c2,3.5-135.9,81-134.3,83.8c2.2,3.8,135.5-82.1,137.2-79.2
				c1.6,2.8-133.4,78.8-131.6,81.9c1.8,3.2,120.7-74.6,122.8-70.9c1.4,2.4-117.3,69.9-115.9,72.4c1.7,3,111.7-68.8,113.5-65.6
				c1.3,2.2-101.9,60.8-100.2,63.9c1.6,2.9,93.2-57.1,94.6-54.6c1.5,2.6-86.5,52.7-85.1,55.2c1.4,2.4,81.2-50,82.5-47.7
				c0.9,1.5-67.1,41.8-66.1,43.4c0.8,1.4,53.6-32.9,54.4-31.4"/>
		</g>
	</g>
	<circle class="st6" cx="180" cy="180" r="100.5"/>
	<text transform="matrix(1 0 0 1 119.7432 215.8712)" class="st5 st7 st8">Ps</text>
</g>
<g id="Layer_3" class="st3">
	<g class="st5">
		<g>
			<path class="st0" d="M65.9,37.1c0.3,0.6,16.6-10.4,16.9-9.8c0.5,0.8-37.5,25.5-36.9,26.6c0.8,1.3,60.1-36.9,61.1-35.2
				c1,1.7-67.8,43.5-67,45c1.4,2.4,85.1-51.5,86.1-49.7c1.3,2.3-95.6,57.5-93.9,60.4c1.6,2.7,99.1-61.1,100.8-58.2
				C134.6,19,23.6,80.4,25.4,83.5c1.5,2.5,114.9-70.5,116.7-67.4c1.7,3-125.6,74.8-123.8,77.8c2.1,3.7,130.5-80.2,132.6-76.5
				c2,3.4-132,77.7-130.2,80.9c2,3.4,138.1-84.6,140.2-80.9c1.7,3-146.5,85.9-144.6,89.4c2.6,4.5,153.1-94,155.5-89.8
				c2.3,4-156.7,90.7-154.3,94.8c2.3,4,155.3-95,157.7-91c2.1,3.6-168,96.2-165.2,100.9c2,3.4,169.8-104.4,172.5-99.6
				c3,5.2-174.5,100.4-171.7,105.3c2.4,4.1,170.9-103.8,173.1-99.9c2.9,5-171.2,99.6-169,103.4c2.9,5,173.1-106.5,176-101.6
				c2.4,4.2-182.2,104.1-179.3,109.2c2.3,4,183.2-111.9,185.8-107.3c2.3,4-186.5,106.5-183.5,111.7c2.5,4.4,185.4-114,188.4-108.8
				c3.4,5.8-195.6,112-192.6,117.1c2.5,4.4,194.7-119.2,197.6-114.1C210.5,42.5,8.5,150.5,11.6,156c3.1,5.4,200.4-123.5,203.8-117.7
				C217.8,42.5,11.2,155,14.2,160.3c2.6,4.5,195.5-119.4,198.4-114.5c3,5.2-202.9,116.6-200.2,121.4c2.8,4.8,204-125.8,207.5-119.8
				C223,52.8,10.4,167.7,13.3,172.7c2.4,4.2,211-128.1,213.8-123.4c3.2,5.5-216,123.2-212.9,128.5c2.7,4.8,207.2-126.1,210-121.3
				C226.8,61,14.5,177.9,17,182.4c3.5,6,212.7-129,215.4-124.4c2.9,5.1-213.7,122.6-211,127.2c3.4,5.8,212.1-130,215.4-124.3
				c2.8,4.9-215.8,122.9-212.5,128.8C27.5,195.3,234,61.3,237.2,66.8C240.1,71.8,24.8,187.9,28,193.5
				c3.6,6.3,207.6-126.2,210.3-121.4c3.2,5.6-214.9,123.4-212.1,128.3c3.3,5.7,211.9-130.6,215.5-124.4
				c3.6,6.3-212.9,120.4-209.5,126.3c3,5.2,207.9-127.3,211.1-121.9C246.6,86.2,31.6,200.5,34.7,206
				c2.6,4.5,211.5-129.9,214.9-124.1c2.8,4.8-212.9,123.3-210.3,127.7c2.9,5,210.1-128,213-123C256,92.9,39.6,208.6,42.3,213.2
				C45.2,218.3,250.5,87.1,253,91.5c3,5.1-212.5,121.8-209.6,126.9C47,224.7,247.4,92.9,250.8,98.8c2.8,4.8-204.5,117.8-201.8,122.6
				c3.2,5.6,201.6-124,204.9-118.3C257.3,109,43.2,225,45.7,229.4C48.5,234.2,253.2,103.1,256,108c2.6,4.5-206.3,117.2-203.1,122.7
				c3.4,5.8,201.6-124.2,205-118.3c2.9,5.1-202.2,117.1-199.7,121.3c3.1,5.4,200-121,202.4-116.9c3.4,5.8-204.5,116.3-201,122.3
				c2.3,4,199.9-121.7,202.6-117c3.1,5.4-194.4,111.5-191.3,116.7c3.1,5.3,184.2-113,187.1-108C260,134.6,70.1,238.5,73,243.5
				c3,5.3,183.1-112.4,186-107.4c3.1,5.4-187.8,108.1-185,112.9c3.1,5.3,184.7-111.9,187-108c2.9,5-177.3,102.9-175.2,106.4
				c2.3,4,167.6-102.3,170-98.1c2.3,3.9-171.6,98.3-168.6,103.4c2.6,4.5,173.7-106.1,176.2-101.7c2.4,4.1-171.2,99.2-168.8,103.3
				c2.4,4.1,159.5-98.6,162.3-93.7c2.5,4.3-158.7,91.7-156.3,95.8c2.3,4,151.2-93.2,153.8-88.8c1.8,3-150.3,88.6-148.4,92
				c2.4,4.2,148.8-90.6,150.8-87.1c1.9,3.4-142.9,82.5-140.6,86.6c2,3.5,135.8-83.9,138.2-79.8c1.6,2.8-136.6,80.3-135,83.2
				c1.7,3,129.6-78.5,131.2-75.7c1.7,2.9-119.9,70.8-118.3,73.6c1.7,2.9,117.5-71.9,119.2-68.8c1.7,3-117.2,69.9-115.7,72.5
				c1.5,2.7,105.8-64.4,107.3-61.9c1.6,2.8-98.8,58.8-97.1,61.8c1.1,1.9,86.2-52.7,87.5-50.5c0.9,1.5-73.9,45.1-72.6,47.2
				c1,1.7,66.5-40.3,67.4-38.9c0.7,1.3-45.6,30.6-44.8,32c0.4,0.7,26.4-15.9,26.7-15.4"/>
		</g>
	</g>
	<circle class="st6" cx="136.2" cy="138.7" r="100.5"/>
	<circle class="st4" cx="136.2" cy="138.7" r="128.5"/>
	<text transform="matrix(1 0 0 1 86.9872 171.0032)" class="st5 st7 st9">Lr</text>
</g>
<g id="Layer_4" class="st3">
	<g class="st5">
		<g>
			<path class="st0" d="M60.7,40.8c0.3,0.6,25.7-15.7,26-15c0.6,1-45.7,30.7-45,31.9c1.1,1.8,66.1-40.7,67.2-38.8
				c0.9,1.6-74.2,46.5-73.2,48.2c1.5,2.6,90.7-54.9,91.8-53c1.5,2.5-103.6,62.3-102,65c1.8,3.1,110.8-67.6,112.3-64.9
				c1.8,3.1-111,65.9-109.3,69c1.9,3.2,114.8-69.6,116.2-67.1c1.5,2.7-129,75.5-126.8,79.2c2,3.4,130.4-80.2,132.5-76.5
				c2.2,3.9-132.1,78.2-130.3,81.3c1.7,2.9,139.8-85.9,142.1-82C164,21,16.7,102.5,18.9,106.3c2.6,4.6,148.2-89.6,149.9-86.6
				c2.3,3.9-153.6,90-151.4,93.8c1.9,3.3,161.5-98,163.5-94.4C183.1,23,8.5,117.3,11.4,122.4c2.8,4.8,170.2-103.6,172.5-99.6
				c2.4,4.2-176.3,102-173.7,106.5c3,5.1,178.2-108,180.4-104.2c2.2,3.9-179.6,103.3-176.9,108c2.5,4.2,177.1-107.5,179.4-103.6
				c2.3,4-178.6,102.7-176,107.1C19.4,140.7,198.6,26.4,201,30.6c3,5.2-188.5,106.9-185.4,112.3c2.5,4.3,183.2-111.7,185.8-107.2
				C203.7,39.6,9.9,146.7,12.3,151c3.3,5.7,197.6-120.4,200.4-115.7c2.8,4.8-202.9,116.8-200.2,121.5
				c3.2,5.6,201.6-123.3,204.6-118.1c3.2,5.6-206.4,118.7-203.7,123.4C16.6,167.6,216.6,37.8,219.6,43
				c3,5.3-210.3,119.7-206.9,125.5c2.5,4.3,203.7-124.8,206.8-119.4C222,53.4,11.8,167.6,14.9,172.9C18,178.3,220.3,46.3,223.8,52.3
				C227.3,58.5,16.7,171,19.7,176.2c2.9,5,206.2-126.5,209.4-120.9C232.5,61.1,17.9,177.6,20.5,182c2.5,4.3,210.3-127.5,213-122.9
				c3.7,6.3-213.2,121.7-210.3,126.7c3,5.1,209.1-128.5,212.5-122.7c3.2,5.6-216.7,123-213.3,129C25.6,197.5,234,61.4,237.7,67.7
				c2.6,4.6-211.1,120.8-208,126.1C32.3,198.4,239.8,65.2,243,70.6c3.2,5.5-215.3,124.5-212.7,129C32.8,204,244,70.2,246.6,74.7
				c2.7,4.7-221,126.7-218.1,131.6c3.6,6.2,216.4-132.5,219.7-126.8c2.7,4.7-219.4,124.4-215.9,130.3
				c2.6,4.4,212.5-129.3,215.4-124.3c3.5,6.1-217.7,123.1-214.2,129.1c2.9,5,218-132.8,221-127.6c3.1,5.4-218.6,124.4-215.1,130.4
				c2.9,5,211.6-128.7,214.4-123.8c3.2,5.6-215.9,124.8-213.3,129.4c2.5,4.3,207.5-126.7,210.5-121.5c2.9,5.1-208.2,119.7-205.7,124
				c2.7,4.6,204.4-125.2,207.5-119.8c3.4,5.9-203.6,115.5-200.3,121.3c3,5.2,204.4-125.3,207.6-119.8
				c3.1,5.4-212.9,121.1-209.9,126.4c3.3,5.7,202.8-122.9,205.4-118.6c3,5.3-200.1,113.6-196.7,119.6
				c2.4,4.2,194.6-119.2,197.6-114.1c2.3,4-193.5,110.5-190.5,115.7c2.6,4.5,190.8-117.5,194-112c2.9,4.9-197.3,112.6-194.2,117.8
				c2.3,3.9,193.7-118,196.4-113.4c3,5.2-189.9,109.7-187.5,113.8c2.4,4.2,179.9-110.3,182.7-105.5C260.3,142.2,69.9,243.6,73,249
				c2.9,5,188-115.6,191.1-110.3C267.1,144,79.5,244,82.3,248.8c2.5,4.3,178.1-108.6,180.6-104.2c2.4,4.2-175.7,102.4-173.6,106
				c2.3,3.9,172.5-105.1,174.9-101c3,5.2-173.2,100.9-171.1,104.6c1.9,3.4,165.1-100,167.1-96.5c2.4,4.2-166.8,95.2-164,100
				c2.4,4.1,156.1-96.2,158.7-91.6c2.5,4.4-153,88.9-150.8,92.9c2.5,4.3,152.2-93.3,154.5-89.2c1.8,3.1-145.7,83.9-143.2,88.2
				c2.2,3.7,135.6-82.8,137.6-79.4c2.2,3.9-136.7,79.3-134.6,83c1.6,2.7,130-79.2,131.8-76.1c2,3.4-128.1,76-126.5,78.8
				c1.7,3,119.9-72.5,121.4-70.1c1.7,3-114,67.9-112.3,70.9c1.4,2.4,111.9-68,113.4-65.5c1.5,2.5-97,58.3-95.6,60.7
				c1.5,2.5,87.6-53.4,88.9-51.3c1.2,2-83,51.7-82,53.4c1,1.8,67.6-41.7,68.7-39.7c0.9,1.5-51.5,33.4-50.7,34.7
				c0.7,1.1,39.2-23.7,39.6-22.9"/>
		</g>
	</g>
	<circle class="st6" cx="137" cy="139" r="100.5"/>
	<path class="st6" d="M132.5,12.6V41c0,0-24.1-1.7-58.5,22L54.5,42.5C70.7,25.5,108.5,10,132.5,12.6z"/>
	<circle class="st4" cx="137" cy="139" r="128.5"/>
	<text transform="matrix(1 0 0 1 79.9998 189.9997)" class="st5 st7 st10">Id</text>
</g>
<g id="Layer_5" class="st3">
	<g class="st5">
		<g>
			<g>
				<path class="st11" d="M71.8,55.9c0.3,0.5,21.8-13.3,22.1-12.8c0.5,0.9-38.8,26.1-38.2,27.1c0.9,1.5,56-34.4,56.9-32.8
					c0.8,1.4-62.9,39.4-62.1,40.9c1.3,2.2,77.1-46.7,78-45.1c1.2,2.2-87.9,52.8-86.5,55.1c1.5,2.7,94-57.3,95.3-55
					c1.5,2.6-94.3,56-92.8,58.6c1.6,2.7,97.4-59.1,98.7-57c1.3,2.3-109.5,64.1-107.7,67.3c1.7,2.9,110.7-68.1,112.5-65
					c1.9,3.3-112.2,66.5-110.7,69.1c1.4,2.4,118.7-73,120.6-69.7c1.4,2.5-123.6,71.7-121.8,74.9c2.2,3.9,125.8-76.1,127.3-73.5
					c1.9,3.3-130.4,76.3-128.5,79.6c1.6,2.8,137.1-83.2,138.9-80.2c1.9,3.2-146.5,83.4-144,87.8c2.4,4.1,144.6-88,146.5-84.6
					c2.1,3.6-149.8,86.7-147.6,90.5c2.5,4.3,151.4-91.8,153.3-88.5c1.9,3.3-152.6,87.8-150.2,91.8C34,138,182.4,43,184.3,46.4
					c2,3.4-151.7,87.3-149.6,91c1.9,3.3,154.1-93.7,156.2-90.2c2.5,4.4-160,90.7-157.4,95.3c2.1,3.7,155.6-94.9,157.8-91.1
					c1.9,3.3-162.8,94.4-160.7,98c2.8,4.8,167.9-102.3,170.2-98.3c2.4,4.1-172.3,99.2-170,103.1C33.7,159,202.1,49.7,204.6,54.1
					c2.7,4.7-175.3,100.8-173,104.8c2.7,4.7,172.7-105.5,175.2-101.2C209.4,62.2,28.2,159.4,31,164.4c2.1,3.7,173-106,175.7-101.4
					c2.1,3.7-176.4,100.6-173.8,105.1c2.7,4.6,174.5-107.5,177.4-102.4c3,5.3-175.9,100.9-173.4,105.3
					c2.5,4.3,175.2-107.5,177.9-102.7c2.9,4.9-179.4,103.9-177.3,107.6c2.1,3.7,178.7-108.3,180.9-104.4
					C221.7,76.8,37.5,174.8,39.9,179c2.5,4.3,177.7-109.2,180.6-104.2c2.7,4.7-184.1,104.5-181.2,109.6
					C42,189,219.1,73.3,222.2,78.7c2.2,3.9-179.3,102.7-176.8,107.1c2.3,4,178.6-109.3,181.2-104.6c2.7,4.6-182.9,105.7-180.7,109.6
					c2.2,3.7,181.6-109.9,183.8-106.1c2.3,4-187.7,107.7-185.3,111.8c3,5.3,183.9-112.5,186.6-107.8c2.3,4-186.4,105.7-183.5,110.7
					c2.2,3.8,180.5-109.9,183-105.6c3,5.2-184.9,104.6-182,109.7c2.4,4.2,185.2-112.8,187.7-108.4C239,99.6,50.7,200.7,53.6,205.8
					c2.4,4.2,179.7-109.3,182.1-105.2c2.7,4.7-183.4,106-181.2,109.9c2.1,3.7,176.3-107.7,178.8-103.2
					c2.5,4.3-176.9,101.7-174.7,105.4C60.9,216.6,232.3,106.4,235,111c2.9,5-173,98.1-170.1,103c2.6,4.4,173.7-106.4,176.4-101.8
					c2.6,4.6-180.9,102.9-178.3,107.4c2.8,4.9,172.2-104.4,174.4-100.7c2.6,4.5-169.9,96.5-167,101.6
					c2.1,3.6,165.4-101.3,167.9-96.9c2,3.4-164.4,93.9-161.8,98.3c2.2,3.8,162.1-99.8,164.8-95.1c2.4,4.2-167.5,95.6-164.9,100.1
					c1.9,3.3,164.6-100.2,166.8-96.3c2.6,4.4-161.4,93.2-159.4,96.7c2,3.5,152.9-93.7,155.2-89.6c2.6,4.5-159.1,90.6-156.5,95.2
					C84.7,237,242,134.6,244.6,139c2.6,4.5-156.7,89.5-154.3,93.6c2.1,3.7,151.2-92.2,153.3-88.5c2.1,3.6-149.2,87-147.4,90
					c1.9,3.3,146.6-89.3,148.6-85.8c2.6,4.4-147.1,85.7-145.3,88.9c1.6,2.9,140.3-84.9,142-82c2.1,3.6-141.7,80.9-139.4,85
					c2,3.5,132.6-81.7,134.8-77.8c2.1,3.7-129.9,75.5-127.9,78.9c2.1,3.7,129.2-79.2,131.2-75.7c1.5,2.6-123.6,71.2-121.5,74.8
					c1.8,3.2,115.1-70.3,116.8-67.4c1.9,3.3-116.1,67.4-114.3,70.5c1.3,2.3,110.4-67.2,111.9-64.6c1.7,2.9-108.8,64.6-107.5,66.9
					c1.5,2.5,101.9-61.6,103.1-59.5c1.4,2.5-96.8,57.7-95.3,60.2c1.2,2.1,94.9-57.7,96.2-55.5c1.2,2.1-82.3,49.5-81.2,51.6
					c1.2,2.2,74.4-45.3,75.5-43.6c1,1.7-70.2,43.8-69.4,45.2c0.9,1.5,57.1-35.2,58.1-33.6c0.7,1.3-43.4,28.2-42.8,29.3
					c0.6,1,33-19.9,33.4-19.3"/>
			</g>
		</g>
		<circle class="st1" cx="136.6" cy="139.3" r="85.4"/>
		<circle class="st12" cx="136.6" cy="139.3" r="109.2"/>
		<path d="M161.5,70.5c0,6.4,0,12.8,0,19.4c-2.1,0-4.2,0-6.4,0c0-3,0-5.9,0-8.9c-0.1,0-0.2-0.1-0.3-0.1c-1.4,2.1-2.7,4.2-4.2,6.5
			c-1.5-2.2-2.8-4.3-4.5-6.8c0,3.4,0,6.3,0,9.3c-2.2,0-4.2,0-6.5,0c0-0.6,0-1.1,0-1.7c0-5.3,0-10.7,0-16c0-0.6-0.1-1.1-0.1-1.7
			c2.3,0,4.7,0,7,0c1.3,2.2,2.6,4.4,4,6.7c1.5-2.4,2.8-4.6,4.1-6.7C157,70.5,159.3,70.5,161.5,70.5z"/>
		<path d="M137,70.5c0,2.1,0,4.2,0,6.4c-2.1,0-3.9,0-5.8,0c0,4.4,0,8.6,0,13c-2.2,0-4.3,0-6.6,0c0-4.2,0-8.5,0-12.9
			c-2,0-3.8,0-5.9,0c0-2.3,0-4.4,0-6.5C124.8,70.5,130.9,70.5,137,70.5z"/>
		<path d="M171.4,70.5c0,4.3,0,8.5,0,12.9c3.1,0,6,0,9.1,0c0,2.2,0,4.3,0,6.5c-5.2,0-10.4,0-15.7,0c0-0.6,0-1.2,0-1.7
			c0-5.4,0-10.7,0-16.1c0-0.6-0.1-1.1-0.1-1.7C166.9,70.5,169.1,70.5,171.4,70.5z"/>
		<path class="st1" d="M154.8,70.5c-1.3,2.2-2.7,4.4-4.1,6.7c-1.4-2.4-2.7-4.6-4-6.7C149.3,70.5,152,70.5,154.8,70.5z"/>
		<path d="M189.7,99.1c-0.2,2.8-0.5,5.5-0.7,8.2c-0.4,4.9-0.9,9.7-1.3,14.6c-0.5,5.8-1,11.6-1.6,17.4c-0.5,5.7-1,11.5-1.5,17.2
			c-0.5,5.9-1.1,11.8-1.6,17.7c-0.5,5.7-1,11.5-1.5,17.2c-0.3,3.5-0.6,7-0.9,10.5c-0.1,0.9-0.5,1.4-1.4,1.6
			c-13.1,3.6-26.3,7.3-39.4,10.9c-0.6,0.2-1.4,0.2-2,0c-13.1-3.6-26.3-7.3-39.4-10.9c-1.1-0.3-1.5-0.8-1.5-1.8
			c-0.8-8.9-1.5-17.9-2.3-26.8c-0.8-9-1.7-17.9-2.5-26.9c-0.7-7.9-1.3-15.8-2-23.7c-0.7-7.9-1.5-15.8-2.2-23.7c0-0.5,0-1,0-1.6
			C121.7,99.1,155.6,99.1,189.7,99.1z M106.5,120c0,0.9,0.1,1.5,0.1,2.2c0.5,5.9,1.1,11.8,1.6,17.7c0.5,5.8,1.1,11.7,1.6,17.5
			c0.1,1.3,0.6,1.7,1.9,1.7c13.5,0,27.1,0,40.6,0c0.6,0,1.2,0,1.9,0c-0.1,1.5-0.2,2.7-0.3,4c-0.3,3.5-0.6,7.1-0.9,10.6
			c-0.1,1.2-0.6,1.8-1.8,2.1c-3.8,1-7.6,2-11.4,3c-0.7,0.2-1.5,0.2-2.2,0c-3.9-1-7.9-2.1-11.8-3.2c-0.9-0.2-1.3-0.7-1.4-1.6
			c-0.2-2.5-0.4-5.1-0.6-7.6c-0.1-0.9-0.3-1.4-1.4-1.4c-3.6,0.1-7.1,0-10.7,0c-0.4,0-0.7,0.1-1.1,0.1c0,0.5,0,0.9,0,1.2
			c0.5,5.9,1.1,11.8,1.5,17.7c0.1,1,0.5,1.4,1.4,1.7c8,2.2,16,4.4,24,6.6c0.8,0.2,1.8,0.2,2.6-0.1c7.3-2,14.5-4,21.8-6
			c3.1-0.8,3.1-0.8,3.4-4c0-0.1,0-0.3,0.1-0.4c0.4-4.9,0.9-9.7,1.3-14.6c0.4-4.8,0.9-9.5,1.3-14.3c0.2-2.4,0.4-4.7,0.6-7.3
			c-15.7,0-31.2,0-46.7,0c-0.4-4.3-0.8-8.5-1.1-12.8c0.6,0,1.1,0,1.6,0c3.5,0,7,0,10.4,0c11.8,0,23.6,0,35.4,0.1
			c1,0,1.6-0.1,1.7-1.4c0.2-3.2,0.5-6.4,0.9-9.7c0.2-2.2,0.3-2.1-1.8-2.1c-20.2,0-40.5,0-60.7,0C107.7,120,107.2,120,106.5,120z"/>
		<polygon class="st13" points="171.5,195.4 138.9,205.5 138.9,106.7 180.3,106.7 		"/>
		<path class="st1" d="M106.5,120c0.7,0,1.2,0,1.7,0c20.2,0,40.5,0,60.7,0c2.1,0,2,0,1.8,2.1c-0.4,3.2-0.7,6.4-0.9,9.7
			c-0.1,1.3-0.7,1.4-1.7,1.4c-11.8,0-23.6,0-35.4-0.1c-3.5,0-7,0-10.4,0c-0.5,0-1,0-1.6,0c0.4,4.3,0.8,8.5,1.1,12.8
			c15.5,0,31,0,46.7,0c-0.2,2.6-0.4,4.9-0.6,7.3c-0.4,4.8-0.9,9.5-1.3,14.3c-0.4,4.9-0.9,9.7-1.3,14.6c0,0.1,0,0.3-0.1,0.4
			c-0.3,3.1-0.3,3.1-3.4,4c-7.3,2-14.5,4-21.8,6c-0.8,0.2-1.8,0.3-2.6,0.1c-8-2.2-16-4.4-24-6.6c-1-0.3-1.4-0.7-1.4-1.7
			c-0.5-5.9-1-11.8-1.5-17.7c0-0.4,0-0.7,0-1.2c0.4-0.1,0.7-0.1,1.1-0.1c3.6,0,7.1,0,10.7,0c1.1,0,1.4,0.5,1.4,1.4
			c0.2,2.5,0.4,5,0.6,7.6c0.1,1,0.4,1.4,1.4,1.6c3.9,1,7.9,2.1,11.8,3.2c0.7,0.2,1.5,0.1,2.2,0c3.8-1,7.6-2.1,11.4-3
			c1.2-0.3,1.7-0.9,1.8-2.1c0.3-3.6,0.6-7.1,0.9-10.6c0.1-1.3,0.2-2.5,0.3-4c-0.8,0-1.3,0-1.9,0c-13.5,0-27.1,0-40.6,0
			c-1.3,0-1.8-0.3-1.9-1.7c-0.5-5.8-1-11.7-1.6-17.5c-0.5-5.9-1.1-11.8-1.6-17.7C106.6,121.6,106.5,120.9,106.5,120z"/>
	</g>
</g>
<g id="Layer_6" class="st3">
	<g class="st5">
		<g>
			<path class="st0" d="M66.6,37.4C67,38,83.2,27.1,83.6,27.6C84,28.4,46,53.2,46.6,54.2c0.8,1.3,60.1-36.9,61.1-35.2
				c1,1.7-67.8,43.5-67,45c1.4,2.4,85.1-51.5,86.1-49.7c1.3,2.3-95.6,57.5-93.9,60.4c1.6,2.7,99.1-61.1,100.8-58.2
				c1.6,2.8-109.3,64.3-107.5,67.4c1.5,2.5,114.9-70.5,116.7-67.4c1.7,3-125.6,74.8-123.8,77.8c2.1,3.7,130.5-80.2,132.6-76.5
				c2,3.4-132,77.7-130.2,80.9c2,3.4,138.1-84.6,140.2-80.9c1.7,3-146.5,85.9-144.6,89.4c2.6,4.5,153.1-94,155.5-89.8
				c2.3,4-156.7,90.7-154.3,94.8c2.3,4,155.3-95,157.7-91C178,24.6,8,117.1,10.7,121.8c2,3.4,169.8-104.4,172.5-99.6
				c3,5.2-174.5,100.4-171.7,105.3c2.4,4.1,170.9-103.8,173.1-99.9c2.9,5-171.2,99.6-169,103.4c2.9,5,173.1-106.5,176-101.6
				C194,33.5,9.3,133.4,12.3,138.5c2.3,4,183.2-111.9,185.8-107.3c2.3,4-186.5,106.5-183.5,111.7C17.1,147.3,200,28.9,203,34.1
				c3.4,5.8-195.6,112-192.6,117.1C12.9,155.6,205,32,208,37.1c3.3,5.7-198.8,113.7-195.6,119.3c3.1,5.4,200.4-123.5,203.8-117.7
				C218.6,42.8,11.9,155.3,15,160.6c2.6,4.5,195.5-119.4,198.4-114.5c3,5.2-202.9,116.6-200.2,121.4c2.8,4.8,204-125.8,207.5-119.8
				C223.7,53.1,11.2,168,14.1,173c2.4,4.2,211-128.1,213.8-123.4c3.2,5.5-216,123.2-212.9,128.5c2.7,4.8,207.2-126.1,210-121.3
				c2.6,4.5-209.7,121.4-207.2,125.8c3.5,6,212.7-129,215.4-124.4c2.9,5.1-213.7,122.6-211,127.2c3.4,5.8,212.1-130,215.4-124.3
				C240.3,66.1,21.7,184.1,25.1,190C28.3,195.6,234.8,61.6,238,67.1c2.9,5.1-212.4,121.1-209.2,126.7
				c3.6,6.3,207.6-126.2,210.3-121.4C242.3,77.9,24.2,195.8,27,200.6c3.3,5.7,211.9-130.6,215.5-124.4
				c3.6,6.3-212.9,120.4-209.5,126.3c3,5.2,207.9-127.3,211.1-121.9c3.4,5.9-211.7,120.1-208.5,125.7
				C38.1,210.8,247,76.4,250.4,82.3C253.2,87.1,37.5,205.5,40.1,210c2.9,5,210.1-128,213-123C256.7,93.2,40.4,208.9,43,213.5
				C46,218.6,251.2,87.4,253.8,91.8c3,5.1-212.5,121.8-209.6,126.9C47.8,225,248.1,93.2,251.5,99.1c2.8,4.8-204.5,117.8-201.8,122.6
				c3.2,5.6,201.6-124,204.9-118.3c3.4,5.9-210.7,121.9-208.1,126.3c2.8,4.8,207.4-126.4,210.3-121.4
				c2.6,4.5-206.3,117.2-203.1,122.7c3.4,5.8,201.6-124.2,205-118.3c2.9,5.1-202.2,117.1-199.7,121.3c3.1,5.4,200-121,202.4-116.9
				c3.4,5.8-204.5,116.3-201,122.3c2.3,4,199.9-121.7,202.6-117c3.1,5.4-194.4,111.5-191.3,116.7c3.1,5.3,184.2-113,187.1-108
				c2.2,3.8-187.8,107.7-184.9,112.7c3,5.3,183.1-112.4,186-107.4c3.1,5.4-187.8,108.1-185,112.9c3.1,5.3,184.7-111.9,187-108
				c2.9,5-177.3,102.9-175.2,106.4c2.3,4,167.6-102.3,170-98.1c2.3,3.9-171.6,98.3-168.6,103.4c2.6,4.5,173.7-106.1,176.2-101.7
				c2.4,4.1-171.2,99.2-168.8,103.3c2.4,4.1,159.5-98.6,162.3-93.7c2.5,4.3-158.7,91.7-156.3,95.8c2.3,4,151.2-93.2,153.8-88.8
				c1.8,3-150.3,88.6-148.4,92c2.4,4.2,148.8-90.6,150.8-87.1c1.9,3.4-142.9,82.5-140.6,86.6c2,3.5,135.8-83.9,138.2-79.8
				c1.6,2.8-136.6,80.3-135,83.2c1.7,3,129.6-78.5,131.2-75.7c1.7,2.9-119.9,70.8-118.3,73.6c1.7,2.9,117.5-71.9,119.2-68.8
				c1.7,3-117.2,69.9-115.7,72.5c1.5,2.7,105.8-64.4,107.3-61.9c1.6,2.8-98.8,58.8-97.1,61.8c1.1,1.9,86.2-52.7,87.5-50.5
				c0.9,1.5-73.9,45.1-72.6,47.2c1,1.7,66.5-40.3,67.4-38.9c0.7,1.3-45.6,30.6-44.8,32c0.4,0.7,26.4-15.9,26.7-15.4"/>
		</g>
	</g>
	<circle class="st6" cx="137" cy="139" r="100.5"/>
	<path class="st6" d="M132.5,12.6V41c0,0-24.1-1.7-58.5,22L54.5,42.5C70.7,25.5,108.5,10,132.5,12.6z"/>
	<circle class="st4" cx="137" cy="139" r="128.5"/>
	<path class="st5" d="M139,228c-1.3,0-2.7,0-4,0c-13.1-1.6-25.8-4.7-38.3-8.5c-7-2.1-7.4-2.6-8.1-9.9c-3.2-31.4-5.6-62.9-8.8-94.3
		c-0.3-3.3-0.3-6.6-0.8-9.9c-0.3-2.1,0.3-3.9,2-5.3c37.3,0,74.7,0,112,0c1.9,1.5,2.2,3.5,2,5.8c-2.6,26.6-4.8,53.3-7.4,79.9
		c-0.8,8.3-1.5,16.5-2.3,24.8c-0.6,5.9-1.3,6.9-7.1,8.7C165.4,223.1,152.4,226.5,139,228z"/>
	<path class="st14" d="M137,204.1c-7.8-2.4-15.6-4.8-23.4-7c-2.6-0.7-3.8-1.9-3.9-4.7c-0.1-4.5-0.7-9-1.3-13.4
		c-0.3-2.2,0.3-3.1,2.5-2.9c2,0.1,4,0.2,6,0c4.6-0.6,7.4,0.6,7.1,5.8c-0.1,1.9,1.3,2.5,2.8,3c2.7,0.8,5.4,1.6,8.1,2.3
		c8.2-1.2,12.8-5.8,12.9-12.6c0-2.8-1-4-3.7-4.1c-2.6-0.1-5.3,0.1-7.3-2.3c-8.7-0.1-17.3-0.2-26-0.1c-2.7,0-3.7-0.8-4-3.6
		c-1.2-12.4-1.3-12.4,10.4-16.9c5.7-2.2,11.4-4.4,17.1-7.5c-8.1,0-16.3-0.2-24.4,0.1c-4,0.2-5.3-0.9-5.7-5
		C103.3,124,103,124,114,124c7.7,0,15.3-0.1,23-0.2c1.4-1.6,3.3-2.1,5.4-2.1c7.7-0.1,15.3-0.3,22.9,0.1c5.4,0.2,6.6,1.6,7,7
		c0.2,3.5-0.6,6.9-1.3,10.4c-0.4,1.9-1.6,3.3-3.4,4c-7.1,2.7-14,6.1-21.7,7.4c6.3-1.2,12.7-1,19.1-0.5c3.4,0.2,5.3,2.2,5,5.6
		c-1.2,12.6-1.9,25.2-3.6,37.7c-0.4,3-1.8,5-4.6,5.9c-6.6,2.2-13.3,4.2-20.1,6C139.9,205.5,138.3,205.4,137,204.1z"/>
	<path class="st15" d="M137,204.1c7.8-2.4,15.6-4.8,23.4-7c2.6-0.7,3.6-1.9,3.9-4.7c0.9-12.3,2.1-24.6,3.4-36.8
		c0.3-3.2-0.8-3.6-3.5-3.6c-8.2,0.1-16.3,0-24.7-0.8c7-2.7,14-5.2,20.9-8c2.9-1.1,7.3-1.1,8.2-3.9c1.5-4.1,1.2-8.8,1.5-13.3
		c0.2-2.8-2.2-1.9-3.6-1.9c-9.8-0.1-19.7-0.1-29.5-0.2c0-3.8,0.1-7.7,0-11.5c-0.1-2.8,0.9-4.4,4-4.4c13,0,26,0,38.9,0
		c2.8,0,3.7,0.9,3.4,3.9c-2.5,23.9-4.8,47.9-7.2,71.8c-0.7,6.8-1.4,13.5-2,20.3c-0.2,2.7-1.3,4.3-3.9,5c-9.9,2.9-19.8,5.9-29.6,8.9
		c-2.8,0.9-3.6-0.4-3.6-2.9C137,211.4,137,207.7,137,204.1z"/>
	<path class="st15" d="M137,168.2c3.5-0.1,6.9,0.1,10.4-0.2c3.4-0.3,4,1.2,3.4,4.1c-0.2,1.1-0.2,2.3-0.5,3.4
		c-0.6,2.8,1.1,6.7-1.5,8.4c-3.7,2.3-8.1,3.4-12.6,4c-0.4,0.1-0.8-0.5-1.2-0.7c2.1-0.9,2-2.8,2-4.6C137,177.7,137,172.9,137,168.2z"
		/>
	<g class="st5">
		<path d="M107.5,69.9c-1.2,0-2.2,0.3-3.1,0.8c-0.8,0.6-1.5,1.3-2,2.2c-0.5,0.9-0.9,1.9-1.1,2.9c-0.2,1.1-0.3,2.1-0.3,3.2
			c0,1,0.1,2,0.3,3.1c0.2,1,0.6,2,1.1,2.8c0.5,0.8,1.1,1.5,2,2.1c0.8,0.5,1.8,0.8,3,0.8c1.8,0,3.2-0.5,4.2-1.5c1-1,1.6-2.4,1.9-4.1
			h7.4c-0.5,3.7-1.9,6.5-4.3,8.5c-2.4,1.9-5.4,2.9-9.1,2.9c-2.1,0-4-0.4-5.8-1.1c-1.7-0.7-3.2-1.7-4.5-2.9C96,88.2,95,86.7,94.3,85
			c-0.7-1.7-1-3.7-1-5.8c0-2.2,0.3-4.2,0.9-6c0.6-1.9,1.6-3.5,2.8-4.8c1.2-1.4,2.7-2.4,4.5-3.2c1.8-0.8,3.8-1.1,6-1.1
			c1.7,0,3.2,0.2,4.8,0.6c1.5,0.4,2.9,1.1,4.1,2c1.2,0.9,2.2,2,2.9,3.3c0.8,1.3,1.2,2.9,1.3,4.7h-7.5
			C112.7,71.5,110.8,69.9,107.5,69.9z"/>
		<path d="M131.6,85.9c0.3,0.6,0.8,1.1,1.3,1.5s1.2,0.7,1.9,0.8c0.7,0.2,1.4,0.3,2.2,0.3c0.5,0,1.1-0.1,1.7-0.2
			c0.6-0.1,1.1-0.3,1.6-0.6c0.5-0.3,0.9-0.6,1.2-1.1c0.3-0.4,0.5-1,0.5-1.7c0-1.2-0.8-2-2.3-2.6c-1.5-0.6-3.7-1.2-6.4-1.7
			c-1.1-0.3-2.2-0.5-3.3-0.9c-1.1-0.3-2-0.8-2.8-1.4c-0.8-0.6-1.5-1.3-2-2.1c-0.5-0.8-0.8-1.9-0.8-3.1c0-1.8,0.4-3.3,1.1-4.4
			c0.7-1.2,1.6-2.1,2.8-2.7c1.2-0.7,2.4-1.1,3.9-1.4c1.4-0.3,2.9-0.4,4.4-0.4c1.5,0,3,0.1,4.4,0.4c1.4,0.3,2.7,0.8,3.8,1.5
			c1.1,0.7,2,1.6,2.8,2.7c0.7,1.1,1.2,2.6,1.3,4.3h-7.3c-0.1-1.5-0.7-2.5-1.7-3c-1-0.5-2.2-0.8-3.6-0.8c-0.4,0-0.9,0-1.4,0.1
			c-0.5,0.1-1,0.2-1.4,0.4c-0.4,0.2-0.8,0.4-1.1,0.8c-0.3,0.3-0.4,0.8-0.4,1.4c0,0.7,0.3,1.2,0.8,1.7c0.5,0.4,1.2,0.8,2,1.1
			s1.7,0.5,2.8,0.7c1,0.2,2.1,0.5,3.2,0.7c1.1,0.3,2.2,0.6,3.3,0.9c1.1,0.4,2,0.8,2.8,1.4c0.8,0.6,1.5,1.3,2,2.2
			c0.5,0.9,0.8,2,0.8,3.3c0,1.8-0.4,3.4-1.1,4.6c-0.7,1.2-1.7,2.2-2.9,3s-2.5,1.3-4.1,1.6c-1.5,0.3-3.1,0.5-4.7,0.5
			c-1.6,0-3.2-0.2-4.8-0.5c-1.5-0.3-2.9-0.9-4.1-1.6c-1.2-0.8-2.2-1.8-3-3c-0.8-1.2-1.2-2.8-1.3-4.7h7.3
			C131.1,84.6,131.3,85.3,131.6,85.9z"/>
		<path d="M160.6,85.9c0.3,0.6,0.8,1.1,1.3,1.5s1.2,0.7,1.9,0.8c0.7,0.2,1.4,0.3,2.2,0.3c0.5,0,1.1-0.1,1.7-0.2
			c0.6-0.1,1.1-0.3,1.6-0.6c0.5-0.3,0.9-0.6,1.2-1.1c0.3-0.4,0.5-1,0.5-1.7c0-1.2-0.8-2-2.3-2.6c-1.5-0.6-3.7-1.2-6.4-1.7
			c-1.1-0.3-2.2-0.5-3.3-0.9c-1.1-0.3-2-0.8-2.8-1.4c-0.8-0.6-1.5-1.3-2-2.1c-0.5-0.8-0.8-1.9-0.8-3.1c0-1.8,0.4-3.3,1.1-4.4
			c0.7-1.2,1.6-2.1,2.8-2.7c1.2-0.7,2.4-1.1,3.9-1.4s2.9-0.4,4.4-0.4c1.5,0,3,0.1,4.4,0.4c1.4,0.3,2.7,0.8,3.8,1.5
			c1.1,0.7,2,1.6,2.8,2.7c0.7,1.1,1.2,2.6,1.3,4.3h-7.3c-0.1-1.5-0.7-2.5-1.7-3c-1-0.5-2.2-0.8-3.6-0.8c-0.4,0-0.9,0-1.4,0.1
			c-0.5,0.1-1,0.2-1.4,0.4c-0.4,0.2-0.8,0.4-1.1,0.8c-0.3,0.3-0.4,0.8-0.4,1.4c0,0.7,0.3,1.2,0.8,1.7c0.5,0.4,1.2,0.8,2,1.1
			c0.8,0.3,1.7,0.5,2.8,0.7c1,0.2,2.1,0.5,3.2,0.7c1.1,0.3,2.2,0.6,3.3,0.9c1.1,0.4,2,0.8,2.8,1.4c0.8,0.6,1.5,1.3,2,2.2
			c0.5,0.9,0.8,2,0.8,3.3c0,1.8-0.4,3.4-1.1,4.6c-0.7,1.2-1.7,2.2-2.9,3c-1.2,0.8-2.5,1.3-4.1,1.6c-1.5,0.3-3.1,0.5-4.7,0.5
			c-1.6,0-3.2-0.2-4.8-0.5c-1.5-0.3-2.9-0.9-4.1-1.6c-1.2-0.8-2.2-1.8-3-3c-0.8-1.2-1.2-2.8-1.3-4.7h7.3
			C160.1,84.6,160.3,85.3,160.6,85.9z"/>
	</g>
</g>
<g id="Layer_7" class="st3">
	<g class="st5">
		<g>
			<path class="st0" d="M67,37.2c0.3,0.6,16.7-10.4,17-9.8c0.5,0.8-37.6,25.6-37,26.6c0.8,1.3,60.2-37,61.2-35.3
				c1,1.7-68,43.6-67.1,45.1c1.4,2.4,85.2-51.6,86.3-49.8c1.3,2.3-95.8,57.6-94.1,60.5c1.6,2.7,99.2-61.3,101-58.3
				C135.8,19,24.6,80.6,26.4,83.7c1.5,2.5,115.1-70.7,116.9-67.5c1.7,3-125.8,74.9-124.1,77.9c2.1,3.7,130.7-80.4,132.9-76.7
				c2,3.4-132.3,77.8-130.4,81.1c2,3.4,138.4-84.8,140.5-81.1c1.7,3-146.8,86.1-144.8,89.5c2.6,4.5,153.4-94.2,155.8-90
				c2.3,4-157,90.9-154.6,95c2.3,4,155.7-95.2,158-91.2C178.6,24.3,8.2,117,10.9,121.7c2,3.4,170.1-104.6,172.9-99.8
				c3,5.2-174.9,100.6-172,105.5c2.4,4.1,171.3-104,173.5-100.2c2.9,5-171.6,99.8-169.4,103.6c2.9,5,173.6-106.8,176.4-101.9
				c2.4,4.2-182.7,104.3-179.7,109.4c2.3,4,183.6-112.2,186.3-107.5c2.3,4-186.9,106.8-184,112c2.5,4.4,185.8-114.3,188.9-109.1
				c3.4,5.9-196,112.3-193.1,117.3c2.6,4.4,195.1-119.5,198.1-114.4c3.3,5.7-199.3,114-196.1,119.5c3.2,5.5,200.9-123.8,204.3-117.9
				c2.4,4.1-204.8,116.9-201.7,122.2c2.6,4.5,196-119.7,198.9-114.8c3,5.2-203.5,116.9-200.7,121.8c2.8,4.8,204.5-126.2,208-120.1
				c3.1,5.4-210,120.5-207.1,125.6c2.5,4.2,211.6-128.5,214.3-123.7C231.7,54.8,11.9,172.8,15,178.1
				c2.8,4.8,207.8-126.5,210.6-121.6C228.2,61,15.3,178.2,17.8,182.7c3.5,6,213.4-129.4,216.1-124.7c3,5.1-214.3,123-211.7,127.6
				c3.4,5.8,212.7-130.4,216-124.7C241.1,65.7,21.7,184.1,25.1,190c3.2,5.6,210.4-128.8,213.6-123.3
				c2.9,5.1-213.1,121.5-209.9,127.1c3.6,6.3,208.3-126.6,211-121.8C243,77.6,24.2,195.8,27,200.7c3.3,5.8,212.6-131,216.2-124.8
				C246.9,82.1,29.5,196.6,33,202.6c3,5.2,208.7-127.8,211.8-122.3c3.4,5.9-212.5,120.6-209.3,126.1C38.1,210.9,247.8,76,251.2,81.8
				C254,86.7,37.5,205.5,40.1,210C43,215,251,81.6,253.9,86.6c3.6,6.3-213.6,122.4-210.9,127c2.9,5.1,209.1-126.6,211.6-122.2
				c3,5.2-213.4,122.3-210.4,127.4C47.8,225.1,249,92.7,252.4,98.6c2.8,4.9-205.5,118.3-202.7,123.1
				c3.3,5.6,202.5-124.6,205.8-118.8c3.4,5.9-211.7,122.5-209.1,126.9c2.8,4.8,208.4-127,211.3-122c2.6,4.6-207.3,117.7-204.2,123.2
				c3.4,5.9,202.6-124.8,206-118.9c2.9,5.1-203.2,117.7-200.8,121.9c3.1,5.4,201.1-121.7,203.5-117.5c3.4,5.8-205.7,116.9-202.2,123
				c2.3,4.1,201-122.4,203.8-117.6C267,127.3,68.3,234,71.4,239.3c3.1,5.4,185.3-113.7,188.2-108.7c2.2,3.8-189,108.4-186.1,113.4
				c3.1,5.3,184.3-113.1,187.2-108.1c3.2,5.5-189.1,108.8-186.3,113.7c3.1,5.4,186.1-112.7,188.3-108.7
				c2.9,5-178.7,103.6-176.6,107.2c2.3,4,168.9-103.2,171.4-99c2.3,3.9-173,99.1-170,104.3c2.6,4.5,175.1-107,177.7-102.6
				c2.4,4.1-172.7,100-170.3,104.2c2.4,4.1,161.1-99.5,163.9-94.6c2.5,4.3-160.4,92.6-158,96.7c2.3,4.1,152.9-94.3,155.5-89.8
				c1.8,3.1-152.1,89.6-150.2,93c2.5,4.3,150.7-91.7,152.7-88.2c2,3.4-145,83.6-142.6,87.7c2.1,3.6,137.9-85.2,140.3-81
				c1.6,2.8-138.8,81.6-137.2,84.4c1.7,3,131.8-79.9,133.4-77c1.7,3-122.2,72.1-120.6,74.9c1.7,3,119.9-73.3,121.7-70.2
				c1.7,3-119.9,71.4-118.4,74.1c1.6,2.7,108.8-66.2,110.2-63.6c1.7,2.9-102.1,60.6-100.3,63.6c1.1,2,89.7-54.9,91-52.5
				c0.9,1.6-77.8,47.2-76.6,49.4c1,1.8,70.9-43,71.8-41.5c0.8,1.5-53.2,34.7-52.2,36.3c0.6,1,36.5-22.1,36.9-21.3"/>
		</g>
	</g>
	<circle class="st6" cx="137.6" cy="139.2" r="100.9"/>
	<path class="st6" d="M133.1,12.3v28.5c0,0-24.2-1.7-58.7,22.1L54.9,42.3C71.1,25.3,109,9.7,133.1,12.3z"/>
	<circle class="st4" cx="137.6" cy="139.2" r="129"/>
	<text transform="matrix(1 0 0 1 88.6665 189.6667)" class="st5 st16 st17">B</text>
</g>
<g id="Layer_8" class="st3">
	<g class="st5">
		<g>
			<path class="st0" d="M66.6,37.4C67,38,83.2,27.1,83.6,27.6C84,28.4,46,53.2,46.6,54.2c0.8,1.3,60.1-36.9,61.1-35.2
				c1,1.7-67.8,43.5-67,45c1.4,2.4,85.1-51.5,86.1-49.7c1.3,2.3-95.6,57.5-93.9,60.4c1.6,2.7,99.1-61.1,100.8-58.2
				c1.6,2.8-109.3,64.3-107.5,67.4c1.5,2.5,114.9-70.5,116.7-67.4c1.7,3-125.6,74.8-123.8,77.8c2.1,3.7,130.5-80.2,132.6-76.5
				c2,3.4-132,77.7-130.2,80.9c2,3.4,138.1-84.6,140.2-80.9c1.7,3-146.5,85.9-144.6,89.4c2.6,4.5,153.1-94,155.5-89.8
				c2.3,4-156.7,90.7-154.3,94.8c2.3,4,155.3-95,157.7-91C178,24.6,8,117.1,10.7,121.8c2,3.4,169.8-104.4,172.5-99.6
				c3,5.2-174.5,100.4-171.7,105.3c2.4,4.1,170.9-103.8,173.1-99.9c2.9,5-171.2,99.6-169,103.4c2.9,5,173.1-106.5,176-101.6
				C194,33.5,9.3,133.4,12.3,138.5c2.3,4,183.2-111.9,185.8-107.3c2.3,4-186.5,106.5-183.5,111.7C17.1,147.3,200,28.9,203,34.1
				c3.4,5.8-195.6,112-192.6,117.1C12.9,155.6,205,32,208,37.1c3.3,5.7-198.8,113.7-195.6,119.3c3.1,5.4,200.4-123.5,203.8-117.7
				C218.6,42.8,11.9,155.3,15,160.6c2.6,4.5,195.5-119.4,198.4-114.5c3,5.2-202.9,116.6-200.2,121.4c2.8,4.8,204-125.8,207.5-119.8
				C223.7,53.1,11.2,168,14.1,173c2.4,4.2,211-128.1,213.8-123.4c3.2,5.5-216,123.2-212.9,128.5c2.7,4.8,207.2-126.1,210-121.3
				c2.6,4.5-209.7,121.4-207.2,125.8c3.5,6,212.7-129,215.4-124.4c2.9,5.1-213.7,122.6-211,127.2c3.4,5.8,212.1-130,215.4-124.3
				C240.3,66.1,21.7,184.1,25.1,190C28.3,195.6,234.8,61.6,238,67.1c2.9,5.1-212.4,121.1-209.2,126.7
				c3.6,6.3,207.6-126.2,210.3-121.4C242.3,77.9,24.2,195.8,27,200.6c3.3,5.7,211.9-130.6,215.5-124.4
				c3.6,6.3-212.9,120.4-209.5,126.3c3,5.2,207.9-127.3,211.1-121.9c3.4,5.9-211.7,120.1-208.5,125.7
				C38.1,210.8,247,76.4,250.4,82.3C253.2,87.1,37.5,205.5,40.1,210c2.9,5,210.1-128,213-123C256.7,93.2,40.4,208.9,43,213.5
				C46,218.6,251.2,87.4,253.8,91.8c3,5.1-212.5,121.8-209.6,126.9C47.8,225,248.1,93.2,251.5,99.1c2.8,4.8-204.5,117.8-201.8,122.6
				c3.2,5.6,201.6-124,204.9-118.3c3.4,5.9-210.7,121.9-208.1,126.3c2.8,4.8,207.4-126.4,210.3-121.4
				c2.6,4.5-206.3,117.2-203.1,122.7c3.4,5.8,201.6-124.2,205-118.3c2.9,5.1-202.2,117.1-199.7,121.3c3.1,5.4,200-121,202.4-116.9
				c3.4,5.8-204.5,116.3-201,122.3c2.3,4,199.9-121.7,202.6-117c3.1,5.4-194.4,111.5-191.3,116.7c3.1,5.3,184.2-113,187.1-108
				c2.2,3.8-187.8,107.7-184.9,112.7c3,5.3,183.1-112.4,186-107.4c3.1,5.4-187.8,108.1-185,112.9c3.1,5.3,184.7-111.9,187-108
				c2.9,5-177.3,102.9-175.2,106.4c2.3,4,167.6-102.3,170-98.1c2.3,3.9-171.6,98.3-168.6,103.4c2.6,4.5,173.7-106.1,176.2-101.7
				c2.4,4.1-171.2,99.2-168.8,103.3c2.4,4.1,159.5-98.6,162.3-93.7c2.5,4.3-158.7,91.7-156.3,95.8c2.3,4,151.2-93.2,153.8-88.8
				c1.8,3-150.3,88.6-148.4,92c2.4,4.2,148.8-90.6,150.8-87.1c1.9,3.4-142.9,82.5-140.6,86.6c2,3.5,135.8-83.9,138.2-79.8
				c1.6,2.8-136.6,80.3-135,83.2c1.7,3,129.6-78.5,131.2-75.7c1.7,2.9-119.9,70.8-118.3,73.6c1.7,2.9,117.5-71.9,119.2-68.8
				c1.7,3-117.2,69.9-115.7,72.5c1.5,2.7,105.8-64.4,107.3-61.9c1.6,2.8-98.8,58.8-97.1,61.8c1.1,1.9,86.2-52.7,87.5-50.5
				c0.9,1.5-73.9,45.1-72.6,47.2c1,1.7,66.5-40.3,67.4-38.9c0.7,1.3-45.6,30.6-44.8,32c0.4,0.7,26.4-15.9,26.7-15.4"/>
		</g>
	</g>
	<circle class="st6" cx="137" cy="139" r="100.5"/>
	<path class="st6" d="M132.5,12.6V41c0,0-24.1-1.7-58.5,22L54.5,42.5C70.7,25.5,108.5,10,132.5,12.6z"/>
	<circle class="st4" cx="137" cy="139" r="128.5"/>
	<text transform="matrix(1 0 0 1 65.9833 185.0008)" class="st5 st7 st18">Ai</text>
</g>
</svg>
