<?xml version="1.0" encoding="utf-8"?>
<!-- Generator: Adobe Illustrator 19.2.1, SVG Export Plug-In . SVG Version: 6.00 Build 0)  -->
<!DOCTYPE svg PUBLIC "-//W3C//DTD SVG 1.1//EN" "http://www.w3.org/Graphics/SVG/1.1/DTD/svg11.dtd">
<svg version="1.1" id="Layer_1" xmlns="http://www.w3.org/2000/svg" xmlns:xlink="http://www.w3.org/1999/xlink" x="0px" y="0px"
	 viewBox="0 0 271.4 273.9" style="enable-background:new 0 0 271.4 273.9;" xml:space="preserve">
<style type="text/css">
	.st0{fill:#FAFAFA;}
	.st1{fill:#231F20;}
	.st2{fill:#141C33;}
	.st3{fill:none;}
	.st4{fill-rule:evenodd;clip-rule:evenodd;fill:#808285;}
	.st5{fill:#808285;}
	.st6{fill:#232323;}
	.st7{font-family:'BigBoss';}
	.st8{font-size:34px;}
	.st9{font-size:28px;}
	.st10{font-size:22px;}
</style>
<rect x="-1.1" y="0.1" class="st0" width="273.6" height="273.6"/>
<g>
	<g id="XMLID_1_">
		<g>
			<path d="M154.1,125.1c1.7-1.3,3.6-2.4,5.8-2.3c0.4,0,0.7-0.4,1-0.2c1.7,0.3,3.3,0.3,4.8,0.6c1.3,0.3,2.6,0.7,3.7,1.5
				c0.4,0.3,0.5,0.7,0.4,1.1c-0.2,1.8-0.8,3.5-1.9,5c-1.2,1.6-2.6,3-4.3,4.1c-1.2,0.7-2.5,0.9-3.8,1.1c-2.3,0.4-4.6,0.1-6.9,0
				c-1.5-0.1-2.8-0.9-4.2-1.3c-0.3-0.1-0.3-0.3-0.2-0.5c0.1-1.9,0.7-3.5,1.8-5.1C151.3,127.5,152.6,126.2,154.1,125.1z"/>
			<path d="M169,119.1c-1.4,0-2.7,0-4.1-0.5c-0.2-0.1-0.3-0.1-0.5-0.1c-1.3-0.1-2.5-0.2-3.8-0.2c-1.3,0-2.7-0.2-4,0.3
				c-0.5,0.2-1.2,0.1-1.8-0.1c-0.4-0.1-0.7-0.1-1.1,0c-1.7,0.2-3.4,0.5-5.1,0.6c-1.1,0-2.2,0.2-3.3,0.2c-0.5,0-0.8,0.2-0.9,0.9
				c-0.1,1.2-0.2,2.5-0.4,3.7c-0.7,2.8-0.1,5.4,1.2,7.9c0.4,0.7,0.7,1.4,1.5,1.8c0.4,0.3,0.6,0.4,0.7-0.3c0.4-2.8,1.7-5.1,3.7-7.1
				c1-0.9,2.1-1.7,3.1-2.5c0.8-0.6,1.8-0.9,2.7-1.3c2.4-0.9,5-0.4,7.5-0.3c0.9,0,1.8-0.1,2.7,0.4c0.9,0.5,1.8,0.8,2.7,1.2
				c0.2-0.8,0.3-1.4,0.1-2.2c-0.1-0.6-0.5-1.1-0.3-1.7C169.9,119.1,169.5,119.1,169,119.1z M167.9,114c-1.2-0.3-2.4-0.1-3.6,0
				c-1.9,0.3-3.9,0.1-5.8,0.4c-2.5,0.3-4.9,0.7-7.2,1.6c-1.7,0.7-3.6,1-5.3,2c0.9,0.2,1.7,0,2.5-0.1c2.4-0.2,4.8-0.1,7.2-0.7
				c0.7-0.2,1.4-0.3,2.1-0.2c1.8,0.2,3.7,0.3,5.5,0.5c1.5,0.1,2.9,0.2,4.4,0.5c2.3,0.4,2.5,0.2,1.9-2c0-0.2-0.1-0.3-0.2-0.5
				C169,115,168.7,114.2,167.9,114z M169.4,124.8c-1.1-0.7-2.5-1.2-3.7-1.5c-1.5-0.3-3.1-0.3-4.8-0.6c-0.2-0.2-0.6,0.2-1,0.2
				c-2.3-0.1-4.1,1-5.8,2.3c-1.4,1.1-2.7,2.3-3.8,3.8c-1.1,1.6-1.6,3.3-1.8,5.1c0,0.2-0.1,0.5,0.2,0.5c1.4,0.4,2.7,1.2,4.2,1.3
				c2.3,0.1,4.6,0.4,6.9,0c1.3-0.2,2.7-0.4,3.8-1.1c1.7-1.1,3.1-2.4,4.3-4.1c1.1-1.5,1.7-3.1,1.9-5
				C169.9,125.4,169.8,125,169.4,124.8z M168,133.6c-0.5,0.7-1.3,1.2-1.8,2.1c-0.3,0.5-0.9,0.7-1.4,1c-0.7,0.5-1.5,0.9-2.3,1.2
				c-1.4,0.5-2.8,0.7-4.2,0.6c-1.6,0-2.8,0.1-3.9,0.1c-1.3,0-2.7-0.4-4-0.7c-0.4-0.1-0.9-0.2-1.3-0.3c-1.9-0.5-3.1-1.8-4.3-3.3
				c-0.2-0.3-0.4-0.7-0.8-0.9c-0.1,0-0.3-0.3-0.3-0.5c0-1.1-0.8-1.9-0.9-2.9c-0.1-1.3-0.4-2.6-0.2-3.9c0.1-0.9,0.3-1.9,0.3-2.8
				c0-1.3,0.2-2.6,0.8-3.7c0.1-0.2-0.1-0.3-0.1-0.4c-0.1-0.3-0.4-0.6-0.1-0.9c0.1-0.1,0.1-0.3,0-0.4c-0.1-0.2-0.7-0.2-0.4-0.6
				c0.3-0.4,0.7-0.9,1.2-1.1c2.5-0.9,5.1-1.6,7.7-1.9c1.8-0.2,3.7-0.7,5.5-1.1c0.5-0.1,0.9-0.2,1.4-0.1c0.6,0.1,1.2-0.1,1.8-0.2
				c2.2-0.4,4.4-0.4,6.6-0.3c0.7,0,1.4,0.4,1.9,0.9c0.3,0.3,0.7,0.6,1,0.9c0.3,0.3,0.4,0.6,0.5,0.9c0.3,0.7,0.3,1.4,0.4,2.2
				c0.1,0.5,0.4,1,0.4,1.6c0.1,0.6-0.4,1-0.3,1.7c0.2,1,0.1,2.1,0.7,3c0.1,0.2,0.2,0.3,0.1,0.5c-0.8,1.6-0.9,3.4-1.5,5
				C170,130.9,169,132.3,168,133.6z"/>
			<path d="M131.7,253.3L131.7,253.3C131.7,253.4,131.7,253.4,131.7,253.3C131.7,253.3,131.7,253.3,131.7,253.3z"/>
			<path d="M131.7,252.4c-0.1,0.3,0,0.7,0,1c-0.8-0.1-1.6,0-2.1-0.8c-0.4-0.8,0.1-1.6-0.1-2.4c-0.1-0.2,0.2-0.4,0.4-0.5
				c0.2-0.1,0.4,0,0.5,0.3c0.1,0.1,0.1,0.3,0.2,0.3C131.9,250.8,132,251,131.7,252.4z"/>
			<path class="st1" d="M132.7,250.8c0.3,1.3,0.3,2-1,2.6c0,0,0,0,0,0c0-0.3-0.1-0.7,0-1c0.3-1.3,0.2-1.6-1-2.1
				c-0.1,0-0.2-0.2-0.2-0.3c-0.1-0.2-0.3-0.4-0.5-0.3c-0.2,0.1-0.5,0.3-0.4,0.5c0.2,0.8-0.3,1.7,0.1,2.4c0.4,0.8,1.3,0.7,2.1,0.8
				c0,0,0,0,0,0c-0.9,0.6-1.8,0.6-2.8,0.5c-1.5-0.1-2.6-0.9-3.7-1.7c-1.4-1-2.1-2.4-2.3-4c-0.2-1.1,0.8-1.7,1.8-1.2
				c1.2,0.5,2.3,1,3.5,0.2c0.1-0.1,0.3,0,0.4,0c1,0.5,2.2,0.7,2.8,1.8C131.8,249.5,132.5,249.9,132.7,250.8z"/>
			<path d="M125.2,117.6c0.2,0,0.2,0.2,0.1,0.3c-0.5,2-0.6,4.1-1,6.2c-0.3,1.5-1,2.8-2.1,3.9c-0.4,0.4-0.6,1.1-1.2,1.3
				c-0.7,0.2-1.4,0.4-2.1,0.5c-2.2,0.3-4.4,0.3-6.6-0.3c-1.3-0.4-2.5-1.2-3.6-2.1c-0.5-0.4-1-1-1.6-1.4c-1.2-0.8-1.7-2.1-2.4-3.2
				c-1.1-1.9-1.2-4-0.5-6c0.3-1,1.1-1.4,2.1-1.5c1.7-0.2,3.4-0.8,4.9-0.5c3.1-0.1,5.9,0.4,8.6,1.1c1.1,0.3,2.1,0.5,3.2,0.8
				C123.9,116.8,124.4,117.4,125.2,117.6z"/>
			<path d="M118.9,230.2c0.3-1.4,0.3-2.8,0.9-4.1C120.2,228.3,120.2,228.3,118.9,230.2z"/>
			<path d="M119.9,182.2c-0.3,1.7-0.6,3.4-1.3,4.9c-0.3,0.6-0.3,1.2-0.4,1.8c0,0.4-0.2,0.7-0.5,0.7c-0.4,0-0.3-0.4-0.4-0.6
				c-0.4-1,0.4-1.8,0.6-2.7c0.6-2.1,1-4.3,0.5-6.5c-0.1-0.3,0-0.5,0.2-0.6c0.2-0.1,0.6,0,0.6,0.3
				C119.4,180.5,119.4,181.5,119.9,182.2z"/>
			<path d="M115.9,200c0.5,0.3,1-0.1,1.4-0.4c0.4-0.3,0.9-0.7,1.4-0.8c0.9-0.3,1.4-0.1,1.2,0.8c-0.1,0.4,0,0.8,0.2,1.1
				c0.2,0.6,0.8,0.6,1.2,0.2c0.2-0.2,0.4-0.4,0.6-0.6c0.6-0.5,1.3-1.1,1.2-1.9c-0.1-0.8,0.1-1.6,0.1-2.3c0.1-0.9-0.3-1.7-0.5-2.6
				c-0.1-0.3-0.4-0.7-0.6-0.7c-0.9,0.1-1.8-1.2-2.6,0.2c-2.5,1-3.3,3.1-3.9,5.4C115.4,199,115.5,199.7,115.9,200z M115,200.2
				c-0.3-0.7-0.6-1.5-0.3-2.2c0.5-1.2,0.9-2.5,1.7-3.5c1-1.2,2.4-2,3.7-2.9c0.5-0.3,2,0.3,2.5,0.9c0.2,0.2,0.4,0.4,0.5,0.7
				c0.4,0.7,0.6,1.5,0.6,2.5c0.1,0.7-0.1,1.4,0.1,2.2c0,0.2,0,0.4,0,0.7c-0.1,0.7-0.7,1.3-1.2,1.8c-0.4,0.4-1,0.8-1.4,1.2
				c-0.4,0.5-1,0.4-1.4,0.2c-0.4-0.2-0.6-0.6-0.6-1.1c0-0.1,0-0.1,0-0.2c-0.1-0.3,0.3-0.8-0.1-1c-0.5-0.2-1,0.1-1.4,0.4
				c-0.5,0.4-0.9,0.7-1.5,0.9C115.6,201,115.3,200.8,115,200.2z"/>
			<path d="M114.8,252.1c0,0.2,0,0.3-0.1,0.5c-0.1,0.1-0.1,0.4-0.3,0.4c0,0,0,0,0,0c-0.2,0-0.3-0.3-0.2-0.5c0-0.5,0.1-1.1-0.8-1.1
				c0.5-0.3,0.8-0.7,1.3-0.8c0.2-0.1,0.5,0,0.8,0.2c0.3,0.2,0.6-0.3,0.9-0.5c0.2,0.7,0.9,0.7,1.4,0.7c-0.1,0.5-0.5,0.3-0.7,0.4
				c-0.3,0.2-0.9-0.1-0.5,0.6c0.1,0.2-0.2,0.4-0.4,0.4c-0.2,0-0.4-0.2-0.4-0.4c0-0.4-0.1-0.6-0.5-0.5
				C114.7,251.6,114.8,251.9,114.8,252.1z"/>
			<path class="st1" d="M114.6,252.6c0.1-0.2,0.1-0.3,0.1-0.5c0-0.3-0.1-0.6,0.4-0.6c0.5,0,0.5,0.2,0.5,0.5c0,0.2,0.2,0.4,0.4,0.4
				c0.2,0,0.4-0.3,0.4-0.4c-0.4-0.7,0.2-0.4,0.5-0.6c0.2-0.1,0.6,0.1,0.7-0.4c-0.6,0-1.2,0.1-1.4-0.7c-0.3,0.2-0.5,0.7-0.9,0.5
				c-0.3-0.2-0.6-0.3-0.8-0.2l-0.3-1c0.6,0,1.2-0.2,1.9-0.7c0.5-0.4,1-0.1,1.4,0c1.6,0.4,3,1.1,3.9,2.5c0.4,0.6-0.1,1.1-0.5,1.5
				c-0.8,0.9-2,1-3.1,1.2c-1.2,0.2-2.4,0-3.6-0.2l0.1-0.9C114.5,253,114.6,252.7,114.6,252.6z"/>
			<path class="st1" d="M109.4,248c0.4,0.7,1.3,0.7,1.9,0.9c0.9,0.3,1.9,0.7,2.9,0.7l0.3,1c-0.4,0.1-0.8,0.6-1.3,0.8
				c0.9,0,0.9,0.5,0.8,1.1c0,0.2,0,0.4,0.2,0.5c0,0,0,0,0,0l-0.1,0.9c-0.2,0-0.4-0.1-0.6-0.1c-0.9-0.1-1.9,0.1-2.8-0.4
				c-2-1-2.5-1.3-2.4-3.4c0-0.6-0.1-1.3,0.5-1.8C109.1,248.1,109.3,247.8,109.4,248z"/>
			<path d="M108.8,148.9c-1,0.1-1,0-0.7-0.8c0.4-1.4,1.2-2.6,2.1-3.7c0.4-0.5,0.9-0.8,1.2-1.3c0.5-0.7,1-0.6,1.3,0.2
				c0.6,1.4,1.7,1.9,3,2.5c1.3,0.6,2.2,0.2,3.3-0.3c0.4-0.2,0.6-0.6,0.7-1c0.3-1.2,0.9-2.4,1.1-3.7c0.1-0.8-0.2-1.6,0.1-2.5
				c0.1-0.4,0.1-0.6,0.5-0.7c1.8-0.6,3.6-0.9,5.5-0.9c0.8,0,0.9,0.3,0.7,1c-0.2,0.9-0.3,1.7,0.3,2.6c0.6,0.9,1.2,1.3,2.3,1
				c1.7-0.4,3.5-0.6,5-1.7c0.6-0.4,0.5-1.2,1.1-1.6c0.1-0.1,0.2-0.4,0.4-0.3c1.1,0.3,2.2,0.6,3.4,0.9c-0.2,0.2-0.3,0.3-0.4,0.5
				c-1.3,1.4-1,3.5,0.7,4.5c0.6,0.4,1.1,1,2,1.2c2.2,0.4,4.4,1,6.7,0.4c0.5-0.1,0.9-0.3,1.3,0.2c1,1.1,1,1.1-0.1,1.9
				c-1,0.8-1.3,3.3-0.4,4.2c0.9,0.9,1.9,2,3.4,1.9c0.4,0,0.4,0.3,0.5,0.6c0.1,1.5,0,3-0.2,4.4c-0.1,0.7-0.7,1.2-1.3,1.4
				c-1.7,0.7-3.5,1.2-5.2,1.9c-0.4,0.2-0.7,0-1.1,0.1c-2.8,0.8-5.7,0.8-8.5,1.4c-0.2,0-0.3,0-0.6,0c0.5-1.1,1-2.1,1.5-3.1
				c0.7-1.3,0.9-2.7,1-4.1c0.1-1.1-1.7-3-2.8-3.2c-1.7-0.2-3.4-0.1-5.1,0.5c-0.9,0.3-1.8,0.6-2.7,1c-1.2,0.5-2.2,1.1-3.3,1.8
				c-1.9,1.1-3.8,2.2-5.5,3.6c-0.2,0.1-0.4,0.3-0.5,0.4c-0.6,0.6-1.2,0.7-1.9,0.2c-0.7-0.5-1.4-0.8-2.2-1.1
				c-0.3-0.1-0.7-0.2-0.8-0.6c0-0.1-0.2-0.3-0.3-0.2c-0.7,0.7-1.2-0.1-1.6-0.4c-1.4-0.9-3.1-1.3-4.3-2.4c-0.2-0.2-0.4-0.4-0.7-0.6
				c1.2-0.6,2.3-1.2,3.5-1.4c1.4-0.3,1.8-1.3,2.1-2.4c0.1-0.5-0.3-0.8-0.5-1.1c-0.7-0.8-1.7-1.2-2.6-1.8c-0.2-0.1-0.5-0.1-0.8,0.1
				C109.2,148.8,109,148.9,108.8,148.9z"/>
			<path d="M106.5,200.9c0.8,0.3,1.5,0.7,2.4,0.8c0.4,0,0.8,0,1.1-0.2c0.3-0.2,0.6-0.2,0.9-0.1c-1,1.1-2.6,1.4-3.9,0.7
				c-0.6-0.3-1.3-0.7-1.9,0.1c-0.2,0.2-0.3,0.2-0.5,0.1c-0.2-0.1-0.2-0.2-0.1-0.5C104.7,200.8,105.5,200.4,106.5,200.9z"/>
			<path d="M110.4,136.2c-1.1,0.2-2-0.2-3.1-0.2c-0.3,0-0.7-0.1-0.9,0c-0.8,0.4-1.5-0.2-2.2-0.3c-0.4-0.1-0.8-0.2-1.2-0.4
				c-0.6-0.3-1.4-0.4-1.8-1.1c-0.3-0.5-1-0.8-1.5-0.9c-1.1-0.4-1.4-1.4-1.8-2.2c-0.6-1.1-1.4-2.1-1.6-3.4c-0.1-0.9-0.2-1.8-0.3-2.6
				c0.2-0.7,0-1.5-0.1-2.1c-0.3-1.5,0.2-2.8,0.4-4.2c0.4-2.7,2-4.8,3.7-6.9c0.7-0.9,1.3-1.7,1.9-2.6c0.3-0.5,0.7-0.7,1.4-0.8
				c0.3,0,0.5-0.1,0.8-0.1c0.6-0.1,1.2-0.2,1.9-0.2c3.1,0,6.2,0.6,9,1.8c0.3,0.1,0.6,0.2,0.9,0.4c2.3,1,4.5,2,6.6,3.3
				c1.2,0.8,2.5,1.5,3.8,2.3c0.9,0.6,1,1,0.5,1.7c-0.6,1-0.6,2-0.8,3c-0.2,1.9-0.4,3.8-1.2,5.6c-1.1,2.4-2.5,4.6-4.5,6.3
				c-0.9,0.7-2.2,1.1-3.2,1.8c-1.4,1-3,1.4-4.7,1.6C111.7,135.9,111,136.1,110.4,136.2z M108.7,127.4c1.1,0.9,2.2,1.6,3.6,2.1
				c2.2,0.7,4.4,0.7,6.6,0.3c0.7-0.1,1.4-0.3,2.1-0.5c0.7-0.2,0.8-0.9,1.2-1.3c1.1-1.1,1.8-2.4,2.1-3.9c0.4-2.1,0.5-4.2,1-6.2
				c0-0.1,0-0.3-0.1-0.3c-0.8-0.2-1.3-0.8-2.1-1c-1.1-0.3-2.1-0.5-3.2-0.8c-2.8-0.7-5.5-1.1-8.6-1.1c-1.5-0.3-3.2,0.4-4.9,0.5
				c-1,0.1-1.8,0.6-2.1,1.5c-0.7,2.1-0.6,4.1,0.5,6c0.7,1.2,1.2,2.4,2.4,3.2C107.7,126.4,108.2,127,108.7,127.4z M105.3,114.4
				c1.2-0.2,2.3-0.4,3.5-0.6c1.7-0.2,3.4,0,5.2,0c1.3,0.1,2.6,0.1,3.8,0.4c1.8,0.5,3.6,0.8,5.4,1.2c-1.2-0.8-2.2-1.8-3.5-2.3
				c-1.1-0.4-2.1-0.9-3.1-1.4c-1.5-0.8-3.1-1.4-4.7-1.8c-1.6-0.5-3.2-0.5-4.9-0.7c-1.7-0.2-3.1,0.1-4.4,1.1
				c-0.1,0.1-0.1,0.2-0.2,0.3c-0.7,1.1-0.9,2.3-1.5,3.3c-0.3,0.6-0.7,1.1-1.1,1.7C101.7,115.5,103.5,114.7,105.3,114.4z
				 M108.8,133.9c2.1-0.3,4.3-0.6,6.3-1.3c1.4-0.4,2.8-0.9,4-1.8c-0.9,0.3-1.7,0.4-2.6,0.3c-1.3-0.1-2.6,0-3.8-0.2
				c-2.2-0.4-4-1.7-5.5-3.4c-0.3-0.4-0.7-0.7-1.1-1c-0.8-0.6-1.6-1.3-2-2.2c-0.5-1.1-1-2.2-1-3.5c0-1.4-0.6-2.8-0.2-4.3
				c0-0.2,0-0.3-0.3-0.3c-1.6,0.1-3,0.7-4.4,1.5c-0.2,0.1-0.4,0.3-0.5,0.6c-0.3,1.4-0.8,2.8-0.7,4.2c0.2,1.6,0.2,3.2,0.8,4.7
				c0.7,1.7,1.8,3.2,2.8,4.7c0.2,0.2,0.3,0.5,0.5,0.6c0.9,0.5,1.9,1,2.9,1.2C105.6,133.8,107.2,134.1,108.8,133.9z"/>
			<path d="M94.2,178.3c0-0.1,0.2-0.1,0.5-0.2c-0.5,2.7-0.8,5.2-1.7,7.7C93.3,183.3,93.7,180.8,94.2,178.3z"/>
			<path d="M99.4,234.3c2.1-1.3,3.7-3.2,5.6-4.9c-0.5,0.9-1,1.8-1.5,2.8c-0.2,0.5-0.7,0.8-0.4,1.5c0.2,0.3-0.3,1-0.5,1.5
				c-0.4,0.8-0.8,1.7-1.1,2.5c-0.2,0.7-0.8,0.8-1.4,0.8c-2.2,0-4.4,0.2-6.5,0.5c0,0-0.1,0-0.2,0C95.5,237.6,97.2,235.6,99.4,234.3z"
				/>
			<path d="M91.4,154.8c0.8-0.3,1.7-0.4,2.5-0.5c0.3-0.1,0.4,0.1,0.5,0.4c0,0.3-0.4,0.4-0.6,0.4c-0.7,0-1.3,0.5-1.9,0.7
				c-0.6,0.2-1.4,0-1.9,0.7c0,0.1-0.4,0.1-0.4-0.1c-0.1-0.2,0-0.3,0.1-0.5C90.1,155.2,90.8,155,91.4,154.8z"/>
			<path d="M88.6,160.8c0.8-0.6,3.4-0.7,4.3-0.2c0.2,0.1,0.2,0.3,0.1,0.4c-0.6,0-0.9,0.7-1.6,0.7c-0.8-0.3-1.6-0.2-2.5,0
				c-0.2,0.1-0.5,0.1-0.7-0.2C88.1,161,88.5,160.9,88.6,160.8z"/>
			<path d="M93.6,207.7c0.9-0.7,0.9-1.7,0.9-2.7c0-1-0.4-1.1-1.3-0.6c-0.5,0.2-0.4,0.8-0.9,1.1c-1.8,0.9-2.9,2.5-3.3,4.6
				c0.4,0.2,0.5-0.4,0.7-0.2c0.3,0.3-0.1,0.6-0.2,0.8c-0.2,0.6-0.4,1.2-0.4,1.9c0,0.4,0.2,0.7,0.6,0.8c0.7,0.3,2-0.1,2.5-0.7
				c0.4-0.5,0.8-1,1.4-1.4c0.8-0.6,0.8-0.7-0.1-1.3c-0.3-0.2-0.5-0.6-0.4-1C93.1,208.5,93.2,208,93.6,207.7z M95,204
				c0.1,0.4,0.1,0.8,0.2,1.2c-0.1,1.1-0.2,2.1-1.1,2.9c-0.5,0.4-0.4,1,0.1,1.4c0.8,0.5,0.8,1.2,0.1,1.8c-0.4,0.4-1,0.6-1.1,1.3
				c-0.1,0.5-2.7,1.5-3.3,1.5c-1,0.1-1.6-0.4-1.7-1.2c-0.2-1.4-0.1-2.7,0.4-4c0.7-1.6,1.4-3,3-4c0.7-0.4,1.1-1.1,1.8-1.5
				C94.2,203.1,94.9,203.3,95,204z"/>
			<path class="st2" d="M103.3,106c0,0.4-0.3,0.6-0.6,0.3c-1-0.9-2.3-1.2-3.4-2c-0.4-0.3-1-0.4-1.4,0.1c-1.1,1.3-2,2.7-3,4.1
				c-1.1,1.6-1.9,3.4-2.5,5.2c-0.4,1-1,2-1.4,3c-0.4,1.2-0.4,2.4-0.6,3.7c-0.8-1.6-2.2-2.2-3.9-1c-0.5,0.4-1,0.9-1,1.4
				c0.1,0.8-0.3,1.4-0.6,2.1c-0.1,0.3-0.5,0.9,0.1,1.2c0.1,0.1-0.2,1.1-0.3,1.1c-0.3,0.1-0.3-0.2-0.3-0.3c-0.2-0.6-0.5-1.1-0.7-1.7
				c-0.3-1-0.6-2-0.4-3c0.1-0.5,0.1-0.9,0.1-1.4c0-0.3-0.2-0.5-0.5-0.6c-0.4-0.1-0.4,0.2-0.5,0.4c-0.5,0.6-0.6,1.6-1.3,2
				c-0.5,0.3-1,0.5-1.1,1.1c-0.1,0.6-0.5,0.9-1,1.1c-0.2,0.1-0.4,0.3-0.6,0.5c-1,1.2-2,2.4-3,3.5c0-1.4,0.1-2.8,0.7-4.2
				c0.5-1.3,1.1-2.5,1.4-3.8c0.2-1,0.4-2,1-2.8c1-1.5,1.9-3,2.6-4.6c1.1-2.6,3.5-3.9,5-6.2c0.2-0.4,0.6-0.7,0.3-1
				c-0.3-0.4-0.8-0.3-1.1,0c-0.8,0.7-1.7,1.2-2.5,1.8c-0.5,0.4-0.6,1.3-1.5,1.2c0.1,0.4,0.6,0,0.6,0.4c-0.4,0.1-0.5,0.4-0.6,0.7
				l-0.6-0.3c-3.3,1.2-6.2,3.1-9.1,5.2c0.5-2.1,1.3-3.9,2.4-5.7c1.1-1.8,2.2-3.6,3.2-5.5c0.6-1.1,1.4-2.2,2.3-3.1
				c1.3-1.3,2.5-2.7,3.8-4c1.3-1.3,2.9-2.3,4.5-3c1.6-0.7,3.2-1.5,4.9-1.7c0.2,0,0.6-0.1,0.5-0.4c0-0.3-0.2-0.5-0.4-0.7
				c-1.4-0.9-2.8-1-4.4-0.7c-2.3,0.6-4.6,1-6.9,1.7c-1.2,0.4-2.5,0.5-3.8,0.7c-0.1,0-0.3,0.1-0.4-0.1c-0.1-0.2,0-0.3,0.2-0.4
				c1.3-1.2,2.5-2.4,3.8-3.6c0.4-0.3,0.8-0.6,1.2-0.9c1.3-0.6,2.6-1.4,3.9-2.1c1.3-0.7,2.7-1.3,4.1-1.8c2.9-0.9,5.8-1.1,8.8-0.7
				c1.5,0.2,2.8,0.8,3.7,2.1c0.4,0.6,0.8,1.2,1.3,1.8c0.4,0.4,0.7,1,0.7,1.6c0,0.2-0.2,0.8,0.3,0.6c0.3-0.1,0.9,0,0.8-0.8
				c-0.2-1,0-2,0.6-2.9c0.7-1,1.3-2.1,1.8-3.2c0.7-1.4,1.3-2.9,2.3-4.2c0.9-1.1,1.5-2.5,2.8-3.3c1.8-1.2,3.6-2.7,5.6-3.6
				c1.3-0.6,2.4-1.6,4-1.7c-0.8,1.2-1.7,2.4-2.3,3.7c-0.6,1.3-0.9,2.7-1.5,4c-0.6,1.1-0.8,2.4-1.3,3.5c-0.5,1.2-0.9,2.4-1.1,3.7
				c-0.1,0.5,0.2,1.3,0.5,1.7c0,0,0.1,0.2,0,0.2c-0.5,0.3-0.1,0.4,0.1,0.6c0.4,0.3,0.4-0.3,0.6-0.2c0-0.8,0.7-0.8,1.1-1.2
				c2.3-2.4,4.9-4.4,7.8-6.1c1.4-0.8,2.8-1.5,4.4-2c2.1-0.7,4.3-1.1,6.4-1.6c1.9-0.4,3.9-0.9,5.9-0.9c1.4,0,2.8,0,4.2,0.2
				c1.5,0.2,3.1,0.4,4.6,0.6c0.6,0.1,1.3,0.2,2.1,0.4c-1.4,0.7-2.6,1.4-3.8,2c-1.9,1-3.6,2.4-5.2,4c-0.8,0.8-1.5,1.7-2.3,2.5
				c-1.2,1-2.3,2.1-2.4,3.8c0.4,0.2,0.9,0.1,1.3-0.2c0.8-0.4,1.6-0.7,2.4-0.8c2.6-0.3,5.3-0.5,7.9-0.4c2.7,0.1,5.4,0,8.1,0.1
				c1.4,0.1,2.8-0.1,4.3,0.1c1.7,0.2,3.4,0.5,5.1,0.9c-2.5,0.9-5,1.8-7.4,2.7c-1.4,0.5-2.8,1.3-4.1,2.1c-0.2,0.1-0.6,0.5-0.1,0.6
				c0.7,0.2,1.5,1,2.2,0.5c0.8-0.6,1.6,0,2.3-0.2c0.4-0.1,0.7,0.1,1.1,0.1c1.7,0.1,3.4,0.4,5.1,0.5c2,0.1,4,0.3,6,0.4
				c1.1,0.1,2.2-0.1,3.2,0.1c1.4,0.3,2.8,0.2,4.3,0.4c1.1,0.2,2.3,0,3.3,0.3c1.2,0.4,2.5,0.3,3.7,0.4c1.4,0.1,2.9,0.2,4.3,0.2
				c2.5,0.1,4.9,0.9,7.7,0.9c-1.1,0.5-2,0.7-2.8,1c-2.4,1-4.9,1.5-7.5,1.8c-1.5,0.2-2.9,0.3-4.4,0.5c-2.1,0.3-4.2,0.5-6.3,0.8
				c-2.4,0.4-4.8,0.1-7.2,0.3c-1.9,0.2-3.8-0.3-5.7-0.5c-0.3,0-0.5,0-0.6,0.2c-0.1,0.1-0.1,0.3,0.1,0.5c0.7,0.7,1.4,1.5,2.3,1.8
				c2.4,0.8,4.5,2.2,6.8,3.2c1.1,0.5,2.2,1,3.5,1.2c1.2,0.2,2.5,0.6,3.7,1c1.3,0.5,2.6,1.2,4,1.5c0.9,0.2,1.8,0.7,2.8,0.9
				c0.2,0,0.4,0.1,0.4,0.4c0,0.2-0.2,0.2-0.4,0.2c-1.5-0.2-2.9,0.5-4.4,0.3c-2.3-0.3-4.5,0.1-6.8,0c-0.6,0-1.3-0.3-1.9-0.1
				c-2.1,0.4-4.1-0.1-6.1-0.3c-1.4-0.2-2.9-0.5-4.3-0.7c-1.5-0.3-3-0.3-4.5-0.6c-1.4-0.2-2.7-0.4-4.1-0.5c-1.9,0-3.8-0.4-5.7-1
				c-2.1-0.7-4.1-1.6-6-2.6c-0.9-0.5-1.9-0.8-2.9-1.3c-1.5-0.8-2.7-1.8-4.1-2.7c-0.4-0.2-0.7-0.5-1,0.3c-0.2,0.6-0.2,1,0,1.6
				c0.6,1.3,0.5,2.8,0.9,4.2c0.1,0.3,0.3,0.7,0,1.1c-0.9-0.7-1.9-1.2-2.9-1.6c-0.7-0.3-1.3-0.7-2-0.8c-1.3-0.2-2.6-0.3-3.9-0.2
				c-2.3,0.2-4.4-0.2-6.4-1.4c-0.9-0.6-1.8-1.2-2.3-2.2c-0.3-0.7-0.6-0.3-0.9-0.2c-0.4,0.2-0.4,0.4-0.1,0.9c0.7,1,1.7,1.9,2.1,3.1
				c0.6,1.8,1.2,3.6,2.1,5.3c0.3,0.5,0.7,1,0.8,1.7c-0.9-0.4-1.8-0.7-2.6-1.2c-2.2-1.1-4.6-1.9-6.9-2.7c-1.3-0.5-2.7-1-3.7-1.8
				c-1.1-0.9-2.5-1.3-3.7-2.2c-1.3-1-2.9-1.8-4.1-2.9c-0.2-0.2-0.4-0.5-0.7-0.2c-0.3,0.3-0.8,0.3-0.8,0.9
				C103.7,103.7,103.3,104.8,103.3,106z"/>
			<path d="M131.7,253.3c1.3-0.6,1.3-1.2,1-2.6c-0.2-0.8-0.9-1.2-1.3-1.9c-0.7-1.1-1.9-1.2-2.8-1.8c-0.1-0.1-0.3-0.1-0.4,0
				c-1.2,0.8-2.4,0.3-3.5-0.2c-1-0.5-2,0.1-1.8,1.2c0.3,1.6,1,3.1,2.3,4c1.1,0.8,2.2,1.6,3.7,1.7
				C129.9,253.9,130.8,253.9,131.7,253.3L131.7,253.3z M133.4,139.7c0.7-0.5,1.2-1.2,1.5-2c-0.9-0.1-1.8,0-2.7-0.3
				c-0.7-0.3-1.4-0.4-2.2-0.5c-0.7,0-0.8,0.5-1,0.9c-0.2,0.5-0.4,1,0.1,1.4c0.3,0.3,0.8,0.5,1.1,0.8
				C130.9,140.7,132.5,140.3,133.4,139.7z M133.5,163.4c1.9,0.3,2.3,0.1,2.9-1.6c0.5-1.4,1-2.8,1.6-4.2c0.5-1,0.4-1.9-0.4-2.7
				c-0.7-0.7-1.5-0.8-2.5-0.8c-1.2-0.2-2.4,0.2-3.6,0.7c-2.6,1-5.1,2.1-7.5,3.6c-1.1,0.7-2.2,1.3-3.3,2c-0.4,0.3-0.2,0.9-0.7,1
				c0.2,0.3,0.5,0.3,0.8,0.4c1.2,0.4,2.5,0.6,3.8,0.8c2.5,0.5,5,1,7.6,0.9C132.7,163.4,133.1,163.4,133.5,163.4z M113.1,183.8
				c0-0.4,0-1-0.8-1c-0.6,0-1.2,0.8-1.2,1.6c0,0.4,0.1,0.8,0.6,0.9C112.1,185.5,113.1,184.5,113.1,183.8z M112.8,187.8
				c0.3-0.3,0.3-0.5-0.1-0.8c-0.6-0.3-0.9-0.3-1.5,0.2c-0.6,0.6,0,1.3-0.5,1.8C111.5,188.7,112.3,188.3,112.8,187.8z M119.8,226.1
				c-0.6,1.3-0.6,2.7-0.9,4.1C120.2,228.3,120.2,228.3,119.8,226.1z M117.2,239.7c-0.6,1.3-0.4,2.8-0.5,4.3c-0.1,1-0.1,2.1-0.3,3.1
				c-0.2,0.9,0.1,0.9,0.8,0.9c0.9,0,1.7,0.1,2.5,0.6c0.7,0.5,1.6,1,2.3,1.6c0.1-0.4,0-0.6-0.1-0.8c-0.2-0.9-0.6-1.9,0-2.8
				c0.5-0.6,0.9-1.3,1.5-1.7c0.2-0.2,0.3-0.4,0.3-0.7c-0.4-1.5-0.5-3-0.6-4.5c-0.1-0.9-0.4-1.8-0.6-2.6c-0.1-0.5,0.1-1.2-0.2-1.6
				c-0.4-0.5-0.4-1.1-0.7-1.7c-0.1-0.2-0.2-0.4,0.1-0.5c0,0,0.1,0,0.1,0c0.1,0,0.2,0,0.3,0.3c0.2,0.7,0.4,1.3,0.5,2
				c0.3,1.2,0.5,2.4,0.9,3.5c0.1,0.3,0.5,0.5,0.4,0.9c0,0.9,0.3,1.7,0.2,2.5c-0.3,1.7,0.8,2.7,2,3.6c0.1,0.1,0.2,0.1,0.3,0.1
				c1.1,0,1.7-0.5,1.8-1.6c0.1-2.1,0-4.2,0-6.3c0-0.5,0-1,0.1-1.4c0.4-1.6,0.6-3.2,0.5-4.9c-0.1-3.1,0.2-6.2,0-9.4
				c-0.1-0.8,0.6-1.5,0.5-2.3c-0.2-1.8,0-3.6-0.5-5.3c-0.3-1-0.1-2-0.5-3c-0.4-1-0.8-2-1.3-2.9c-0.3-0.5-0.6-1-1.2-1.4
				c-1.6-1-3.3-0.7-4.9,0.2c-0.5,0.3-0.6,0.6-0.3,1.1c0.8,1.4,0.9,3,0.9,4.5c0,2.1-0.2,4.2-0.7,6.2c-0.2,0.8-0.3,1.6-0.2,2.5
				c0.4,1.6,0.7,3.3,0.7,5c0,1.7,0.3,3.4,0.5,5.2c0,0.2,0.2,0.5-0.2,0.5c-0.3,0-0.4-0.1-0.5-0.4c-0.1-0.4-0.1-0.9-0.2-1.3
				c0-0.2,0-0.5-0.2-0.6c-0.3,0-0.3,0.3-0.4,0.5c-0.6,1.2-1.2,2.5-2.1,3.5c-0.9,1.1-1.3,2.2-1.2,3.6
				C117.3,238.8,117.4,239.3,117.2,239.7z M119.4,138.4c-2.2,0.4-4,1.7-5.9,2.7c0,0.2,0.3,0.3,0.3,0.6c0,1.3,0.8,2.2,1.8,2.9
				c1.2,0.9,2.6,0.7,3-0.3c0.4-1.1,0.7-2.3,0.6-3.5C119.2,140.1,119.6,139.3,119.4,138.4z M147.4,144.7c0.6,0.2,1.2-0.2,1.5-0.6
				c0.3-0.4-0.4-0.7-0.6-1.1c-0.2-0.4-0.6-0.7-1-0.9c-1.4-0.8-2.9-1.6-4.3-2.5c-1-0.7-2.4-0.2-3,0.9c-0.1,0.2-0.3,0.5-0.1,0.8
				c0.6,0.7,1.1,1.4,2,1.8c1.3,0.6,2.7,0.8,4,1.3C146.5,144.5,146.9,144.8,147.4,144.7z M86,175.7c0-0.2-0.3-0.4-0.5-0.5
				c-0.8-0.2-2.4,0.5-2.7,1.3c-0.7,1.7-1.1,3.5-1.5,5.2c-0.3,1.5-0.4,3-0.5,4.5c0,0.3,0,0.7,0.4,0.9c0.3,0.1,0.5-0.2,0.6-0.5
				c0.2-0.3,0.4-0.5,0.6-0.8c0.1-0.2,0.4-0.3,0.5-0.1c0.1,0.1,0.1,0.3,0.1,0.5c-0.1,0.4-0.6,0.7-0.6,1.3c0.3-0.2,0.5-0.3,0.7-0.5
				c0.5-0.6,1.1-1.3,1.6-1.9c1-1.2,1.8-2.4,1.4-4.1c0-0.2,0.1-0.5,0.2-0.6c0.4-0.3,0.3-0.7,0.4-1.1C87,177.9,86,176.9,86,175.7z
				 M161.8,141.4c-0.3,0.7-0.1,1.2,0.4,1.6c0.4,0.4,0.9,0.7,1.4,0.9c0.5,0.2,1,0.3,1.5,0c0.3-0.1,0.4-0.1,0.2-0.6
				c-0.3-0.8-0.7-1.7-0.3-2.6c0.2-0.5-0.5-1.5-1.1-1.5c-0.4,0-0.8,0.1-1.1,0.4C162.3,140.1,162,140.7,161.8,141.4z M152.9,152.7
				c0.3,0.1,0.7,0.2,0.6-0.6c-0.3-1.4-1-2.5-1.4-3.8c-0.2-0.5-0.4-0.4-0.6-0.2c-0.5,0.5-0.9,1.1-0.8,1.8
				C150.7,151,151.9,152.5,152.9,152.7z M169.4,142.1c0.2,0.2,0.7,0.2,0.9,0.5c0,0,0.3,0.3,0.4,0c0.1-0.2,0.3-0.4,0-0.6
				c-0.3-0.2-0.7-0.4-1.1-0.6c-0.3,0.2-0.6-0.1-0.7,0.3C168.9,142,169.2,142,169.4,142.1z M169,140.4c0.1,0.5,0.5,0.2,0.8,0.2
				c0.4,0.1,0.8-0.1,1.2,0.2c0.2,0.1,0.4,0,0.4-0.3c0-0.5-1.3-1.1-1.8-0.8C169.3,139.7,168.8,139.8,169,140.4z M169.1,190.2
				c0.5,0.4,1.2,0.1,1.8-0.2c0.1-0.1,0.2-0.2,0.3-0.2c0.9-0.4,1.2-1.4,1.7-2.2c0.2-0.3,0.6-0.9,0.4-1.4c-0.5-1-1.1-1-2.1-0.1
				c0.2,0,0.3,0,0.4,0c0.3,0.1,0.7-0.4,0.8,0.1c0.1,0.5-0.5,0.4-0.7,0.5c-1.2,0.3-1.9,1-2.3,2.1
				C169.1,189.3,168.6,189.9,169.1,190.2z M166.5,142c0.3-0.6,0.8-1.2,0.9-1.9c0-0.3-0.2-0.2-0.3-0.2c-0.4,0-1.3,1.3-1.1,1.7
				C166,141.9,166.4,142.3,166.5,142z M166,186.4c0.2,0.4,0.3,0.9,0.1,1.4c-0.1,0.3-0.2,0.7-0.6,0.6c-0.4-0.1-0.3-0.4-0.2-0.7
				c0.1-0.3,0-0.9-0.4-1c-0.3,0-0.7,0.4-0.8,0.9c0,0.1,0,0.3,0,0.4c0,1.1,0.4,1.4,1.2,1c0.7-0.3,1.5-1.9,1.3-2.7
				c-0.1-0.3-0.3-0.4-0.5-0.5c-0.1-0.1-0.3,0-0.4,0.1C165.7,186.1,165.9,186.3,166,186.4z M175.4,186.9c-0.5,0-1,0.1-1.2,0.7
				c-0.4,0.8-0.7,1.7-1.7,2.1c-0.3,0.1-0.5,0.6-0.3,0.9c0.3,0.4,0.7,0.1,0.9,0c1-0.7,1.9-1.6,2.9-2.3c0.4-0.3,0.3-0.7,0.2-1
				C176,186.9,175.7,186.9,175.4,186.9z M174.3,193.7c0.1-0.2,0.5-0.2,0.4-0.5c-0.1-0.4-0.4-0.1-0.6-0.2c-0.7-0.2-1.7,0-1.8-1.2
				c0-0.1-0.2-0.1-0.3-0.1c-0.4,0.3-0.6-0.1-0.7-0.3c-0.3-0.7-0.8-0.6-1.3-0.4c-0.3,0.1-0.7,0.1-1,0.1c-0.8,0-1.1-0.4-1-1.2
				c0.1-0.5,0.2-1,0.4-1.5c-0.8,0.5-1.7,0.5-2.5,1c-0.8,0.6-1.7,0.8-2.5,0c-0.1,0.5-0.2,0.9-0.3,1.4c0,0.4,0,0.9,0,1.4
				c0,0.5,0.4,0.9-0.3,1.3c-0.5,0.2-0.5,0.9-1,1.1c-1.6,0.6-3.1,1.3-4.7,1.7c-2.9,0.7-5.8,1.5-8.5,2.7c-1.9,0.8-4,1.2-6,2.1
				c-0.9,0.4-3.2-0.3-3.7-1.1c-0.6-1.1-0.8-2.3-0.8-3.5c0-1.6-0.2-3.1-0.3-4.7c-0.1-1.3-0.1-2.6-0.2-3.9c0-0.5,0-1,0.2-1.5
				c0.1-0.4,0.3-0.8-0.3-0.9c0.3-0.8-0.3-0.5-0.7-0.5c-0.5,0-1.1,0.1-1.6,0.2c-0.5,0-0.7,0.3-0.7,0.8c0,1.2,0.1,2.5,0.1,3.7
				c0.1,1.4,0.2,2.8,0.1,4.3c-0.1,0.8,0.4,1.4,0.5,2.2c0.3,1.4,0.3,2.9,0.4,4.3c0.1,1.2,0.7,2.2,0.8,3.4c0.2,1,0.6,1.6,1.2,2.3
				c0.4,0.5,0.9,0.5,1.4,0.4c1.6-0.5,3.3-0.8,4.9-1.5c1.8-0.8,3.6-1.4,5.4-2.1c1.6-0.7,3.3-1.4,4.9-2c1.8-0.6,3.7-1.1,5.4-1.8
				c1.4-0.6,2.7-1.5,4.1-1.9c0.9-0.3,2-0.2,2.6-1.1c0.2-0.2,0.4-0.1,0.5,0.1c0.4,0.5,0.9,0.5,1.4,0.5c0.8,0,1.5,0.4,2.3,0.1
				C172.4,195.8,173.4,194.8,174.3,193.7z M173.9,192.1c0.8,0.1,1.5,0,2.2-0.1c0.9,0,0.9-0.4,1.1-1c0-0.2,0.2-0.3,0.3-0.4
				c0.4-0.2,0.4-0.4,0.4-0.7c0-0.7-0.4-1.1-0.9-0.9c-1.3,0.5-2.4,1.3-3.3,2.3C173.2,191.7,173.2,192,173.9,192.1z M111.3,248.9
				c-0.6-0.2-1.4-0.2-1.9-0.9c-0.1-0.2-0.3,0.1-0.5,0.2c-0.6,0.5-0.5,1.2-0.5,1.8c-0.1,2.1,0.4,2.4,2.4,3.4c0.9,0.5,1.8,0.3,2.8,0.4
				c0.2,0,0.4,0.1,0.6,0.1c1.2,0.2,2.3,0.4,3.6,0.2c1.1-0.2,2.3-0.2,3.1-1.2c0.4-0.4,0.9-0.9,0.5-1.5c-0.9-1.4-2.3-2.1-3.9-2.5
				c-0.4-0.1-0.9-0.4-1.4,0c-0.6,0.5-1.2,0.7-1.9,0.7C113.2,249.6,112.3,249.2,111.3,248.9z M80,180c-1.9,3.8-2.3,7.8-2.4,11.9
				c0.3-0.1,0.3-0.3,0.4-0.5c0.2-1.3,0.5-2.5,0.7-3.8c0.3-2.1,1.5-4,1.7-6.1C80.5,181,80.5,180.6,80,180z M92.5,142.4
				c0.4-0.4,0.3-0.5,0.2-0.9c-0.5-1.1-1-2.3-1.3-3.5c-0.6-2.2-1.2-4.3-1.6-6.5c-0.1-0.4,0.4-1.5-0.8-0.7c0,0-0.1,0-0.2,0
				c-0.4-0.4-1.1,0-1.6-0.5c-0.1-0.1-0.4-0.1-0.5,0.1c-0.2,0.8-0.8,1.5-0.6,2.5c0.4,2.3,1.4,4.3,2.3,6.4c0.8,1.7,1.6,3.4,2.4,5.2
				C91.2,143.6,91.9,143,92.5,142.4z M103.5,232.2c0.5-0.9,1-1.8,1.5-2.8c-1.9,1.6-3.5,3.6-5.6,4.9c-2.2,1.3-3.9,3.3-6,4.7
				c0.1,0,0.1,0,0.2,0c2.2-0.3,4.3-0.5,6.5-0.5c0.6,0,1.1-0.1,1.4-0.8c0.3-0.9,0.7-1.7,1.1-2.5c0.2-0.5,0.7-1.2,0.5-1.5
				C102.8,233,103.2,232.7,103.5,232.2z M112.5,209.8c-1.8,0.3-3,1.4-4.4,2.3c-0.5,0.3-1,1-1.6,1.1c-1,0.1-1.7,0.6-2.4,1.1
				c-0.5,0.4-0.9,0.9-1.4,1.2c-1,0.4-1.7,1.1-2.9,1.4c-1.4,0.3-2.6,1.4-3.9,2.2c-1,0.6-1.7,1.8-3,2c0,0,0,0-0.1,0.1
				c-1.6,1.2-3.2,2.1-4.8,3.2c-1,0.7-2.2,1.3-3,2.3c-0.3,0.4-0.8,0.6-0.4,1.2c0,0,0,0.5-0.3,0.6c-0.2,0-0.3,0.1-0.2,0.3
				c0.3,0.4,0,0.8-0.1,1.1c-0.3,0.8-0.5,1.6-0.5,2.3c0,2.5,1,4.5,2.3,6.2c0.8,1.1,2.2,1.5,3.5,1.3c1.6-0.2,2.8-1.1,4-2
				c1.2-0.9,2.2-2.1,3.5-2.7c2-1,3.7-2.5,5.3-4c1.6-1.5,3.1-3.1,4.3-5c0.3-0.5,0.3-1.2,0.9-1.7c0.7-0.5,1.4-1.2,1.8-2
				c0.2-0.3,0.3-0.6,0.6-0.6c0.4,0,1.1-0.2,1.1,0.2c-0.2,0.9,0.2,1.6,0.2,2.5c0.1,2.7,0.7,5.4,0.6,8.2c-0.1,1.1-0.1,2.1,0.2,3.2
				c0,0.2,0,0.4,0.2,0.4c0.8-0.2,0.5,0.3,0.4,0.6c-0.2,0.6-0.4,1.1-0.4,1.7c-0.1,1.7-0.1,3.4-0.4,5.1c-0.1,0.9-0.1,1.8-0.3,2.8
				c-0.2,0.7-0.2,1.6,0.8,2c0.8,0.2,1.5,0.5,2.3,0.6c0.3,0.1,0.4-0.2,0.5-0.5c0.1-0.6,0.3-1.2,0.3-1.9c0.2-2.6,0.5-5.1,0.8-7.7
				c0.4-2.6,0.8-5.1,1.3-7.7c0.4-2.1,0.8-4.3,1.4-6.3c0.5-1.8,0.9-3.6,0.9-5.4c0-1.3,0.6-2.5,0.5-3.9c-0.1-1.8,0.1-3.6-0.4-5.3
				c-0.4-1.2-0.6-1.8-2.2-1.8c-1.2,0.1-2.3,0.4-3.4,0.5C113.5,209.1,113,209.7,112.5,209.8z M110.6,190.5c-0.8,0.2-1.7,0.5-2.4,1
				c-0.7,0.5-1.6,0.8-2.4,1.1c-1.7,0.5-3.5,0.6-5,1.5c-0.8,0.5-1.7,0.9-2.6,1.1c-2.8,0.7-5.6,1.8-8.5,2.4c-2.3,0.4-4.5,1-6.6,2
				c-1.4,0.7-2.9,1.2-4.6,1.1c-0.4,0-0.7,0.1-0.8,0.7c-0.2,0.9-0.2,1.9-0.4,2.8c-0.3,1.7-0.8,3.3-1.1,5c-0.6,2.8-1.2,5.5-1.9,8.3
				c-0.1,0.4-0.3,0.7-0.4,1.1c-0.5,1.8-0.8,3.7-1.6,5.3c-0.2,0.4-0.4,0.6,0.2,0.9c0.3,0.1,0.1,0.3,0,0.5c-0.4,0.7-1.1,0.9-1.5,1.6
				c-0.3,0.4-0.5,0.9-0.8,1.3c-0.7,1.3-1.2,2.7-1.7,4.2c-0.6,1.9-1,3.9-1,5.9c0,0.8-0.4,1.4-0.4,2.1c0.1,1.7,0.4,3.3,1.7,4.6
				c1.3,1.3,2.9,2.1,4.7,2.5c1.4,0.4,2.9-0.1,4.3,0.5c0.3,0.1,0.6,0.2,1,0.2c1.6-0.1,3.2,0.1,4.8-0.3c2-0.4,3.8,0.4,5.8,0.1
				c1.4-0.2,2.9,0.2,4.4,0.3c0.5,0.1,1,0.2,1.6,0.2c1.1-0.1,2.2-0.2,3.2-0.3c1.5-0.1,3-0.6,4.3-1.2c1.9-1,3.8-2,5.4-3.5
				c1.4-1.3,2.9-2.6,2.4-4.9c0,0,0-0.1,0-0.2c0-0.5-0.1-0.6-0.6-0.4c-0.9,0.5-1.8,0.8-2.8,0.8c-1.1,0-2.1,0.4-3.2,0.6
				c-2,0.2-3.9,0.6-5.8,1.2c-0.1,0-0.3,0-0.4,0.1c-0.6,0.8-1.5,0.4-2.2,0.4c-0.7,0-1.4-0.3-2.1-0.3c-1,0-2,0-3,0.2
				c-1.6,0.3-3.1-0.5-4.6-1.1c-1.1-0.4-1.7-1.3-2.1-2.3c-0.2-0.4-0.3-0.8-0.4-1.2c-0.7-1.5-1-3-1.1-4.7c0-1.6,0.1-3.2,0.6-4.9
				c-0.6,0.5-1,0.8-1.4,1.2c-1.4,1.2-2.3,2.8-3.3,4.3c-0.3,0.5-0.8,1.3-1.3,1c-0.6-0.4,0-1.1,0.3-1.7c0.7-1.1,1.3-2.3,2.2-3.2
				c0.9-0.9,1.8-1.8,2.6-2.9c-0.5,0.1-0.9-0.2-1.4,0c-1.3,0.4-2.5,1-3.7,1.7c-0.5,0.3-0.9,0.8-1.6,0.8c-0.5,0-0.8,1-1.7,0.7
				c0,0.1,0,0.1,0,0.2c0,0.4-0.3,0.5-0.6,0.4c-0.2,0-0.4-0.1-0.4-0.4c0-0.2,0-0.4,0.2-0.5c0,0,0.1-0.1,0.1-0.1
				c1.5-1.2,3.3-1.9,5-2.9c2-1.2,4.4-1.4,6.6-1.7c1.1-0.1,2.1-0.4,3-1c0.6-0.4,1.1-1,1.7-1.3c1.8-1.1,3.6-2.2,5.4-3.3
				c0.6-0.4,1.1-0.9,1.7-1.2c1.1-0.5,2.2-1.2,3.2-1.9c1.3-0.9,2.6-1.7,4-2.4c2.6-1.2,4.9-2.9,7.5-4.1c1.9-0.9,3.9-1.6,5.9-2
				c0.8-0.2,1.7-0.3,2.4,0.2c0.6,0.4,1,0.3,1.6,0c0.3-0.2,0.7-0.2,1-0.4c0.7-0.4,1.4-0.4,2-0.2c0.6,0.2,0.8,0.3,1-0.5
				c0.1-0.4,0.2-0.9,0.1-1.3c-0.2-0.7,0.1-1.5,0.1-2.1c0.1-0.9,0.3-1.8,0.5-2.7c0.1-0.3,0.1-0.7,0.2-1c0.4-1.8,0.7-3.6,1-5.4
				c0-0.1,0-0.2,0-0.3c0.4-2.7,0.7-5.4,1.6-8c0.3-1,0.6-2.1,1.7-2.7c0.3-0.2,0.4-0.5,0.3-0.8c-0.1-0.4-0.4-0.5-0.8-0.5
				c-0.3,0-0.5,0.1-0.7,0.2c-2.3,0.8-2.8,2.9-3.7,4.7c0,0.1,0,0.3,0.1,0.3c0.5,0.2,0.1,0.4,0,0.6c-0.9,1.3-0.4,2.7-0.2,4.1
				c0,0.1,0.1,0.2,0.3,0.1c0.2-0.1,0.3,0,0.4,0.2c0.5,0.6,0.2,1.4,0.5,2c0,0,0,0,0,0c0,0.1-0.3,0.5-0.6,0.4
				c-0.4-0.1-0.8-0.3-1.1-0.6c-0.1-0.1-0.2-0.2-0.2-0.4c-0.4-1.1-0.4-2.3-0.4-3.4c-0.1-1.7,1-3.2,0.9-4.9c0-0.2,0.2-0.4,0.3-0.5
				c1.2-1.6,2.5-3,4.3-4.2c0.7-0.5,1.3-0.1,1.9-0.2c0.4,0-0.1,0.5,0,0.7c0.1,0.2,0.2,0.4,0.4,0.5c0.7,0.4,0.5,0.7-0.1,1
				c-0.7,0.2-0.8,0.9-1.1,1.4c-0.2,0.2,0,0.5,0.3,0.4c0.5-0.2,1.1,0,1.7-0.2c0.5-0.2,1.3-0.2,2,0.2c0.4,0.2,1,0.5,1.6,0.4
				c1.3-0.1,2.7,0.2,4-0.2c0.3-0.1,0.4,0,0.4-0.4c-0.1-0.9-0.6-1.5-0.7-2.4c-0.3-1.6-1.2-2.9-1.7-4.4c-0.1-0.3-0.3-0.5-0.4-0.8
				c-1-1.6-2.2-3-2.8-4.8c-0.3-1-0.8-1.8-1.4-2.6c-0.5-0.6-0.9-1.2-1.9-0.9c-1,0.3-2.1,0.4-3.1,0.5c-1.3,0.2-2.6,0.3-3.9,0.5
				c-1.2,0.2-2.5,0.4-3.7,0.3c-1.6-0.1-3.2-0.1-4.8-0.1c-2,0-4.1,0.1-6.1,0.2c-1.4,0.1-2.7-0.1-4.1-0.2c-1.9-0.1-3.8-0.1-5.6-0.4
				c-3-0.6-6.1-1-9.1-1.5c-2.3-0.4-4.5-1-6.7-1.8c-1.2-0.4-2.5-0.9-3.7-1.4c-0.2-0.1-0.3-0.1-0.5,0.2c-0.1,0.1,0,0.5-0.4,0.4
				c0-0.1,0-0.2,0-0.2c0-0.1,0.1-0.2,0.1-0.3c0.1-0.1,0.3-0.3,0-0.4c-0.2-0.1-0.3-0.3-0.5-0.1c-1.3,1-2.3,2.3-2.9,3.8
				c-0.8,1.8-1.4,3.7-2.1,5.6c-0.5,1.3-0.9,2.7-1.3,4c-0.1,0.2-0.1,0.6,0.1,0.6c0.7,0,1.1,0.6,1.8,0.7c1.1,0.2,2.1,0.5,3.2,0.8
				c1.4,0.3,1.4,0.3,2.2-0.9c0.1-0.1,0.1-0.3,0.2-0.5c0.5-1.6,1.6-2.6,3-3.3c0.2-0.1,0.5-0.3,0.7-0.1c0.3,0.5,0.7,0.4,1.2,0.4
				c0.5,0,0.8,0.1,1,0.6c0.5,1.1,1.1,2.1,1,3.5c-0.2,2.7-0.9,5.1-2.4,7.4c-0.3,0.4-0.6,0.9-1.1,1.2c-0.4,0.2-0.7,0.5-0.8,1.1
				c-0.1,0.7-0.8,0.9-1.5,0.6c-0.4-0.2-0.7-0.5-1.1-0.8c-0.5,1.9-0.9,3.7-1.5,5.6c-0.2,0.6,0.2,0.5,0.5,0.5c2.1,0,4.1-0.7,6.1-1
				c1.4-0.2,2.8-0.5,4.2-0.7c1.1-0.1,2-0.5,3-0.8c1.2-0.3,2.3-1.1,3.5-1.3c1.4-0.3,2.9-0.5,4.3-1.1c-0.5-1-0.5-1.1-0.3-3.1
				c0.2-2,1.6-3.9,3.4-4.4c0.3-0.1,0.7,0,0.9-0.1c0.7-0.5,1.3-0.3,1.9,0.3c0.3,0.3,0.6,0.2,0.9,0.1c0.5-0.3,1-0.6,1.5-0.6
				c1.4,0,2.6,1,4.1,0.7c0,0,0.1,0.1,0.1,0.1c1.1,0.7,1.1,2.2,0.1,3.1c-0.2,0.2-0.4,0.4-0.6,0.6c0.2,0.2,0.5,0.1,0.7,0.2
				c0.8,0.2,1.2,1.2,0.8,1.8C113.1,188.9,112.1,190.1,110.6,190.5z M107.9,80.9c0.8-1.4,1.2-2.9,2.2-4.2c1.2-1.6,2.2-3.4,3.9-4.5
				c1.9-1.2,3.6-2.7,5.8-3.5c0.7-0.3,1.4-0.7,2-1.2c0.7-0.5,1.6-0.7,2.5-0.7c0.3,0,0.7,0.1,1-0.1c0.2-0.1,0.5-0.1,0.6,0.2
				c0.1,0.3-0.1,0.5-0.3,0.5c-2.8,1.4-3.7,4.1-4.7,6.8c-0.9,2.2-1.6,4.5-2.6,6.7c-0.3,0.8-0.3,1.5-0.4,2.2c0,0.2-0.1,0.4,0.1,0.4
				c0.2,0.1,0.2-0.1,0.4-0.2c0.8-0.7,1.3-1.5,2-2.3c1.3-1.6,3-2.7,4.9-3.5c1.6-0.7,3.2-1.4,4.7-2.5c0.7-0.5,1.7-0.6,2.6-0.7
				c1.1-0.2,2.2-0.4,3.2-0.7c1.5-0.4,3-0.6,4.5-0.9c1.7-0.3,3.4-0.7,5.1-0.5c2.7,0.3,5.3,0.2,8,0.7c1.5,0.3,2.9,0.7,4.5,0.6
				c0.2,0,0.4,0.1,0.6,0.1c0.3,0.1,0.5,0.2,0.5,0.4c0,0.3-0.4,0.2-0.5,0.3c-0.7,0.6-1.6,0.2-2.4,0.5c-1.9,0.7-3.5,1.8-5.2,2.7
				c-1.2,0.7-2.3,1.5-3.3,2.3c-0.9,0.8-1.8,1.7-2.5,2.7c-0.6,0.8-1.6,1.2-1.8,2.3c1.4-0.2,2.7-0.5,4.1-0.6c0.9-0.1,1.8-0.1,2.7-0.2
				c1.6-0.2,3.3-0.5,5-0.4c2.2,0.1,4.4,0.4,6.6,0.5c0.9,0,1.8-0.2,2.7,0c2.5,0.5,5,0.4,7.4,1.1c0.8,0.2,1.5,0.6,2.2,0.9
				c0.2,0.1,0.2,0.3,0.2,0.5c0,0.3-0.3,0.4-0.5,0.4c-0.4,0.1-0.8,0.1-1.2,0.1c-1.1,0-2.1,0.6-3.2,0.8c-2.1,0.5-4.3,0.8-6.3,1.7
				c-0.7,0.3-1.4,0.6-2.1,1c0.5,0.3,0.8,0.4,1.2,0.3c2-0.2,4,0.3,5.9,0.6c1.4,0.2,2.8,0,4.3,0.1c1.2,0,2.3,0.1,3.5,0.3
				c0.8,0.1,1.6,0.1,2.5,0.1c2.3,0.2,4.6,0.2,6.8,0.4c2.7,0.3,5.4,0.3,8.1,0.8c1.1,0.2,2.3,0.1,3.5,0.2c0.7,0.1,1.4,0.3,2.2,0.3
				c1.7-0.1,3.4,0.6,5.1,0.1c0.3-0.1,0.5,0.1,0.8,0c0.2-0.1,0.4-0.1,0.5,0.3c0.1,0.3,0,0.5-0.2,0.6c-0.6,0.4-1.2,0.7-1.9,0.9
				c-2.3,0.6-4.5,1.5-6.7,2.3c-2.6,0.9-5.3,1.4-8.1,1.7c-3.8,0.4-7.6,0.7-11.3,0.7c-2.3,0-4.6,0.1-7.1,0.1c2,0.9,3.6,2,5.4,2.7
				c0.7,0.3,1.3,0.7,1.9,1c1.3,0.7,2.7,0.6,4.1,0.9c1.2,0.2,2.4,0.7,3.6,0.7c2,0.1,3.5,1.2,5.1,2.1c1,0.5,1.9,1,2.9,1.5
				c0.2,0.1,0.4,0.2,0.5,0.1c0.4-0.2,0.4,0.2,0.5,0.3c0.1,0.2,0.1,0.4-0.3,0.6c-0.9,0.4-1.8,0.2-2.7,0.3c-2.6,0.3-5.1,0.6-7.7,0.7
				c-1.9,0-3.7-0.1-5.6-0.2c-0.6,0-1.1,0-1.7,0.1c-0.8,0.1-1.6-0.2-2.4-0.2c0.7,1.3,0.6,2.7,1,4.1c0.2,0.7,0.5,1.2,0.8,1.8
				c0.4,0.8,0.7,1.7,0.6,2.6c-0.1,1.5,0.4,3.1,0.3,4.6c-0.1,1.6-0.3,3.3-0.5,4.9c-0.1,0.9-0.1,1.8-0.2,2.7c-0.2,1.4-0.3,2.8-0.8,4.2
				c-0.3,1-0.7,2-1,3c-0.1,0.3-0.4,0.5,0,0.7c0.3,0.2,0.6,0.5,1.1,0.3c0.4-0.2,1-0.5,1.1,0.1c0.1,0.4-0.5,0.6-1,0.6
				c-0.5,0-0.9,0.3-1.4,0.2c-0.2,0-0.4,0-0.3,0.2c0,0.2,0.1,0.4,0.3,0.4c0.7,0,1.2,0.5,1.9,0.4c0.2,0,0.5-0.2,0.6,0.3
				c0,0.4-0.3,0.6-0.6,0.5c-0.7-0.2-1.4,0.1-2.1-0.3c-0.2-0.1-0.4-0.3-0.5,0.1c-0.2,0.4,0.4,1.5,0.8,1.6c0.3,0.1,0.6,0.2,0.5,0.5
				c-0.1,0.3-0.4,0.2-0.6,0.1c-1.3-0.3-1.8,0-2,1.3c-0.2,0.8-0.5,1.5-1,2.2c-0.2,0.4-0.6,0.7-0.3,1.2c0.1,0.2-0.2,0.4-0.4,0.2
				c-0.4-0.3-0.7,0-0.8,0.3c-1,1.6-2.5,2.7-4,3.8c-1.3,1-2.5,2.2-4,3c-1.3,0.7-2.3,1.6-3.7,2.1c-0.9,0.3-1.7,0.9-2.5,1.2
				c-1.9,0.8-3.7,1.7-5.6,2.3c-1.6,0.5-3.2,0.6-4.8,0.8c-1.6,0.2-3.2,0-4.6,0.8c-0.2,0.1-0.5,0-0.7,0c-2.2-0.1-4.4,0.3-6.6,0.2
				c0.8,0.4,1,1.5,1.8,1.9c0,0,0.1,0,0.1,0.1c-0.3,1.2,0.8,1.9,1.2,2.7c1.2,2,1.8,4.3,3.4,6.1c0.3,0.3,1,0.8,0.8,1.5
				c0.8,0.1,0.5,0.9,0.9,1.3c0.6,0.5,0.7,1.3,0.7,2.1c0,1,0.5,1.8,0.7,2.7c0.1,0.7,0.2,1.2,0,1.9c-0.1,0.2-0.4,0.5-0.5,0.3
				c-0.4-0.7-0.8,0-1.2-0.1c-0.4-0.1-0.5,0.2-0.5,0.6c-0.1,1.7-0.3,3.4-0.3,5.1c0,2.2,0.2,4.3,0.5,6.5c0.1,1.2,1,2,1.8,2.9
				c0.1,0.1,0.3,0.2,0.4,0.2c0.9-0.6,2-0.3,3-0.6c2-0.8,4.1-1.4,6.1-2.2c1.7-0.6,3.4-1.1,5.1-1.7c1.7-0.6,3.4-1.5,5.1-2
				c0.7-0.2,1.2-0.6,1-1.4c-0.4-1.5,0.6-2.7,1.1-3.9c0.2-0.6,0.4-1.2,0.7-1.7c0.7-0.9,1.4-1.6,2.6-1.6c0.8,0,1.3,0.4,1.3,1.1
				c0.1,0.5,0.2,1,0,1.5c1.1,0.1,2.1-0.4,2.7-1.5c0.6-1.1,1.9-1.6,3.1-1.2c0.5,0.2,0.6,0.7,0.9,0.9c0.4,0.4,0.8,0.5,1.4,0.4
				c1-0.3,1.4,0.1,1.4,1c0,0.6,0.3,0.9,0.8,1.1c0.9,0.3,1.3,1.6,0.8,2.4c-0.3,0.5-0.3,1.2-0.6,1.7c-0.4,0.7-1.1,1.1-1.8,1.1
				c-0.6,0.1-1,0.4-1.3,0.8c-1,1.2-2.2,2-3.6,2.6c-0.8,0.3-1.6,0.2-2.4,0.2c-0.9,0-1.7,0.1-2.6,0c-0.2,0-0.4,0-0.5,0.2
				c-1.4,0.9-2.9,1.6-4.4,2.4c-1,0.6-2.3,0.7-3.5,1.2c-2.4,0.8-4.7,1.7-7.1,2.5c-1.3,0.4-2.6,0.8-4,1.2c-0.9,0.2-1.6,0.7-2.4,1.1
				c-1.3,0.7-2.7,1.1-4.2,1.3c-2.2,0.3-3.1-0.4-4.3-2.3c-1.5-2.4-1.5-4.9-1.6-7.5c0-1.3-0.3-2.6-0.6-4c-0.1-0.5-0.4-0.9-0.8-1.3
				c-0.2-0.2,0.6-0.6,0.6-1.2c0-1.9,0.2-3.8-0.4-5.6c-0.1-0.4-0.3-0.5-0.7-0.6c-0.7,0-1.4-0.1-2.1-0.2c-0.3,0-0.8,1.2-0.5,1.5
				c0.3,0.3,0.2,0.5-0.1,0.7c-0.4,0.3-0.6,0.7-0.5,1.2c0,0.5-0.1,1.1-0.4,1.4c-0.6,0.8-0.8,1.6-0.9,2.6c-0.4,3-0.9,5.9-1.6,8.8
				c-0.3,1.2-0.5,2.4-0.4,3.7c0.1,0.8-0.3,1.5-0.2,2.2c0.1,0.7,1.2,0.8,1.5,1.5c1.1,2.1,2,4.2,2.3,6.6c0.4,2.6,0.4,5.3,0.7,7.9
				c0.2,1.2,0,2.5,0,3.8c0,2.5-0.2,5-0.3,7.5c-0.1,1.3,0,2.6,0.1,3.8c0.1,0.6,0,1.1-0.2,1.6c-0.3,1-0.3,1.9-0.1,2.9
				c0.1,0.4,0.1,0.8,0,1c-0.4,0.9,0.3,1.8-0.3,2.7c-0.1,0.1,0.1,0.3,0.3,0.4c1,0.7,1.9,1.5,2.7,2.5c0.6,0.7,1.1,1.5,1.5,2.3
				c0.3,0.5,0.3,1.2,0.1,1.8c-0.3,0.9-0.8,1.6-1.7,2.2c-1.1,0.8-2.3,0.7-3.5,0.8c-1.1,0-2-0.5-2.9-1s-1.7-1-2.6-1.6
				c-0.3-0.2-0.7-0.4-0.5-0.9c0.1-0.4,0-0.9-0.4-1.4c-0.2,0.6-0.1,1.2-0.2,1.7c-0.3,1.5-1.4,2.5-2.8,2.4c-0.4,0-0.7,0.2-1,0.2
				c-1.3,0.1-2.5-0.2-3.7-0.5c-1.2-0.3-2.5-0.2-3.7-0.6c-1-0.3-2-0.5-2.8-1.3c-1.3-1.4-1.8-3-0.5-5c0.4-0.7,0.8-1.5,1.9-1.4
				c0.3,0,0.4-0.3,0.4-0.5c0-0.5,0-0.9-0.2-1.4c-1.6,0.7-3.1,1.6-4.5,2.8c-0.9,0.7-2,0.7-2.9,1c-0.5,0.2-1.1,0.3-1.7,0.5
				c-1.4,0.6-2.8,0.8-4.2,0.9c-2.4,0.2-4.7-0.4-7.1-0.3c-1.5,0.1-3-0.6-4.6-0.4c-2.5,0.3-4.9-0.1-7.4,0c-1.1,0-2.1,0.3-3.2,0
				c-0.5-0.1-1,0-1.4-0.5c-0.2-0.3-0.9-0.1-1.3-0.3c-1.3-0.7-2.7-1.4-3.5-2.7c-0.4-0.6-0.9-1.1-1.3-1.7c-0.7-1-0.9-2.1-1-3.2
				c-0.2-2.4,0.6-4.7,1.3-7c0.4-1.2,0.8-2.4,0.9-3.7c0.2-1.6,1-3.1,2-4.4c0.5-0.6,0.7-1.2,1-1.9c0.8-1.9,1.2-3.9,1.8-5.8
				c0.6-1.9,1-3.8,1.5-5.7c0.2-0.8,0.5-1.6,0.7-2.4c0.5-1.7,0.8-3.5,1.2-5.2c0.2-0.8,0.2-1.6,0.4-2.4c0.2-0.7-0.4-1.7-1-1.8
				c-1.8-0.5-2.7-1.9-3.2-3.6c-0.6-2.1-0.6-4.2-0.4-6.3c0.2-1.9,0.4-3.8,1-5.7c0.6-1.8,0.6-3.8,1.2-5.6c0.1-0.4-0.1-0.5-0.4-0.6
				c-0.5-0.2-1.1-0.4-1.6-0.6c-0.5-0.2-0.7-0.6-0.6-1.2c0.4-2.1,0.8-4.3,1.4-6.4c0.5-1.8,1-3.5,2.1-5.1c0.9-1.3,1.9-2.7,3.3-3.4
				c1.5-0.7,2-1.9,2.8-3.1c1.3-2,3.2-3.3,5-4.8c1.3-1.1,2.7-1.9,4.2-2.8c1.6-0.9,3.2-1.4,4.9-1.9c0.8-0.2,1.7-0.4,2.5-0.6
				c0.1,0,0.3,0,0.3-0.1c0-0.2-0.1-0.2-0.2-0.3c-0.8-0.7-1.7-1.3-2.3-2.1c-0.7-1-1.6-1.9-2.1-3.1c-0.2-0.5-0.4-0.2-0.5,0
				c-0.5,1-1.5,1.8-1.8,3c-0.1,0.5-0.6,0.7-1.1,0.7c-0.4,0-0.3-0.5-0.4-0.8c-0.6-1.6-1.3-3.3-2-4.9c-0.7-1.6-1.5-3.3-2-5
				c-0.5-2-0.9-4-0.7-6.1c0.1-1.4-0.4-2.6-1-3.9c-0.7-1.8-1.6-3.5-1.6-5.5c-0.1,0-0.2,0-0.2,0.1c-1.9,2.1-4.1,4-5.6,6.4
				c-0.4,0.6-0.6,1.2-0.9,1.8c-0.4,0.7-1,1.2-1.7,1.4c-0.5,0.2-0.5-0.1-0.5-0.4c0-1.1,0.2-2.1,0.5-3.1c0.6-2,0.6-4.1,1.3-6
				c0.5-1.4,0.9-2.9,1.5-4.3c0.7-1.7,1.2-3.4,2.1-5c0.6-1.1,1.3-2.1,2.1-2.9c0.1-0.1,0.2-0.3,0.3-0.5c0.1-0.3,0.2-0.6,0.6-0.7
				c0-0.4-0.6,0-0.6-0.4c0.9,0.2,1-0.8,1.5-1.2c0.8-0.6,1.7-1.2,2.5-1.8c0.4-0.3,0.9-0.3,1.1,0c0.3,0.4-0.1,0.7-0.3,1
				c-1.4,2.2-3.9,3.6-5,6.2c-0.7,1.6-1.6,3.2-2.6,4.6c-0.5,0.8-0.8,1.8-1,2.8c-0.3,1.3-0.9,2.6-1.4,3.8c-0.5,1.3-0.6,2.7-0.7,4.2
				c1-1.2,2-2.4,3-3.5c0.2-0.2,0.3-0.3,0.6-0.5c0.4-0.3,0.9-0.5,1-1.1c0.1-0.6,0.6-0.8,1.1-1.1c0.7-0.4,0.8-1.4,1.3-2
				c0.1-0.2,0.2-0.5,0.5-0.4c0.3,0.1,0.5,0.3,0.5,0.6c0,0.5-0.1,0.9-0.1,1.4c-0.2,1,0.1,2.1,0.4,3c0.2,0.6,0.4,1.1,0.7,1.7
				c0.1,0.1,0,0.4,0.3,0.3c0.1,0,0.4-1,0.3-1.1c-0.6-0.4-0.2-0.9-0.1-1.2c0.3-0.7,0.7-1.3,0.6-2.1c0-0.5,0.5-1,1-1.4
				c1.6-1.2,3.1-0.7,3.9,1c0.3-1.2,0.2-2.5,0.6-3.7c0.4-1,1-2,1.4-3c0.7-1.8,1.4-3.6,2.5-5.2c1-1.4,1.9-2.8,3-4.1
				c0.4-0.5,1-0.4,1.4-0.1c1,0.8,2.4,1.1,3.4,2c0.4,0.3,0.7,0.1,0.6-0.3c0-1.1,0.4-2.2,0.4-3.4c0-0.5,0.5-0.6,0.8-0.9
				c0.3-0.2,0.5,0,0.7,0.2c1.3,1.2,2.8,1.9,4.1,2.9c1.2,0.9,2.5,1.3,3.7,2.2c1,0.8,2.4,1.3,3.7,1.8c2.3,0.8,4.7,1.6,6.9,2.7
				c0.8,0.4,1.7,0.7,2.6,1.2c-0.1-0.7-0.5-1.2-0.8-1.7c-0.9-1.7-1.5-3.5-2.1-5.3c-0.4-1.2-1.4-2-2.1-3.1c-0.3-0.4-0.2-0.7,0.1-0.9
				c0.3-0.1,0.6-0.5,0.9,0.2c0.4,1,1.3,1.6,2.3,2.2c2,1.2,4.1,1.6,6.4,1.4c1.3-0.1,2.6,0,3.9,0.2c0.7,0.1,1.3,0.5,2,0.8
				c1,0.4,2,0.9,2.9,1.6c0.2-0.5,0.1-0.8,0-1.1c-0.4-1.4-0.3-2.9-0.9-4.2c-0.2-0.6-0.3-1,0-1.6c0.3-0.8,0.6-0.5,1-0.3
				c1.4,0.8,2.7,1.9,4.1,2.7c0.9,0.5,1.9,0.9,2.9,1.3c2,1,3.9,1.9,6,2.6c1.8,0.6,3.7,0.9,5.7,1c1.4,0,2.7,0.2,4.1,0.5
				c1.5,0.2,3,0.3,4.5,0.6c1.4,0.3,2.8,0.6,4.3,0.7c2,0.2,4,0.7,6.1,0.3c0.6-0.1,1.3,0.1,1.9,0.1c2.3,0.1,4.5-0.3,6.8,0
				c1.5,0.2,2.9-0.5,4.4-0.3c0.2,0,0.4,0,0.4-0.2c0-0.2-0.2-0.3-0.4-0.4c-0.9-0.2-1.8-0.7-2.8-0.9c-1.4-0.4-2.7-1-4-1.5
				c-1.2-0.5-2.5-0.8-3.7-1c-1.3-0.2-2.4-0.8-3.5-1.2c-2.3-1-4.4-2.3-6.8-3.2c-0.9-0.3-1.6-1.1-2.3-1.8c-0.1-0.2-0.2-0.3-0.1-0.5
				c0.1-0.2,0.3-0.3,0.6-0.2c1.9,0.2,3.8,0.7,5.7,0.5c2.4-0.3,4.8,0,7.2-0.3c2.1-0.3,4.2-0.5,6.3-0.8c1.5-0.2,2.9-0.3,4.4-0.5
				c2.6-0.3,5.1-0.9,7.5-1.8c0.9-0.3,1.8-0.5,2.8-1c-2.7-0.1-5.2-0.9-7.7-0.9c-1.4,0-2.9-0.1-4.3-0.2c-1.2-0.1-2.5,0-3.7-0.4
				c-1-0.3-2.2-0.1-3.3-0.3c-1.4-0.2-2.8-0.2-4.3-0.4c-1-0.2-2.1,0-3.2-0.1c-2-0.1-4-0.3-6-0.4c-1.7-0.1-3.4-0.4-5.1-0.5
				c-0.4,0-0.7-0.3-1.1-0.1c-0.7,0.2-1.5-0.4-2.3,0.2c-0.7,0.5-1.5-0.3-2.2-0.5c-0.4-0.1-0.1-0.5,0.1-0.6c1.3-0.8,2.6-1.6,4.1-2.1
				c2.4-0.9,4.9-1.8,7.4-2.7c-1.7-0.4-3.4-0.8-5.1-0.9c-1.4-0.1-2.9,0-4.3-0.1c-2.7-0.1-5.4,0-8.1-0.1c-2.7-0.1-5.3,0.1-7.9,0.4
				c-0.9,0.1-1.7,0.4-2.4,0.8c-0.4,0.2-0.8,0.3-1.3,0.2c0.2-1.7,1.2-2.7,2.4-3.8c0.9-0.7,1.5-1.7,2.3-2.5c1.5-1.6,3.2-2.9,5.2-4
				c1.2-0.7,2.4-1.3,3.8-2c-0.9-0.2-1.5-0.3-2.1-0.4c-1.5-0.2-3.1-0.4-4.6-0.6c-1.4-0.2-2.8-0.2-4.2-0.2c-2,0-4,0.5-5.9,0.9
				c-2.2,0.5-4.3,0.9-6.4,1.6c-1.5,0.5-3,1.2-4.4,2c-2.9,1.6-5.5,3.6-7.8,6.1c-0.4,0.4-1.1,0.5-1.1,1.2c-0.3-0.1-0.3,0.5-0.6,0.2
				c-0.2-0.2-0.6-0.3-0.1-0.6c0,0,0-0.2,0-0.2c-0.3-0.3-0.5-1.2-0.5-1.7c0.2-1.3,0.6-2.5,1.1-3.7c0.5-1.1,0.7-2.4,1.3-3.5
				c0.7-1.3,0.9-2.7,1.5-4c0.7-1.3,1.5-2.5,2.3-3.7c-1.6,0.1-2.7,1.1-4,1.7c-2,1-3.8,2.4-5.6,3.6c-1.2,0.9-1.9,2.2-2.8,3.3
				c-1,1.3-1.6,2.7-2.3,4.2c-0.5,1.1-1.2,2.1-1.8,3.2c-0.6,0.9-0.7,1.9-0.6,2.9c0.2,0.8-0.4,0.7-0.8,0.8c-0.5,0.1-0.3-0.4-0.3-0.6
				c0-0.7-0.2-1.2-0.7-1.6c-0.5-0.5-0.9-1.2-1.3-1.8c-0.9-1.3-2.2-1.9-3.7-2.1c-3-0.4-5.9-0.2-8.8,0.7c-1.4,0.4-2.8,1.1-4.1,1.8
				c-1.3,0.7-2.6,1.4-3.9,2.1c-0.5,0.2-0.9,0.5-1.2,0.9c-1.3,1.2-2.5,2.4-3.8,3.6c-0.2,0.1-0.2,0.2-0.2,0.4c0.1,0.2,0.2,0.1,0.4,0.1
				c1.3-0.2,2.6-0.3,3.8-0.7c2.3-0.7,4.6-1.1,6.9-1.7c1.5-0.4,3-0.2,4.4,0.7c0.3,0.2,0.4,0.4,0.4,0.7c0,0.3-0.3,0.4-0.5,0.4
				c-1.8,0.2-3.4,1-4.9,1.7c-1.7,0.8-3.2,1.7-4.5,3c-1.3,1.3-2.5,2.6-3.8,4c-0.9,0.9-1.6,2-2.3,3.1c-1.1,1.8-2.1,3.7-3.2,5.5
				c-1.1,1.7-1.9,3.6-2.4,5.7c2.9-2.1,5.8-3.9,9.1-5.2c-0.6,0.9-1.6,1.3-2.5,1.8c-1.3,0.7-2.6,1.5-3.8,2.4c-1.2,1-2.5,1.7-3.8,2.7
				c-0.2,0.2-0.6,0.4-0.9,0.1c-0.3-0.3,0-0.6,0.1-0.9c1.1-2.7,2.4-5.4,3.7-8c0.9-1.8,1.9-3.4,3-5.1c0.6-1,1.4-1.9,2.2-2.8
				c1.1-1.2,2.1-2.7,3.3-3.9c1.2-1.2,2.5-2.2,4-2.9c1-0.4,1.8-0.9,2.8-1.3c0.7-0.3,1.5-0.5,2.2-1c-1.4-0.2-2.7-0.3-3.9,0.1
				c-1.3,0.4-2.6,0.5-3.9,0.9c-1.6,0.6-3.2,1-5,1.1c-0.3,0-0.7,0.2-1,0.4c-0.4,0.2-0.7,0.1-0.9-0.1c-0.2-0.2-0.1-0.5,0-0.8
				c0.4-1,1.3-1.7,2.1-2.4c1.1-1,2.2-2,3.4-2.9c0.9-0.7,1.8-1.1,2.7-1.6c1.8-0.9,3.7-1.8,5.6-2.6c1.2-0.5,2.5-0.7,3.7-0.9
				c1.3-0.2,2.7-0.3,4.1-0.2c1.7,0.2,3.5,0.2,4.9,1.5c0.4,0.4,0.9,0.8,1.1,1.3c0.4,0.8,1.1,1.3,1.6,2.1
				C106.3,83.7,107.1,82.3,107.9,80.9z M107.9,159.9c0.4-0.7,0.7-1.5,1-2.2c0.1-0.3,0-0.4-0.1-0.5c-0.5-0.2-0.9-0.7-1.5-0.8
				c-0.9-0.3-1.6-0.9-2.3-1.4c-0.9-0.6-1.6-1.5-2.6-2.2c-0.8-0.6-1.7-1.1-2.2-1.9c-0.5-1-1.6-1.1-2.4-1c-1.3,0.3-2.8,0.3-4,1
				c-1,0.5-2.2,0.8-3.3,1.7c0.8-0.3,1.4-0.3,2-0.3c0.3,0,0.8-0.2,0.9,0.3c0.1,0.5-0.1,0.8-0.7,0.9c-0.7,0.1-1.3,0.4-2,0.6
				c-0.3,0.1-0.5,0.3-0.7,0.6c-0.3,0.6-0.8,0.8-1.3,0.7c-0.5-0.1-0.4-0.7-0.3-1.2c-0.9,0.8-1.8,1.4-2.6,2.2
				c-1.6,1.7-3.4,3.2-4.3,5.4c-0.4,0.9-0.4,1.2,0.6,1.4c0.8,0.2,1.6,0.5,2.4,0.9c1.9,0.9,4,1.3,6,1.7c2.3,0.4,4.5,0.8,6.8,1.1
				c1.8,0.2,3.7,0.5,5.5,0.8c2.8,0.4,5.6,0.2,8.4,0.2c0.7,0,1.4-0.1,2-0.1c2.5,0,5-0.1,7.5-0.4c0.7-0.1,1.4,0.1,2.1,0
				c1.9-0.3,3.7-0.4,5.6-0.5c0.9,0,1.6-0.2,2.5-0.5c0.6-0.2,0.4-0.4,0.2-0.7c-0.4-0.5-1-0.6-1.5-0.9c-0.4-0.2-0.7-0.7-1.3-0.8
				c-1.4-0.1-2.7-0.5-4-0.6c-1-0.1-1.9-0.2-3-0.4c0.4,0.6,0.6,1.2,1,1.7c0.3,0.4,0.2,0.5-0.2,0.6c-0.6,0.2-1.3-0.4-1.5-1.1
				c-0.1-0.6-0.5-1.5-0.7-1.5c-1.5-0.2-2.5-1.4-3.8-1.8c-1.9-0.6-3.7-1.6-5.5-2.5c-0.5-0.2-0.5-0.2-0.8,0.2
				c-0.4,0.6-0.4,1.4-0.8,1.8c-0.9,0.9-2,1.4-3.2,1.6c-1.4,0.3-3-0.2-4.4,0.5c-0.2,0.1-0.4,0-0.5-0.2c-0.1-0.2,0.1-0.3,0.3-0.4
				c0.5-0.1,0.7-0.5,0.9-0.9c0.2-0.6,0.6-0.7,1.2-0.5c0.9,0.2,1.8,0.5,2.7,0.4C106.7,160.7,107.5,160.6,107.9,159.9z M107.9,154.2
				c1.1-0.7,2.5-0.7,3.6-1.3c0.5-0.3,0.9-0.6,0.9-1.1c0-0.6-0.3-1.1-0.9-1.3c-0.7-0.3-1.4-0.5-2.2-0.5c-0.2,0-0.5,0-0.7,0
				c-1.4,0.2-2.3,2.9-1.3,4C107.4,154.1,107.6,154.3,107.9,154.2z M109.6,224.3c-1.1,0.7-1.5,1.9-2.2,2.8c-0.9,1.2-1.5,2.7-2.2,4.2
				c-0.3,0.7-0.4,1.6-0.9,2.3c-0.9,1.2-0.9,2.7-1.8,3.9c-0.1,0.1-0.2,0.5,0.2,0.5c0.5,0,1,0.2,1.5-0.1c1-0.5,2.1-0.7,3.2-0.9
				c1.1-0.2,2.1-0.6,3-1.1c0.3-0.1,0.3-0.3,0.3-0.7c0-1-0.5-2-0.4-3c0.1-1.1-0.1-2.2-0.4-3.3c-0.1-0.4-0.4-0.8-0.3-1.2
				C110.1,226.7,109.6,225.6,109.6,224.3z M114.3,109.1c-2.7-1.4-5.3-2.9-7.9-4.4c-0.6-0.3-1.2-0.6-1.8-0.9
				c-0.3,1.1-0.5,2.2-0.4,3.3c0,0.3,0.1,0.7-0.2,0.8c-0.1,0-0.1,0-0.2,0.1c-0.3,0.1-0.6,0-0.8-0.3c-1-1.1-2.5-1.5-3.7-2.5
				c-0.1-0.1-0.4-0.1-0.4-0.1c-0.3,0.5-0.9,0.5-1.2,1c-1.3,1.9-2.4,3.9-3.3,6c-0.7,1.7-1.4,3.5-1.7,5.3c-0.2,1.2-1.1,2.2-1.6,3.4
				c-0.3,0.6-1.1,0.6-1.5,0c-0.4-0.6-0.9-0.5-1.2-0.2c-1,1-1.4,2.3-1.6,3.6c0,0.3-0.1,0.5-0.2,0.8c-0.2,0.4-0.3,1.2,0.1,1.3
				c0.9,0.2,0.8,0.8,0.8,1.4c0,0.6,0.4,0.8,0.8,1c0.3,0.2,0.6-0.2,0.8-0.5c0.3-0.5,0.6-0.9,0.8-1.5c0.1-0.3,0.3-0.3,0.4-0.2
				c0.2,0,0.4,0.1,0.4,0.4c0,0.5,0.2,1.1,0,1.6c-0.3,0.8-0.4,1.5-0.3,2.4c0.1,2.7,0.9,5.2,1.9,7.7c0.5,1.4,1.2,2.7,1.9,4
				c0.8,1.6,1.8,2.9,3,4.1c1.8,1.7,3.7,3.3,5.6,4.9c0.9,0.7,1.8,1.6,3,2.2c-0.3-2.1,0-4,1-5.8c1.2-2.1,2.3-4.2,4.2-6
				c1.2-1.2,2.5-2.2,4-2.9c1.4-0.6,2.8-1.2,4.2-1.8c2.1-0.9,4.2-1.6,6.6-1.6c2.3,0,4.6,0,6.9,0.3c2.7,0.4,5.3,1.1,8,1.8
				c1,0.3,2.2,0.2,3.1,0.9c1.1,1,2.4,1.7,3.7,2.4c1.4,0.8,2.6,1.9,3.6,3.2c1.2,1.6,2.6,3.1,3.3,5c0.3,0.8,0.5,1.6,0.6,2.4
				c0.1,1.3,0.5,2.5,0.3,3.9c-0.2,1.1-0.2,2.3-0.7,3.5c1-0.6,1.8-1.1,2.5-1.7c0.2-0.2,0.4-0.5,0.7-0.4c0.7,0.3,1.1-0.1,1.6-0.5
				c0.8-0.6,1.7-1.2,2.4-2c1.8-1.8,4-3.1,5.5-5.2c0.6-0.8,1.5-1.5,2.1-2.4c0.5-0.8,0.8-1.7,0.7-2.7c-0.1-0.6-1.2-1.3-1.6-0.9
				c-0.4,0.5-0.9,0.6-1.4,1c-1.2,0.9-2.6,1.3-4.1,1c-1.8-0.3-2.5-1.1-2.6-2.9c-0.1-1.4,1.2-3.3,2.5-4c0.1,0,0.2-0.1,0.3-0.1
				c1.2-0.5,2.2-0.3,3.4,0.2c0.7,0.3,1.7,0.7,2.4,0.2c0.7-0.4,1.4-0.6,2.1-0.4c0.9,0.3,1.3-0.1,1.5-0.9c0.2-0.7,0.6-1.3,0.7-1.9
				c0.4-2.2,1.4-4.3,1.1-6.7c0-0.2,0-0.3,0.1-0.5c0.4-1.4,0.5-2.8,0.5-4.3c0.1-1.9-0.4-3.8-0.8-5.7c-0.3-1.3-0.7-2.5-1-3.8
				c-0.2-0.8-0.4-1.5-0.6-2.3c-0.1-0.6-0.5-1.4-1.2-1.4c-1,0-2-0.3-3-0.4c-0.2,0-0.4-0.1-0.7-0.1c-1-0.1-2-0.2-3.1-0.3
				c-1.2-0.2-2.3-0.6-3.5-0.8c-2-0.3-4.1-0.1-6.1-0.5c-1.5-0.3-3-0.6-4.5-1.1c-1.2-0.4-2.3-1.1-3.5-1.5c-0.7-0.2-1.5-0.3-2.1-0.7
				c-0.9-0.7-2-1.2-2.9-1.9c-0.4-0.3-0.9-0.6-1.4-0.9c-0.2-0.1-0.3-0.2-0.5,0c-0.2,0.1,0,0.2,0.1,0.4c0.6,1.4,0.7,2.9,0.6,4.4
				c0,0.9,0.1,1.7,0.2,2.5c0,0.2,0.3,0.4,0,0.6c-0.2,0.2-0.4,0-0.6-0.1c-0.3-0.1-0.5-0.3-0.6-0.5c-0.8-1-1.8-1.8-3-2.4
				c-2.3-1.1-4.7-1.3-7.2-1.2c-1.9,0.1-3.7-0.2-5.5-0.8c0,0.2,0,0.4,0,0.5c0.6,1.5,1.3,3,1.9,4.5c0.5,1.3,1.4,2.3,2.2,3.4
				c0.1,0.2,0.5,0.4,0,0.5c-0.5,0.1-1.2,0.5-1.6-0.2c-0.1-0.2-0.2-0.3-0.4-0.1c-0.2,0.3-0.2,0.3-0.5,0.2c-1.2-0.7-2.3-1.4-3.4-2.2
				c-0.6-0.4-1.2-0.7-1.9-1c-1.8-0.6-3.7-1-5.4-1.8C114.8,109.3,114.6,109.2,114.3,109.1z M108.1,148.1c-0.3,0.9-0.3,1,0.7,0.8
				c0.2,0,0.4-0.1,0.6-0.2c0.3-0.2,0.6-0.2,0.8-0.1c0.9,0.5,1.9,0.9,2.6,1.8c0.3,0.3,0.7,0.6,0.5,1.1c-0.3,1.1-0.7,2.1-2.1,2.4
				c-1.2,0.2-2.3,0.9-3.5,1.4c0.2,0.2,0.4,0.4,0.7,0.6c1.3,1.1,2.9,1.5,4.3,2.4c0.4,0.3,0.9,1,1.6,0.4c0.1-0.1,0.3,0,0.3,0.2
				c0.1,0.4,0.5,0.5,0.8,0.6c0.8,0.3,1.5,0.6,2.2,1.1c0.7,0.5,1.3,0.4,1.9-0.2c0.2-0.2,0.3-0.3,0.5-0.4c1.8-1.3,3.6-2.5,5.5-3.6
				c1.1-0.6,2.1-1.3,3.3-1.8c0.9-0.4,1.8-0.7,2.7-1c1.7-0.6,3.3-0.7,5.1-0.5c1.2,0.1,2.9,2.1,2.8,3.2c-0.2,1.4-0.3,2.8-1,4.1
				c-0.5,1-1,2-1.5,3.1c0.2,0,0.4,0,0.6,0c2.8-0.6,5.7-0.6,8.5-1.4c0.4-0.1,0.7,0.1,1.1-0.1c1.7-0.7,3.5-1.3,5.2-1.9
				c0.7-0.2,1.2-0.7,1.3-1.4c0.2-1.5,0.2-2.9,0.2-4.4c0-0.3-0.1-0.6-0.5-0.6c-1.5,0.1-2.5-1-3.4-1.9c-0.9-0.9-0.7-3.4,0.4-4.2
				c1.1-0.8,1.1-0.9,0.1-1.9c-0.5-0.5-0.8-0.3-1.3-0.2c-2.3,0.5-4.5,0-6.7-0.4c-0.8-0.2-1.3-0.8-2-1.2c-1.7-1-2-3.1-0.7-4.5
				c0.1-0.1,0.2-0.2,0.4-0.5c-1.2-0.3-2.3-0.6-3.4-0.9c-0.3-0.1-0.3,0.2-0.4,0.3c-0.5,0.4-0.5,1.2-1.1,1.6c-1.5,1.1-3.3,1.2-5,1.7
				c-1.1,0.3-1.7-0.2-2.3-1c-0.6-0.9-0.5-1.7-0.3-2.6c0.2-0.7,0.1-1-0.7-1c-1.9,0-3.7,0.4-5.5,0.9c-0.4,0.1-0.4,0.3-0.5,0.7
				c-0.2,0.8,0,1.6-0.1,2.5c-0.2,1.3-0.8,2.4-1.1,3.7c-0.1,0.4-0.3,0.8-0.7,1c-1.1,0.5-2,0.8-3.3,0.3c-1.3-0.6-2.5-1.1-3-2.5
				c-0.3-0.8-0.8-0.9-1.3-0.2c-0.4,0.5-0.9,0.8-1.2,1.3C109.3,145.5,108.5,146.7,108.1,148.1z M108.3,184.5c0.6,0.9,0.9,0.9,1.6,0.1
				c0.6-0.6,0.5-1.2,0.3-1.9c-0.1-0.3-0.3-0.4-0.6-0.4c-0.7-0.1-1.4,0.1-2,0.4c-0.6,0.3-0.7,0.6-0.7,1.1c0,0.2,0,0.3,0,0.4
				c-0.1,0.7-0.6,1.1-1.1,1.6c-0.5,0.4-1.3,0.2-1.6-0.2c-0.4-0.6-0.3-1.4,0.1-1.8c0.2-0.1,0.4-0.3,0.5-0.2c0.2,0.1,0.1,0.3,0,0.5
				c-0.1,0.5,0,1,0.4,1.1c0.5,0.1,0.6-0.4,0.7-0.9c0.2-0.6,0.2-1.1,0-1.6c-0.1-0.3-0.3-0.6-0.7-0.5c-0.8,0.1-1.6,0.2-2.2,0.7
				c-0.9,0.8-1.6,1.7-1.9,2.9c-0.2,0.9-0.4,1.8,0,2.7c0.6,1.2,0.6,1.2-0.7,1.6c-0.3,0.1-0.7,0.2-1,0.4c-1.3,0.6-2.7,0.5-4,1.1
				c-2,0.8-4,1.5-6.2,1.9c-1.5,0.3-3.1,0.5-4.5,1c-1.4,0.5-2.8,0.7-4.3,0.9c-0.7,0.1-1.3-0.4-1.9-0.2c-0.5,0.2-0.8,0.4-1.1-0.2
				c-0.2-0.4-0.8-0.7-0.9-1.2c-0.1-1.7,0-3.5,0.2-5.2c0.1-1.1,0.1-2.1,0.4-3.2c0.5-1.9,0.9-3.8,1.6-5.7c-0.9,0.1-1.7-0.2-2.4-0.4
				c-0.9-0.2-1.2,0.4-1.3,0.9c-0.2,1-0.5,1.9-0.7,2.9c-0.3,1.5-0.7,3-1,4.5c-0.3,1.5-0.5,3-0.4,4.5c0.1,1.1,0,2.2,0.2,3.4
				c0.3,1.5,0.7,2.9,1.9,3.9c1.4,1.1,3.1,0.9,4.7,0.8c1.3-0.1,2.4-0.8,3.5-1.3c1.5-0.7,3-1.1,4.6-1.6c2.5-0.8,5.2-1.1,7.7-2.1
				c1.8-0.7,3.8-1.1,5.6-2.1c0.5-0.3,1.1-0.5,1.8-0.6c1.2-0.2,2.4-0.4,3.5-1c0.9-0.5,1.7-1,2.7-1.2c0.4,0,0.9-0.5,0.9-0.8
				c0-0.3-0.5-0.6-1-0.6c-0.4,0-0.6-0.8-0.4-0.9c0.6-0.4,0.9-1.3,1.8-1.5c0.1,0,0.6-0.2,0.2-0.5c-0.2-0.2-0.4-0.6-0.7-0.1
				c-0.3,0.4-0.7,0.3-1.1,0.2c-0.7-0.2-1-0.7-1.3-1.1c-0.2-0.2-0.2-0.4-0.2-0.5c0-0.4,0.3-0.7,0.8-0.8c0.2,0,0.4,0,0.4,0.1
				c0.1,0.1-0.1,0.2-0.2,0.3C108.3,184.1,108.1,184.2,108.3,184.5z"/>
		</g>
		<g>
		</g>
	</g>
	<g>
		<g>
			<g>
				
					<rect x="113.7" y="169.6" transform="matrix(0.9997 -2.454123e-02 2.454123e-02 0.9997 -4.3821 2.9492)" class="st3" width="8.5" height="20.8"/>
				<path class="st4" d="M116.7,169.7c0.5,0.4,0.3,1.5,1.2,1.4c-0.8,1.3,0.3,1.8-0.4,3.1c-0.1-0.1-0.3-0.2-0.5-0.2
					c0.1,0.7-0.2,1-0.1,1.6c-0.6-0.1-0.5,0.6-1.3,0.4c-0.9-1.3-0.8-2.6-2-3.5C113.8,170.9,114.9,169.6,116.7,169.7z"/>
				<path class="st4" d="M119.4,182.7c0.1,0.4,0,0.7-0.5,0.7c-0.1-0.1-0.2-0.3-0.2-0.5C118.8,182.7,119.1,182.7,119.4,182.7z"/>
				<path class="st4" d="M118.7,183.7c0.2,0,0.1,0.3,0.2,0.5c0.9-0.5,1.1,0,2.4-0.2c0.5,0.8,1.7,2.7,0.4,3.4c0,0.6,0.6,1,0.2,2
					c-1.4,0.5-2.8,1.6-4.7,0.8c-0.5-1.6-1.6-2.9,0.6-3.8C117.1,185.1,117.6,183.5,118.7,183.7z"/>
				<path class="st4" d="M114.7,178c0.7-1,1.4-1.9,3.2-1.7c0.6,0.7,0.6,1.1,1.3,1.8c-0.1,0.1-0.2,0.4-0.1,0.7
					c-0.9-0.3-0.7,1.2-1.3,1.7c0.3,0.5,1.2,0.5,1,1.6c-0.4,0.4-1.1,0.2-1.3-0.1c0.3-0.5-0.3-1,0.3-1.2
					C116.5,180.6,115.2,179.5,114.7,178z"/>
			</g>
		</g>
	</g>
	<g>
		<g>
			<path class="st5" d="M97.3,175.1c-3.9,2.4-4.4,7-4.4,11.2c0,0.9,0.5,2.5,1.7,2.4c1.2,0,1.6-1.6,1.6-2.5c0-2.2,0-5,2.1-6.3
				C100.1,178.8,99.3,173.9,97.3,175.1L97.3,175.1z"/>
		</g>
	</g>
	<g>
		<g>
			<path class="st5" d="M132.6,182.1c0.1-0.4,0.2-0.8,0.4-1.2c0.3-0.9,0.2-4-1.5-3.7c-7.3,1.2-7.3,9.7-6.6,15.4c0.1,1,1,2,2,1.7
				c1.1-0.4,1.2-2.1,1.1-3.1c-0.4-3.3-0.7-8.3,3.6-9.1c-0.5-1.2-1-2.5-1.5-3.7c-0.1,0.4-0.2,0.8-0.4,1.2c-0.3,1-0.3,2.7,0.7,3.4
				C131.3,183.7,132.3,183.1,132.6,182.1L132.6,182.1z"/>
		</g>
	</g>
	<g>
		<g>
			<path class="st5" d="M120.4,197c0.2-0.4,0.4-0.7,0.7-1.1c0.5-0.6,0.7-4.6-0.3-4.9c-1.7-0.5-2.4,1.3-3.1,2.5
				c-0.4,0.7-0.8,0.9-1.4,1.4c-0.6,0.5-0.7,1.1-0.8,1.9c-0.1,1.4-0.2,3.6,1.4,4c0.7,0.2,1.6,0,2.3-0.3c0.4-0.2,0.6-0.4,0.9-0.6
				c0.8-0.6,2.1-2.8,0.5-2.6c-0.8,0.1-0.7,4.9,0.1,5c2.8,0.1,3.9-4.6,3.8-6.7c-0.1-1.4-0.4-2.4-1.2-3.5c-0.6-0.8-2-1.9-3.1-1.2
				c-1,0.7-0.7,3.1-0.5,4.2c0.1,0.6,0.2,1.1,0.7,1.5c0.7,0.6,0.7,0.8,0.6-1.2c0,0.3,0,0.6,0,0.9c0,0.8-0.2,3.4,0.9,3.7
				c1.1,0.4,1.2-2.3,1.2-2.9c-0.2,0.6-0.4,1.2-0.6,1.7c0-0.9,0.1-1.7,0.1-2.6c-0.3,1.1-0.3,2.3-0.1,3.4c0,0.3,0.5,1.9,0.8,0.9
				c0.5-2,0.7-4.7-0.6-6.5c-0.4-0.6-0.6,1.8-0.6,1.7c0.1-0.4,0-0.7-0.3-1c0.1,0.4,0.2,0.8,0.4,1.1c0,1.7,0,2.1,0.1,1
				c0-0.4,0-0.8,0-1.1c0-0.7-0.1-1.3-0.3-2c-0.3-1.1-0.9-1.6-1.6-2.4c0.1,0.6,0.3,1.1,0.4,1.7c0-0.1,0-0.2,0-0.3
				c-0.1,1-0.2,2-0.3,3.1c1.1-0.9,3,0.6,3.3,1.8c0-1.3,0-2.6,0-3.9c-0.4,1.3-1.4,3.6-3.1,3.6c0,1.7,0.1,3.3,0.1,5
				c2.1-0.3,1.5-4.9,1.2-6.2c-0.2-1.1-0.6-1.9-1.8-1.3c-1.2,0.7-2.5,1.8-4,0.8c0.1,0.4,0.2,0.8,0.4,1.1c0-0.1,0-0.2,0-0.3
				c-0.1,1.2-0.2,2.4-0.2,3.7c0.3-0.4,0.8-0.6,1.1-0.9c0.4-0.4,0.7-0.9,0.9-1.4c0.6-1,1.2-2.3,2.6-1.9c-0.1-1.6-0.2-3.2-0.3-4.9
				c-0.3,0.4-0.5,0.7-0.7,1.1c-0.5,0.9-0.4,2.1-0.3,3.1C119.7,195.5,120.1,197.5,120.4,197L120.4,197z"/>
		</g>
	</g>
	<g>
		<g>
			<path class="st5" d="M94.4,198.9c-3,1.7-5.3,4.5-6,7.9c-0.6,2.7,0.4,7.3,4,7.2c2.7-0.1,4.6-4.7,4.1-7c-0.4-1.7-1.7-2.3-3.3-2.1
				c-1.7,0.2-2.6,1.6-2.9,3.2c1,0,2.1-0.1,3.1-0.1c-0.2-0.7,2.2-3,2.6-3.4c0.8-0.9,1-2.3,0.5-3.4c-0.3-0.8-1.5-1.8-2.2-0.8
				c-2.2,2.6-5.1,5.4-4,9.1c0.6,2.2,2.7,2.3,3.1-0.1c-0.4,0.6-0.3,0.8,0.4,0.5c0.6,0,0.7,0,0.3,0c-0.3-0.9-0.5-1.9-0.8-2.8
				c-0.1,0.5-0.5,1.7-0.9,1.8c-1,0.4-1-0.5-0.7-1.1c0.7-1.7,2.1-3.1,3.7-4C97.2,202.6,96.4,197.8,94.4,198.9L94.4,198.9z"/>
		</g>
	</g>
	<g>
		<g>
			<path class="st5" d="M83.1,178c-0.8,1.4-1.1,4.2,0.4,5.3c1.5,1.1,3.1-1.3,3.5-2.5c0.5-1.5,0.6-4.3-0.9-5.3c-1.6-1-3.3,0.4-4,1.8
				c-1,2-0.9,4.3-1,6.5c-0.1,1.5-0.4,4.7,1.4,5.3c1.6,0.5,2.5-1.2,2.9-2.4c0.3-1,0.9-1.4,1.5-2.3c0.6-0.8,0.8-1.6,0.9-2.5
				c0.1-0.8,0-1.9-0.5-2.6c-0.3-0.4-0.8-0.8-1.2-0.2c-0.7,1.3-1.6,2.2-2.9,2.9c-1.3,0.7-0.7,5.6,0.7,4.8c1.4-0.8,2.6-2,3.4-3.4
				c-0.6-0.9-1.1-1.8-1.7-2.8c0.1-0.9-0.4-0.1-0.6,0.2c-0.3,0.3-0.5,0.6-0.8,1c-0.2,0.5-0.4,0.9-0.5,1.4c0,0.3-0.1,0.5-0.3,0.7
				c-0.1,0.2-0.3,0.3-0.5,0.4c0.1,0.4,0.1,0.8,0.2,1.2c0-0.4,0-0.9,0.1-1.3c0-0.6,0-1.3,0.1-1.9c0.1-0.6,0.1-1,0.5-1.5
				c0.2-0.2,1.5-0.7,1.5-0.8c-0.1-0.6-0.1-1.3-0.2-1.9c0.1-0.7-0.8,1.2-0.8,1.1c-0.1,1.1-0.2,2.3-0.3,3.4c0.1-0.1,0.1-0.2,0.2-0.3
				c0.6-1,0.6-2.3,0.3-3.4C84.4,178.4,83.7,177,83.1,178L83.1,178z"/>
		</g>
	</g>
</g>
<g id="XMLID_4_">
	<g>
		<path class="st6" d="M119.4,7.3c-2,0.1-3.8,0.4-5.3,0.5c-2.2,0.1-3.7,0.1-5.2,0.1c-0.3,0-0.6,0-0.9,0.2c-0.8-0.1-1.6-0.1-2.4-0.1
			c0,0-0.1,0-0.1,0c-2.9-0.2-5.8-0.3-8.7-0.4c-1.6-0.1-3.1,0.1-4.6,0.4c-4.9,0-9.7,0.5-14.6,0.9c-3.5,0.2-7,0.5-10.5,1.2
			c-5.6,1.2-11.2,1.5-16.8,2.1c-5.1,0.5-10.2,1.1-15.3,1c-2.4-0.1-4.7,0.4-7,0.8c-2,0.3-3.9,1.3-5.5,2.6c-3.1,2.6-5,6.2-6.1,10
			c-0.7,2.4-1.4,4.8-1.9,7.2L13,33.3c0.7-3.1,0.9-6.3,1.6-9.4c0.9-4.1,3.1-7.4,6-10.1c1.4-1.4,3.5-1.6,5-2.9
			c0.1-0.1,0.2-0.1,0.3-0.1c2,1.5,3.9,0,5.9-0.2c2-0.2,4.1,0.1,6.1-0.5c0.4-0.1,0.7-0.1,1.1-0.2c6.8-0.2,13.4-1.6,20.2-1.8
			C66.6,8,73.8,6.3,81.2,6.4C90,6.5,98.9,5.9,107.8,6c3.8,0,7.7,0.1,11.5-0.2L119.4,7.3z"/>
		<path class="st1" d="M127.9,266c-3.9-0.2-7.9,0.5-11.9,0.5c-2.9,0-5.8,0.1-8.7,0.2c-2.3,0-4.4,0.5-6.6,1c-2.3,0.5-4.7,0-7-0.1
			c-5.2,0-10.4,0.1-15.5,0.4c-2.9,0.2-5.8,0-8.8,0.1c-5.6,0.1-11.3,0.3-16.9,0.3c-6.3-0.1-12.6-0.2-18.8-0.6
			c-4.7-0.3-9.4-1.3-14.1-1.6c-2.9-0.2-5.6-1.1-8.5-1.1c-1.2,0-2.3-0.9-3.2-1.8c-0.9-0.9-1.2-1.9-1.2-3.4c0.1-7.1,0.5-14.2,0-21.3
			c-0.2-3.3-1.2-6.5-1-9.8c0.2-6.5,0.3-13,0.8-19.5c0.5-7.1,1.5-14.1,2-21.2c0.3-4.4,0.6-8.8,1-13.2c0.8-7.4,1-14.8,1.3-22.1
			c0.1-3.6,0-7.1-0.2-10.7c-0.3-5.1-0.2-10.1,0-15.2c0.2-4.4,0.3-8.7,1.1-13c0-0.1,0-0.1,0-0.2c-0.2-5.8,0.8-11.6,0-17.4
			c-0.6-4.2-1.1-8.3-1-12.6c0-5.3,0.1-10.6,0.4-16c0.2-4.9,0.2-9.8,0.3-14.7c0.1-6.4,0.2-12.8,1.7-19.2c0-0.2,0.1-0.4,0.1-0.6
			l1.5,0.4c-0.8,4-1.3,8.1-1.3,12.3c0,5.6-0.3,11.2-0.3,16.8c-0.1,5.5-0.6,11-0.7,16.5c0,6.4,0.6,12.7,1.3,19.1
			c0.3,2.4,0.4,4.8,0.3,7.2c-0.3,5.6-1,11.1-1.2,16.6c-0.2,5.5-0.6,10.9-0.3,16.4c0.6,10.4,0.5,20.7-0.5,31.1c0,0.5,0,0.9,0.6,1
			c0.1,0,0.2,0,0.3,0c0,1.1,0.1,2.3,0.2,3.5c0.1,0.6,0.1,1.2,0.2,1.8c-1.1-0.2-1.7-0.1-1.8,1.3c0,0.5-0.2,1-0.3,1.5
			c-0.5,6.4-1,12.9-1.8,19.3c-0.7,5.7-1.2,11.5-1.4,17.3c-0.2,4.7-0.5,9.3-0.3,14c0.1,2.3,0.7,4.5,0.7,6.8
			c0.1,5.7,0.3,11.4,0.3,17.1c0,2,0.4,4.1-0.1,6.1c-0.4,1.4,0.2,2.2,1.4,2.6c2.8,0.9,5.6,2,8.6,2.5c3.9,0.5,7.9,1,11.9,1.4
			c3.5,0.4,7.1,0.6,10.7,0.6c3.4,0,6.7,0,10.1,0.2c5,0.3,10-0.3,15,0.1c2.2,0.1,4.3-0.5,6.5-0.4c1.5,0.1,3.1,0.2,4.6,0.1
			c6.1-0.6,12.2-0.4,18.3-0.6c1.8,0,3.6,0.5,5.4,0.1c4.6-1,9.2-1,13.9-1.2c6.9-0.2,13.8-0.4,20.7-0.5c3.8-0.1,7.5-0.4,11.3-0.7
			c0.9-0.1,1.8,0.3,2.7,0.3l0.1,1.3c-3.4,0.2-6.7,0.3-10.1,0.6C135.6,266.1,131.8,266.2,127.9,266z"/>
		<path class="st6" d="M149.5,265.1l-0.1-1.3c0.2,0,0.3,0,0.5-0.1c2.6-0.7,5.3-0.7,7.9-0.8c4.7-0.3,9.3-1,14-1.1
			c5-0.1,10.1-0.7,15.1-1c4.2-0.2,8.3-0.4,12.5-0.5c4.5-0.1,9.1,0.5,13.5-1.2c0.2-0.1,0.4-0.1,0.6,0c2.2,0.5,4.5,0.5,6.7,0.3
			l0.1,2.1c-1,0.1-1.9,0.2-2.9,0.3c-0.5,0.1-1.1,0.2-1.6,0.2c-4.5,0.2-9,0.8-13.5,1.2c-3.7,0.3-7.5,0.5-11.2,0.4
			c-6.6-0.2-13.1,0.5-19.6,0.6c-5.3,0-10.7,0-16,0.5C153.6,264.8,151.5,265,149.5,265.1z"/>
		<path class="st1" d="M167.3,168.4c0,0-0.1-0.1-0.1-0.1c0,0,0,0,0,0C167.2,168.3,167.2,168.3,167.3,168.4
			C167.2,168.3,167.2,168.3,167.3,168.4C167.2,168.3,167.3,168.4,167.3,168.4z"/>
		<path class="st6" d="M119.3,5.8c1.6-0.1,3.2-0.3,4.8-0.5c4.9-0.7,9.6,0.2,14.3,0.2c0.2,0,0.4,0.1,0.6,0c7.2-0.5,14.4-0.1,21.6,0.1
			c6.9,0.2,13.9,0.3,20.8,0.7c6.3,0.3,12.7,0.5,19,0.7c5.2,0.1,10.3,0.7,15.5,0.9c0.7,0,1.4,0,2,0.1l0,1.8c-1.4-0.1-2.8-0.1-4.2,0
			c-1,0-2,0.1-3,0c-5.1-0.4-10.3-0.5-15.4-0.9c-2.4-0.2-4.9-0.2-7.3-0.2c-7.1,0-14.2-0.8-21.3-0.6c-4.4,0.1-8.7,0.1-13.1-0.1
			c-0.9,0-1.4,0.2-1.5,0.8c-0.7,0-1.4-0.1-2,0c-0.4-0.5-1.2-0.4-2.9-0.2c-0.2,0-0.3,0-0.5,0C145.6,9,145,7.7,144,7.6
			c-3.7-0.2-7.4-0.4-11.1-0.5c-3.4-0.1-6.8,0.2-10.2,0.2c-1.1,0-2.2,0-3.3,0.1L119.3,5.8z"/>
		<path class="st6" d="M228.7,261.4c-2.7-0.1-5.5-0.1-8.2,0.1l-0.1-2.1c1.4-0.1,2.8-0.3,4.3-0.5c4.1-0.5,8.3-0.2,12.5-1.3
			c2.5-0.7,5.4-1.3,8.2-0.4c0.3,0.1,0.7,0.1,0.9-0.1c0.7-0.8,1.6-0.6,2.4-0.3c1,0.3,2,0.2,3,0.3c2.4,0.2,4.7-0.5,7-0.6
			c0.7-0.1,1.5-0.3,2.1-0.6l1.2,1.4c-1.6,1.1-3.2,2.1-5.2,2.4c-1.9,0.4-3.9,0.3-5.8,1c-0.7,0.3-1.2-0.2-1.9-0.3
			c-3.3-0.2-6.6-0.1-9.9-0.2c-2.1-0.1-4.3,0.6-6.4,1.1C231.4,261.7,230,261.5,228.7,261.4z"/>
		<path class="st6" d="M262.9,196.9c0.2,7.5,1,14.9,1.7,22.4c0.4,4.4,1,8.7,1.4,13c0.4,4.3,0.5,8.5,0.6,12.8c0,2.4-0.1,4.9-1,7.2
			c-0.4,0.9,0.2,2.1-0.8,2.8c-0.9,0.7-1.9,1.4-2.8,2l-1.2-1.4c0.8-0.5,1.5-1.3,1.8-2.6c0.4-1.8,1.4-3.4,1-5.4
			c-0.1-0.3,0.6-0.8,0.1-1.2c-0.5-0.4-0.5,0.6-1.1,0.6c0.7-4.6,0.7-9.2,0.9-13.9c0.2-5.4-0.8-10.8-0.7-16.2c0-0.2,0-0.5,0-0.7
			c-0.9-3.1-0.8-6.4-1-9.6c-0.2-3.3-0.3-6.6-0.3-9.9L262.9,196.9z"/>
		<path class="st6" d="M259.3,16.8c0.7,6.8,2.4,13.5,2.3,21.1c0.1,2.1,0.2,4.3,0.3,6.5l-1.8,0.1c-0.1-2.2-0.3-4.4-0.4-6.5
			c-0.2-7-1.2-13.8-2.4-20.7c-0.2-0.9-0.4-1.7-1-2.2c-1.3-1.1-2.5-2.4-3.9-3.3c-0.8-0.5-1.7-1.3-2.8-1.1c-3,0.4-6,0.2-9.1-0.2
			c-4.4-0.5-8.8-0.2-13.2-0.3c-3.1-0.1-6.3-0.4-9.4-0.5l0-1.8c9.5,0.3,19,0.5,28.5,0.2c4.9-0.1,8.6,2.4,11.8,6
			C259,14.9,259.2,15.9,259.3,16.8z"/>
		<path class="st6" d="M260.3,47.1c0-0.8,0-1.7-0.1-2.5l1.8-0.1c0.2,4.9,0.5,10,0.8,15.1c0.3,4.9,0.6,9.8,0.5,14.7
			c-0.1,5,0.3,10.1-0.1,15.1c-0.8,10.2-0.1,20.3-0.2,30.5c-0.1,5.1,0.4,10.2,0.5,15.3c0.1,7.1-0.2,14.2-0.6,21.2
			c-0.3,5.4,0,10.7-0.3,16.1c-0.3,6.1,0.6,12.2,0.4,18.3c-0.1,2.1-0.1,4.1,0,6.2l-1.7,0c-0.2-6.6-0.3-13.2-0.5-19.7
			c-0.2-8.8,0.1-17.7,0.5-26.5c0.3-7.8,0.6-15.7,0-23.6c-0.6-7.4-0.4-14.9-0.3-22.4c0.1-3.9-0.1-7.9,0.1-11.8
			c0.3-4.3,0.5-8.7,0.3-13c0-0.5-0.1-0.8-0.3-1c0-1.1-0.1-2.1-0.2-3.2c0.4-0.3,0.4-0.8,0.4-1.6C261.4,65.1,260.4,56.1,260.3,47.1z"
			/>
	</g>
	<g>
	</g>
</g>
<text transform="matrix(1 0 0 1 37.1 46.9722)"><tspan x="0" y="0" class="st7 st8">B.C</tspan><tspan x="53" y="0" class="st7 st9"> </tspan><tspan x="60.2" y="0" class="st7 st10">(Before Coffee)</tspan></text>
</svg>
