<?xml version="1.0" encoding="utf-8"?>
<!-- Generator: Adobe Illustrator 19.2.1, SVG Export Plug-In . SVG Version: 6.00 Build 0)  -->
<!DOCTYPE svg PUBLIC "-//W3C//DTD SVG 1.1//EN" "http://www.w3.org/Graphics/SVG/1.1/DTD/svg11.dtd">
<svg version="1.1" xmlns="http://www.w3.org/2000/svg" xmlns:xlink="http://www.w3.org/1999/xlink" x="0px" y="0px"
	 viewBox="0 0 324 325.3" style="enable-background:new 0 0 324 325.3;" xml:space="preserve">
<style type="text/css">
	.st0{fill:none;}
	.st1{display:none;}
	.st2{display:inline;fill:#232323;}
	.st3{display:inline;}
	.st4{fill:#FFFFFF;}
	.st5{fill:#FAFBFB;}
	.st6{fill:#232323;}
	.st7{fill:#1A181B;}
	.st8{fill:url(#SVGID_1_);}
	.st9{opacity:0.75;fill:#232323;}
</style>
<pattern  x="-23" y="-15" width="36.5" height="36.5" patternUnits="userSpaceOnUse" id="New_Pattern_Swatch_2" viewBox="0 -36.5 36.5 36.5" style="overflow:visible;">
	<g>
		<rect x="0" y="-36.5" class="st0" width="36.5" height="36.5"/>
		<g id="EAC7Ka_5_">
			
				<image style="overflow:visible;" width="152" height="152" id="EAC7Ka_6_" xlink:href="D0EB263FC73DE005.jpg"  transform="matrix(0.24 0 0 0.24 0 -36.48)">
			</image>
		</g>
	</g>
</pattern>
<g id="Layer_1" class="st1">
	<circle class="st2" cx="157" cy="165" r="144"/>
	<text transform="matrix(1 0 0 1 364.9998 48.1057)" style="display:inline;fill:#FFFFFF; font-family:'Courier'; font-size:72px;">&lt;code&gt;</text>
	<g class="st3">
		<path class="st4" d="M103.1,157.2v-0.1c0-0.8,0.2-1.3,0.7-1.7c0.4-0.4,1.1-0.5,2.1-0.5c1,0,1.6,0.3,2,0.8c0.4,0.6,0.5,1.7,0.5,3.5
			v6.5c0,0.9-0.2,1.5-0.7,2c-0.4,0.4-1.1,0.7-2,0.7c-0.6,0-1.2-0.2-1.6-0.5c-0.5-0.4-1-1.1-1.7-2.3c-1.1-1.9-2.5-3.3-4.1-4.3
			c-1.6-1-3.5-1.5-5.5-1.5c-3.7,0-6.6,1.1-8.9,3.2c-2.3,2.2-3.4,4.9-3.4,8.4c0,3.5,1.1,6.3,3.3,8.6c2.2,2.2,5,3.3,8.5,3.3
			c1.6,0,3.1-0.2,4.5-0.7c1.4-0.4,2.8-1.1,4-2c0.4-0.3,1-0.7,1.8-1.3c1.5-1.2,2.7-1.9,3.6-1.9c0.7,0,1.3,0.2,1.8,0.7s0.7,1,0.7,1.8
			c0,1.9-1.8,3.7-5.3,5.7c-3.5,1.9-7.2,2.9-11.2,2.9c-5.1,0-9.3-1.6-12.7-4.9c-3.4-3.3-5.1-7.3-5.1-12.2s1.7-8.9,5.1-12.2
			s7.6-4.9,12.7-4.9c1.8,0,3.6,0.2,5.4,0.7C99.2,155.4,101.1,156.2,103.1,157.2z"/>
		<path class="st4" d="M154.2,171.4c0,5-1.7,9.1-5.1,12.3c-3.4,3.2-7.9,4.8-13.3,4.8c-5.4,0-9.9-1.6-13.3-4.8
			c-3.4-3.2-5.1-7.3-5.1-12.3s1.7-9.1,5.1-12.3c3.4-3.2,7.9-4.8,13.3-4.8c5.4,0,9.9,1.6,13.3,4.8
			C152.5,162.3,154.2,166.4,154.2,171.4z M135.7,183.5c3.6,0,6.6-1.1,8.9-3.4c2.3-2.3,3.5-5.2,3.5-8.7s-1.2-6.5-3.5-8.8
			c-2.3-2.3-5.3-3.5-8.9-3.5s-6.5,1.2-8.8,3.5c-2.3,2.3-3.5,5.2-3.5,8.8c0,3.6,1.1,6.5,3.4,8.7C129.2,182.4,132.1,183.5,135.7,183.5
			z"/>
		<path class="st4" d="M189.5,187.6c-0.5,0-0.8-0.1-1-0.4s-0.3-0.7-0.3-1.4v-2.9c-1.4,1.8-3.2,3.1-5.3,4.1c-2.1,1-4.4,1.5-6.9,1.5
			c-4.4,0-8.1-1.6-11.1-4.7c-3-3.2-4.5-7.1-4.5-11.8c0-4.9,1.6-8.9,4.8-12.1c3.2-3.2,7.2-4.8,11.9-4.8c2.4,0,4.6,0.4,6.5,1.3
			c1.9,0.9,3.6,2.1,5,3.8v-13.5h-1.9c-2,0-3.4-0.2-4-0.5c-0.6-0.4-0.9-1-0.9-2c0-0.8,0.2-1.5,0.7-1.9s1.2-0.6,2.1-0.6h7.2
			c0.7,0,1.2,0.1,1.5,0.4c0.3,0.2,0.5,0.6,0.5,1.1v39.6h1.6c1.1,0,2,0.2,2.5,0.6s0.8,1,0.8,1.8c0,0.8-0.2,1.4-0.7,1.9
			c-0.4,0.4-1,0.7-1.8,0.7H189.5z M166.5,171.8c0,3.2,1,5.9,3.1,7.9c2.1,2.1,4.7,3.1,7.9,3.1c3.2,0,5.9-1.1,8-3.2s3.1-4.9,3.1-8.2
			c0-3.3-1-5.9-3.1-8.1s-4.7-3.2-8-3.2c-3.3,0-6,1.1-8,3.2C167.5,165.6,166.5,168.3,166.5,171.8z"/>
		<path class="st4" d="M210.2,172.9c0.2,3.4,1.3,6,3.4,7.8s5,2.8,8.6,2.8c2.7,0,5.7-0.7,9-2.2c3.2-1.5,5.2-2.2,5.9-2.2
			c0.7,0,1.3,0.2,1.8,0.7c0.5,0.4,0.7,1,0.7,1.7c0,0.7-0.2,1.3-0.7,1.9c-0.5,0.6-1.3,1.1-2.4,1.6c-2.3,1.1-4.8,2-7.3,2.6
			c-2.5,0.6-5,0.9-7.4,0.9c-5.3,0-9.6-1.5-12.8-4.6c-3.2-3.1-4.8-7.2-4.8-12.3c0-5.2,1.7-9.4,5.1-12.6c3.4-3.2,7.8-4.8,13.3-4.8
			c4.9,0,9,1.5,12.3,4.5c3.3,3,4.9,6.6,4.9,10.9c0,1.3-0.3,2.2-0.8,2.6c-0.6,0.4-2,0.7-4.5,0.7h-0.5H210.2z M210.4,168.3h22.9
			c-0.4-2.8-1.5-5-3.5-6.7c-2-1.7-4.4-2.5-7.3-2.5c-3.1,0-5.7,0.8-7.9,2.5C212.5,163.1,211.1,165.4,210.4,168.3z"/>
	</g>
	<g class="st3">
		<path class="st4" d="M34.7,164.7l26.6,28c1.1,1.2,1.8,2.3,2.3,3.4c0.5,1.1,0.7,2.4,0.7,3.9c0,1.7-0.2,3-0.6,4
			c-0.4,1-1,1.5-1.8,1.5c-0.3,0-0.7-0.1-1.1-0.4c-0.4-0.3-1-0.8-1.7-1.7l-28.9-30.8c-0.1-0.1-0.2-0.2-0.4-0.3
			c-2.2-2.3-3.3-4.9-3.3-7.6c0-2.8,1.1-5.3,3.3-7.5c0.2-0.2,0.3-0.4,0.4-0.5l28.9-30.3c0.7-0.7,1.2-1.2,1.7-1.5
			c0.5-0.3,0.9-0.5,1.2-0.5c0.8,0,1.3,0.5,1.8,1.4c0.4,0.9,0.6,2.2,0.6,3.8c0,1.5-0.2,2.8-0.7,3.9c-0.5,1.1-1.2,2.3-2.3,3.4
			L34.7,164.7z"/>
		<path class="st4" d="M279.3,164.7L252.7,137c-1.1-1.2-1.9-2.3-2.4-3.4c-0.5-1.1-0.7-2.4-0.7-3.9c0-1.6,0.2-2.9,0.6-3.8
			c0.4-0.9,1-1.4,1.7-1.4c0.4,0,0.8,0.2,1.2,0.5c0.4,0.3,1,0.8,1.7,1.5l28.9,30.3c0.1,0.1,0.2,0.3,0.4,0.5c2.2,2.2,3.3,4.7,3.3,7.5
			c0,2.7-1.1,5.2-3.2,7.5c-0.2,0.2-0.4,0.4-0.5,0.5l-28.9,30.8l-0.1,0.2c-1.3,1.3-2.2,1.9-2.8,1.9c-0.7,0-1.3-0.5-1.7-1.5
			c-0.4-1-0.6-2.3-0.6-4c0-1.4,0.2-2.7,0.7-3.9c0.5-1.1,1.2-2.3,2.4-3.4L279.3,164.7z"/>
	</g>
</g>
<g id="Layer_1_copy">
	<rect x="0.3" y="0.3" class="st5" width="324" height="324"/>
	<circle class="st6" cx="159.5" cy="157.5" r="144"/>
	<g>
		<g>
			<g>
				<g>
					<g>
						<g>
							<path class="st4" d="M162.1,57.4l-0.2,0.7C162,58.1,162.1,58,162.1,57.4z"/>
							<path class="st4" d="M162.2,239.4c0,0.1,0,0.1,0,0.2C162.2,239.5,162.2,239.4,162.2,239.4z"/>
							<path class="st4" d="M155.1,85.4C155.1,85.4,155.1,85.3,155.1,85.4c0-0.1,0-0.2-0.1-0.2L155.1,85.4z"/>
							<path class="st4" d="M155.7,48.7c-0.3,9.6-1.2,12.2-0.8,22.2c-0.1,4.8,0.1,9.8,0.3,14.5c0.8,2.2,0,6.1,0.6,8.7l-0.4,1
								c0.2,0.9,0.4,2,0.1,2.9l-0.1-0.1c0.3,1.3,0.1,2.9,0.3,3.5l-0.1-0.1l0.1,1.6l-0.2-0.3c0.3,2.3,0.4,4.8,0.2,6.9l0.5-0.2
								c-0.6,4.6,0.5,6.2-0.2,10.3l-0.1-0.1c1.4,5.2-0.9,8.2,0.4,13.6c-0.2-0.7-0.3,0.3-0.4,0.2c0.1,2.5,0.2,5.1,1.2,5.1
								c0,1.8-0.3,1.5-0.7,1.7c0.4,0,0.6,1.6,0.7,3l-0.2-0.6l0.2,4l0.8-0.8c-0.2,2.1-1,0.5-0.8,2.6l0.7,0c-0.1,2.9-1.2,4.7-1.7,7.5
								c-0.3,11.9,1.5,24.6,0.3,35.6l-0.5,0.5c-0.8,0.2,1.1,3,0.4,3.5l0.3,1.3c-0.1,0.4-0.3,1.1-0.5,0.5c0,1.2,0.1,1.2,0.3,2.1
								l-0.5,1.3c-0.4,4.7,0.5,8.7,0.4,13.6c-1,5.9-0.1,17.1,0.4,23.5c1.1,9-1.9,19.5-0.6,28.8c-0.1,0.3,0.1,1.1,0.2,1.1l-0.1,8.5
								c0,0-0.3,41,6,9.9l0.2,0.2c0.4-4.6,0.5-7.5-0.3-10.7c1-0.5,0.1-3.8,0.4-4.9l0.1,0.1c-0.8-2.8,0.7-5.8-0.1-8.5
								c0.1,0.1,0.4,0.2,0.4,0.8c-0.1-2-0.4-4.7,0.2-4.8c-0.2-4.7,0.1-11.3-0.8-14.4l0.2,0.2c-0.6-1.7-0.1-2.2-0.4-4.2
								c0.1-0.1,0.1-0.2,0.2-0.2c-0.6-1.9-0.1-5.5-0.4-7l0.4-0.1l-0.1-3.8L162,230c-1.1-0.5,0.7-2.8,0-5.6c0.1-2.5-2.3-5.2-1.7-7.8
								c-0.5-1.3,0.8,1.1,0.4-0.8c0.6-0.1,0.4,0.9,0.8,0.4c-0.3-1.9,0.6-3,0.2-5.3l0.4-0.1c-0.8-3,0.6-5.6-0.2-7.6
								c-0.4-3.1,1.3-2.1,0.4-5.3l0.6-1.2c0.1-1.4-0.7-1-0.4-2.5c0.4,0.1,0.3-1.9,0.7-1c0.6-3.4-0.8-7,0.2-11.5
								c-0.7-1-0.3-3.3-0.8-4c0.3-0.1,0.1-4.6,0.7-2c0.1,0.2,0,0.6-0.1,0.6l0.4,0.3c0.8-2.6-0.5-4.7-0.3-7.2
								c-0.1,0.8-0.1,1.8-0.4,1.1l0.1-2.4l0.4,0.5l0.2-3.5l-0.5,0.5c0.2-1.7,1-2.3,0.4-4.3c-0.4-0.9-0.6,1.6-0.8-0.2
								c0.3-2.3,0.8-5.8,0.9-8.7c-0.5,0.3-0.5-0.5-0.6-1.3l0.4-0.1c-0.6-3.1,1-1.1,0.5-4.3l0.3,0.3l-0.9-0.8
								c-0.9-2.8,0.9-1.5-0.3-4.6c0.1,1.2-1,0.6-0.8-0.9l0.4,0.4c-0.1-0.8-0.3-1.1-0.2-1.7c0.2,0.5,0.6,0.3,0.5-1l0.5,0.8l-0.8-2.3
								c0.5-1.8-0.1-4.7,0.5-5.4c0,0,0.3-3.9-0.4-4.8c0.4,0.8,0.6-1.4,1-0.7c-0.5-1-0.8-4-0.3-5.2l0.1,0.2c0.5-4.4-0.7-7.5-0.1-11.4
								c-0.5,0.2-0.2-1.9-0.9-1.4c-0.6-4.1,1.3-7.4-0.7-8.9c-0.1-1.9,0.5-2.2,0.6-3.2l0.1,0.4c-0.2-3.5-0.2-4.5-0.1-7.1
								c-0.2-1.3-1.1-1.5-0.9-3.8c0.4,0.7,0.3-0.2,0.3-1.1c0.1,0.6,0.2,0.7,0.4-0.4c-0.1-0.2-0.2-0.4-0.2-0.6c0,0,0.1-0.1,0.1,0
								c-0.1-1.4-0.2-1.2-0.3-0.5c-0.1,0-0.1,0-0.2,0.2c0.5-1.5,0-4.2,0.6-4.3c-0.1-4.3-0.8-7.4-1.1-11c0.3-0.4,0.6,0.4,0.8,1.5
								l-0.1-2.6c0.5,0,0.3,1.5,0.4,2.3c0.8-3-0.8-6.3-0.1-9.8l-0.4-0.7l0.1-0.2c-0.2,0-0.5-0.8-0.5-1.3c0.4-0.5,1,0,0.9-1.7
								c0.4-1.4-0.2-4-0.4-5.8c-0.1,1-0.3,0.7-0.4,0.2c0-0.9,0.4-1.4,0.2-2.1l0.6-0.1c-0.5,0.3-0.6-2.3-0.8-2.6
								c0.4-0.5,0.4,1.4,0.7,1.6c-0.1-3.5,0-1.8-0.1-5.3c-0.4-1.9-0.5,0.3-1-0.6c-0.1-1.7-0.5-3.3-0.2-5.2l-0.5,0.6
								c-0.4-3.1-0.3-5,0.2-7.1c-4.1-23.4-5.5-4.9-5.5-4.9C153.9,33,155.3,37.7,155.7,48.7z"/>
						</g>
					</g>
				</g>
			</g>
		</g>
		<g>
			<g>
				<g>
					<g>
						<g>
							<path class="st4" d="M187.9,61.5l-0.4,0.6C187.6,62.2,187.8,62,187.9,61.5z"/>
							<path class="st4" d="M140.9,237.3c0,0.1,0,0.1,0,0.2C140.9,237.4,140.9,237.3,140.9,237.3z"/>
							<path class="st4" d="M174,86.7C174,86.7,174,86.7,174,86.7c0-0.1,0-0.2,0-0.2L174,86.7z"/>
							<path class="st4" d="M184,51.4c-2.7,9.2-4.3,11.4-6.5,21.2c-1.3,4.6-2.4,9.5-3.5,14.1c0.2,2.3-1.6,5.9-1.6,8.6l-0.7,0.9
								c0,0.9-0.2,2-0.6,2.8l-0.1-0.1c0,1.4-0.6,2.8-0.6,3.5l-0.1-0.1l-0.4,1.6l-0.1-0.3c-0.3,2.4-0.9,4.7-1.6,6.7l0.5,0
								c-1.7,4.2-1.1,6.1-2.9,9.9l-0.1-0.1c0,5.4-3,7.7-3.2,13.2c0-0.7-0.3,0.2-0.4,0.1c-0.5,2.4-1.1,5-0.1,5.3
								c-0.5,1.7-0.7,1.3-1.1,1.5c0.4,0.1,0.2,1.7-0.1,3l0-0.7l-0.9,3.9l1-0.5c-0.8,2-1.1,0.3-1.5,2.3l0.7,0.2
								c-0.9,2.8-2.4,4.2-3.6,6.8c-3.4,11.4-4.9,24.2-9,34.5l-0.6,0.3c-0.8,0,0.3,3.2-0.5,3.5l0,1.3c-0.2,0.3-0.6,1-0.6,0.3
								c-0.3,1.1-0.2,1.2-0.2,2.1l-0.8,1.1c-1.6,4.4-1.7,8.5-3.2,13.2c-2.5,5.5-4.5,16.5-5.7,22.8c-1.2,9-6.9,18.4-8,27.6
								c-0.2,0.3-0.1,1.1-0.1,1.1l-2.3,8.1c0,0-10.9,39.5,3.3,11.1l0.1,0.2c1.6-4.4,2.4-7.2,2.4-10.5c1.1-0.2,1.1-3.6,1.7-4.6
								l0.1,0.1c0-2.9,2.1-5.4,2.2-8.3c0.1,0.1,0.3,0.3,0.2,0.9c0.4-1.9,0.9-4.6,1.5-4.6c1.1-4.6,3.1-10.9,2.9-14.1l0.1,0.2
								c-0.2-1.8,0.5-2.2,0.7-4.1c0.1-0.1,0.2-0.2,0.2-0.2c-0.1-2,1.3-5.3,1.5-6.9l0.4,0l0.9-3.6l-0.4,1.3c-0.9-0.8,1.4-2.6,1.4-5.4
								c0.8-2.4-0.8-5.6,0.4-8c-0.2-1.4,0.5,1.3,0.6-0.6c0.6,0.1,0.1,0.9,0.7,0.6c0.2-1.9,1.3-2.8,1.6-5.1l0.5,0
								c0-3.1,2-5.3,1.8-7.4c0.4-3.1,1.8-1.6,1.8-5l0.9-1c0.4-1.3-0.5-1.1,0.2-2.5c0.3,0.2,0.8-1.8,0.9-0.8c1.5-3.2,1-7,3.1-11.1
								c-0.5-1.1,0.6-3.2,0.2-4.1c0.3,0,1.2-4.4,1.2-1.7c0,0.2-0.1,0.6-0.2,0.5l0.3,0.4c1.5-2.3,0.8-4.6,1.6-7.1
								c-0.3,0.7-0.6,1.7-0.7,0.9l0.7-2.3l0.2,0.6l1.1-3.4l-0.6,0.4c0.7-1.6,1.6-2,1.5-4c-0.1-0.9-1,1.4-0.7-0.4
								c0.9-2.2,2.2-5.4,3.1-8.2c-0.6,0.1-0.3-0.6-0.2-1.4l0.5,0c0.2-3.2,1.2-0.9,1.6-4l0.2,0.3l-0.7-1c-0.1-2.9,1.3-1.2,0.9-4.5
								c-0.2,1.2-1.1,0.3-0.5-1.1l0.3,0.5c0.1-0.8,0-1.2,0.3-1.7c0.1,0.5,0.5,0.4,0.8-0.8l0.3,0.9l-0.2-2.5c0.9-1.6,1.1-4.5,1.9-5.1
								c0,0,1.3-3.7,0.9-4.7c0.2,0.9,0.9-1.2,1.2-0.5c-0.2-1.1,0.2-4.1,1-5.1l0,0.2c1.6-4.1,1.3-7.4,2.9-11.1
								c-0.5,0,0.3-1.9-0.5-1.6c0.4-4.1,3.2-6.8,1.6-8.8c0.4-1.8,1-2,1.4-2.9l0,0.5c0.7-3.4,1-4.4,1.7-6.9c0.1-1.3-0.7-1.7,0.1-3.9
								c0.2,0.8,0.3-0.1,0.6-0.9c-0.1,0.5,0,0.7,0.5-0.3c-0.1-0.2-0.1-0.4-0.1-0.7c0,0,0.1,0,0.1,0c0.2-1.4,0.1-1.2-0.2-0.6
								c0,0-0.1,0-0.3,0.2c0.9-1.3,1-4,1.7-4c1-4.2,1.1-7.4,1.8-10.9c0.4-0.3,0.5,0.6,0.3,1.6l0.5-2.5c0.5,0.1-0.1,1.5-0.2,2.3
								c1.5-2.7,0.9-6.3,2.5-9.5l-0.2-0.8l0.1-0.2c-0.2,0-0.2-0.9-0.2-1.4c0.5-0.4,0.9,0.3,1.3-1.4c0.7-1.2,0.8-3.9,1.1-5.7
								c-0.3,0.9-0.5,0.6-0.5,0.1c0.2-0.9,0.7-1.2,0.8-1.9l0.6,0.1c-0.6,0.2,0-2.4-0.1-2.8c0.5-0.4,0,1.4,0.2,1.7
								c0.9-3.4,0.4-1.7,1.3-5.2c0.1-1.9-0.6,0.2-0.8-0.8c0.3-1.6,0.4-3.3,1.2-5.1l-0.6,0.5c0.4-3.1,1-4.9,2-6.8
								c2.1-23.6-4.1-6.2-4.1-6.2C186.3,35.8,186.5,40.7,184,51.4z"/>
						</g>
					</g>
				</g>
			</g>
		</g>
		<g>
			<g>
				<g>
					<g>
						<g>
							<path class="st4" d="M211.8,72.1l-0.5,0.5C211.4,72.7,211.5,72.6,211.8,72.1z"/>
							<path class="st4" d="M120.9,229.8c0,0.1,0,0.1,0,0.2C120.9,229.8,120.9,229.8,120.9,229.8z"/>
							<path class="st4" d="M191.8,92.9C191.8,92.8,191.8,92.8,191.8,92.9c0-0.1,0.1-0.2,0.1-0.2L191.8,92.9z"/>
							<path class="st4" d="M210.6,61.4c-5,8.2-7.1,9.9-11.8,18.8c-2.4,4.1-4.8,8.6-7,12.7c-0.5,2.3-3,5.3-3.8,7.9l-0.9,0.7
								c-0.3,0.9-0.7,1.9-1.3,2.5l-0.1-0.1c-0.4,1.3-1.3,2.5-1.5,3.2l-0.1-0.1l-0.8,1.4l0-0.3c-0.9,2.2-2.1,4.3-3.3,6.1l0.5,0.1
								c-2.8,3.7-2.7,5.6-5.3,8.8l-0.1-0.1c-1.4,5.2-4.9,6.6-6.5,11.9c0.2-0.7-0.4,0.1-0.5,0c-1.1,2.2-2.4,4.5-1.5,5.1
								c-0.9,1.5-1,1.1-1.5,1.1c0.4,0.2-0.2,1.7-0.9,2.9l0.2-0.6l-1.9,3.6l1.1-0.3c-1.3,1.7-1.2,0-2,1.8l0.6,0.3
								c-1.6,2.5-3.4,3.5-5.2,5.7c-6.2,10.1-11,22.1-17.6,31l-0.7,0.2c-0.8-0.2-0.5,3.2-1.4,3.2l-0.3,1.3c-0.3,0.2-0.8,0.8-0.6,0.2
								c-0.6,1-0.5,1.1-0.8,2l-1,0.9c-2.7,3.9-3.9,7.8-6.5,12c-3.8,4.6-8.6,14.7-11.4,20.6c-3.5,8.4-11.4,16-14.9,24.6
								c-0.2,0.2-0.4,1-0.3,1l-4.3,7.3c0,0-20.8,35.4,0.3,11.5l0,0.3c2.7-3.8,4.2-6.3,5.1-9.5c1.1,0.1,2-3.2,2.8-4l0,0.1
								c0.7-2.8,3.5-4.7,4.2-7.4c0,0.1,0.2,0.3-0.1,0.9c0.9-1.8,2-4.2,2.6-4.1c2.2-4.2,5.8-9.8,6.5-12.9l0,0.3c0.3-1.8,1-2,1.7-3.8
								c0.1-0.1,0.2-0.2,0.2-0.1c0.4-1.9,2.7-4.8,3.2-6.3l0.4,0.1l1.8-3.3l-0.8,1.2c-0.7-1,2-2.1,2.8-4.8c1.4-2.1,0.6-5.6,2.4-7.6
								c0.2-1.3,0.2,1.4,0.8-0.5c0.5,0.2-0.1,0.9,0.5,0.7c0.7-1.7,2-2.3,2.8-4.5l0.4,0.1c0.8-3,3.3-4.6,3.6-6.7
								c1.2-2.8,2.2-1.1,3-4.3l1.1-0.8c0.8-1.1-0.1-1.2,0.9-2.4c0.3,0.3,1.2-1.5,1.1-0.6c2.2-2.7,2.8-6.5,5.9-9.9
								c-0.1-1.2,1.4-3,1.3-3.9c0.3,0.1,2.3-3.9,1.6-1.4c-0.1,0.2-0.3,0.5-0.4,0.5l0.2,0.5c2-1.8,2-4.3,3.3-6.4
								c-0.5,0.6-1,1.5-0.9,0.7l1.2-2l0.1,0.6l2-3l-0.6,0.2c1.1-1.4,2-1.5,2.5-3.5c0.1-0.9-1.3,1.1-0.6-0.5c1.4-1.8,3.6-4.6,5.2-7.1
								c-0.6,0-0.2-0.7,0.2-1.5l0.4,0.1c1-3,1.4-0.5,2.5-3.4l0.1,0.4l-0.4-1.2c0.6-2.9,1.6-0.9,2.1-4.1c-0.6,1.1-1.1,0-0.2-1.2
								l0.2,0.5c0.3-0.8,0.3-1.1,0.7-1.5c-0.1,0.5,0.4,0.5,1-0.6l0,1l0.5-2.4c1.3-1.3,2.2-4.1,3.1-4.4c0,0,2.2-3.2,2.1-4.3
								c0,0.9,1.2-0.9,1.3-0.1c0.1-1.1,1.3-3.9,2.3-4.6l-0.1,0.2c2.6-3.5,3.2-6.8,5.7-9.9c-0.5-0.1,0.7-1.8-0.1-1.6
								c1.5-3.9,4.9-5.8,3.8-8.1c0.8-1.7,1.5-1.7,2.1-2.4l-0.1,0.4c1.6-3.1,2.1-4,3.4-6.2c0.5-1.2-0.2-1.9,1.1-3.7
								c0,0.8,0.4,0,0.8-0.8c-0.2,0.5-0.2,0.7,0.6-0.1c0-0.2,0-0.4,0.1-0.7c0,0,0.1,0,0.1,0c0.6-1.3,0.4-1.2,0-0.6
								c0-0.1-0.1,0-0.3,0.1c1.2-1.1,2.1-3.6,2.7-3.5c2-3.8,3-6.8,4.6-10.1c0.5-0.2,0.3,0.7-0.1,1.7l1.2-2.3
								c0.4,0.3-0.5,1.4-0.8,2.1c2.2-2.3,2.5-5.8,4.9-8.6l0-0.8l0.2-0.2c-0.2-0.1,0-0.9,0.2-1.4c0.6-0.2,0.8,0.5,1.7-1
								c1-1,1.8-3.5,2.5-5.2c-0.6,0.8-0.6,0.4-0.5,0c0.4-0.8,1-1,1.2-1.7l0.5,0.2c-0.6,0,0.7-2.3,0.6-2.7c0.6-0.2-0.4,1.4-0.2,1.7
								c1.7-3.1,0.9-1.5,2.6-4.6c0.6-1.8-0.6,0-0.6-1c0.7-1.5,1.2-3.1,2.5-4.6l-0.7,0.3c1.2-2.9,2.2-4.5,3.7-6.1
								c8.2-22.3-2.3-7-2.3-7C216.9,46.9,215.8,51.7,210.6,61.4z"/>
						</g>
					</g>
				</g>
			</g>
		</g>
		<g>
			<g>
				<g>
					<g>
						<g>
							<path class="st4" d="M232.1,88.6l-0.7,0.4C231.6,89,231.7,88.9,232.1,88.6z"/>
							<path class="st4" d="M103.5,217.3c0,0.1-0.1,0.1-0.1,0.2C103.5,217.4,103.5,217.3,103.5,217.3z"/>
							<path class="st4" d="M207.4,103.4C207.5,103.4,207.5,103.4,207.4,103.4c0.1-0.1,0.1-0.1,0.1-0.2L207.4,103.4z"/>
							<path class="st4" d="M233.8,77.9c-7,6.6-9.5,7.8-16.2,15.1c-3.4,3.3-6.9,7.1-10.1,10.4c-1,2.1-4.3,4.3-5.7,6.6l-1,0.4
								c-0.5,0.8-1.1,1.6-1.9,2.1l0-0.1c-0.7,1.2-1.9,2.1-2.3,2.7l0-0.1l-1.1,1.2l0.1-0.3c-1.4,1.9-3.1,3.6-4.7,5l0.5,0.2
								c-3.6,2.8-4,4.7-7.4,7.2l0-0.1c-2.7,4.6-6.5,5.2-9.3,9.9c0.4-0.6-0.4,0-0.4-0.1c-1.6,1.8-3.4,3.8-2.8,4.5
								c-1.3,1.3-1.3,0.8-1.7,0.7c0.3,0.3-0.7,1.5-1.6,2.6l0.3-0.6l-2.7,2.9l1.2,0c-1.7,1.3-1.1-0.3-2.4,1.2l0.5,0.5
								c-2.2,2-4.1,2.5-6.5,4.1c-8.6,8.2-16.4,18.4-25,25.4l-0.7,0c-0.7-0.4-1.4,3-2.2,2.8l-0.7,1.2c-0.4,0.2-1,0.6-0.7,0
								c-0.9,0.8-0.8,0.9-1.2,1.7l-1.2,0.6c-3.6,3.1-5.7,6.5-9.4,9.9c-4.9,3.5-12.1,12-16.3,16.9c-5.6,7.2-15.1,12.5-20.8,19.9
								c-0.3,0.1-0.7,0.9-0.6,0.9l-6.1,5.9c0,0-29.2,28.8-2.7,11.2l0,0.3c3.6-3,5.7-5,7.3-7.8c1.1,0.4,2.8-2.6,3.8-3.1l0,0.1
								c1.4-2.6,4.6-3.6,6-6.1c0,0.1,0.1,0.4-0.3,0.8c1.3-1.5,3.1-3.6,3.6-3.3c3.2-3.5,8.1-7.9,9.6-10.8l0,0.3
								c0.8-1.7,1.5-1.7,2.7-3.2c0.1,0,0.3-0.1,0.3,0c0.9-1.8,3.8-4,4.7-5.2l0.3,0.2l2.6-2.7l-1.1,0.9c-0.4-1.1,2.5-1.5,3.9-3.9
								c1.9-1.7,2.1-5.3,4.3-6.7c0.5-1.3-0.2,1.4,0.9-0.2c0.4,0.4-0.4,0.9,0.3,0.9c1.1-1.5,2.6-1.7,3.9-3.6l0.4,0.2
								c1.5-2.7,4.4-3.6,5.2-5.5c1.9-2.4,2.4-0.5,4-3.4l1.3-0.5c1-0.9,0.2-1.2,1.5-2.1c0.2,0.3,1.6-1.1,1.2-0.3c2.8-2,4.3-5.5,8.2-8
								c0.2-1.2,2.1-2.5,2.2-3.4c0.3,0.1,3.3-3.2,1.9-0.9c-0.1,0.2-0.4,0.5-0.5,0.4l0.1,0.5c2.4-1.2,3-3.6,4.9-5.4
								c-0.6,0.4-1.3,1.2-1.1,0.5l1.7-1.6l-0.1,0.6l2.6-2.3l-0.7,0c1.4-1.1,2.4-0.9,3.3-2.8c0.4-0.9-1.6,0.7-0.4-0.7
								c1.9-1.4,4.6-3.5,6.8-5.5c-0.6-0.2,0-0.7,0.5-1.4l0.4,0.2c1.8-2.6,1.5-0.1,3.4-2.7l0,0.4l-0.1-1.2c1.4-2.6,1.7-0.4,3.1-3.5
								c-0.8,0.9-1.1-0.3,0.1-1.2l0,0.6c0.5-0.7,0.6-1,1.1-1.3c-0.2,0.5,0.3,0.6,1.1-0.3l-0.2,1l1.1-2.2c1.6-0.9,3.2-3.4,4.2-3.5
								c0,0,2.9-2.5,3.1-3.6c-0.3,0.8,1.4-0.6,1.3,0.2c0.4-1,2.2-3.4,3.4-3.9l-0.1,0.2c3.5-2.7,4.8-5.8,8-8.1
								c-0.5-0.2,1.2-1.5,0.4-1.6c2.4-3.3,6.2-4.3,5.8-6.8c1.2-1.4,1.9-1.2,2.6-1.8l-0.2,0.4c2.3-2.6,3-3.3,4.9-5.1
								c0.8-1.1,0.2-1.9,2-3.3c-0.3,0.8,0.4,0.1,1-0.5c-0.3,0.4-0.4,0.6,0.6,0c0-0.2,0.2-0.4,0.3-0.6c0,0,0.1,0,0.1,0
								c0.9-1.1,0.7-1,0.2-0.6c0-0.1-0.1-0.1-0.3,0c1.4-0.7,2.9-3,3.5-2.6c3-3.2,4.7-5.8,7-8.6c0.5-0.1,0.1,0.8-0.5,1.6l1.7-1.9
								c0.3,0.4-0.8,1.2-1.3,1.9c2.7-1.6,3.9-5,6.9-7l0.3-0.8l0.2-0.1c-0.1-0.1,0.2-0.9,0.6-1.3c0.7-0.1,0.7,0.7,1.9-0.6
								c1.3-0.7,2.7-2.9,3.8-4.4c-0.7,0.6-0.7,0.3-0.5-0.1c0.6-0.6,1.3-0.7,1.6-1.3l0.5,0.3c-0.6-0.1,1.2-2,1.3-2.4
								c0.6-0.1-0.7,1.2-0.7,1.6c2.5-2.5,1.2-1.3,3.7-3.8c1-1.6-0.6-0.1-0.3-1.1c1.1-1.3,2-2.7,3.6-3.8l-0.8,0.1
								c1.9-2.5,3.3-3.8,5.2-4.9c13.7-19.4-0.4-7.4-0.4-7.4C243.6,65.5,241.2,69.9,233.8,77.9z"/>
						</g>
					</g>
				</g>
			</g>
		</g>
		<g>
			<g>
				<g>
					<g>
						<g>
							<path class="st4" d="M247.5,109.7l-0.7,0.2C246.8,110,247,110,247.5,109.7z"/>
							<path class="st4" d="M89.9,200.8c0,0-0.1,0.1-0.1,0.1C89.9,200.8,89.9,200.8,89.9,200.8z"/>
							<path class="st4" d="M219.8,117.7C219.8,117.6,219.8,117.6,219.8,117.7c0.1-0.1,0.1-0.1,0.2-0.2L219.8,117.7z"/>
							<path class="st4" d="M251.9,99.8c-8.5,4.6-11.2,5-19.6,10.4c-4.2,2.3-8.4,5-12.4,7.5c-1.5,1.8-5.3,3.1-7.2,4.9l-1.1,0.1
								c-0.7,0.6-1.5,1.3-2.4,1.5l0-0.1c-1,1-2.4,1.5-2.9,2l0-0.1l-1.4,0.9l0.2-0.3c-1.9,1.5-3.9,2.7-5.9,3.6l0.4,0.4
								c-4.2,1.8-5.1,3.5-9,5l0-0.1c-3.8,3.8-7.6,3.3-11.6,7.1c0.5-0.5-0.4-0.1-0.4-0.2c-2.1,1.4-4.3,2.7-3.8,3.6
								c-1.6,0.9-1.4,0.5-1.8,0.2c0.2,0.4-1,1.3-2.2,2l0.5-0.5l-3.4,2.1l1.1,0.3c-2,0.9-1-0.6-2.6,0.6l0.4,0.6
								c-2.6,1.4-4.6,1.3-7.4,2.3c-10.4,5.7-20.6,13.6-30.7,18l-0.7-0.2c-0.6-0.6-2.1,2.5-2.8,2.1l-0.9,0.9
								c-0.4,0.1-1.1,0.3-0.6-0.2c-1,0.6-1,0.7-1.6,1.3l-1.3,0.2c-4.2,2-7.2,4.8-11.6,7.1c-5.6,2.1-14.8,8.5-20.1,12.1
								c-7.2,5.5-17.9,8.1-25.2,13.9c-0.3,0.1-0.9,0.7-0.8,0.7l-7.4,4.1c0,0-35.7,20.3-5.5,10.1l-0.1,0.2c4.2-2,6.8-3.3,9.1-5.7
								c0.9,0.6,3.3-1.8,4.5-2.1l0,0.1c2.1-2.1,5.4-2.3,7.4-4.3c-0.1,0.1,0,0.4-0.5,0.7c1.7-1.1,3.9-2.7,4.3-2.2
								c4-2.5,9.9-5.6,12-7.9l-0.1,0.2c1.2-1.4,1.9-1.2,3.4-2.5c0.1,0,0.3,0,0.3,0c1.3-1.5,4.7-2.8,5.9-3.8l0.3,0.3l3.2-2l-1.3,0.6
								c-0.1-1.2,2.8-0.8,4.8-2.8c2.3-1.2,3.3-4.5,5.9-5.4c0.8-1.1-0.5,1.3,0.9,0c0.3,0.5-0.6,0.7,0.1,0.9c1.5-1.2,2.9-1,4.7-2.5
								l0.3,0.3c2.2-2.2,5.2-2.3,6.5-4c2.5-1.9,2.4,0.1,4.8-2.2l1.4-0.1c1.2-0.6,0.5-1.1,1.9-1.6c0.1,0.4,1.8-0.7,1.2,0.1
								c3.3-1.2,5.6-4.2,10-5.6c0.5-1.1,2.7-1.9,3-2.7c0.3,0.2,4-2.2,2.1-0.4c-0.2,0.2-0.5,0.3-0.5,0.2l0,0.5
								c2.6-0.6,3.8-2.7,6.1-3.9c-0.7,0.3-1.6,0.8-1.1,0.2l2.1-1.1l-0.2,0.6l3.2-1.6l-0.6-0.1c1.6-0.7,2.5-0.3,3.9-1.8
								c0.6-0.8-1.7,0.3-0.2-0.7c2.2-0.9,5.4-2.2,8-3.6c-0.5-0.3,0.2-0.7,0.9-1.2l0.3,0.3c2.4-2.1,1.5,0.3,3.9-1.7l-0.1,0.4l0.2-1.2
								c2-2.2,1.8,0,3.9-2.6c-1,0.7-1-0.6,0.4-1.1l-0.1,0.6c0.7-0.5,0.8-0.8,1.4-1c-0.3,0.4,0.1,0.7,1.1,0l-0.4,0.9l1.6-1.8
								c1.8-0.5,4-2.4,4.9-2.3c0,0,3.5-1.7,3.9-2.7c-0.5,0.7,1.5-0.2,1.2,0.5c0.6-0.9,3-2.7,4.3-2.9l-0.2,0.2
								c4.1-1.8,6.2-4.4,9.9-5.8c-0.4-0.4,1.5-1.2,0.8-1.5c3.2-2.6,7.1-2.6,7.4-5.1c1.6-1,2.1-0.7,3-1.1l-0.3,0.3
								c2.9-1.9,3.8-2.4,6-3.7c1-0.8,0.7-1.7,2.8-2.7c-0.5,0.7,0.3,0.2,1.1-0.3c-0.4,0.3-0.5,0.5,0.6,0.2c0.1-0.2,0.3-0.4,0.4-0.5
								c0,0,0.1,0,0.1,0.1c1.2-0.8,0.9-0.8,0.3-0.5c0-0.1-0.1-0.1-0.3-0.1c1.5-0.3,3.6-2.1,4.1-1.6c3.7-2.3,6-4.4,9-6.4
								c0.5,0.1-0.1,0.8-0.9,1.4l2.2-1.4c0.2,0.4-1.1,1-1.8,1.4c3-0.9,5.1-3.8,8.5-5l0.5-0.7l0.2-0.1c-0.1-0.2,0.4-0.8,0.9-1.1
								c0.6,0.1,0.4,0.8,2-0.1c1.4-0.4,3.3-2.2,4.8-3.3c-0.9,0.4-0.7,0.1-0.4-0.3c0.8-0.5,1.4-0.3,1.9-0.8l0.4,0.4
								c-0.6-0.3,1.7-1.6,1.9-2c0.6,0.1-1,1-1,1.4c3-1.8,1.5-0.9,4.6-2.7c1.4-1.3-0.6-0.3,0-1.2c1.4-0.9,2.6-2.1,4.4-2.7l-0.8-0.1
								c2.5-1.9,4.2-2.8,6.3-3.4c18.2-15.2,1.5-7.3,1.5-7.3C264.5,90.4,261.2,94,251.9,99.8z"/>
						</g>
					</g>
				</g>
			</g>
		</g>
		<g>
			<g>
				<g>
					<g>
						<g>
							<path class="st4" d="M256.9,134.1l-0.7,0C256.2,134.2,256.4,134.2,256.9,134.1z"/>
							<path class="st4" d="M81.1,181.3c0,0-0.1,0.1-0.2,0.1C81.1,181.3,81.1,181.3,81.1,181.3z"/>
							<path class="st4" d="M228.1,134.6C228.1,134.6,228.1,134.6,228.1,134.6c0.1,0,0.2-0.1,0.2-0.1L228.1,134.6z"/>
							<path class="st4" d="M263.7,125.7c-9.4,2.2-12.1,2-21.6,4.9c-4.6,1.2-9.5,2.7-13.9,4c-1.9,1.3-5.9,1.6-8.3,2.9l-1.1-0.1
								c-0.8,0.4-1.8,0.9-2.7,0.9l0-0.1c-1.2,0.7-2.7,0.9-3.3,1.2l0-0.1l-1.6,0.5l0.2-0.2c-2.2,0.9-4.5,1.6-6.6,2l0.3,0.5
								c-4.5,0.6-5.9,2.1-10,2.5l0-0.1c-4.7,2.7-8.2,1.2-13,3.9c0.6-0.3-0.3-0.2-0.3-0.3c-2.3,0.8-4.9,1.5-4.6,2.5
								c-1.7,0.5-1.5,0.1-1.8-0.2c0.1,0.4-1.3,1-2.7,1.4l0.6-0.3l-3.8,1.2l1,0.6c-2.1,0.3-0.8-0.8-2.7-0.1l0.2,0.7
								c-2.9,0.6-4.8,0.1-7.7,0.3c-11.5,2.8-23.4,7.8-34.4,9.5l-0.6-0.4c-0.4-0.7-2.6,1.9-3.2,1.3l-1.2,0.7c-0.4,0-1.2,0-0.6-0.3
								c-1.2,0.3-1.1,0.4-1.9,0.9l-1.4-0.1c-4.6,0.9-8.2,2.8-13,3.9c-6,0.6-16.5,4.3-22.6,6.5c-8.4,3.4-19.4,3.2-27.9,6.9
								c-0.3,0-1,0.4-1,0.5l-8.2,2.1c0,0-39.7,10.3-8,8.4l-0.2,0.2c4.6-0.8,7.4-1.5,10.3-3.1c0.8,0.9,3.7-0.9,4.8-0.8l-0.1,0.1
								c2.5-1.5,5.8-0.9,8.2-2.3c-0.1,0.1-0.1,0.4-0.7,0.6c1.9-0.6,4.4-1.6,4.7-1c4.5-1.4,11-2.8,13.7-4.5l-0.2,0.2
								c1.5-1.1,2.1-0.7,3.9-1.5c0.1,0,0.3,0.1,0.3,0.1c1.7-1.1,5.3-1.5,6.7-2.2l0.2,0.4l3.6-1.1l-1.4,0.3c0.2-1.2,2.9-0.1,5.4-1.5
								c2.5-0.5,4.4-3.5,7.1-3.7c1.1-0.8-0.9,1.1,0.9,0.2c0.2,0.5-0.8,0.6-0.2,0.9c1.7-0.7,3.1-0.2,5.2-1.2l0.2,0.4
								c2.7-1.6,5.6-0.9,7.3-2.2c2.9-1.1,2.3,0.7,5.2-0.9l1.4,0.3c1.3-0.3,0.8-1,2.3-1.1c0,0.4,1.9-0.2,1.2,0.4
								c3.5-0.3,6.5-2.6,11.1-2.8c0.8-1,3.1-1.1,3.6-1.9c0.2,0.3,4.4-1.1,2.1,0.2c-0.2,0.1-0.6,0.2-0.6,0.1l-0.2,0.5
								c2.7,0.1,4.4-1.6,6.9-2.2c-0.8,0.1-1.7,0.4-1.2-0.1l2.3-0.6l-0.4,0.5l3.5-0.7l-0.6-0.3c1.7-0.2,2.5,0.4,4.2-0.8
								c0.8-0.6-1.7-0.2,0-0.8c2.3-0.3,5.8-0.7,8.7-1.4c-0.4-0.4,0.4-0.6,1.1-0.9l0.2,0.4c2.9-1.4,1.4,0.6,4.2-0.6l-0.2,0.4l0.6-1.1
								c2.5-1.6,1.7,0.5,4.4-1.5c-1.2,0.4-0.8-0.8,0.7-1l-0.3,0.5c0.8-0.3,1-0.5,1.6-0.6c-0.4,0.4-0.1,0.7,1.1,0.3l-0.7,0.7l2-1.4
								c1.9,0,4.5-1.3,5.3-0.9c0,0,3.8-0.7,4.5-1.6c-0.6,0.6,1.5,0.2,1,0.8c0.8-0.7,3.6-1.8,4.9-1.7l-0.2,0.1c4.4-0.6,7.1-2.6,11-3
								c-0.3-0.4,1.8-0.7,1.1-1.2c3.8-1.7,7.5-0.6,8.4-3c1.8-0.6,2.2-0.1,3.2-0.3l-0.4,0.2c3.3-1.1,4.3-1.3,6.8-2
								c1.2-0.5,1.1-1.5,3.4-1.9c-0.6,0.6,0.3,0.2,1.1,0c-0.5,0.2-0.6,0.4,0.5,0.3c0.1-0.2,0.3-0.3,0.6-0.4c0,0,0.1,0,0.1,0.1
								c1.4-0.5,1.1-0.5,0.4-0.4c0-0.1-0.1-0.1-0.3-0.2c1.6,0.1,4-1.1,4.4-0.5c4.1-1.3,7-2.7,10.4-3.9c0.5,0.2-0.3,0.7-1.2,1.1
								l2.4-0.8c0.1,0.5-1.3,0.6-2.1,0.9c3.1,0,5.9-2.4,9.5-2.6l0.6-0.6l0.2,0c-0.1-0.2,0.6-0.7,1.1-0.9c0.6,0.3,0.2,0.9,1.9,0.5
								c1.5,0,3.8-1.2,5.5-1.9c-1,0.2-0.7-0.1-0.4-0.4c0.9-0.2,1.4,0,2.1-0.3l0.2,0.5c-0.5-0.4,2.1-1.1,2.3-1.5
								c0.6,0.3-1.2,0.7-1.4,1.1c3.4-1,1.7-0.5,5.1-1.5c1.7-0.9-0.5-0.4,0.3-1.1c1.6-0.5,3.1-1.3,5-1.5l-0.7-0.3
								c2.9-1.2,4.8-1.6,6.9-1.7c21.5-10,3.3-6.6,3.3-6.6C278.3,119.8,274.1,122.5,263.7,125.7z"/>
						</g>
					</g>
				</g>
			</g>
		</g>
		<g>
			<g>
				<g>
					<g>
						<g>
							<path class="st4" d="M259.6,160.1l-0.7-0.2C258.9,160,259.1,160.1,259.6,160.1z"/>
							<path class="st4" d="M77.6,160.2c-0.1,0-0.1,0-0.2,0C77.6,160.2,77.6,160.2,77.6,160.2z"/>
							<path class="st4" d="M231.7,153.1C231.7,153.1,231.7,153.1,231.7,153.1c0.1,0,0.2,0,0.2-0.1L231.7,153.1z"/>
							<path class="st4" d="M268.4,153.7c-9.6-0.3-12.2-1.2-22.2-0.8c-4.8-0.1-9.8,0.1-14.5,0.3c-2.2,0.8-6.1,0-8.7,0.6l-1-0.4
								c-0.9,0.2-2,0.4-2.9,0.1l0.1-0.1c-1.3,0.3-2.9,0.1-3.5,0.3l0.1-0.1l-1.6,0.1l0.3-0.2c-2.3,0.3-4.8,0.4-6.9,0.2l0.2,0.5
								c-4.6-0.6-6.2,0.5-10.3-0.2l0.1-0.1c-5.2,1.4-8.2-0.9-13.6,0.4c0.7-0.2-0.3-0.3-0.2-0.4c-2.5,0.1-5.1,0.2-5.1,1.2
								c-1.8,0-1.5-0.3-1.7-0.7c0,0.4-1.6,0.6-3,0.7l0.6-0.2l-4,0.2l0.8,0.8c-2.1-0.2-0.5-1-2.6-0.8l0,0.7c-2.9-0.1-4.7-1.2-7.5-1.7
								c-11.9-0.3-24.6,1.5-35.6,0.3l-0.5-0.5c-0.2-0.8-3,1.1-3.5,0.4l-1.3,0.3c-0.4-0.1-1.1-0.3-0.5-0.5c-1.2,0-1.2,0.1-2.1,0.3
								l-1.3-0.5c-4.7-0.4-8.7,0.5-13.6,0.4c-5.9-1-17.1-0.1-23.5,0.4c-9,1.1-19.5-1.9-28.8-0.6c-0.3-0.1-1.1,0.1-1.1,0.2l-8.5-0.1
								c0,0-41-0.3-9.9,6l-0.2,0.2c4.6,0.4,7.5,0.5,10.7-0.3c0.5,1,3.8,0.1,4.9,0.4l-0.1,0.1c2.8-0.8,5.8,0.7,8.5-0.1
								c-0.1,0.1-0.2,0.4-0.8,0.4c2-0.1,4.7-0.4,4.8,0.2c4.7-0.2,11.3,0.1,14.4-0.8l-0.2,0.2c1.7-0.6,2.2-0.1,4.2-0.4
								c0.1,0.1,0.2,0.1,0.2,0.2c1.9-0.6,5.5-0.1,7-0.4l0.1,0.4l3.8-0.1l-1.4-0.1c0.5-1.1,2.8,0.7,5.6,0c2.5,0.1,5.2-2.3,7.8-1.7
								c1.3-0.5-1.1,0.8,0.8,0.4c0.1,0.6-0.9,0.4-0.4,0.8c1.9-0.3,3,0.6,5.3,0.2l0.1,0.4c3-0.8,5.6,0.6,7.6-0.2
								c3.1-0.4,2.1,1.3,5.3,0.4l1.2,0.6c1.4,0.1,1-0.7,2.5-0.4c-0.1,0.4,1.9,0.3,1,0.7c3.4,0.6,7-0.8,11.5,0.2c1-0.7,3.3-0.3,4-0.8
								c0.1,0.3,4.6,0.1,2,0.7c-0.2,0.1-0.6,0-0.6-0.1l-0.3,0.4c2.6,0.8,4.7-0.5,7.2-0.3c-0.8-0.1-1.8-0.1-1.1-0.4l2.4,0.1l-0.5,0.4
								l3.5,0.2l-0.5-0.5c1.7,0.2,2.3,1,4.3,0.4c0.9-0.4-1.6-0.6,0.2-0.8c2.3,0.3,5.8,0.8,8.7,0.9c-0.3-0.5,0.5-0.5,1.3-0.6l0.1,0.4
								c3.1-0.6,1.1,1,4.3,0.5l-0.3,0.3l0.8-0.9c2.8-0.9,1.5,0.9,4.6-0.3c-1.2,0.1-0.6-1,0.9-0.8l-0.4,0.4c0.8-0.1,1.1-0.3,1.7-0.2
								c-0.5,0.2-0.3,0.6,1,0.5l-0.8,0.5l2.3-0.8c1.8,0.5,4.7-0.1,5.4,0.5c0,0,3.9,0.3,4.8-0.4c-0.8,0.4,1.4,0.6,0.7,1
								c1-0.5,4-0.8,5.2-0.3l-0.2,0.1c4.4,0.5,7.5-0.7,11.4-0.1c-0.2-0.5,1.9-0.2,1.4-0.9c4.1-0.6,7.4,1.3,8.9-0.7
								c1.9-0.1,2.2,0.5,3.2,0.6l-0.4,0.1c3.5-0.2,4.5-0.2,7.1-0.1c1.3-0.2,1.5-1.1,3.8-0.9c-0.7,0.4,0.2,0.3,1.1,0.3
								c-0.6,0.1-0.7,0.2,0.4,0.4c0.2-0.1,0.4-0.2,0.6-0.2c0,0,0.1,0.1,0,0.1c1.4-0.1,1.2-0.2,0.5-0.3c0-0.1,0-0.1-0.2-0.2
								c1.5,0.5,4.2,0,4.3,0.6c4.3-0.1,7.4-0.8,11-1.1c0.4,0.3-0.4,0.6-1.5,0.8l2.6-0.1c0,0.5-1.5,0.3-2.3,0.4
								c3,0.8,6.3-0.8,9.8-0.1l0.7-0.4l0.2,0.1c0-0.2,0.8-0.5,1.3-0.5c0.5,0.4,0,1,1.7,0.9c1.4,0.4,4-0.2,5.8-0.4
								c-1-0.1-0.7-0.3-0.2-0.4c0.9,0,1.4,0.4,2.1,0.2l0.1,0.6c-0.3-0.5,2.3-0.6,2.6-0.8c0.5,0.4-1.4,0.4-1.6,0.7
								c3.5-0.1,1.8,0,5.3-0.1c1.9-0.4-0.3-0.5,0.6-1c1.7-0.1,3.3-0.5,5.2-0.2l-0.6-0.5c3.1-0.4,5-0.3,7.1,0.2
								c23.4-4.1,4.9-5.5,4.9-5.5C284,151.9,279.3,153.3,268.4,153.7z"/>
						</g>
					</g>
				</g>
			</g>
		</g>
		<g>
			<g>
				<g>
					<g>
						<g>
							<path class="st4" d="M255.5,185.9l-0.6-0.4C254.9,185.6,255,185.8,255.5,185.9z"/>
							<path class="st4" d="M79.7,138.9c-0.1,0-0.1,0-0.2,0C79.7,138.9,79.7,138.9,79.7,138.9z"/>
							<path class="st4" d="M230.3,172C230.4,172,230.4,172,230.3,172c0.1,0,0.2,0,0.2,0L230.3,172z"/>
							<path class="st4" d="M265.6,182c-9.2-2.7-11.4-4.3-21.2-6.5c-4.6-1.3-9.5-2.4-14.1-3.5c-2.3,0.2-5.9-1.6-8.6-1.6l-0.9-0.7
								c-0.9,0-2-0.2-2.8-0.6l0.1-0.1c-1.4,0-2.8-0.6-3.5-0.6l0.1-0.1l-1.6-0.4l0.3-0.1c-2.4-0.3-4.7-0.9-6.7-1.6l0,0.5
								c-4.2-1.7-6.1-1.1-9.9-2.9l0.1-0.1c-5.4,0-7.7-3-13.2-3.2c0.7,0-0.2-0.3-0.1-0.4c-2.4-0.5-5-1.1-5.3-0.1
								c-1.7-0.5-1.3-0.7-1.5-1.1c-0.1,0.4-1.7,0.2-3-0.1l0.7,0l-3.9-0.9l0.5,1c-2-0.8-0.3-1.1-2.3-1.5l-0.2,0.7
								c-2.8-0.9-4.2-2.4-6.8-3.6c-11.4-3.4-24.2-4.9-34.5-9l-0.3-0.6c0-0.8-3.2,0.3-3.5-0.5l-1.3,0c-0.3-0.2-1-0.6-0.3-0.6
								c-1.1-0.3-1.2-0.2-2.1-0.2l-1.1-0.8c-4.4-1.6-8.5-1.7-13.2-3.2c-5.5-2.5-16.5-4.5-22.8-5.7c-9-1.2-18.4-6.9-27.6-8
								c-0.3-0.2-1.1-0.1-1.1-0.1l-8.1-2.3c0,0-39.5-10.9-11.1,3.3l-0.2,0.1c4.4,1.6,7.2,2.4,10.5,2.4c0.2,1.1,3.6,1.1,4.6,1.7
								l-0.1,0.1c2.9,0,5.4,2.1,8.3,2.2c-0.1,0.1-0.3,0.3-0.9,0.2c1.9,0.4,4.6,0.9,4.6,1.5c4.6,1.1,10.9,3.1,14.1,2.9l-0.2,0.1
								c1.8-0.2,2.2,0.5,4.1,0.7c0.1,0.1,0.2,0.2,0.2,0.2c2-0.1,5.3,1.3,6.9,1.5l0,0.4l3.6,0.9l-1.3-0.4c0.8-0.9,2.6,1.4,5.4,1.4
								c2.4,0.8,5.6-0.8,8,0.4c1.4-0.2-1.3,0.5,0.6,0.6c-0.1,0.6-0.9,0.1-0.6,0.7c1.9,0.2,2.8,1.3,5.1,1.6l0,0.5
								c3.1,0,5.3,2,7.4,1.8c3.1,0.4,1.6,1.8,5,1.8l1,0.9c1.3,0.4,1.1-0.5,2.5,0.2c-0.2,0.3,1.8,0.8,0.8,0.9c3.2,1.5,7,1,11.1,3.1
								c1.1-0.5,3.2,0.6,4.1,0.2c0,0.3,4.4,1.2,1.7,1.2c-0.2,0-0.6-0.1-0.5-0.2l-0.4,0.3c2.3,1.5,4.6,0.8,7.1,1.6
								c-0.7-0.3-1.7-0.6-0.9-0.7l2.3,0.7l-0.6,0.2l3.4,1.1l-0.4-0.6c1.6,0.7,2,1.6,4,1.5c0.9-0.1-1.4-1,0.4-0.7
								c2.2,0.9,5.4,2.2,8.2,3.1c-0.1-0.6,0.6-0.3,1.4-0.2l0,0.5c3.2,0.2,0.9,1.2,4,1.6l-0.3,0.2l1-0.7c2.9-0.1,1.2,1.3,4.5,0.9
								c-1.2-0.2-0.3-1.1,1.1-0.5l-0.5,0.3c0.8,0.1,1.2,0,1.7,0.3c-0.5,0.1-0.4,0.5,0.8,0.8l-0.9,0.3l2.5-0.2
								c1.6,0.9,4.5,1.1,5.1,1.9c0,0,3.7,1.3,4.7,0.9c-0.9,0.2,1.2,0.9,0.5,1.2c1.1-0.2,4.1,0.2,5.1,1l-0.2,0
								c4.1,1.6,7.4,1.3,11.1,2.9c0-0.5,1.9,0.3,1.6-0.5c4.1,0.4,6.8,3.2,8.8,1.6c1.8,0.4,2,1,2.9,1.4l-0.5,0c3.4,0.7,4.4,1,6.9,1.7
								c1.3,0.1,1.7-0.7,3.9,0.1c-0.8,0.2,0.1,0.3,0.9,0.6c-0.5-0.1-0.7,0,0.3,0.5c0.2-0.1,0.4-0.1,0.7-0.1c0,0,0,0.1,0,0.1
								c1.4,0.2,1.2,0.1,0.6-0.2c0,0,0-0.1-0.2-0.3c1.3,0.9,4,1,4,1.7c4.2,1,7.4,1.1,10.9,1.8c0.3,0.4-0.6,0.5-1.6,0.3l2.5,0.5
								c-0.1,0.5-1.5-0.1-2.3-0.2c2.7,1.5,6.3,0.9,9.5,2.5l0.8-0.2l0.2,0.1c0-0.2,0.9-0.2,1.4-0.2c0.4,0.5-0.3,0.9,1.4,1.3
								c1.2,0.7,3.9,0.8,5.7,1.1c-0.9-0.3-0.6-0.5-0.1-0.5c0.9,0.2,1.2,0.7,1.9,0.8l-0.1,0.6c-0.2-0.6,2.4,0,2.8-0.1
								c0.4,0.5-1.4,0-1.7,0.2c3.4,0.9,1.7,0.4,5.2,1.3c1.9,0.1-0.2-0.6,0.8-0.8c1.6,0.3,3.3,0.4,5.1,1.2l-0.5-0.6
								c3.1,0.4,4.9,1,6.8,2c23.6,2.1,6.2-4.1,6.2-4.1C281.3,184.3,276.3,184.5,265.6,182z"/>
						</g>
					</g>
				</g>
			</g>
		</g>
		<g>
			<g>
				<g>
					<g>
						<g>
							<path class="st4" d="M244.9,209.8l-0.5-0.5C244.4,209.4,244.5,209.5,244.9,209.8z"/>
							<path class="st4" d="M87.3,118.9c-0.1,0-0.1,0-0.2,0C87.2,118.9,87.2,118.9,87.3,118.9z"/>
							<path class="st4" d="M224.2,189.8C224.2,189.8,224.2,189.8,224.2,189.8c0.1,0,0.2,0.1,0.2,0.1L224.2,189.8z"/>
							<path class="st4" d="M255.7,208.6c-8.2-5-9.9-7.1-18.8-11.8c-4.1-2.4-8.6-4.8-12.7-7c-2.3-0.5-5.3-3-7.9-3.8l-0.7-0.9
								c-0.9-0.3-1.9-0.7-2.5-1.3l0.1-0.1c-1.3-0.4-2.5-1.3-3.2-1.5l0.1-0.1l-1.4-0.8l0.3,0c-2.2-0.9-4.3-2.1-6.1-3.3l-0.1,0.5
								c-3.7-2.8-5.6-2.7-8.8-5.3l0.1-0.1c-5.2-1.4-6.6-4.9-11.9-6.5c0.7,0.2-0.1-0.4,0-0.5c-2.2-1.1-4.5-2.4-5.1-1.5
								c-1.5-0.9-1.1-1-1.1-1.5c-0.2,0.4-1.7-0.2-2.9-0.9l0.6,0.2l-3.6-1.9l0.3,1.1c-1.7-1.3,0-1.2-1.8-2l-0.3,0.6
								c-2.5-1.6-3.5-3.4-5.7-5.2c-10.1-6.2-22.1-11-31-17.6l-0.2-0.7c0.2-0.8-3.2-0.5-3.2-1.4l-1.3-0.3c-0.2-0.3-0.8-0.8-0.2-0.6
								c-1-0.6-1.1-0.5-2-0.8l-0.9-1c-3.9-2.7-7.8-3.9-12-6.5c-4.6-3.8-14.7-8.6-20.6-11.4c-8.4-3.5-16-11.4-24.6-14.9
								c-0.2-0.2-1-0.4-1-0.3l-7.3-4.3c0,0-35.4-20.8-11.5,0.3l-0.3,0c3.8,2.7,6.3,4.2,9.5,5.1c-0.1,1.1,3.2,2,4,2.8l-0.1,0
								c2.8,0.7,4.7,3.5,7.4,4.2c-0.1,0-0.3,0.2-0.9-0.1c1.8,0.9,4.2,2,4.1,2.6c4.2,2.2,9.8,5.8,12.9,6.5l-0.3,0
								c1.8,0.3,2,1,3.8,1.7c0.1,0.1,0.2,0.2,0.1,0.2c1.9,0.4,4.8,2.7,6.3,3.2l-0.1,0.4l3.3,1.8l-1.2-0.8c1-0.7,2.1,2,4.8,2.8
								c2.1,1.4,5.6,0.6,7.6,2.4c1.3,0.2-1.4,0.2,0.5,0.8c-0.2,0.5-0.9-0.1-0.7,0.5c1.7,0.7,2.3,2,4.5,2.8l-0.1,0.4
								c3,0.8,4.6,3.3,6.7,3.6c2.8,1.2,1.1,2.2,4.3,3l0.8,1.1c1.1,0.8,1.2-0.1,2.4,0.9c-0.3,0.3,1.5,1.2,0.6,1.1
								c2.7,2.2,6.5,2.8,9.9,5.9c1.2-0.1,3,1.4,3.9,1.3c-0.1,0.3,3.9,2.3,1.4,1.6c-0.2-0.1-0.5-0.3-0.5-0.4l-0.5,0.2
								c1.8,2,4.3,2,6.4,3.3c-0.6-0.5-1.5-1-0.7-0.9l2,1.2l-0.6,0.1l3,2l-0.2-0.6c1.4,1.1,1.5,2,3.5,2.5c0.9,0.1-1.1-1.3,0.5-0.6
								c1.8,1.4,4.6,3.6,7.1,5.2c0-0.6,0.7-0.2,1.5,0.2l-0.1,0.4c3,1,0.5,1.4,3.4,2.5l-0.4,0.1l1.2-0.4c2.9,0.6,0.9,1.6,4.1,2.1
								c-1.1-0.6,0-1.1,1.2-0.2l-0.5,0.2c0.8,0.3,1.1,0.3,1.5,0.7c-0.5-0.1-0.5,0.4,0.6,1l-1,0l2.4,0.5c1.3,1.3,4.1,2.2,4.4,3.1
								c0,0,3.2,2.2,4.3,2.1c-0.9,0,0.9,1.2,0.1,1.3c1.1,0.1,3.9,1.3,4.6,2.3l-0.2-0.1c3.5,2.6,6.8,3.2,9.9,5.7
								c0.1-0.5,1.8,0.7,1.6-0.1c3.9,1.5,5.8,4.9,8.1,3.8c1.7,0.8,1.7,1.5,2.4,2.1l-0.4-0.1c3.1,1.6,4,2.1,6.2,3.4
								c1.2,0.5,1.9-0.2,3.7,1.1c-0.8,0,0,0.4,0.8,0.8c-0.5-0.2-0.7-0.2,0.1,0.6c0.2,0,0.4,0,0.7,0.1c0,0,0,0.1,0,0.1
								c1.3,0.6,1.2,0.4,0.6,0c0.1,0,0-0.1-0.1-0.3c1.1,1.2,3.6,2.1,3.5,2.7c3.8,2,6.8,3,10.1,4.6c0.2,0.5-0.7,0.3-1.7-0.1l2.3,1.2
								c-0.3,0.4-1.4-0.5-2.1-0.8c2.3,2.2,5.8,2.5,8.6,4.9l0.8,0l0.2,0.2c0.1-0.2,0.9,0,1.4,0.2c0.2,0.6-0.5,0.8,1,1.7
								c1,1,3.5,1.8,5.2,2.5c-0.8-0.6-0.4-0.6,0-0.5c0.8,0.4,1,1,1.7,1.2l-0.2,0.5c0-0.6,2.3,0.7,2.7,0.6c0.2,0.6-1.4-0.4-1.7-0.2
								c3.1,1.7,1.5,0.9,4.6,2.6c1.8,0.6,0-0.6,1-0.6c1.5,0.7,3.1,1.2,4.6,2.5l-0.3-0.7c2.9,1.2,4.5,2.2,6.1,3.7
								c22.3,8.2,7-2.3,7-2.3C270.2,214.9,265.4,213.8,255.7,208.6z"/>
						</g>
					</g>
				</g>
			</g>
		</g>
		<g>
			<g>
				<g>
					<g>
						<g>
							<path class="st4" d="M228.5,230.1l-0.4-0.7C228.1,229.5,228.1,229.7,228.5,230.1z"/>
							<path class="st4" d="M99.7,101.5c-0.1,0-0.1-0.1-0.2-0.1C99.7,101.5,99.7,101.5,99.7,101.5z"/>
							<path class="st4" d="M213.6,205.4C213.7,205.4,213.7,205.5,213.6,205.4c0.1,0.1,0.1,0.1,0.2,0.1L213.6,205.4z"/>
							<path class="st4" d="M239.2,231.8c-6.6-7-7.8-9.5-15.1-16.2c-3.3-3.4-7.1-6.9-10.4-10.1c-2.1-1-4.3-4.3-6.6-5.7l-0.4-1
								c-0.8-0.5-1.6-1.1-2.1-1.9l0.1,0c-1.2-0.7-2.1-1.9-2.7-2.3l0.1,0l-1.2-1.1l0.3,0.1c-1.9-1.4-3.6-3.1-5-4.7l-0.2,0.5
								c-2.8-3.6-4.7-4-7.2-7.4l0.1,0c-4.6-2.7-5.2-6.5-9.9-9.3c0.6,0.4,0-0.4,0.1-0.4c-1.8-1.6-3.8-3.4-4.5-2.8
								c-1.3-1.3-0.8-1.3-0.7-1.7c-0.3,0.3-1.5-0.7-2.6-1.6l0.6,0.3l-2.9-2.7l0,1.2c-1.3-1.7,0.3-1.1-1.2-2.4l-0.5,0.5
								c-2-2.2-2.5-4.1-4.1-6.5c-8.2-8.6-18.4-16.4-25.4-25l0-0.7c0.4-0.7-3-1.4-2.8-2.2l-1.2-0.7c-0.2-0.4-0.6-1,0-0.7
								c-0.8-0.9-0.9-0.8-1.7-1.2l-0.6-1.2c-3.1-3.6-6.5-5.7-9.9-9.4c-3.5-4.9-12-12.1-16.9-16.3C97.6,93.2,92.4,83.6,84.9,78
								c-0.1-0.3-0.9-0.7-0.9-0.6l-5.9-6.1c0,0-28.8-29.2-11.2-2.7l-0.3,0c3,3.6,5,5.7,7.8,7.3c-0.4,1.1,2.6,2.8,3.1,3.8l-0.1,0
								c2.6,1.4,3.6,4.6,6.1,6c-0.1,0-0.4,0.1-0.8-0.3c1.5,1.3,3.6,3.1,3.3,3.6c3.5,3.2,7.9,8.1,10.8,9.6l-0.3,0
								c1.7,0.8,1.7,1.5,3.2,2.7c0,0.1,0.1,0.3,0,0.3c1.8,0.9,4,3.8,5.2,4.7l-0.2,0.3l2.7,2.6l-0.9-1.1c1.1-0.4,1.5,2.5,3.9,3.9
								c1.7,1.9,5.3,2.1,6.7,4.3c1.3,0.5-1.4-0.2,0.2,0.9c-0.4,0.4-0.9-0.4-0.9,0.3c1.5,1.1,1.7,2.6,3.6,3.9l-0.2,0.4
								c2.7,1.5,3.6,4.4,5.5,5.2c2.4,1.9,0.5,2.4,3.4,4l0.5,1.3c0.9,1,1.2,0.2,2.1,1.5c-0.3,0.2,1.1,1.6,0.3,1.2
								c2,2.8,5.5,4.3,8,8.2c1.2,0.2,2.5,2.1,3.4,2.2c-0.1,0.3,3.2,3.3,0.9,1.9c-0.2-0.1-0.5-0.4-0.4-0.5l-0.5,0.1
								c1.2,2.4,3.6,3,5.4,4.9c-0.4-0.6-1.2-1.3-0.5-1.1l1.6,1.7l-0.6-0.1l2.3,2.6l0-0.7c1.1,1.4,0.9,2.4,2.8,3.3
								c0.9,0.4-0.7-1.6,0.7-0.4c1.4,1.9,3.5,4.6,5.5,6.8c0.2-0.6,0.7,0,1.4,0.5l-0.2,0.4c2.6,1.8,0.1,1.5,2.7,3.4l-0.4,0l1.2-0.1
								c2.6,1.4,0.4,1.7,3.5,3.1c-0.9-0.8,0.3-1.1,1.2,0.1l-0.6,0c0.7,0.5,1,0.6,1.3,1.1c-0.5-0.2-0.6,0.3,0.3,1.1l-1-0.2l2.2,1.1
								c0.9,1.6,3.4,3.2,3.5,4.2c0,0,2.5,2.9,3.6,3.1c-0.8-0.3,0.6,1.4-0.2,1.3c1,0.4,3.4,2.2,3.9,3.4l-0.2-0.1
								c2.7,3.5,5.8,4.8,8.1,8c0.2-0.5,1.5,1.2,1.6,0.4c3.3,2.4,4.3,6.2,6.8,5.8c1.4,1.2,1.2,1.9,1.8,2.6l-0.4-0.2
								c2.6,2.3,3.3,3,5.1,4.9c1.1,0.8,1.9,0.2,3.3,2c-0.8-0.3-0.1,0.4,0.5,1c-0.4-0.3-0.6-0.4,0,0.6c0.2,0,0.4,0.2,0.6,0.3
								c0,0,0,0.1,0,0.1c1.1,0.9,1,0.7,0.6,0.2c0.1,0,0.1-0.1,0-0.3c0.7,1.4,3,2.9,2.6,3.5c3.2,3,5.8,4.7,8.6,7
								c0.1,0.5-0.8,0.1-1.6-0.5l1.9,1.7c-0.4,0.3-1.2-0.8-1.9-1.3c1.6,2.7,5,3.9,7,6.9l0.8,0.3l0.1,0.2c0.1-0.1,0.9,0.2,1.3,0.6
								c0.1,0.7-0.7,0.7,0.6,1.9c0.7,1.3,2.9,2.7,4.4,3.8c-0.6-0.7-0.3-0.7,0.1-0.5c0.6,0.6,0.7,1.3,1.3,1.6l-0.3,0.5
								c0.1-0.6,2,1.2,2.4,1.3c0.1,0.6-1.2-0.7-1.6-0.7c2.5,2.5,1.3,1.2,3.8,3.7c1.6,1,0.1-0.6,1.1-0.3c1.3,1.1,2.7,2,3.8,3.6
								l-0.1-0.8c2.5,1.9,3.8,3.3,4.9,5.2c19.4,13.7,7.4-0.4,7.4-0.4C251.6,241.6,247.2,239.2,239.2,231.8z"/>
						</g>
					</g>
				</g>
			</g>
		</g>
		<g>
			<g>
				<g>
					<g>
						<g>
							<path class="st4" d="M207.3,245.5l-0.2-0.7C207.1,244.8,207.1,245,207.3,245.5z"/>
							<path class="st4" d="M116.3,87.9c0,0-0.1-0.1-0.1-0.1C116.2,87.9,116.3,87.9,116.3,87.9z"/>
							<path class="st4" d="M199.4,217.8C199.4,217.8,199.4,217.8,199.4,217.8c0.1,0.1,0.1,0.1,0.2,0.2L199.4,217.8z"/>
							<path class="st4" d="M217.2,249.9c-4.6-8.5-5-11.2-10.4-19.6c-2.3-4.2-5-8.4-7.5-12.4c-1.8-1.5-3.1-5.3-4.9-7.2l-0.1-1.1
								c-0.6-0.7-1.3-1.5-1.5-2.4l0.1,0c-1-1-1.5-2.4-2-2.9l0.1,0l-0.9-1.4l0.3,0.2c-1.5-1.9-2.7-3.9-3.6-5.9l-0.4,0.4
								c-1.8-4.2-3.5-5.1-5-9l0.1,0c-3.8-3.8-3.3-7.6-7.1-11.6c0.5,0.5,0.1-0.4,0.2-0.4c-1.4-2.1-2.7-4.3-3.6-3.8
								c-0.9-1.6-0.5-1.4-0.2-1.8c-0.4,0.2-1.3-1-2-2.2l0.5,0.5l-2.1-3.4l-0.3,1.1c-0.9-2,0.6-1-0.6-2.6l-0.6,0.4
								c-1.4-2.6-1.3-4.6-2.3-7.4c-5.7-10.4-13.6-20.6-18-30.7l0.2-0.7c0.6-0.6-2.5-2.1-2.1-2.8l-0.9-0.9c-0.1-0.4-0.3-1.1,0.2-0.6
								c-0.6-1-0.7-1-1.3-1.6l-0.2-1.3c-2-4.2-4.8-7.2-7.1-11.6c-2.1-5.6-8.5-14.8-12.1-20.1c-5.5-7.2-8.1-17.9-13.9-25.2
								c-0.1-0.3-0.7-0.9-0.7-0.8l-4.1-7.4c0,0-20.3-35.7-10.1-5.5l-0.2-0.1c2,4.2,3.3,6.8,5.7,9.1c-0.6,0.9,1.8,3.3,2.1,4.5l-0.1,0
								c2.1,2.1,2.3,5.4,4.3,7.4c-0.1-0.1-0.4,0-0.7-0.5c1.1,1.7,2.7,3.9,2.2,4.3c2.5,4,5.6,9.9,7.9,12l-0.2-0.1
								c1.4,1.2,1.2,1.9,2.5,3.4c0,0.1,0,0.3,0,0.3c1.5,1.3,2.8,4.7,3.8,5.9l-0.3,0.3l2,3.2l-0.6-1.3c1.2-0.1,0.8,2.8,2.8,4.8
								c1.2,2.3,4.5,3.3,5.4,5.9c1.1,0.8-1.3-0.5,0,0.9c-0.5,0.3-0.7-0.6-0.9,0.1c1.2,1.5,1,2.9,2.5,4.7l-0.3,0.3
								c2.2,2.2,2.3,5.2,4,6.5c1.9,2.5-0.1,2.4,2.2,4.8l0.1,1.4c0.6,1.2,1.1,0.5,1.6,1.9c-0.4,0.1,0.7,1.8-0.1,1.2
								c1.2,3.3,4.2,5.6,5.6,10c1.1,0.5,1.9,2.7,2.7,3c-0.2,0.3,2.2,4,0.4,2.1c-0.2-0.2-0.3-0.5-0.2-0.5l-0.5,0
								c0.6,2.6,2.7,3.8,3.9,6.1c-0.3-0.7-0.8-1.6-0.2-1.1l1.1,2.1l-0.6-0.2l1.6,3.2l0.1-0.6c0.7,1.6,0.3,2.5,1.8,3.9
								c0.8,0.6-0.3-1.7,0.7-0.2c0.9,2.2,2.2,5.4,3.6,8c0.3-0.5,0.7,0.2,1.2,0.9l-0.3,0.3c2.1,2.4-0.3,1.5,1.7,3.9l-0.4-0.1l1.2,0.2
								c2.2,2,0,1.8,2.6,3.9c-0.7-1,0.6-1,1.1,0.4l-0.6-0.1c0.5,0.7,0.8,0.8,1,1.4c-0.4-0.3-0.7,0.1,0,1.1l-0.9-0.4l1.8,1.6
								c0.5,1.8,2.4,4,2.3,4.9c0,0,1.7,3.5,2.7,3.9c-0.7-0.5,0.2,1.5-0.5,1.2c0.9,0.6,2.7,3,2.9,4.3l-0.2-0.2
								c1.8,4.1,4.4,6.2,5.8,9.9c0.4-0.4,1.2,1.5,1.5,0.8c2.6,3.2,2.6,7.1,5.1,7.4c1,1.6,0.7,2.1,1.1,3l-0.3-0.3
								c1.9,2.9,2.4,3.8,3.7,6c0.8,1,1.7,0.7,2.7,2.8c-0.7-0.5-0.2,0.3,0.3,1.1c-0.3-0.4-0.5-0.5-0.2,0.6c0.2,0.1,0.4,0.3,0.5,0.4
								c0,0,0,0.1-0.1,0.1c0.8,1.2,0.8,0.9,0.5,0.3c0.1,0,0.1-0.1,0.1-0.3c0.3,1.5,2.1,3.6,1.6,4.1c2.3,3.7,4.4,6,6.4,9
								c-0.1,0.5-0.8-0.1-1.4-0.9l1.4,2.2c-0.4,0.2-1-1.1-1.4-1.8c0.9,3,3.8,5.1,5,8.5l0.7,0.5l0.1,0.2c0.2-0.1,0.8,0.4,1.1,0.9
								c-0.1,0.6-0.8,0.4,0.1,2c0.4,1.4,2.2,3.3,3.3,4.8c-0.4-0.9-0.1-0.7,0.3-0.4c0.5,0.8,0.3,1.4,0.8,1.9l-0.4,0.4
								c0.3-0.6,1.6,1.7,2,1.9c-0.1,0.6-1-1-1.4-1c1.8,3,0.9,1.5,2.7,4.6c1.3,1.4,0.3-0.6,1.2,0c0.9,1.4,2.1,2.6,2.7,4.4l0.1-0.8
								c1.9,2.5,2.8,4.2,3.4,6.3c15.2,18.2,7.3,1.5,7.3,1.5C226.7,262.5,223.1,259.1,217.2,249.9z"/>
						</g>
					</g>
				</g>
			</g>
		</g>
		<g>
			<g>
				<g>
					<g>
						<g>
							<path class="st4" d="M182.9,254.9l0-0.7C182.9,254.2,182.8,254.4,182.9,254.9z"/>
							<path class="st4" d="M135.8,79.1c0,0-0.1-0.1-0.1-0.2C135.7,79.1,135.7,79.1,135.8,79.1z"/>
							<path class="st4" d="M182.4,226.1C182.4,226.1,182.4,226.1,182.4,226.1c0,0.1,0.1,0.2,0.1,0.2L182.4,226.1z"/>
							<path class="st4" d="M191.4,261.6c-2.2-9.4-2-12.1-4.9-21.6c-1.2-4.6-2.7-9.5-4-13.9c-1.3-1.9-1.6-5.9-2.9-8.3l0.1-1.1
								c-0.4-0.8-0.9-1.8-0.9-2.7l0.1,0c-0.7-1.2-0.9-2.7-1.2-3.3l0.1,0l-0.5-1.6l0.2,0.2c-0.9-2.2-1.6-4.5-2-6.6l-0.5,0.3
								c-0.6-4.5-2.1-5.9-2.5-10l0.1,0c-2.7-4.7-1.2-8.2-3.9-13c0.3,0.6,0.2-0.3,0.3-0.3c-0.8-2.3-1.5-4.9-2.5-4.6
								c-0.5-1.7-0.1-1.5,0.2-1.8c-0.4,0.1-1-1.3-1.4-2.7l0.3,0.6l-1.2-3.8l-0.6,1c-0.3-2.1,0.8-0.8,0.1-2.7l-0.7,0.2
								c-0.6-2.9-0.1-4.8-0.3-7.7c-2.8-11.5-7.8-23.4-9.5-34.4l0.4-0.6c0.7-0.4-1.9-2.6-1.3-3.2l-0.7-1.2c0-0.4,0-1.2,0.3-0.6
								c-0.3-1.2-0.4-1.1-0.9-1.9l0.1-1.4c-0.9-4.6-2.8-8.2-3.9-13c-0.6-6-4.3-16.5-6.5-22.6c-3.4-8.4-3.2-19.4-6.9-27.9
								c0-0.3-0.4-1-0.5-1l-2.1-8.2c0,0-10.3-39.7-8.4-8l-0.2-0.2c0.8,4.6,1.5,7.4,3.1,10.3c-0.9,0.8,0.9,3.7,0.8,4.8l-0.1-0.1
								c1.5,2.5,0.9,5.8,2.3,8.2c-0.1-0.1-0.4-0.1-0.6-0.7c0.6,1.9,1.6,4.4,1,4.7c1.4,4.5,2.8,11,4.5,13.7l-0.2-0.2
								c1.1,1.5,0.7,2.1,1.5,3.9c0,0.1-0.1,0.3-0.1,0.3c1.1,1.7,1.5,5.3,2.2,6.7l-0.4,0.2l1.1,3.6l-0.3-1.4c1.2,0.2,0.1,2.9,1.5,5.4
								c0.5,2.5,3.5,4.4,3.7,7.1c0.8,1.1-1.1-0.9-0.2,0.9c-0.5,0.2-0.6-0.8-0.9-0.2c0.7,1.7,0.2,3.1,1.2,5.2l-0.4,0.2
								c1.6,2.7,0.9,5.6,2.2,7.3c1.1,2.9-0.7,2.3,0.9,5.2l-0.3,1.4c0.3,1.3,1,0.8,1.1,2.3c-0.4,0,0.2,1.9-0.4,1.2
								c0.3,3.5,2.6,6.5,2.8,11.1c1,0.8,1.1,3.1,1.9,3.6c-0.3,0.2,1.1,4.4-0.2,2.1c-0.1-0.2-0.2-0.6-0.1-0.6l-0.5-0.2
								c-0.1,2.7,1.6,4.4,2.2,6.9c-0.1-0.8-0.4-1.7,0.1-1.2l0.6,2.3l-0.5-0.4l0.7,3.5l0.3-0.6c0.2,1.7-0.4,2.5,0.8,4.2
								c0.6,0.8,0.2-1.7,0.8,0c0.3,2.3,0.7,5.8,1.4,8.7c0.4-0.4,0.6,0.4,0.9,1.1l-0.4,0.2c1.4,2.9-0.6,1.4,0.6,4.2l-0.4-0.2l1.1,0.6
								c1.6,2.5-0.5,1.7,1.5,4.4c-0.4-1.2,0.8-0.8,1,0.7l-0.5-0.3c0.3,0.8,0.5,1,0.6,1.6c-0.4-0.4-0.7-0.1-0.3,1.1l-0.7-0.7l1.4,2
								c0,1.9,1.3,4.5,0.9,5.3c0,0,0.7,3.8,1.6,4.5c-0.6-0.6-0.2,1.5-0.8,1c0.7,0.8,1.8,3.6,1.7,4.9L165,194c0.6,4.4,2.6,7.1,3,11
								c0.4-0.3,0.7,1.8,1.2,1.1c1.7,3.8,0.6,7.5,3,8.4c0.6,1.8,0.1,2.2,0.3,3.2l-0.2-0.4c1.1,3.3,1.3,4.3,2,6.8
								c0.5,1.2,1.5,1.1,1.9,3.4c-0.6-0.6-0.2,0.3,0,1.1c-0.2-0.5-0.4-0.6-0.3,0.5c0.2,0.1,0.3,0.3,0.4,0.6c0,0,0,0.1-0.1,0.1
								c0.5,1.4,0.5,1.1,0.4,0.4c0.1,0,0.1-0.1,0.2-0.3c-0.1,1.6,1.1,4,0.5,4.4c1.3,4.1,2.7,7,3.9,10.4c-0.2,0.5-0.7-0.3-1.1-1.2
								l0.8,2.4c-0.5,0.1-0.6-1.3-0.9-2.1c0,3.1,2.4,5.9,2.6,9.5l0.6,0.6l0,0.2c0.2-0.1,0.7,0.6,0.9,1.1c-0.3,0.6-0.9,0.2-0.5,1.9
								c0,1.5,1.2,3.8,1.9,5.5c-0.2-1,0.1-0.7,0.4-0.4c0.2,0.9,0,1.4,0.3,2.1l-0.5,0.2c0.4-0.5,1.1,2.1,1.5,2.3
								c-0.3,0.6-0.7-1.2-1.1-1.4c1,3.4,0.5,1.7,1.5,5.1c0.9,1.7,0.4-0.5,1.1,0.3c0.5,1.6,1.3,3.1,1.5,5l0.3-0.7
								c1.2,2.9,1.6,4.8,1.7,6.9c10,21.5,6.6,3.3,6.6,3.3C197.2,276.3,194.6,272.1,191.4,261.6z"/>
						</g>
					</g>
				</g>
			</g>
		</g>
	</g>
	<circle class="st4" cx="159.5" cy="157.5" r="128"/>
	<g>
		<path class="st6" d="M105.6,187.2c-4.9,1.6-9.5,2.5-13.9,2.5c-4.4,0-8.3-1-11.7-3c-3.4-2-6-4.8-7.9-8.2c-1.9-3.5-2.9-7.4-2.9-11.8
			c0-6.6,2.2-12.1,6.5-16.5c4.3-4.4,9.5-6.6,15.6-6.6c4.5,0,9.3,0.8,14.3,2.5v7c-5.1-2.3-9.6-3.5-13.6-3.5c-2.7,0-5.2,0.7-7.5,2
			c-2.3,1.3-4.2,3.4-5.4,6.2c-1.3,2.8-1.9,5.7-1.9,8.6c0,3.9,1.2,7.7,3.7,11.2c2.5,3.6,6.3,5.4,11.6,5.4c1.6,0,3.2-0.1,4.7-0.3
			c1.5-0.2,4.4-1,8.5-2.4V187.2z"/>
		<path class="st6" d="M134.9,189.6c-6.2,0-11.2-2.2-15-6.5c-3.7-4.4-5.6-9.9-5.6-16.5c0-6.6,1.9-12.1,5.6-16.5
			c3.7-4.3,8.7-6.5,15-6.5c6.2,0,11.2,2.2,14.9,6.5c3.7,4.3,5.6,9.8,5.6,16.5c0,6.6-1.9,12.1-5.6,16.5
			C146.1,187.5,141.1,189.6,134.9,189.6z M134.9,183.6c3.9,0,7-1.5,9.2-4.5c2.3-3,3.4-7.2,3.4-12.5c0-5.3-1.1-9.4-3.4-12.4
			c-2.3-3-5.4-4.5-9.2-4.5c-3.9,0-7,1.5-9.3,4.5c-2.3,3-3.4,7.2-3.4,12.4c0,5.3,1.1,9.4,3.4,12.5C127.9,182.1,131,183.6,134.9,183.6
			z"/>
		<path class="st6" d="M194.1,178.6c-2.2,3.6-4.9,6.4-8,8.2c-3.1,1.8-6,2.8-8.6,2.8c-3.7,0-6.9-1.6-9.8-4.7
			c-2.9-3.1-4.4-7.9-4.4-14.3c0-5.1,1-9.6,2.9-13.5c1.9-4,4.5-7.1,7.7-9.4c3.2-2.3,7.2-3.5,12-3.5c1.4,0,3.5,0.1,6.3,0.4
			c0.4,0.1,1,0.1,1.9,0.2v-19.4h7.3v63h-7.3V178.6z M194.1,170v-18.7c-2.6-0.7-5-1-7.2-1c-4.5,0-8.2,1.7-11.2,5.2
			c-3,3.5-4.5,8.2-4.5,14.2c0,4.3,0.8,7.6,2.4,9.8c1.6,2.2,3.5,3.3,5.6,3.3c2.3,0,4.8-1.1,7.5-3.4
			C189.5,176.9,191.9,173.9,194.1,170z"/>
		<path class="st6" d="M249.2,185.5c-5.8,2.7-11.3,4.1-16.5,4.1c-3.9,0-7.4-1-10.5-2.9c-3.1-2-5.6-4.7-7.4-8.4
			c-1.9-3.6-2.8-7.5-2.8-11.6c0-4,0.9-7.8,2.7-11.5c1.8-3.7,4.2-6.5,7.4-8.6c3.2-2,6.7-3.1,10.6-3.1c5.2,0,9.3,1.8,12.5,5.5
			c3.1,3.7,4.7,9.4,4.7,17.1v1.6h-30.1c0,3,0.6,5.8,1.9,8.3c1.3,2.5,2.9,4.4,5,5.6c2.1,1.3,4.4,1.9,7,1.9c4.7,0,9.9-1.6,15.5-4.7
			V185.5z M220.2,162.3h21.8v-1.1c0-3.6-0.9-6.4-2.6-8.5c-1.7-2.1-4.1-3.2-7-3.2c-2.9,0-5.5,1.1-7.6,3.2
			C222.6,155,221.1,158.1,220.2,162.3z"/>
	</g>
</g>
<g id="Layer_5">
	<g>
		<path d="M51.6,157.5c2.4,1.3,4.2,2.6,5.4,3.8c1.1,1.2,2,2.5,2.6,3.8c0.6,1.3,0.8,2.8,0.8,4.5c0,1.5-0.3,3.5-0.8,5.9l-1,4.5
			c-0.5,2.5-0.8,4.3-0.8,5.5c0,1.6,0.6,3,1.9,4.1c1.3,1.1,3.8,1.7,7.8,1.7h6.1v6.1h-6.2c-7.2,0-11.9-1.2-14-3.5
			c-2.1-2.3-3.1-5-3.1-7.9c0-1.6,0.2-3.2,0.6-5l0.7-3.2l0.7-3.5l0.5-2.1c0.2-1,0.3-1.9,0.3-2.9c0-2.5-0.8-4.6-2.5-6.3
			s-4.6-2.6-8.7-2.6h-3.5v-6.1h3.5c4.1,0,7-0.9,8.7-2.6c1.7-1.7,2.5-3.9,2.5-6.4c0-1-0.1-1.9-0.3-2.8l-0.5-2.1l-0.7-3.5l-0.7-3.2
			c-0.4-1.8-0.6-3.5-0.6-5.1c0-2.9,1-5.5,3.1-7.9c2.1-2.3,6.7-3.5,14-3.5h6.2v6.1h-6.1c-3.9,0-6.5,0.6-7.7,1.7s-1.9,2.5-1.9,4.2
			c0,1.2,0.3,3,0.8,5.5l1,4.5c0.5,2.4,0.8,4.4,0.8,5.9c0,1.7-0.3,3.2-0.8,4.5c-0.6,1.3-1.4,2.6-2.6,3.8
			C55.8,155,54,156.2,51.6,157.5z"/>
		<path d="M267.5,157.5c-2.5-1.3-4.3-2.6-5.4-3.8c-1.2-1.2-2-2.5-2.6-3.8c-0.6-1.3-0.8-2.8-0.8-4.5c0-1.5,0.3-3.5,0.8-5.9l1-4.5
			c0.5-2.5,0.8-4.3,0.8-5.5c0-1.6-0.6-3-1.9-4.1c-1.3-1.1-3.8-1.7-7.8-1.7h-6.1v-6.1h6.2c7.2,0,11.9,1.2,14,3.5
			c2.1,2.3,3.2,5,3.2,7.9c0,1.6-0.2,3.3-0.6,5.1l-0.7,3.2l-0.7,3.5l-0.5,2.1c-0.2,1-0.3,2-0.3,2.9c0,2.4,0.8,4.5,2.5,6.3
			c1.7,1.7,4.6,2.6,8.7,2.6h3.5v6.1h-3.5c-4.1,0-7,0.9-8.7,2.6c-1.7,1.7-2.5,3.9-2.5,6.4c0,0.9,0.1,1.8,0.3,2.7l0.5,2.1l0.7,3.5
			l0.7,3.2c0.4,1.8,0.6,3.5,0.6,5.1c0,2.9-1.1,5.6-3.2,7.9c-2.1,2.3-6.8,3.5-14,3.5h-6.2v-6.1h6.1c3.9,0,6.5-0.6,7.8-1.7
			c1.3-1.1,1.9-2.5,1.9-4.1c0-1.2-0.3-3-0.8-5.4l-1-4.5c-0.5-2.4-0.8-4.4-0.8-5.9c0-1.7,0.3-3.2,0.8-4.5c0.6-1.3,1.4-2.6,2.6-3.8
			C263.2,160.1,265,158.8,267.5,157.5z"/>
	</g>
	<g id="XMLID_1_">
		<g>
			<path class="st6" d="M1.9,187.3c0.1,2.8,0.1,4.6,0.2,6.5c0,0.4,0,0.8,0.2,1.1c-0.1,1-0.1,2-0.2,3c0,0,0,0.1,0,0.1
				c-0.2,3.6-0.4,7.2-0.5,10.7c-0.1,2,0.1,3.9,0.5,5.7c0,6,0.7,12,1.1,18.1c0.3,4.3,0.7,8.7,1.5,13c1.4,6.9,1.9,13.9,2.6,20.9
				c0.6,6.3,1.4,12.7,1.2,19c-0.1,2.9,0.5,5.8,0.9,8.7c0.4,2.5,1.6,4.8,3.2,6.8c3.1,3.9,7.6,6.2,12.3,7.6c2.9,0.9,5.9,1.7,8.8,2.3
				l-0.5,1.9c-3.8-0.8-7.7-1.2-11.5-2c-5-1.1-9.1-3.8-12.5-7.4c-1.7-1.8-1.9-4.4-3.6-6.3c-0.1-0.1-0.2-0.3-0.1-0.4
				c1.9-2.5,0.1-4.9-0.2-7.3c-0.3-2.5,0.1-5-0.6-7.5c-0.1-0.4-0.2-0.9-0.2-1.4c-0.2-8.4-1.9-16.7-2.2-25.1
				c-0.3-9.1-2.4-18.1-2.2-27.2c0.2-11-0.5-22-0.5-33c0-4.8,0.1-9.6-0.2-14.3l1.9-0.1C1.5,183.1,1.7,185.4,1.9,187.3z"/>
			<path class="st7" d="M321.3,212.5c-0.1,6.4,0.1,12.9,0.5,19.3c0.3,3.6,0,7.3,0.1,10.9c0.2,7,0.4,14,0.4,21
				c-0.1,7.8-0.2,15.6-0.7,23.4c-0.4,5.9-1.5,11.7-2,17.5c-0.3,3.6-1.3,7-1.3,10.6c0,1.5-1.1,2.8-2.2,3.9c-1.1,1.1-2.3,1.5-4.1,1.5
				c-8.7-0.1-17.5-0.6-26.2,0c-4.1,0.2-8,1.4-12.1,1.3c-8-0.3-16-0.4-23.9-1c-8.7-0.6-17.3-1.9-26-2.5c-5.4-0.4-10.9-0.7-16.3-1.3
				c-9.1-0.9-18.1-1.3-27.2-1.6c-4.4-0.2-8.7,0-13.1,0.3c-6.2,0.3-12.4,0.3-18.7,0c-5.4-0.2-10.7-0.4-16-1.3c-0.1,0-0.1,0-0.2,0
				c-7.2,0.2-14.3-1-21.4,0c-5.1,0.7-10.3,1.3-15.4,1.3c-6.6,0-13.1-0.1-19.6-0.5c-6-0.3-12-0.3-18-0.3c-7.9-0.1-15.8-0.3-23.6-2.1
				c-0.3-0.1-0.5-0.1-0.8-0.2l0.5-1.9c5,1,10,1.7,15.1,1.6c6.9-0.1,13.7,0.3,20.6,0.4c6.8,0.1,13.5,0.8,20.3,0.8
				c7.8,0,15.7-0.8,23.4-1.6c2.9-0.3,5.9-0.5,8.8-0.4c6.8,0.3,13.6,1.2,20.4,1.5c6.7,0.3,13.4,0.7,20.2,0.3
				c12.8-0.7,25.5-0.7,38.2,0.6c0.7,0.1,1.2,0,1.2-0.7c0-0.1,0-0.3,0.1-0.4c1.4,0,2.8-0.1,4.3-0.2c0.7-0.1,1.5-0.2,2.2-0.3
				c-0.2,1.4-0.1,2.1,1.6,2.2c0.6,0,1.2,0.3,1.9,0.3c7.9,0.6,15.9,1.2,23.8,2.2c7,0.9,14.2,1.5,21.3,1.7c5.7,0.2,11.5,0.6,17.3,0.4
				c2.8-0.1,5.5-0.9,8.3-0.9c7-0.1,14.1-0.4,21.1-0.4c2.5,0,5-0.5,7.5,0.2c1.8,0.5,2.7-0.2,3.1-1.7c1.2-3.5,2.5-6.9,3-10.7
				c0.7-4.9,1.2-9.8,1.7-14.7c0.4-4.4,0.7-8.8,0.7-13.3c0.1-4.2,0-8.4,0.2-12.5c0.4-6.2-0.3-12.4,0.1-18.6c0.2-2.7-0.7-5.4-0.5-8.1
				c0.1-1.9,0.2-3.9,0.1-5.7c-0.8-7.5-0.5-15.1-0.7-22.7c-0.1-2.2,0.6-4.4,0.1-6.7c-1.2-5.7-1.2-11.4-1.4-17.2
				c-0.3-8.6-0.5-17.2-0.6-25.7c-0.1-4.7-0.5-9.3-0.8-14c-0.1-1.1,0.4-2.3,0.4-3.3l1.6-0.1c0.2,4.2,0.4,8.3,0.8,12.5
				c0.4,4.7,0.6,9.4,0.4,14.2c-0.3,4.9,0.6,9.8,0.6,14.7c0,3.6,0.2,7.2,0.2,10.8c0.1,2.8,0.7,5.5,1.2,8.2
				C322,206.7,321.4,209.6,321.3,212.5z"/>
			<path class="st6" d="M315.5,133c-0.4-5.8-1.3-11.6-1.3-17.4c-0.1-6.3-0.9-12.5-1.3-18.8c-0.3-5.2-0.5-10.3-0.6-15.5
				c-0.1-5.6,0.6-11.3-1.5-16.8c-0.1-0.2-0.1-0.5,0-0.8c0.6-2.8,0.6-5.6,0.4-8.3l2.6-0.2c0.1,1.2,0.2,2.4,0.4,3.5
				c0.1,0.7,0.2,1.3,0.3,2c0.2,5.6,1,11.2,1.5,16.8c0.4,4.6,0.6,9.3,0.4,13.9c-0.3,8.2,0.7,16.2,0.7,24.4c0,6.6,0,13.3,0.6,19.9
				c0.2,2.6,0.4,5.1,0.5,7.7l-1.6,0.1c0-0.2,0-0.4-0.1-0.6C315.8,139.6,315.8,136.3,315.5,133z"/>
			<path class="st6" d="M-1.3,174.9c-0.9-6,0.2-11.9,0.2-17.8c0-0.3,0.1-0.5,0-0.8c-0.6-8.9-0.1-17.9,0.2-26.8
				c0.3-8.6,0.4-17.2,0.8-25.8C0.3,95.8,0.6,87.9,0.8,80c0.1-6.4,0.9-12.8,1.1-19.2C1.9,60,2,59.1,2,58.3l2.2,0.1
				c-0.1,1.7-0.1,3.4,0,5.2c0.1,1.3,0.1,2.5,0,3.8C3.6,73.6,3.6,80,3.1,86.4c-0.3,3-0.2,6.1-0.2,9.1c0,8.8-1,17.6-0.8,26.4
				c0.2,5.4,0.2,10.8-0.1,16.2c-0.1,1.1,0.2,1.7,1,1.9c-0.1,0.8-0.1,1.7-0.1,2.5c-0.6,0.5-0.5,1.5-0.3,3.6c0,0.2,0,0.4,0,0.6
				c0.7,1.4-1,2.3-1,3.5c-0.3,4.6-0.5,9.2-0.7,13.8c-0.2,4.2,0.3,8.4,0.2,12.6c0,1.4,0,2.8,0.1,4.1l-1.9,0.1
				C-0.8,178.8-1,176.9-1.3,174.9z"/>
			<path class="st6" d="M311.2,55.4c-0.1-1.8-0.3-3.5-0.6-5.3c-0.7-5.2-0.2-10.4-1.6-15.5c-0.8-3.1-1.6-6.7-0.5-10.1
				c0.1-0.4,0.2-0.8-0.2-1.1c-1-0.9-0.7-2-0.4-3c0.4-1.3,0.3-2.5,0.4-3.7c0.2-2.9-0.6-5.8-0.8-8.7c-0.1-0.9-0.3-1.8-0.8-2.6l1.8-1.5
				c1.3,2,2.5,4,3,6.4c0.4,2.4,0.3,4.9,1.2,7.2c0.3,0.8-0.3,1.6-0.3,2.3c-0.2,4.1-0.2,8.2-0.3,12.3c-0.1,2.7,0.8,5.4,1.4,8
				c0.4,1.7,0.2,3.4,0.1,5.1c-0.1,3.4-0.2,6.8,0.1,10.2L311.2,55.4z"/>
			<path class="st6" d="M246.6,4.2c-4.1,0.2-8.1,0.3-12.2,0.4l-0.1-2.1c9.2-0.2,18.4-1.3,27.6-2.1c5.4-0.5,10.7-1.2,16-1.7
				c5.3-0.5,10.5-0.6,15.8-0.7c3-0.1,6,0.1,8.8,1.3c1.1,0.5,2.6-0.3,3.5,1c0.8,1.2,1.7,2.3,2.5,3.5l-1.8,1.5c-0.6-1-1.6-1.9-3.2-2.2
				c-2.2-0.5-4.2-1.8-6.6-1.2c-0.4,0.1-1-0.7-1.5-0.1c-0.5,0.6,0.8,0.6,0.8,1.4c-5.7-0.9-11.4-0.8-17-1.1c-6.7-0.3-13.3,1-19.9,0.9
				c-0.3,0-0.6,0-0.8,0.1C254.6,4.1,250.6,4,246.6,4.2z"/>
			<path class="st6" d="M90.5,4.5c-0.6,0-1,0.2-1.2,0.4c-1.3,0-2.6,0.1-3.9,0.3c-0.4-0.5-1-0.5-2-0.5C72.3,4.5,61.2,5.7,50.1,5.8
				c-3.7,0-7.4,0.5-11.1,0.6c-8.6,0.3-17,1.5-25.4,3c-1.1,0.2-2.1,0.5-2.8,1.3c-1.4,1.6-2.9,3.1-4.1,4.8c-0.7,1-1.6,2.1-1.4,3.5
				c0.5,3.8,0.2,7.5-0.2,11.3c-0.6,5.4-0.3,10.9-0.4,16.4c-0.1,3.9-0.5,7.8-0.6,11.7L2,58.3c0.4-11.8,0.6-23.6,0.2-35.4
				C2,16.8,5.1,12.2,9.7,8.2c0.9-0.8,2.2-1.1,3.3-1.2c8.4-0.9,16.7-3,26-2.8c8.3-0.5,17.5-0.8,26.5-1.4c6-0.4,12.1-0.7,18.1-0.7
				c6.2,0.1,12.4-0.3,18.5,0.1c12.5,1,25,0.1,37.5,0.3c6.3,0.1,12.6-0.5,18.9-0.6c8.7-0.1,17.4,0.3,26.1,0.7
				c6.6,0.3,13.2,0,19.8,0.3c7.5,0.4,15-0.8,22.5-0.5c2.6,0.1,5.1,0.1,7.7,0l0.1,2.1c-8.1,0.2-16.2,0.4-24.3,0.6
				c-10.9,0.3-21.7-0.1-32.6-0.6c-9.6-0.4-19.3-0.8-29,0c-9.1,0.8-18.4,0.6-27.6,0.4c-4.8-0.1-9.7,0.2-14.5-0.2
				C101.2,4.5,95.9,4.2,90.5,4.5z"/>
		</g>
		<g>
		</g>
	</g>
</g>
<g id="Layer_4" class="st1">
	<g class="st3">
		<path d="M43,197.9V127h28.4v5.4H49.5v60h21.8v5.4H43z"/>
		<path d="M271.4,127v70.9h-28.4v-5.4h21.8v-60h-21.8V127H271.4z"/>
	</g>
</g>
<g id="Layer_2" class="st1">
	<g class="st3">
		<pattern  id="SVGID_1_" xlink:href="#New_Pattern_Swatch_2" patternTransform="matrix(0.8 0 0 1.5 -1590.1879 3803.4419)">
		</pattern>
		<circle class="st8" cx="160.8" cy="165.1" r="144"/>
		<circle class="st9" cx="160.1" cy="165.1" r="144"/>
	</g>
	<g class="st3">
		<path class="st4" d="M111.9,191.8c-4.4,1.5-8.6,2.2-12.5,2.2c-3.9,0-7.4-0.9-10.5-2.7c-3.1-1.8-5.4-4.3-7.2-7.4
			c-1.7-3.1-2.6-6.6-2.6-10.6c0-6,1.9-10.9,5.8-14.8c3.9-3.9,8.6-5.9,14-5.9c4.1,0,8.3,0.8,12.9,2.3v6.3c-4.6-2.1-8.7-3.1-12.3-3.1
			c-2.4,0-4.6,0.6-6.8,1.8c-2.1,1.2-3.7,3-4.9,5.5c-1.1,2.5-1.7,5.1-1.7,7.7c0,3.5,1.1,6.9,3.3,10.1c2.2,3.2,5.7,4.8,10.4,4.8
			c1.4,0,2.8-0.1,4.2-0.3c1.4-0.2,3.9-0.9,7.7-2.2V191.8z"/>
		<path class="st4" d="M138.2,194c-5.6,0-10.1-2-13.5-5.9c-3.4-3.9-5.1-8.9-5.1-14.9c0-6,1.7-10.9,5.1-14.8
			c3.4-3.9,7.9-5.9,13.5-5.9c5.6,0,10.1,2,13.5,5.9c3.4,3.9,5.1,8.9,5.1,14.8c0,6-1.7,10.9-5.1,14.9C148.3,192,143.8,194,138.2,194z
			 M138.2,188.6c3.5,0,6.3-1.4,8.3-4.1c2.1-2.7,3.1-6.5,3.1-11.2c0-4.7-1-8.5-3.1-11.2c-2.1-2.7-4.8-4.1-8.3-4.1
			c-3.5,0-6.3,1.4-8.4,4.1c-2.1,2.7-3.1,6.4-3.1,11.2c0,4.8,1,8.5,3.1,11.2C131.9,187.2,134.7,188.6,138.2,188.6z"/>
		<path class="st4" d="M191.5,184.1c-2,3.3-4.4,5.8-7.2,7.4s-5.4,2.5-7.7,2.5c-3.3,0-6.2-1.4-8.9-4.3c-2.6-2.8-3.9-7.1-3.9-12.9
			c0-4.5,0.9-8.6,2.6-12.2c1.7-3.6,4.1-6.4,7-8.5s6.5-3.1,10.8-3.1c1.2,0,3.1,0.1,5.6,0.4c0.4,0,0.9,0.1,1.7,0.2v-17.5h6.5v56.7
			h-6.5V184.1z M191.5,176.3v-16.9c-2.3-0.6-4.5-0.9-6.5-0.9c-4,0-7.4,1.6-10.1,4.7c-2.7,3.1-4,7.4-4,12.7c0,3.9,0.7,6.8,2.2,8.8
			c1.5,2,3.1,3,5,3c2,0,4.3-1,6.8-3.1C187.4,182.6,189.6,179.8,191.5,176.3z"/>
		<path class="st4" d="M241.2,190.3c-5.2,2.5-10.2,3.7-14.8,3.7c-3.5,0-6.7-0.9-9.5-2.6c-2.8-1.8-5-4.3-6.7-7.5s-2.5-6.8-2.5-10.5
			c0-3.6,0.8-7,2.4-10.3s3.8-5.9,6.7-7.7c2.9-1.8,6-2.8,9.6-2.8c4.7,0,8.4,1.7,11.2,5s4.2,8.4,4.2,15.4v1.4h-27.1
			c0,2.7,0.6,5.2,1.7,7.5c1.1,2.3,2.6,3.9,4.5,5.1s4,1.7,6.3,1.7c4.2,0,8.9-1.4,14-4.2V190.3z M215,169.4h19.6v-0.9
			c0-3.2-0.8-5.7-2.4-7.6c-1.6-1.9-3.7-2.8-6.3-2.8c-2.6,0-4.9,1-6.9,2.9C217.2,162.8,215.8,165.7,215,169.4z"/>
	</g>
	<g class="st3">
		<path class="st4" d="M33.3,165.1l38.2-36v11.5L45.4,165l26.1,24.7v11.3L33.3,165.1z"/>
		<path class="st4" d="M287.6,165.1l-38.2,36v-11.4l26.1-24.5l-26.1-24.8v-11.3L287.6,165.1z"/>
	</g>
</g>
</svg>
