<?xml version="1.0" encoding="utf-8"?>
<!-- Generator: Adobe Illustrator 19.2.1, SVG Export Plug-In . SVG Version: 6.00 Build 0)  -->
<!DOCTYPE svg PUBLIC "-//W3C//DTD SVG 1.1//EN" "http://www.w3.org/Graphics/SVG/1.1/DTD/svg11.dtd">
<svg version="1.1" id="Layer_1" xmlns="http://www.w3.org/2000/svg" xmlns:xlink="http://www.w3.org/1999/xlink" x="0px" y="0px"
	 viewBox="0 0 283.5 214.3" style="enable-background:new 0 0 283.5 214.3;" xml:space="preserve">
<style type="text/css">
	.st0{fill:#231F20;}
	.st1{fill:#EB8623;}
	.st2{fill:#91C73E;}
	.st3{fill:#C92562;}
	.st4{fill:#4EACB7;}
</style>
<g>
	<g>
		<path class="st0" d="M14.4,169.6l0.2-3.5h-0.2l-3.6,5.9H10l-3.8-5.9H6.1l0.2,3.2v12.4H2v-22.6h4.5l3.9,6.3h0.1l3.8-6.3h4.5v22.6
			h-4.4V169.6z"/>
		<path class="st0" d="M27.1,170.4c0-1.8,0.2-3.5,0.5-4.9c0.3-1.5,0.9-2.7,1.6-3.7s1.6-1.8,2.7-2.3c1.1-0.5,2.3-0.8,3.8-0.8
			c1.6,0,2.9,0.3,3.9,0.9c1.1,0.6,2,1.4,2.6,2.4s1.2,2.3,1.5,3.7c0.3,1.4,0.5,3,0.5,4.7c0,3.7-0.7,6.6-2.1,8.6
			c-1.4,2.1-3.5,3.1-6.4,3.1c-1.6,0-2.9-0.3-4-0.9c-1.1-0.6-2-1.4-2.6-2.4c-0.7-1-1.2-2.3-1.5-3.7C27.3,173.7,27.1,172.1,27.1,170.4
			z M31.8,170.4c0,1.1,0,2.1,0.1,3.1c0.1,0.9,0.3,1.8,0.5,2.5c0.3,0.7,0.7,1.3,1.2,1.7c0.5,0.4,1.2,0.6,2,0.6c0.8,0,1.4-0.2,1.9-0.5
			c0.5-0.3,0.9-0.8,1.2-1.4c0.3-0.6,0.5-1.5,0.6-2.4c0.1-1,0.2-2.1,0.2-3.5c0-1.1,0-2.1-0.1-3c-0.1-0.9-0.2-1.8-0.5-2.5
			c-0.3-0.7-0.7-1.3-1.2-1.7c-0.5-0.4-1.2-0.6-2.1-0.6c-1.5,0-2.5,0.7-3.1,2C32,165.8,31.8,167.8,31.8,170.4z"/>
		<path class="st0" d="M57.1,168.3H57l0.2,2.7v10.7H53v-22.6h3.9l7.8,13.8h0.2l-0.3-2.7v-11.1h4.2v22.6h-3.9L57.1,168.3z"/>
		<path class="st0" d="M77.5,170.4c0-1.8,0.2-3.5,0.5-4.9c0.3-1.5,0.9-2.7,1.6-3.7s1.6-1.8,2.7-2.3c1.1-0.5,2.3-0.8,3.8-0.8
			c1.6,0,2.9,0.3,3.9,0.9c1.1,0.6,2,1.4,2.6,2.4s1.2,2.3,1.5,3.7c0.3,1.4,0.5,3,0.5,4.7c0,3.7-0.7,6.6-2.1,8.6
			c-1.4,2.1-3.5,3.1-6.4,3.1c-1.6,0-2.9-0.3-4-0.9c-1.1-0.6-2-1.4-2.6-2.4c-0.7-1-1.2-2.3-1.5-3.7C77.7,173.7,77.5,172.1,77.5,170.4
			z M82.2,170.4c0,1.1,0,2.1,0.1,3.1c0.1,0.9,0.3,1.8,0.5,2.5c0.3,0.7,0.7,1.3,1.2,1.7c0.5,0.4,1.2,0.6,2,0.6c0.8,0,1.4-0.2,1.9-0.5
			c0.5-0.3,0.9-0.8,1.2-1.4c0.3-0.6,0.5-1.5,0.6-2.4c0.1-1,0.2-2.1,0.2-3.5c0-1.1,0-2.1-0.1-3c-0.1-0.9-0.2-1.8-0.5-2.5
			c-0.3-0.7-0.7-1.3-1.2-1.7c-0.5-0.4-1.2-0.6-2.1-0.6c-1.5,0-2.5,0.7-3.1,2C82.4,165.8,82.2,167.8,82.2,170.4z"/>
		<path class="st0" d="M109.8,172.2h-2.3v9.4h-4.4v-22.6h4.4v9.2h2.3l5.2-9.2h5l-6.4,10.9l7.2,11.7h-5.5L109.8,172.2z"/>
		<path class="st0" d="M139.7,176.7h-6.8l-1.6,5h-4.4l7.3-22.6h4.4l7.3,22.6h-4.7L139.7,176.7z M133.9,173.1h4.8l-2.3-7.6h-0.3
			L133.9,173.1z"/>
		<path class="st0" d="M153.7,177.7h5.7V163h-5.7v-3.9h15.9v3.9h-5.8v14.7h5.8v3.9h-15.9V177.7z"/>
	</g>
	<g>
		<path class="st0" d="M202.5,174.1h3.6v6.5c-0.7,0.5-1.6,0.9-2.6,1.2c-1.1,0.3-2.2,0.4-3.3,0.4c-1.4,0-2.8-0.2-4.1-0.6
			c-1.3-0.4-2.4-1.1-3.4-2c-1-0.9-1.7-2.2-2.3-3.7c-0.6-1.5-0.9-3.3-0.9-5.4c0-2.2,0.3-4.1,1-5.6c0.7-1.5,1.5-2.7,2.5-3.6
			c1-0.9,2.2-1.6,3.5-2c1.3-0.4,2.5-0.6,3.7-0.6c1.3,0,2.4,0.1,3.3,0.3c0.9,0.2,1.6,0.5,2.2,0.7v6.7h-3.6v-3.7
			c-0.7-0.1-1.4-0.2-2.1-0.2c-0.8,0-1.6,0.2-2.3,0.5c-0.7,0.3-1.4,0.8-1.9,1.4c-0.5,0.6-1,1.5-1.3,2.4c-0.3,1-0.5,2.1-0.5,3.5
			c0,1.2,0.1,2.2,0.4,3.2c0.3,1,0.7,1.8,1.2,2.5c0.5,0.7,1.2,1.2,2,1.6c0.8,0.4,1.7,0.6,2.6,0.6c0.7,0,1.4-0.1,2.1-0.2V174.1z"/>
		<path class="st0" d="M214.6,170.4c0-1.8,0.2-3.5,0.5-4.9c0.3-1.5,0.9-2.7,1.6-3.7c0.7-1,1.6-1.8,2.7-2.3c1.1-0.5,2.3-0.8,3.8-0.8
			c1.6,0,2.9,0.3,3.9,0.9s2,1.4,2.6,2.4c0.7,1,1.2,2.3,1.5,3.7c0.3,1.4,0.5,3,0.5,4.7c0,3.7-0.7,6.6-2.1,8.6
			c-1.4,2.1-3.5,3.1-6.4,3.1c-1.6,0-2.9-0.3-4-0.9c-1.1-0.6-2-1.4-2.6-2.4c-0.7-1-1.2-2.3-1.5-3.7
			C214.7,173.7,214.6,172.1,214.6,170.4z M219.2,170.4c0,1.1,0,2.1,0.1,3.1c0.1,0.9,0.3,1.8,0.5,2.5c0.3,0.7,0.7,1.3,1.2,1.7
			c0.5,0.4,1.2,0.6,2,0.6c0.8,0,1.4-0.2,1.9-0.5c0.5-0.3,0.9-0.8,1.2-1.4c0.3-0.6,0.5-1.5,0.6-2.4c0.1-1,0.2-2.1,0.2-3.5
			c0-1.1,0-2.1-0.1-3c-0.1-0.9-0.2-1.8-0.5-2.5c-0.3-0.7-0.7-1.3-1.2-1.7c-0.5-0.4-1.2-0.6-2.1-0.6c-1.5,0-2.5,0.7-3.1,2
			C219.5,165.8,219.2,167.8,219.2,170.4z"/>
		<path class="st0" d="M240.2,159.1c0.2,0,0.5-0.1,1-0.1c0.5,0,1-0.1,1.6-0.1c0.6,0,1.2-0.1,1.9-0.1c0.7,0,1.2,0,1.8,0
			c2,0,3.7,0.3,5,0.9c1.3,0.6,2.4,1.4,3.1,2.4c0.8,1,1.3,2.2,1.6,3.6c0.3,1.4,0.5,2.9,0.5,4.5c0,1.5-0.2,2.9-0.5,4.4
			c-0.3,1.4-0.8,2.7-1.6,3.8c-0.8,1.1-1.9,2-3.3,2.7c-1.4,0.7-3.2,1-5.3,1c-0.3,0-0.8,0-1.3,0c-0.5,0-1.1,0-1.6-0.1
			c-0.6,0-1.1-0.1-1.6-0.1c-0.5,0-0.9-0.1-1.2-0.1V159.1z M246.7,162.7c-0.4,0-0.8,0-1.2,0c-0.4,0-0.7,0.1-0.9,0.1V178
			c0.1,0,0.2,0,0.4,0c0.2,0,0.3,0,0.5,0c0.2,0,0.4,0,0.5,0c0.2,0,0.3,0,0.4,0c1.2,0,2.2-0.2,3-0.7c0.7-0.5,1.3-1.1,1.7-1.8
			c0.4-0.8,0.6-1.6,0.7-2.6c0.1-0.9,0.2-1.9,0.2-2.8c0-0.8,0-1.7-0.1-2.6c-0.1-0.9-0.3-1.7-0.7-2.4c-0.4-0.7-0.9-1.3-1.6-1.8
			C248.9,162.9,247.9,162.7,246.7,162.7z"/>
		<path class="st0" d="M266.1,159.1h14.8v3.9h-10.4v5.3h9.6v3.9h-9.6v5.5H281v3.9h-15V159.1z"/>
	</g>
	<g>
		<path class="st0" d="M12.2,204.2h2.7v4.9c-0.5,0.4-1.2,0.7-2,0.9c-0.8,0.2-1.6,0.3-2.5,0.3c-1.1,0-2.1-0.2-3.1-0.5
			c-1-0.3-1.8-0.8-2.6-1.5c-0.7-0.7-1.3-1.6-1.8-2.8c-0.4-1.1-0.7-2.5-0.7-4.1c0-1.7,0.2-3.1,0.7-4.2c0.5-1.1,1.1-2.1,1.9-2.7
			s1.7-1.2,2.6-1.5c1-0.3,1.9-0.5,2.8-0.5c1,0,1.8,0.1,2.5,0.2c0.7,0.2,1.2,0.4,1.7,0.6v5.1H12v-2.8c-0.5-0.1-1-0.1-1.6-0.1
			c-0.6,0-1.2,0.1-1.8,0.4c-0.5,0.2-1,0.6-1.4,1.1c-0.4,0.5-0.7,1.1-1,1.9c-0.2,0.7-0.3,1.6-0.3,2.6c0,0.9,0.1,1.7,0.3,2.4
			c0.2,0.7,0.5,1.4,0.9,1.9c0.4,0.5,0.9,0.9,1.5,1.2c0.6,0.3,1.3,0.4,2,0.4c0.5,0,1.1,0,1.6-0.1V204.2z"/>
		<path class="st0" d="M42.8,201.3c0-1.4,0.1-2.6,0.4-3.8c0.3-1.1,0.7-2.1,1.2-2.8c0.5-0.8,1.2-1.3,2-1.8c0.8-0.4,1.8-0.6,2.9-0.6
			c1.2,0,2.2,0.2,3,0.7c0.8,0.4,1.5,1.1,2,1.8c0.5,0.8,0.9,1.7,1.1,2.8c0.2,1.1,0.4,2.3,0.4,3.6c0,2.8-0.5,5-1.6,6.6
			c-1.1,1.6-2.7,2.4-4.9,2.4c-1.2,0-2.2-0.2-3-0.7c-0.8-0.4-1.5-1.1-2-1.8c-0.5-0.8-0.9-1.7-1.1-2.8
			C42.9,203.8,42.8,202.6,42.8,201.3z M46.3,201.3c0,0.8,0,1.6,0.1,2.3c0.1,0.7,0.2,1.3,0.4,1.9c0.2,0.5,0.5,1,0.9,1.3
			c0.4,0.3,0.9,0.5,1.5,0.5c0.6,0,1-0.1,1.4-0.4c0.4-0.2,0.7-0.6,0.9-1.1c0.2-0.5,0.4-1.1,0.5-1.9c0.1-0.7,0.1-1.6,0.1-2.6
			c0-0.8,0-1.6-0.1-2.3c-0.1-0.7-0.2-1.4-0.4-1.9c-0.2-0.5-0.5-1-0.9-1.3c-0.4-0.3-0.9-0.5-1.6-0.5c-1.1,0-1.9,0.5-2.3,1.5
			C46.5,197.9,46.3,199.4,46.3,201.3z"/>
		<path class="st0" d="M96.6,200.8l0.1-2.7h-0.1l-2.7,4.5h-0.6l-2.9-4.5h-0.1l0.1,2.4v9.4h-3.2v-17.2h3.4l2.9,4.8h0.1l2.9-4.8h3.4
			v17.2h-3.4V200.8z"/>
		<path class="st0" d="M135,192.9c0.7-0.1,1.4-0.2,2.3-0.3c0.8-0.1,1.6-0.1,2.5-0.1c0.9,0,1.7,0.1,2.6,0.2c0.9,0.1,1.6,0.4,2.3,0.8
			c0.7,0.4,1.2,1,1.7,1.7c0.4,0.7,0.7,1.7,0.7,2.9c0,1-0.2,1.9-0.6,2.7c-0.4,0.7-0.9,1.4-1.5,1.8c-0.6,0.5-1.3,0.8-2.1,1.1
			c-0.8,0.2-1.6,0.3-2.5,0.3c-0.1,0-0.2,0-0.4,0s-0.4,0-0.6,0c-0.2,0-0.4,0-0.6,0c-0.2,0-0.3,0-0.4,0v5.9H135V192.9z M140,195.4
			c-0.3,0-0.6,0-0.9,0c-0.3,0-0.5,0.1-0.7,0.1v5.6c0.1,0,0.2,0,0.3,0c0.1,0,0.3,0,0.4,0c0.1,0,0.3,0,0.4,0c0.1,0,0.2,0,0.3,0
			c0.4,0,0.9,0,1.3-0.1c0.4-0.1,0.8-0.2,1.2-0.5c0.3-0.2,0.6-0.5,0.8-0.9c0.2-0.4,0.3-0.9,0.3-1.5c0-0.5-0.1-1-0.3-1.3
			c-0.2-0.4-0.5-0.6-0.8-0.8c-0.3-0.2-0.7-0.4-1.1-0.4C140.9,195.4,140.4,195.4,140,195.4z"/>
		<path class="st0" d="M185.5,206.1h-5.1l-1.2,3.8h-3.4l5.5-17.2h3.4l5.5,17.2h-3.5L185.5,206.1z M181.1,203.4h3.7l-1.7-5.7h-0.2
			L181.1,203.4z"/>
		<path class="st0" d="M226.3,199.8h-0.1l0.1,2v8.1h-3.2v-17.2h2.9l5.9,10.5h0.1l-0.2-2.1v-8.4h3.2v17.2h-2.9L226.3,199.8z"/>
		<path class="st0" d="M271.7,203.6l-5.5-10.9h4l3.3,7.1h0.1l3.4-7.1h3.6l-5.5,10.8v6.4h-3.4V203.6z"/>
	</g>
</g>
<g>
	<polygon class="st1" points="125.3,54 107.2,30.2 68.1,60.1 99.4,101.1 108.8,93.9 84.7,62.3 105,46.9 123.1,70.6 159.8,42.6 
		152.6,33.2 	"/>
	<polygon class="st2" points="165.4,61.8 189.1,43.8 159.3,4.6 118.3,35.9 125.5,45.3 157,21.2 172.5,41.5 148.8,59.6 176.8,96.3 
		186.2,89.1 	"/>
	<polygon class="st3" points="157.8,101.7 175.8,125.4 215,95.6 183.7,54.6 174.3,61.8 198.3,93.3 178.1,108.8 160,85.1 
		123.3,113.1 130.5,122.5 	"/>
	<polygon class="st4" points="116.8,92.7 93.1,110.8 123,149.9 163.9,118.7 156.7,109.2 125.2,133.3 109.7,113 133.5,94.9 
		105.4,58.2 96,65.4 	"/>
</g>
</svg>
