<?xml version="1.0" encoding="utf-8"?>
<!-- Generator: Adobe Illustrator 19.2.1, SVG Export Plug-In . SVG Version: 6.00 Build 0)  -->
<!DOCTYPE svg PUBLIC "-//W3C//DTD SVG 1.1//EN" "http://www.w3.org/Graphics/SVG/1.1/DTD/svg11.dtd">
<svg version="1.1" xmlns="http://www.w3.org/2000/svg" xmlns:xlink="http://www.w3.org/1999/xlink" x="0px" y="0px"
	 viewBox="0 0 274 274" style="enable-background:new 0 0 274 274;" xml:space="preserve">
<style type="text/css">
	.st0{display:none;}
	.st1{display:inline;fill:none;stroke:#72CEEA;stroke-miterlimit:10;}
	.st2{display:inline;}
	.st3{fill:none;stroke:#565656;stroke-width:2.9416;stroke-linecap:round;stroke-linejoin:round;}
	.st4{fill:#FFFFFF;}
	.st5{fill:none;stroke:#000000;stroke-width:4.9027;stroke-miterlimit:10;}
	.st6{font-family:'Candela-Bold';}
	.st7{font-size:147.0817px;}
	.st8{fill:#B2B2B2;}
	.st9{fill:#232323;}
	.st10{fill:#3D3D3D;}
	.st11{fill:#515151;}
	.st12{fill:#636363;}
</style>
<g id="Layer_1" class="st0">
	<path class="st1" d="M137,265.5"/>
	<g class="st2">
		<g>
			<g>
				<path class="st3" d="M65.5,34.9c0.3,0.6,16.3-10.2,16.6-9.6c0.5,0.8-36.8,25.1-36.2,26.1c0.8,1.3,58.9-36.2,59.9-34.5
					c1,1.7-66.5,42.7-65.7,44.1c1.4,2.4,83.4-50.5,84.4-48.7c1.3,2.3-93.7,56.4-92.1,59.2c1.6,2.6,97.2-59.9,98.8-57.1
					c1.6,2.7-107.2,63-105.4,66.1c1.5,2.5,112.7-69.1,114.4-66.1C142,17.3,17.1,87.7,18.9,90.7c2.1,3.6,128-78.6,130-75
					C150.9,19,19.5,91.8,21.2,95c2,3.3,135.4-83,137.5-79.3c1.7,2.9-143.6,84.2-141.8,87.7c2.5,4.4,150.1-92.2,152.5-88.1
					c2.3,3.9-153.7,88.9-151.3,93c2.3,3.9,152.3-93.2,154.6-89.2c2.1,3.5-164.7,94.3-162,98.9c2,3.3,166.5-102.4,169.1-97.7
					c2.9,5.1-171.1,98.4-168.4,103.3c2.4,4,167.6-101.8,169.7-98c2.8,4.9-167.9,97.7-165.7,101.4c2.8,4.9,169.7-104.4,172.6-99.6
					C190.4,31.1,9.3,129,12.2,134c2.3,3.9,179.6-109.7,182.2-105.2c2.3,3.9-182.9,104.4-179.9,109.5
					c2.5,4.3,181.8-111.8,184.7-106.7c3.3,5.7-191.8,109.8-188.9,114.8c2.5,4.3,190.8-116.9,193.8-111.9
					c3.2,5.6-194.9,111.5-191.8,117c3,5.3,196.5-121.1,199.8-115.4c2.4,4-200.3,114.3-197.3,119.5c2.5,4.4,191.7-117.1,194.5-112.3
					c2.9,5.1-199,114.3-196.3,119c2.7,4.7,200-123.4,203.5-117.5c2.9,5.3-205.4,118-202.6,122.9c2.4,4.1,206.9-125.6,209.6-121
					c3.1,5.4-211.8,120.8-208.8,126C17.5,177.5,218,49.2,220.8,53.9c2.5,4.4-205.6,119-203.2,123.4c3.4,5.9,208.6-126.5,211.2-122
					c2.8,5-209.5,120.2-206.9,124.7c3.3,5.7,208-127.5,211.2-121.9c2.7,4.8-211.6,120.5-208.4,126.3
					c3.1,5.5,205.6-125.9,208.8-120.5c2.8,5-208.3,118.7-205.1,124.2c3.5,6.2,203.6-123.7,206.2-119c3.1,5.5-210.7,121-208,125.8
					c3.2,5.6,207.8-128.1,211.3-122C241.5,79.1,29.2,191,32.5,196.8c2.9,5.1,203.9-124.8,207-119.5C242.9,83,31.9,195,35.1,200.5
					c2.5,4.4,207.4-127.4,210.7-121.7C248.5,83.5,37,199.7,39.6,204c2.8,4.9,206-125.5,208.9-120.6c3.5,6.1-208.6,119.5-206,124
					c2.8,5,204.1-123.6,206.7-119.3c2.9,5-208.4,119.4-205.5,124.4c3.5,6.1,199.9-123.2,203.3-117.4C249.6,99.9,46.3,210.7,49,215.4
					c3.1,5.5,197.7-121.6,200.9-116c3.3,5.8-206.6,119.5-204.1,123.8c2.7,4.7,203.4-123.9,206.2-119
					c2.5,4.4-202.3,114.9-199.1,120.3c3.3,5.7,197.7-121.8,201-116c2.8,5-198.3,114.8-195.8,118.9c3,5.3,196.1-118.6,198.5-114.6
					c3.3,5.7-200.5,114-197.1,119.9c2.3,3.9,196-119.3,198.7-114.7c3,5.3-190.6,109.3-187.6,114.4c3,5.2,180.6-110.8,183.5-105.9
					c2.2,3.7-184.1,105.6-181.3,110.5c2.9,5.2,179.5-110.2,182.4-105.3c3,5.3-184.1,106-181.4,110.7c3,5.2,181.1-109.7,183.4-105.9
					c2.8,4.9-173.9,100.9-171.8,104.3c2.3,3.9,164.3-100.3,166.7-96.2c2.3,3.8-168.3,96.4-165.3,101.4c2.5,4.4,170.3-104,172.8-99.7
					c2.4,4-167.9,97.3-165.5,101.3c2.4,4,156.4-96.7,159.1-91.9c2.5,4.2-155.6,89.9-153.3,93.9c2.3,3.9,148.3-91.4,150.8-87.1
					c1.8,2.9-147.4,86.9-145.5,90.2c2.4,4.1,145.9-88.8,147.9-85.4c1.9,3.3-140.1,80.9-137.9,84.9c2,3.4,133.2-82.3,135.5-78.2
					c1.6,2.7-133.9,78.7-132.4,81.6c1.7,2.9,127.1-77,128.6-74.2c1.7,2.8-117.6,69.4-116,72.2c1.7,2.8,115.2-70.5,116.9-67.5
					c1.7,2.9-114.9,68.5-113.4,71.1c1.5,2.6,103.7-63.1,105.2-60.7c1.6,2.7-96.9,57.7-95.2,60.6c1.1,1.9,84.5-51.7,85.8-49.5
					c0.9,1.5-72.5,44.2-71.2,46.3c1,1.7,65.2-39.5,66.1-38.1c0.7,1.3-44.7,30-43.9,31.4c0.4,0.7,25.9-15.6,26.2-15.1"/>
			</g>
		</g>
		<circle class="st4" cx="134.5" cy="134.5" r="98.5"/>
		<path class="st4" d="M130.1,10.6v27.8c0,0-23.6-1.7-57.4,21.6L53.6,39.9C69.5,23.2,106.6,8,130.1,10.6z"/>
		<circle class="st5" cx="134.5" cy="134.5" r="126"/>
		<text transform="matrix(1 0 0 1 64.8647 179.6064)" class="st6 st7">Ai</text>
	</g>
</g>
<g id="Layer_2">
	<g>
		<g>
			<g>
				<path class="st3" d="M62.2,39.8c0.3,0.6,25.2-15.4,25.5-14.7c0.6,1-44.7,30.1-44,31.3c1,1.8,64.8-39.8,65.8-38
					c0.9,1.6-72.8,45.6-71.8,47.3c1.5,2.6,89-53.9,90.1-52c1.4,2.5-101.4,61-99.9,63.6c1.8,3.1,108.5-66.2,110-63.5
					c1.7,3-108.8,64.6-107.1,67.6c1.8,3.2,112.5-68.2,113.9-65.8c1.5,2.6-126.5,74-124.4,77.7c1.9,3.4,127.8-78.6,129.9-75
					C152.5,22.1,20.8,95,22.5,98c1.6,2.8,137.1-84.2,139.3-80.4c1.7,2.9-142.8,82.8-140.6,86.6c2.6,4.5,145.3-87.9,147-84.9
					c2.2,3.8-150.7,88.2-148.5,91.9c1.9,3.2,158.3-96.1,160.4-92.6c2.2,3.7-169.1,96.3-166.2,101.3c2.7,4.7,166.9-101.5,169.2-97.7
					c2.4,4.1-172.9,100-170.3,104.5c2.9,5,174.7-105.9,176.9-102.1c2.2,3.8-176.1,101.3-173.4,105.9C18.5,134.7,189.8,25,192,28.9
					C194.3,32.8,16.9,129.6,19.4,134c2.2,3.9,177.9-108.2,180.3-104.1C202.6,35,14.9,134.7,18,140c2.4,4.2,179.6-109.5,182.2-105.2
					c2.2,3.8-187.8,108.9-185.4,113.1C18,153.4,208.5,29.8,211.2,34.4c2.7,4.7-198.9,114.5-196.3,119.1
					C18.1,159,212.5,32.7,215.4,37.8c3.2,5.5-202.3,116.4-199.7,121C18.9,164.2,215.1,36.9,218,42c3,5.2-206.2,117.4-202.9,123.1
					C17.5,169.3,214.8,42.7,217.8,48c2.4,4.2-203.6,116.2-200.6,121.4c3.1,5.3,201.4-124.1,204.8-118.3
					C225.6,57.2,19,167.5,22,172.6c2.8,4.9,202.2-124,205.4-118.6c3.3,5.7-207.1,120-204.6,124.2c2.5,4.3,206.2-125,208.8-120.6
					c3.6,6.2-209,119.3-206.2,124.2c2.9,5,205.1-126,208.4-120.3c3.1,5.4-212.5,120.6-209.1,126.5C27.7,193.5,232.1,60,235.7,66.2
					c2.6,4.5-207,118.5-204,123.6c2.6,4.6,206.1-126.1,209.2-120.8c3.1,5.4-211.1,122-208.6,126.5C34.8,199.9,242,68.7,244.5,73.1
					c2.7,4.6-216.7,124.3-213.9,129.1C34.1,208.2,242.8,72.2,246,77.8c2.7,4.6-215.1,121.9-211.7,127.8
					c2.5,4.3,208.4-126.8,211.2-121.9c3.4,6-213.4,120.7-210,126.6C38.2,215,249.1,80,252.1,85.1C255.1,90.4,37.8,207,41.2,212.9
					C44,217.8,248.7,86.8,251.4,91.5C254.6,97,39.7,213.9,42.3,218.4c2.5,4.3,203.4-124.3,206.4-119.2
					c2.9,5-204.1,117.4-201.7,121.6c2.6,4.5,200.4-122.8,203.5-117.5c3.4,5.8-199.6,113.3-196.4,118.9
					c3,5.1,200.4-122.8,203.5-117.5c3.1,5.3-208.7,118.7-205.7,123.9c3.2,5.6,198.8-120.5,201.3-116.2
					c3,5.1-196.2,111.4-192.8,117.3c2.4,4.1,190.8-116.9,193.7-111.8c2.3,4-189.7,108.3-186.7,113.5
					c2.5,4.4,187.1-115.2,190.2-109.8c2.8,4.8-193.4,110.3-190.4,115.5c2.2,3.8,189.9-115.6,192.5-111.1
					c3,5.1-186.3,107.6-183.9,111.6c2.4,4.1,176.5-108.1,179.2-103.4c3,5.2-183.7,104.6-180.6,109.9
					c2.8,4.9,184.3-113.3,187.3-108.1c3,5.2-180.9,103.3-178.1,108c2.4,4.2,174.6-106.4,177-102.2c2.4,4.1-172.2,100.4-170.2,103.9
					c2.2,3.8,169.2-103,171.5-99c2.9,5.1-169.8,99-167.7,102.6c1.9,3.3,161.9-98,163.9-94.6c2.4,4.2-163.5,93.3-160.8,98.1
					c2.3,4,153.1-94.3,155.6-89.9c2.5,4.3-150.1,87.2-147.8,91.1c2.4,4.2,149.2-91.5,151.5-87.5c1.8,3-142.8,82.3-140.4,86.5
					c2.1,3.7,133-81.2,134.9-77.9c2.2,3.8-134,77.8-131.9,81.4c1.5,2.7,127.5-77.6,129.2-74.6c1.9,3.4-125.6,74.5-124,77.2
					c1.7,2.9,117.6-71.1,119-68.7c1.7,2.9-111.7,66.6-110,69.5c1.4,2.4,109.6-66.6,111-64.1c1.4,2.5-95,57.1-93.6,59.5
					c1.4,2.5,85.9-52.3,87-50.2c1.2,2-81.3,50.7-80.3,52.3c1,1.8,66.2-40.8,67.3-38.9c0.9,1.5-50.4,32.7-49.7,33.9
					c0.6,1.1,38.4-23.2,38.8-22.4"/>
			</g>
		</g>
		<path class="st4" d="M141.4,10.2v252C6.9,286.6-60,30.1,141.4,10.2z"/>
		<circle class="st4" cx="137" cy="136.1" r="98.5"/>
		<circle class="st5" cx="137" cy="136.1" r="126"/>
		<g>
			<path class="st8" d="M77,122.6c-0.6-2.3,1-3.4,3.5-4.3c18-6.3,35.9-12.6,53.9-19c1.8-0.6,3.5-0.7,5.2-0.1
				c18.4,6.4,36.8,12.8,55.3,19.1c1.9,0.7,2.5,1.6,2.3,3.7c-2.8,22.7-5.8,45.3-8,68c-0.6,6.1-2.8,9.4-8.3,12.1
				c-14.3,7.2-28.2,15.1-42.3,22.9c-2.1,1.2-3.7,1.1-5.9-0.1c-14.2-8.2-28.4-16.2-42.7-24.2c-2.8-1.6-4.1-3.4-4.5-6.7
				c-2.7-23.1-5.6-46.2-8.4-69.3C77.1,124.2,77,123.7,77,122.6z"/>
			<path class="st9" d="M137.6,106.1c16.6,5.6,33.1,11.3,49.7,16.8c2.2,0.7,2.9,1.9,2.6,4.2c-2.7,21.2-5.4,42.4-8,63.7
				c-0.3,2.1-0.9,3.8-2.9,4.9c-13.9,7.6-27.7,15.2-41.5,22.9c-0.6,0.3-1.3,0.4-1.9,0.6c-1.5-1.6-1.6-3.6-1.6-5.7
				c-0.1-11.8-0.1-23.7,0-35.5c0-1.5,0.2-2.9,0.7-4.3c0.9-1.8,2.7-1.8,4.4-1.9c3.9-0.1,7.8,0,11.8,0c2.6,0,4.1,1.3,5.1,3.6
				c1.5,3.7,3.2,7.4,4.9,11.1c1.6,3.4,3,4.3,6.8,4.1c2.9-0.2,3.6-1.2,2.4-3.9c-3-6.5-5.9-13-9-19.5c-7.8-16.3-15.4-32.6-22.8-49
				c-1.2-2.6-1.9-5.4-3.3-7.9C134.4,106.9,134.8,106.3,137.6,106.1z"/>
			<path class="st10" d="M137.6,106.1c-1.8,0.9-1.7,2.5-1.4,4.1c-0.5,0.5-0.6,1.1-0.6,1.7c-5,14.6-12.2,28.3-18.3,42.4
				c-4.7,10.8-9.7,21.4-14.4,32.2c-1.4,3.3-0.8,4.2,2.9,4.1c4.2-0.1,5.6-1.1,7.2-5.2c1.3-3.3,2.6-6.7,4-10c0.5-1.3,1.1-2.5,2.6-2.8
				c4.5-0.5,9.1-0.2,13.6-0.2c0.9,0,1.8,0.2,2.3,1.1c0,12.4,0,24.9-0.1,37.3c0,2.8,0.7,5.6,0,8.4c-7.9-3.5-15.2-8.2-22.8-12.2
				c-6.1-3.2-12.1-6.8-18.3-10c-2.6-1.4-4.1-3-4.4-6.1c-1.6-14.8-3.3-29.6-5-44.4c-0.7-6.5-1.4-12.9-2.3-19.3
				c-0.3-2.1,0.3-3.1,2.2-3.8c16.3-5.7,32.5-11.5,48.8-17.3C135.1,105.6,136.3,105.3,137.6,106.1z"/>
			<path class="st4" d="M135,111c0.2-0.5,0.7-0.7,1.2-0.8c5.1,11.1,10.2,22.2,15.3,33.2c7.1,15.2,14.2,30.4,21.4,45.6
				c1.3,2.7,0.3,3-2.2,3.3c-6.7,0.8-11.5-0.7-13-8.2c-0.6-2.8-2.3-5.3-3.4-8c-0.7-1.9-1.8-2.9-4-2.8c-4.9,0.2-9.8,0.2-14.8,0.2
				c-5.4,0.1-10.8-0.8-16.2,0.5c-0.9-2.1,0.5-2.6,2-2.8c2.3-0.4,4.7-0.2,7-0.2c3.6-0.1,5.3-1.1,5.2-3.3c-0.1-3.1-2.5-3.2-4.8-3.5
				c-1.5-0.2-4,0.4-3.3-2.7c2.8-1.9,6-1.1,9-1c2.3,0.1,4.6-0.2,7-0.3c2.7-0.1,3.3-1.1,2.2-3.7c-1.2-2.9-2.6-5.7-4-8.4
				c-1.7-3-2.1-6.6-4-9.5c-0.5-1-1.3-1.8-1.5-2.9C133.7,127.5,133.5,119.2,135,111z"/>
			<path class="st4" d="M135,111c1.1,2.6,0.5,5.3,0.6,7.9c0.1,5.9,0,11.8,0.1,17.6c0.7,2.9-0.9,5.4-1.8,7.9
				c-1.6,4.8-3.8,9.5-5.8,14.2c-0.6,1.4-1.6,2.4-2.6,3.4c2.4,1,4.8,0.4,7.3,0.6c1.9,0.1,2.7,0.9,2.9,2.8c0.6,7.1,0.4,7.4-6.7,7.4
				c-2.1,0-4.2,0-6.4,0c-1.2,0-2.5-0.2-3.2,1.3c-2,5.1-4.1,10.2-6.1,15.3c-0.6,1.7-1.6,2.5-3.5,2.5c-2.7,0-5.4,0.1-8.1,0.3
				c-2.7,0.2-3.1-0.6-2-3c4.8-10.4,9.4-20.8,14.1-31.2C120.9,142.3,128,126.6,135,111z"/>
			<path class="st11" d="M136.8,138.5c3.2,6.7,6.4,13.5,9.7,20.2c1.4,2.8,0.5,3.5-2.3,3.4c-2.9-0.2-5.8-0.1-8.7-0.2
				c-0.8-0.6-1.4-1.4-1.5-2.5c-0.2-6-0.7-12.1,0.6-18.1C134.9,140.2,134.9,138.6,136.8,138.5z"/>
			<path class="st12" d="M136.8,138.5c-1.7,3.2-0.9,6.7-1.2,10.1c-0.3,4.4-0.1,8.9-0.1,13.3c-3.4,0-6.8,0.1-10.2,0.1
				c-0.6-0.8-0.1-1.5,0.2-2.2c3.3-7.8,6.6-15.6,9.9-23.4C136.3,137,136.6,137.7,136.8,138.5z"/>
		</g>
		<g>
			<path d="M73,88.4h-7.5l-1.2,4.2h-5.6l7.6-23h6l7.6,23h-5.6L73,88.4z M67,83.3h4.5l-2.3-8.6L67,83.3z"/>
			<path d="M96.5,92.6l-8.1-12.2v12.2h-5.5v-23h5.3l8.1,12.2V69.6h5.5v23H96.5z"/>
			<path d="M116.2,69.1c1.2,0,2.3,0.1,3.4,0.3c1.1,0.2,2.1,0.6,3,1.1l-0.8,5.3c-0.9-0.4-1.8-0.7-2.6-0.9c-0.8-0.2-1.7-0.3-2.6-0.3
				c-1.9,0-3.3,0.6-4.2,1.7c-1,1.1-1.5,2.8-1.5,5.2c0,1.1,0.1,2.1,0.4,2.9c0.3,0.8,0.6,1.4,1.1,1.9c0.5,0.5,1,0.9,1.7,1.1
				c0.6,0.2,1.3,0.4,2.1,0.4c0.4,0,0.8,0,1.1,0c0.4,0,0.7-0.1,1-0.2v-5.7h5v9.6c-1,0.5-2.2,0.9-3.6,1.2c-1.4,0.3-2.7,0.4-4,0.4
				c-1.7,0-3.2-0.3-4.5-0.9c-1.3-0.6-2.4-1.4-3.3-2.4c-0.9-1-1.5-2.2-2-3.7c-0.4-1.4-0.7-3-0.7-4.6c0-1.9,0.2-3.5,0.7-5
				c0.5-1.5,1.2-2.8,2.2-3.9c0.9-1.1,2.1-1.9,3.4-2.5C113,69.4,114.5,69.1,116.2,69.1z"/>
			<path d="M139.8,69.6h5.6v14c0,1.4-0.2,2.6-0.6,3.8c-0.4,1.1-1,2.1-1.8,3c-0.8,0.8-1.7,1.5-2.8,2c-1.1,0.5-2.3,0.7-3.7,0.7
				c-1.4,0-2.6-0.2-3.7-0.7c-1.1-0.5-2-1.1-2.8-2c-0.8-0.8-1.4-1.8-1.8-3c-0.4-1.1-0.6-2.4-0.6-3.8v-14h5.6v14.1
				c0,1.1,0.3,1.9,0.8,2.7c0.5,0.7,1.3,1.1,2.5,1.1c1.1,0,1.9-0.4,2.5-1.1c0.5-0.7,0.8-1.6,0.8-2.7V69.6z"/>
			<path d="M155.8,69.6V87h7v5.6h-12.7v-23H155.8z"/>
			<path d="M179.3,88.4h-7.5l-1.2,4.2H165l7.6-23h6l7.6,23h-5.6L179.3,88.4z M173.4,83.3h4.5l-2.3-8.6L173.4,83.3z"/>
			<path d="M204.8,77.1c0,1.5-0.3,2.8-1,3.9c-0.6,1.1-1.5,2-2.5,2.7l5.6,8.9h-6.7l-4.2-7.3h-1.2v7.3h-5.6v-23h7.2
				c1.2,0,2.4,0.2,3.4,0.5c1,0.3,1.9,0.8,2.6,1.4c0.7,0.6,1.3,1.4,1.7,2.4C204.6,74.8,204.8,75.9,204.8,77.1z M199.3,77.4
				c0-0.8-0.2-1.4-0.7-1.9c-0.5-0.5-1.2-0.7-2.1-0.7h-1.7v5.6h1.1c1.1,0,1.9-0.3,2.5-0.8C199,79.1,199.3,78.3,199.3,77.4z"/>
		</g>
	</g>
</g>
</svg>
