<?xml version="1.0" encoding="utf-8"?>
<!-- Generator: Adobe Illustrator 19.2.1, SVG Export Plug-In . SVG Version: 6.00 Build 0)  -->
<!DOCTYPE svg PUBLIC "-//W3C//DTD SVG 1.1//EN" "http://www.w3.org/Graphics/SVG/1.1/DTD/svg11.dtd">
<svg version="1.1" xmlns="http://www.w3.org/2000/svg" xmlns:xlink="http://www.w3.org/1999/xlink" x="0px" y="0px"
	 viewBox="0 0 274 274" style="enable-background:new 0 0 274 274;" xml:space="preserve">
<style type="text/css">
	.st0{display:none;}
	.st1{display:inline;fill:none;stroke:#72CEEA;stroke-miterlimit:10;}
	.st2{display:inline;}
	.st3{fill:none;stroke:#565656;stroke-width:2.9416;stroke-linecap:round;stroke-linejoin:round;}
	.st4{fill:#FFFFFF;}
	.st5{fill:none;stroke:#000000;stroke-width:4.9027;stroke-miterlimit:10;}
	.st6{font-family:'Candela-Bold';}
	.st7{font-size:147.0817px;}
	.st8{fill:#B2B2B2;}
	.st9{fill:#232323;}
	.st10{fill:#3D3D3D;}
	.st11{fill:#515151;}
	.st12{fill:#636363;}
	.st13{fill:none;stroke:#565656;stroke-width:2.9314;stroke-linecap:round;stroke-linejoin:round;}
	.st14{fill:none;stroke:#000000;stroke-width:4.8856;stroke-miterlimit:10;}
	.st15{font-family:'Arial-BoldMT';}
	.st16{font-size:136.7967px;}
	.st17{display:inline;fill:#FFFFFF;}
	.st18{display:inline;fill:none;stroke:#000000;stroke-width:4.9027;stroke-miterlimit:10;}
	.st19{display:inline;fill:#FEFEFE;}
	.st20{display:inline;fill:#38393A;}
	.st21{display:inline;opacity:0.4;fill:#3A3A3A;}
	.st22{fill:none;stroke:#565656;stroke-width:3;stroke-linecap:round;stroke-linejoin:round;}
	.st23{display:inline;fill:none;stroke:#000000;stroke-width:5;stroke-miterlimit:10;}
	.st24{font-size:152px;}
	.st25{font-family:'PTSans-Bold';}
	.st26{font-size:72px;}
	.st27{font-size:132px;}
	.st28{fill:none;stroke:#000000;stroke-width:5;stroke-miterlimit:10;}
</style>
<g id="Layer_1" class="st0">
	<path class="st1" d="M137,265.5"/>
	<g class="st2">
		<g>
			<g>
				<path class="st3" d="M65.5,34.9c0.3,0.6,16.3-10.2,16.6-9.6c0.5,0.8-36.8,25.1-36.2,26.1c0.8,1.3,58.9-36.2,59.9-34.5
					c1,1.7-66.5,42.7-65.7,44.1c1.4,2.4,83.4-50.5,84.4-48.7c1.3,2.3-93.7,56.4-92.1,59.2c1.6,2.6,97.2-59.9,98.8-57.1
					c1.6,2.7-107.2,63-105.4,66.1c1.5,2.5,112.7-69.1,114.4-66.1C142,17.3,17.1,87.7,18.9,90.7c2.1,3.6,128-78.6,130-75
					C150.9,19,19.5,91.8,21.2,95c2,3.3,135.4-83,137.5-79.3c1.7,2.9-143.6,84.2-141.8,87.7c2.5,4.4,150.1-92.2,152.5-88.1
					c2.3,3.9-153.7,88.9-151.3,93c2.3,3.9,152.3-93.2,154.6-89.2c2.1,3.5-164.7,94.3-162,98.9c2,3.3,166.5-102.4,169.1-97.7
					c2.9,5.1-171.1,98.4-168.4,103.3c2.4,4,167.6-101.8,169.7-98c2.8,4.9-167.9,97.7-165.7,101.4c2.8,4.9,169.7-104.4,172.6-99.6
					C190.4,31.1,9.3,129,12.2,134c2.3,3.9,179.6-109.7,182.2-105.2c2.3,3.9-182.9,104.4-179.9,109.5
					c2.5,4.3,181.8-111.8,184.7-106.7c3.3,5.7-191.8,109.8-188.9,114.8c2.5,4.3,190.8-116.9,193.8-111.9
					c3.2,5.6-194.9,111.5-191.8,117c3,5.3,196.5-121.1,199.8-115.4c2.4,4-200.3,114.3-197.3,119.5c2.5,4.4,191.7-117.1,194.5-112.3
					c2.9,5.1-199,114.3-196.3,119c2.7,4.7,200-123.4,203.5-117.5c2.9,5.3-205.4,118-202.6,122.9c2.4,4.1,206.9-125.6,209.6-121
					c3.1,5.4-211.8,120.8-208.8,126C17.5,177.5,218,49.2,220.8,53.9c2.5,4.4-205.6,119-203.2,123.4c3.4,5.9,208.6-126.5,211.2-122
					c2.8,5-209.5,120.2-206.9,124.7c3.3,5.7,208-127.5,211.2-121.9c2.7,4.8-211.6,120.5-208.4,126.3
					c3.1,5.5,205.6-125.9,208.8-120.5c2.8,5-208.3,118.7-205.1,124.2c3.5,6.2,203.6-123.7,206.2-119c3.1,5.5-210.7,121-208,125.8
					c3.2,5.6,207.8-128.1,211.3-122C241.5,79.1,29.2,191,32.5,196.8c2.9,5.1,203.9-124.8,207-119.5C242.9,83,31.9,195,35.1,200.5
					c2.5,4.4,207.4-127.4,210.7-121.7C248.5,83.5,37,199.7,39.6,204c2.8,4.9,206-125.5,208.9-120.6c3.5,6.1-208.6,119.5-206,124
					c2.8,5,204.1-123.6,206.7-119.3c2.9,5-208.4,119.4-205.5,124.4c3.5,6.1,199.9-123.2,203.3-117.4C249.6,99.9,46.3,210.7,49,215.4
					c3.1,5.5,197.7-121.6,200.9-116c3.3,5.8-206.6,119.5-204.1,123.8c2.7,4.7,203.4-123.9,206.2-119
					c2.5,4.4-202.3,114.9-199.1,120.3c3.3,5.7,197.7-121.8,201-116c2.8,5-198.3,114.8-195.8,118.9c3,5.3,196.1-118.6,198.5-114.6
					c3.3,5.7-200.5,114-197.1,119.9c2.3,3.9,196-119.3,198.7-114.7c3,5.3-190.6,109.3-187.6,114.4c3,5.2,180.6-110.8,183.5-105.9
					c2.2,3.7-184.1,105.6-181.3,110.5c2.9,5.2,179.5-110.2,182.4-105.3c3,5.3-184.1,106-181.4,110.7c3,5.2,181.1-109.7,183.4-105.9
					c2.8,4.9-173.9,100.9-171.8,104.3c2.3,3.9,164.3-100.3,166.7-96.2c2.3,3.8-168.3,96.4-165.3,101.4c2.5,4.4,170.3-104,172.8-99.7
					c2.4,4-167.9,97.3-165.5,101.3c2.4,4,156.4-96.7,159.1-91.9c2.5,4.2-155.6,89.9-153.3,93.9c2.3,3.9,148.3-91.4,150.8-87.1
					c1.8,2.9-147.4,86.9-145.5,90.2c2.4,4.1,145.9-88.8,147.9-85.4c1.9,3.3-140.1,80.9-137.9,84.9c2,3.4,133.2-82.3,135.5-78.2
					c1.6,2.7-133.9,78.7-132.4,81.6c1.7,2.9,127.1-77,128.6-74.2c1.7,2.8-117.6,69.4-116,72.2c1.7,2.8,115.2-70.5,116.9-67.5
					c1.7,2.9-114.9,68.5-113.4,71.1c1.5,2.6,103.7-63.1,105.2-60.7c1.6,2.7-96.9,57.7-95.2,60.6c1.1,1.9,84.5-51.7,85.8-49.5
					c0.9,1.5-72.5,44.2-71.2,46.3c1,1.7,65.2-39.5,66.1-38.1c0.7,1.3-44.7,30-43.9,31.4c0.4,0.7,25.9-15.6,26.2-15.1"/>
			</g>
		</g>
		<circle class="st4" cx="134.5" cy="134.5" r="98.5"/>
		<path class="st4" d="M130.1,10.6v27.8c0,0-23.6-1.7-57.4,21.6L53.6,39.9C69.5,23.2,106.6,8,130.1,10.6z"/>
		<circle class="st5" cx="134.5" cy="134.5" r="126"/>
		<text transform="matrix(1 0 0 1 64.8647 179.6064)" class="st6 st7">Ai</text>
	</g>
</g>
<g id="Layer_2" class="st0">
	<g class="st2">
		<g>
			<g>
				<path class="st3" d="M62.2,39.8c0.3,0.6,25.2-15.4,25.5-14.7c0.6,1-44.7,30.1-44,31.3c1,1.8,64.8-39.8,65.8-38
					c0.9,1.6-72.8,45.6-71.8,47.3c1.5,2.6,89-53.9,90.1-52c1.4,2.5-101.4,61-99.9,63.6c1.8,3.1,108.5-66.2,110-63.5
					c1.7,3-108.8,64.6-107.1,67.6c1.8,3.2,112.5-68.2,113.9-65.8c1.5,2.6-126.5,74-124.4,77.7c1.9,3.4,127.8-78.6,129.9-75
					C152.5,22.1,20.8,95,22.5,98c1.6,2.8,137.1-84.2,139.3-80.4c1.7,2.9-142.8,82.8-140.6,86.6c2.6,4.5,145.3-87.9,147-84.9
					c2.2,3.8-150.7,88.2-148.5,91.9c1.9,3.2,158.3-96.1,160.4-92.6c2.2,3.7-169.1,96.3-166.2,101.3c2.7,4.7,166.9-101.5,169.2-97.7
					c2.4,4.1-172.9,100-170.3,104.5c2.9,5,174.7-105.9,176.9-102.1c2.2,3.8-176.1,101.3-173.4,105.9C18.5,134.7,189.8,25,192,28.9
					C194.3,32.8,16.9,129.6,19.4,134c2.2,3.9,177.9-108.2,180.3-104.1C202.6,35,14.9,134.7,18,140c2.4,4.2,179.6-109.5,182.2-105.2
					c2.2,3.8-187.8,108.9-185.4,113.1C18,153.4,208.5,29.8,211.2,34.4c2.7,4.7-198.9,114.5-196.3,119.1
					C18.1,159,212.5,32.7,215.4,37.8c3.2,5.5-202.3,116.4-199.7,121C18.9,164.2,215.1,36.9,218,42c3,5.2-206.2,117.4-202.9,123.1
					C17.5,169.3,214.8,42.7,217.8,48c2.4,4.2-203.6,116.2-200.6,121.4c3.1,5.3,201.4-124.1,204.8-118.3
					C225.6,57.2,19,167.5,22,172.6c2.8,4.9,202.2-124,205.4-118.6c3.3,5.7-207.1,120-204.6,124.2c2.5,4.3,206.2-125,208.8-120.6
					c3.6,6.2-209,119.3-206.2,124.2c2.9,5,205.1-126,208.4-120.3c3.1,5.4-212.5,120.6-209.1,126.5C27.7,193.5,232.1,60,235.7,66.2
					c2.6,4.5-207,118.5-204,123.6c2.6,4.6,206.1-126.1,209.2-120.8c3.1,5.4-211.1,122-208.6,126.5C34.8,199.9,242,68.7,244.5,73.1
					c2.7,4.6-216.7,124.3-213.9,129.1C34.1,208.2,242.8,72.2,246,77.8c2.7,4.6-215.1,121.9-211.7,127.8
					c2.5,4.3,208.4-126.8,211.2-121.9c3.4,6-213.4,120.7-210,126.6C38.2,215,249.1,80,252.1,85.1C255.1,90.4,37.8,207,41.2,212.9
					C44,217.8,248.7,86.8,251.4,91.5C254.6,97,39.7,213.9,42.3,218.4c2.5,4.3,203.4-124.3,206.4-119.2
					c2.9,5-204.1,117.4-201.7,121.6c2.6,4.5,200.4-122.8,203.5-117.5c3.4,5.8-199.6,113.3-196.4,118.9
					c3,5.1,200.4-122.8,203.5-117.5c3.1,5.3-208.7,118.7-205.7,123.9c3.2,5.6,198.8-120.5,201.3-116.2
					c3,5.1-196.2,111.4-192.8,117.3c2.4,4.1,190.8-116.9,193.7-111.8c2.3,4-189.7,108.3-186.7,113.5
					c2.5,4.4,187.1-115.2,190.2-109.8c2.8,4.8-193.4,110.3-190.4,115.5c2.2,3.8,189.9-115.6,192.5-111.1
					c3,5.1-186.3,107.6-183.9,111.6c2.4,4.1,176.5-108.1,179.2-103.4c3,5.2-183.7,104.6-180.6,109.9
					c2.8,4.9,184.3-113.3,187.3-108.1c3,5.2-180.9,103.3-178.1,108c2.4,4.2,174.6-106.4,177-102.2c2.4,4.1-172.2,100.4-170.2,103.9
					c2.2,3.8,169.2-103,171.5-99c2.9,5.1-169.8,99-167.7,102.6c1.9,3.3,161.9-98,163.9-94.6c2.4,4.2-163.5,93.3-160.8,98.1
					c2.3,4,153.1-94.3,155.6-89.9c2.5,4.3-150.1,87.2-147.8,91.1c2.4,4.2,149.2-91.5,151.5-87.5c1.8,3-142.8,82.3-140.4,86.5
					c2.1,3.7,133-81.2,134.9-77.9c2.2,3.8-134,77.8-131.9,81.4c1.5,2.7,127.5-77.6,129.2-74.6c1.9,3.4-125.6,74.5-124,77.2
					c1.7,2.9,117.6-71.1,119-68.7c1.7,2.9-111.7,66.6-110,69.5c1.4,2.4,109.6-66.6,111-64.1c1.4,2.5-95,57.1-93.6,59.5
					c1.4,2.5,85.9-52.3,87-50.2c1.2,2-81.3,50.7-80.3,52.3c1,1.8,66.2-40.8,67.3-38.9c0.9,1.5-50.4,32.7-49.7,33.9
					c0.6,1.1,38.4-23.2,38.8-22.4"/>
			</g>
		</g>
		<path class="st4" d="M141.4,10.2v252C6.9,286.6-60,30.1,141.4,10.2z"/>
		<circle class="st4" cx="137" cy="136.1" r="98.5"/>
		<circle class="st5" cx="137" cy="136.1" r="126"/>
		<g>
			<path class="st8" d="M77,122.6c-0.6-2.3,1-3.4,3.5-4.3c18-6.3,35.9-12.6,53.9-19c1.8-0.6,3.5-0.7,5.2-0.1
				c18.4,6.4,36.8,12.8,55.3,19.1c1.9,0.7,2.5,1.6,2.3,3.7c-2.8,22.7-5.8,45.3-8,68c-0.6,6.1-2.8,9.4-8.3,12.1
				c-14.3,7.2-28.2,15.1-42.3,22.9c-2.1,1.2-3.7,1.1-5.9-0.1c-14.2-8.2-28.4-16.2-42.7-24.2c-2.8-1.6-4.1-3.4-4.5-6.7
				c-2.7-23.1-5.6-46.2-8.4-69.3C77.1,124.2,77,123.7,77,122.6z"/>
			<path class="st9" d="M137.6,106.1c16.6,5.6,33.1,11.3,49.7,16.8c2.2,0.7,2.9,1.9,2.6,4.2c-2.7,21.2-5.4,42.4-8,63.7
				c-0.3,2.1-0.9,3.8-2.9,4.9c-13.9,7.6-27.7,15.2-41.5,22.9c-0.6,0.3-1.3,0.4-1.9,0.6c-1.5-1.6-1.6-3.6-1.6-5.7
				c-0.1-11.8-0.1-23.7,0-35.5c0-1.5,0.2-2.9,0.7-4.3c0.9-1.8,2.7-1.8,4.4-1.9c3.9-0.1,7.8,0,11.8,0c2.6,0,4.1,1.3,5.1,3.6
				c1.5,3.7,3.2,7.4,4.9,11.1c1.6,3.4,3,4.3,6.8,4.1c2.9-0.2,3.6-1.2,2.4-3.9c-3-6.5-5.9-13-9-19.5c-7.8-16.3-15.4-32.6-22.8-49
				c-1.2-2.6-1.9-5.4-3.3-7.9C134.4,106.9,134.8,106.3,137.6,106.1z"/>
			<path class="st10" d="M137.6,106.1c-1.8,0.9-1.7,2.5-1.4,4.1c-0.5,0.5-0.6,1.1-0.6,1.7c-5,14.6-12.2,28.3-18.3,42.4
				c-4.7,10.8-9.7,21.4-14.4,32.2c-1.4,3.3-0.8,4.2,2.9,4.1c4.2-0.1,5.6-1.1,7.2-5.2c1.3-3.3,2.6-6.7,4-10c0.5-1.3,1.1-2.5,2.6-2.8
				c4.5-0.5,9.1-0.2,13.6-0.2c0.9,0,1.8,0.2,2.3,1.1c0,12.4,0,24.9-0.1,37.3c0,2.8,0.7,5.6,0,8.4c-7.9-3.5-15.2-8.2-22.8-12.2
				c-6.1-3.2-12.1-6.8-18.3-10c-2.6-1.4-4.1-3-4.4-6.1c-1.6-14.8-3.3-29.6-5-44.4c-0.7-6.5-1.4-12.9-2.3-19.3
				c-0.3-2.1,0.3-3.1,2.2-3.8c16.3-5.7,32.5-11.5,48.8-17.3C135.1,105.6,136.3,105.3,137.6,106.1z"/>
			<path class="st4" d="M135,111c0.2-0.5,0.7-0.7,1.2-0.8c5.1,11.1,10.2,22.2,15.3,33.2c7.1,15.2,14.2,30.4,21.4,45.6
				c1.3,2.7,0.3,3-2.2,3.3c-6.7,0.8-11.5-0.7-13-8.2c-0.6-2.8-2.3-5.3-3.4-8c-0.7-1.9-1.8-2.9-4-2.8c-4.9,0.2-9.8,0.2-14.8,0.2
				c-5.4,0.1-10.8-0.8-16.2,0.5c-0.9-2.1,0.5-2.6,2-2.8c2.3-0.4,4.7-0.2,7-0.2c3.6-0.1,5.3-1.1,5.2-3.3c-0.1-3.1-2.5-3.2-4.8-3.5
				c-1.5-0.2-4,0.4-3.3-2.7c2.8-1.9,6-1.1,9-1c2.3,0.1,4.6-0.2,7-0.3c2.7-0.1,3.3-1.1,2.2-3.7c-1.2-2.9-2.6-5.7-4-8.4
				c-1.7-3-2.1-6.6-4-9.5c-0.5-1-1.3-1.8-1.5-2.9C133.7,127.5,133.5,119.2,135,111z"/>
			<path class="st4" d="M135,111c1.1,2.6,0.5,5.3,0.6,7.9c0.1,5.9,0,11.8,0.1,17.6c0.7,2.9-0.9,5.4-1.8,7.9
				c-1.6,4.8-3.8,9.5-5.8,14.2c-0.6,1.4-1.6,2.4-2.6,3.4c2.4,1,4.8,0.4,7.3,0.6c1.9,0.1,2.7,0.9,2.9,2.8c0.6,7.1,0.4,7.4-6.7,7.4
				c-2.1,0-4.2,0-6.4,0c-1.2,0-2.5-0.2-3.2,1.3c-2,5.1-4.1,10.2-6.1,15.3c-0.6,1.7-1.6,2.5-3.5,2.5c-2.7,0-5.4,0.1-8.1,0.3
				c-2.7,0.2-3.1-0.6-2-3c4.8-10.4,9.4-20.8,14.1-31.2C120.9,142.3,128,126.6,135,111z"/>
			<path class="st11" d="M136.8,138.5c3.2,6.7,6.4,13.5,9.7,20.2c1.4,2.8,0.5,3.5-2.3,3.4c-2.9-0.2-5.8-0.1-8.7-0.2
				c-0.8-0.6-1.4-1.4-1.5-2.5c-0.2-6-0.7-12.1,0.6-18.1C134.9,140.2,134.9,138.6,136.8,138.5z"/>
			<path class="st12" d="M136.8,138.5c-1.7,3.2-0.9,6.7-1.2,10.1c-0.3,4.4-0.1,8.9-0.1,13.3c-3.4,0-6.8,0.1-10.2,0.1
				c-0.6-0.8-0.1-1.5,0.2-2.2c3.3-7.8,6.6-15.6,9.9-23.4C136.3,137,136.6,137.7,136.8,138.5z"/>
		</g>
		<g>
			<path d="M73,88.4h-7.5l-1.2,4.2h-5.6l7.6-23h6l7.6,23h-5.6L73,88.4z M67,83.3h4.5l-2.3-8.6L67,83.3z"/>
			<path d="M96.5,92.6l-8.1-12.2v12.2h-5.5v-23h5.3l8.1,12.2V69.6h5.5v23H96.5z"/>
			<path d="M116.2,69.1c1.2,0,2.3,0.1,3.4,0.3c1.1,0.2,2.1,0.6,3,1.1l-0.8,5.3c-0.9-0.4-1.8-0.7-2.6-0.9c-0.8-0.2-1.7-0.3-2.6-0.3
				c-1.9,0-3.3,0.6-4.2,1.7c-1,1.1-1.5,2.8-1.5,5.2c0,1.1,0.1,2.1,0.4,2.9c0.3,0.8,0.6,1.4,1.1,1.9c0.5,0.5,1,0.9,1.7,1.1
				c0.6,0.2,1.3,0.4,2.1,0.4c0.4,0,0.8,0,1.1,0c0.4,0,0.7-0.1,1-0.2v-5.7h5v9.6c-1,0.5-2.2,0.9-3.6,1.2c-1.4,0.3-2.7,0.4-4,0.4
				c-1.7,0-3.2-0.3-4.5-0.9c-1.3-0.6-2.4-1.4-3.3-2.4c-0.9-1-1.5-2.2-2-3.7c-0.4-1.4-0.7-3-0.7-4.6c0-1.9,0.2-3.5,0.7-5
				c0.5-1.5,1.2-2.8,2.2-3.9c0.9-1.1,2.1-1.9,3.4-2.5C113,69.4,114.5,69.1,116.2,69.1z"/>
			<path d="M139.8,69.6h5.6v14c0,1.4-0.2,2.6-0.6,3.8c-0.4,1.1-1,2.1-1.8,3c-0.8,0.8-1.7,1.5-2.8,2c-1.1,0.5-2.3,0.7-3.7,0.7
				c-1.4,0-2.6-0.2-3.7-0.7c-1.1-0.5-2-1.1-2.8-2c-0.8-0.8-1.4-1.8-1.8-3c-0.4-1.1-0.6-2.4-0.6-3.8v-14h5.6v14.1
				c0,1.1,0.3,1.9,0.8,2.7c0.5,0.7,1.3,1.1,2.5,1.1c1.1,0,1.9-0.4,2.5-1.1c0.5-0.7,0.8-1.6,0.8-2.7V69.6z"/>
			<path d="M155.8,69.6V87h7v5.6h-12.7v-23H155.8z"/>
			<path d="M179.3,88.4h-7.5l-1.2,4.2H165l7.6-23h6l7.6,23h-5.6L179.3,88.4z M173.4,83.3h4.5l-2.3-8.6L173.4,83.3z"/>
			<path d="M204.8,77.1c0,1.5-0.3,2.8-1,3.9c-0.6,1.1-1.5,2-2.5,2.7l5.6,8.9h-6.7l-4.2-7.3h-1.2v7.3h-5.6v-23h7.2
				c1.2,0,2.4,0.2,3.4,0.5c1,0.3,1.9,0.8,2.6,1.4c0.7,0.6,1.3,1.4,1.7,2.4C204.6,74.8,204.8,75.9,204.8,77.1z M199.3,77.4
				c0-0.8-0.2-1.4-0.7-1.9c-0.5-0.5-1.2-0.7-2.1-0.7h-1.7v5.6h1.1c1.1,0,1.9-0.3,2.5-0.8C199,79.1,199.3,78.3,199.3,77.4z"/>
		</g>
	</g>
</g>
<g id="Layer_3" class="st0">
	<g class="st2">
		<g>
			<g>
				<path class="st13" d="M65.4,34.8c0.3,0.6,21.1-12.9,21.4-12.4c0.6,1-42.4,28.8-41.8,29.9c1,1.7,60.2-36.6,61-35.2
					c1.2,2.1-73.5,45.4-72.3,47.4c1,1.8,84.6-51.6,85.8-49.5c1.3,2.3-88.3,53-86.8,55.6c1.7,3,95.4-58.8,97-56
					c1.6,2.7-108.3,63.8-106.6,66.9c1.9,3.3,113.8-69.7,115.5-66.7c1.6,2.8-120.7,71.4-118.7,74.7c1.6,2.7,127.2-77.5,129-74.5
					C151,18.8,18.7,91.3,20.4,94.3c2,3.4,137.3-84.1,139.4-80.5c2,3.5-145.3,85.1-143.4,88.3c2,3.5,143.8-88.1,146-84.3
					c2.5,4.3-147.7,85.4-145.2,89.6c2.3,3.9,153.8-93.7,155.9-90c2.7,4.7-157.5,92.1-155.4,95.7c2,3.4,161.4-98.3,163.6-94.5
					c2.1,3.6-171.8,98.9-169.5,103C14.6,126.7,183.4,15.9,186.4,21c2.1,3.6-176.8,103.1-174.7,106.8c2.3,4,173.6-106.8,176.5-101.9
					c2.6,4.6-179,104.6-176.8,108.3c2.7,4.7,177-107.5,179.3-103.5c2.2,3.9-178.9,103-176.4,107.4c3.1,5.4,184.2-111.6,186.4-107.6
					c2.6,4.6-189.3,109.3-187,113.3C16,147.8,203.4,27.4,206.3,32.4c2.3,4-195.4,111.8-192.7,116.5C15.9,153,207.9,30.7,210.5,35.2
					c3.1,5.3-198.7,114-195.9,118.8c2.6,4.5,197.3-121.5,200.6-115.8c2.7,4.6-200.4,113.8-197,119.7C21.5,163.7,217,37.4,219.4,41.7
					c2.9,5-208,120.3-205.6,124.5c2.8,4.9,201.5-121.9,203.9-117.7c2.6,4.4-205.9,119-203.5,123.2c2.9,5,206.3-126,209.2-120.8
					c3,5.2-208.2,119.8-205.6,124.4C20.5,180,220.9,50.6,224.2,56.2C226.9,60.9,21,173.1,23.4,177.3c2.5,4.3,199.4-123.4,203-117.2
					c2.5,4.4-208,118.1-204.6,124c3.3,5.8,205.4-124.2,207.8-120c2.9,5.1-203.6,117.8-201.1,122c3.6,6.2,203.8-124.3,206.7-119.3
					c3.2,5.6-209,119.4-205.9,124.7c3.6,6.2,206-126.9,209.4-120.9C242.3,76.8,27.3,192,29.8,196.3c3.3,5.6,204-123.9,206.7-119.3
					c3.2,5.5-206.1,117.7-203.1,123C36,204.3,238.4,74.1,241.7,79.7c3.5,6-213.5,120.9-209.9,127.1C35,212.4,240.1,78.9,243.4,84.6
					c3.5,6-205.1,117.3-202,122.7C44,212,247,81,250.3,86.7c2.5,4.4-214.5,121.5-210.9,127.8c3.1,5.4,207.8-128.2,211.3-122
					C253.9,97.9,38,213.3,41.2,219C43.8,223.3,245.9,93.8,249,99c3.5,6.1-206.7,119-203.9,123.8c3.5,6,206.5-126.5,209.7-121.1
					c3.5,6.1-205.9,117.9-203.2,122.6c3.2,5.5,195.8-119.2,198.4-114.6c2.4,4.1-193.9,110.8-191,115.8
					c2.5,4.3,189.7-115.1,192.1-110.9c2.2,3.9-189.4,109.1-187,113.1c3.1,5.3,189.2-115,191.7-110.7c2.9,5.1-198.2,113.1-195,118.8
					c2.2,3.9,190.1-115.1,192.4-111.1c2.2,3.9-187.4,108.8-185.1,112.8c2.6,4.5,182.3-111.9,185.2-106.9
					C256,135.5,68.8,238.1,71,241.9c2.6,4.6,182.6-110.7,184.9-106.7C258.6,139.9,75.2,240,77.6,244c2.4,4.2,173-106.4,175.8-101.5
					C255.5,146.2,80.4,243,82.7,247c2.6,4.6,170.3-104.1,172.8-99.8c2.7,4.6-169.3,98-166.8,102.4c2.7,4.7,165.2-100.7,167.5-96.7
					c2.5,4.3-164.1,94.7-161.8,98.7c2.2,3.8,154.7-94.5,156.9-90.6c2.2,3.8-151.6,87.7-149.1,92c2.4,4.2,144.1-89,146.6-84.7
					c2,3.5-134.8,80.2-133.1,83c2.2,3.8,134.4-81.5,136.1-78.6c1.6,2.8-132.6,78.2-130.8,81.3c1.8,3.2,120.2-74.2,122.3-70.6
					c1.4,2.4-117.1,69.6-115.7,72.1c1.7,3,111.6-68.8,113.5-65.5c1.3,2.2-102.4,60.9-100.6,64c1.7,2.9,94-57.6,95.5-55.1
					c1.5,2.6-87.9,53.3-86.4,55.9c1.4,2.4,82.8-51.1,84.2-48.6c0.9,1.5-69.9,43.2-68.9,44.9c0.9,1.5,57.2-35.1,58.1-33.6
					c0.5,0.9-38.8,26.3-38.3,27.2c0.3,0.6,25.4-15.5,25.8-14.9"/>
			</g>
		</g>
		<circle class="st4" cx="134.7" cy="134.2" r="98.5"/>
		<path class="st4" d="M130.2,10.3v27.9c0,0-23.7-1.6-57.3,21.6L53.8,39.6C69.6,23,106.7,7.7,130.2,10.3z"/>
		<circle class="st14" cx="134.7" cy="134.2" r="126"/>
		<text transform="matrix(1 0 0 1 86.8364 183.5615)" class="st15 st16">B</text>
	</g>
</g>
<g id="Layer_4" class="st0">
	<g class="st2">
		<g>
			<path class="st3" d="M65.5,35.9c0.3,0.6,16.3-10.1,16.6-9.6c0.5,0.8-36.7,25-36.1,26c0.8,1.3,58.8-36.2,59.8-34.5
				c1,1.7-66.6,42.7-65.7,44.1c1.4,2.3,83.5-50.6,84.5-48.8c1.3,2.3-93.6,56.3-92,59.1c1.5,2.6,97-59.9,98.7-57
				c1.6,2.8-107.1,63-105.4,66c1.4,2.5,112.6-69.1,114.4-66c1.7,3-123.1,73.3-121.4,76.3c2.1,3.6,127.9-78.7,130-75.1
				c1.9,3.3-129.5,76.2-127.6,79.3c1.9,3.3,135.4-83,137.5-79.4c1.7,2.9-143.7,84.3-141.7,87.6c2.5,4.4,150.1-92.2,152.5-88
				C171.7,20,15.8,105,18.1,109c2.2,3.9,152.3-93.2,154.6-89.3c2,3.6-164.7,94.3-162,98.9C12.6,122,177.1,16.3,179.8,21
				c2.9,5.1-171.1,98.5-168.3,103.2c2.3,4,167.5-101.7,169.7-98c2.8,4.9-167.9,97.6-165.7,101.4C18.3,132.5,185.2,23.2,188,28
				c2.4,4.1-178.7,102-175.8,107c2.3,4,179.6-109.7,182.2-105.2c2.3,3.9-182.8,104.4-179.9,109.5C17,143.6,196.3,27.5,199.3,32.6
				c3.3,5.7-191.8,109.9-188.9,114.8c2.5,4.3,190.8-116.9,193.7-111.8c3.2,5.6-194.9,111.5-191.7,116.9
				c3.1,5.3,196.4-121.1,199.8-115.3c2.3,4.1-200.2,114.3-197.2,119.5c2.6,4.4,191.7-117.1,194.5-112.3
				c2.9,5.1-199,114.3-196.3,119.1c2.7,4.7,200-123.4,203.4-117.4c3,5.2-205.3,117.9-202.5,122.8c2.4,4.2,206.9-125.6,209.6-121
				c3.1,5.4-211.8,120.8-208.8,126C17.5,178.5,218,50.2,220.7,55c2.5,4.4-205.7,119-203.1,123.3C21,184.2,226.2,51.8,228.8,56.4
				c2.9,5-209.5,120.3-206.9,124.8c3.3,5.7,208-127.4,211.2-121.9C235.8,64,21.4,179.8,24.7,185.5C27.9,191,230.4,59.6,233.5,65
				c2.9,5-208.3,118.8-205.1,124.3c3.5,6.1,203.5-123.7,206.2-119.1c3.2,5.5-210.7,121-208,125.8c3.2,5.6,207.8-128,211.3-122
				c3.5,6.1-208.8,118-205.4,123.8c2.9,5.1,203.9-124.9,207-119.5C242.7,84,31.8,196.1,35,201.5c2.5,4.4,207.4-127.4,210.7-121.6
				c2.7,4.7-208.7,120.9-206.2,125.2C42.3,210,245.5,79.6,248.4,84.5c3.5,6.1-208.6,119.5-206,124.1c2.9,5,204.1-123.7,206.7-119.3
				c2.9,5-208.4,119.4-205.5,124.5C47,219.8,243.5,90.6,246.8,96.4c2.7,4.7-200.6,115.5-197.9,120.2c3.2,5.5,197.7-121.6,200.9-116
				c3.3,5.8-206.6,119.5-204.1,123.9c2.7,4.7,203.4-123.9,206.2-119c2.6,4.4-202.3,114.9-199.2,120.2c3.3,5.7,197.6-121.8,201-116
				c2.9,5-198.2,114.8-195.9,118.9C60.9,233.9,254,109.9,256.4,114c3.3,5.7-200.5,114-197.1,119.9c2.3,4,196-119.4,198.7-114.7
				c3.1,5.3-190.5,109.3-187.5,114.4c3,5.2,180.5-110.8,183.3-105.8c2.1,3.7-184.1,105.6-181.3,110.5c3,5.2,179.6-110.2,182.4-105.3
				c3.1,5.3-184.1,105.9-181.4,110.7c3,5.2,181.1-109.7,183.3-105.9C259.6,142.8,83,238.7,85,242.2c2.3,3.9,164.3-100.3,166.6-96.2
				c2.2,3.8-168.3,96.4-165.3,101.4c2.5,4.4,170.3-104,172.8-99.7c2.3,4-167.8,97.2-165.5,101.3c2.3,4,156.4-96.6,159.2-91.9
				c2.4,4.2-155.6,89.9-153.3,93.9c2.3,3.9,148.3-91.4,150.8-87.1c1.7,3-147.4,86.9-145.5,90.2c2.4,4.1,145.9-88.8,147.9-85.4
				c1.9,3.3-140.1,80.9-137.8,84.9c2,3.4,133.2-82.3,135.5-78.2c1.6,2.7-134,78.8-132.4,81.5c1.7,2.9,127.1-77,128.6-74.3
				c1.6,2.8-117.5,69.4-116,72.1c1.6,2.8,115.1-70.4,116.8-67.4c1.7,2.9-114.9,68.5-113.4,71.1c1.5,2.6,103.7-63.1,105.1-60.7
				c1.6,2.7-96.8,57.7-95.2,60.5c1.1,1.9,84.6-51.8,85.9-49.6c0.9,1.5-72.5,44.2-71.3,46.3c0.9,1.6,65.1-39.5,65.9-38.1
				c0.7,1.2-44.6,29.9-43.8,31.3c0.4,0.7,25.8-15.6,26.1-15.1"/>
		</g>
	</g>
	<circle class="st17" cx="134.5" cy="135.5" r="98.5"/>
	<path class="st17" d="M130.1,11.6v27.9c0,0-23.7-1.6-57.3,21.6L53.6,40.9C69.4,24.2,106.6,9,130.1,11.6z"/>
	<circle class="st18" cx="134.5" cy="135.5" r="126"/>
	<path class="st2" d="M136.5,222.8c-1.3,0-2.6,0-3.9,0c-12.8-1.6-25.3-4.6-37.6-8.4c-6.8-2.1-7.2-2.6-7.9-9.8
		c-3.1-30.8-5.5-61.7-8.6-92.4c-0.3-3.2-0.3-6.5-0.8-9.7c-0.3-2.1,0.3-3.9,2-5.2c36.6,0,73.2,0,109.8,0c1.9,1.5,2.2,3.5,2,5.7
		c-2.5,26.1-4.7,52.2-7.2,78.3c-0.8,8.1-1.4,16.2-2.2,24.3c-0.6,5.8-1.3,6.8-6.9,8.5C162.3,217.9,149.6,221.3,136.5,222.8z"/>
	<path class="st19" d="M134.5,199.3c-7.6-2.3-15.3-4.7-23-6.9c-2.6-0.7-3.7-1.8-3.8-4.6c-0.1-4.4-0.7-8.8-1.3-13.2
		c-0.3-2.2,0.3-3,2.5-2.9c2,0.1,4,0.2,5.9,0c4.5-0.6,7.3,0.6,7,5.7c-0.1,1.9,1.3,2.5,2.7,2.9c2.6,0.8,5.3,1.5,8,2.3
		c8.1-1.2,12.5-5.7,12.7-12.3c0-2.7-1-3.9-3.6-4c-2.6-0.1-5.2,0.1-7.1-2.2c-8.5-0.1-17-0.2-25.5-0.1c-2.7,0-3.6-0.8-3.9-3.5
		c-1.1-12.2-1.2-12.2,10.2-16.6c5.6-2.2,11.2-4.3,16.8-7.4c-8,0-16-0.2-23.9,0.1c-3.9,0.2-5.2-0.8-5.6-4.9
		c-1.1-11-1.4-10.9,9.4-10.9c7.5,0,15-0.1,22.5-0.2c1.4-1.6,3.2-2.1,5.3-2.1c7.5-0.1,15-0.2,22.5,0c5.3,0.2,6.5,1.6,6.8,6.8
		c0.2,3.5-0.6,6.8-1.3,10.2c-0.4,1.9-1.6,3.2-3.4,3.9c-7,2.6-13.8,6-21.2,7.2c6.2-1.2,12.4-1,18.7-0.5c3.3,0.2,5.2,2.2,4.9,5.5
		c-1.2,12.3-1.8,24.7-3.6,37c-0.4,2.9-1.8,4.9-4.5,5.8c-6.5,2.2-13.1,4.1-19.7,5.9C137.4,200.7,135.8,200.6,134.5,199.3z"/>
	<path class="st20" d="M134.5,199.3c7.6-2.3,15.3-4.7,23-6.9c2.6-0.7,3.6-1.9,3.8-4.7c0.9-12,2-24.1,3.4-36.1
		c0.3-3.1-0.8-3.5-3.4-3.5c-8,0.1-16,0-24.3-0.8c6.8-2.6,13.7-5.1,20.5-7.8c2.8-1.1,7.1-1.1,8.1-3.8c1.4-4,1.2-8.7,1.5-13.1
		c0.2-2.8-2.2-1.9-3.6-1.9c-9.6-0.1-19.3-0.1-28.9-0.2c0-3.8,0.1-7.5,0-11.3c-0.1-2.8,0.9-4.3,3.9-4.3c12.7,0,25.5,0,38.2,0
		c2.7,0,3.6,0.9,3.3,3.8c-2.4,23.5-4.7,47-7,70.4c-0.7,6.6-1.4,13.3-2,19.9c-0.2,2.6-1.3,4.2-3.9,4.9c-9.7,2.8-19.4,5.7-29.1,8.7
		c-2.8,0.8-3.5-0.4-3.5-2.9C134.5,206.5,134.5,202.9,134.5,199.3z"/>
	<path class="st20" d="M134.5,164.1c3.4-0.1,6.8,0.1,10.2-0.2c3.3-0.3,3.9,1.2,3.3,4c-0.2,1.1-0.2,2.3-0.5,3.4
		c-0.6,2.8,1,6.6-1.5,8.2c-3.6,2.3-8,3.3-12.3,3.9c-0.4,0-0.8-0.5-1.2-0.7c2.1-0.9,2-2.7,2-4.5C134.5,173.4,134.5,168.8,134.5,164.1
		z"/>
	<g class="st2">
		<path d="M105.6,67.7c-1.2,0-2.2,0.3-3,0.8c-0.8,0.5-1.5,1.3-2,2.1c-0.5,0.9-0.9,1.8-1.1,2.9c-0.2,1-0.3,2.1-0.3,3.1
			c0,1,0.1,2,0.3,3c0.2,1,0.6,2,1,2.8c0.5,0.8,1.1,1.5,1.9,2c0.8,0.5,1.8,0.8,3,0.8c1.8,0,3.2-0.5,4.2-1.5c1-1,1.6-2.4,1.8-4.1h7.3
			c-0.5,3.6-1.9,6.4-4.2,8.3c-2.3,1.9-5.3,2.9-8.9,2.9c-2,0-3.9-0.3-5.6-1c-1.7-0.7-3.2-1.6-4.4-2.9c-1.2-1.2-2.1-2.7-2.8-4.4
			c-0.7-1.7-1-3.6-1-5.6c0-2.1,0.3-4.1,0.9-5.9c0.6-1.8,1.5-3.4,2.7-4.7c1.2-1.3,2.7-2.4,4.4-3.1c1.7-0.7,3.7-1.1,5.9-1.1
			c1.6,0,3.2,0.2,4.7,0.6c1.5,0.4,2.8,1.1,4,1.9c1.2,0.9,2.1,1.9,2.9,3.2c0.7,1.3,1.2,2.8,1.3,4.6h-7.4
			C110.7,69.3,108.8,67.7,105.6,67.7z"/>
		<path d="M129.2,83.4c0.3,0.6,0.8,1.1,1.3,1.4c0.5,0.4,1.1,0.6,1.8,0.8c0.7,0.2,1.4,0.3,2.1,0.3c0.5,0,1.1-0.1,1.7-0.2
			c0.6-0.1,1.1-0.3,1.6-0.6c0.5-0.3,0.9-0.6,1.2-1.1c0.3-0.4,0.5-1,0.5-1.7c0-1.1-0.8-2-2.3-2.5c-1.5-0.6-3.6-1.1-6.3-1.7
			c-1.1-0.2-2.2-0.5-3.2-0.9c-1-0.3-2-0.8-2.8-1.3c-0.8-0.5-1.5-1.2-2-2.1c-0.5-0.8-0.7-1.8-0.7-3c0-1.8,0.3-3.2,1-4.3
			c0.7-1.1,1.6-2,2.7-2.7c1.1-0.7,2.4-1.1,3.8-1.4c1.4-0.3,2.9-0.4,4.3-0.4c1.5,0,2.9,0.1,4.3,0.4c1.4,0.3,2.6,0.8,3.7,1.4
			c1.1,0.7,2,1.6,2.7,2.7c0.7,1.1,1.2,2.5,1.3,4.2h-7.1c-0.1-1.4-0.7-2.4-1.6-2.9c-1-0.5-2.2-0.8-3.5-0.8c-0.4,0-0.9,0-1.4,0.1
			c-0.5,0.1-0.9,0.2-1.4,0.3c-0.4,0.2-0.8,0.4-1,0.8c-0.3,0.3-0.4,0.8-0.4,1.4c0,0.7,0.2,1.2,0.7,1.6c0.5,0.4,1.1,0.8,1.9,1
			c0.8,0.3,1.7,0.5,2.7,0.7c1,0.2,2.1,0.4,3.1,0.7c1.1,0.2,2.2,0.5,3.2,0.9c1,0.4,2,0.8,2.8,1.4c0.8,0.6,1.5,1.3,2,2.2
			c0.5,0.9,0.7,1.9,0.7,3.2c0,1.8-0.4,3.3-1.1,4.5c-0.7,1.2-1.7,2.2-2.8,2.9c-1.2,0.7-2.5,1.3-4,1.6c-1.5,0.3-3,0.5-4.6,0.5
			c-1.6,0-3.1-0.2-4.7-0.5c-1.5-0.3-2.9-0.8-4.1-1.6c-1.2-0.7-2.2-1.7-2.9-2.9c-0.8-1.2-1.2-2.7-1.2-4.6h7.1
			C128.7,82.1,128.9,82.8,129.2,83.4z"/>
		<path d="M157.7,83.4c0.3,0.6,0.8,1.1,1.3,1.4c0.5,0.4,1.1,0.6,1.8,0.8c0.7,0.2,1.4,0.3,2.1,0.3c0.5,0,1.1-0.1,1.7-0.2
			c0.6-0.1,1.1-0.3,1.6-0.6c0.5-0.3,0.9-0.6,1.2-1.1c0.3-0.4,0.5-1,0.5-1.7c0-1.1-0.7-2-2.3-2.5c-1.5-0.6-3.6-1.1-6.3-1.7
			c-1.1-0.2-2.2-0.5-3.2-0.9c-1-0.3-2-0.8-2.8-1.3c-0.8-0.5-1.5-1.2-2-2.1c-0.5-0.8-0.7-1.8-0.7-3c0-1.8,0.3-3.2,1-4.3
			c0.7-1.1,1.6-2,2.7-2.7c1.1-0.7,2.4-1.1,3.8-1.4c1.4-0.3,2.9-0.4,4.3-0.4c1.5,0,2.9,0.1,4.3,0.4c1.4,0.3,2.6,0.8,3.7,1.4
			c1.1,0.7,2,1.6,2.7,2.7c0.7,1.1,1.2,2.5,1.3,4.2h-7.1c-0.1-1.4-0.7-2.4-1.6-2.9c-1-0.5-2.2-0.8-3.5-0.8c-0.4,0-0.9,0-1.4,0.1
			c-0.5,0.1-0.9,0.2-1.4,0.3c-0.4,0.2-0.8,0.4-1,0.8c-0.3,0.3-0.4,0.8-0.4,1.4c0,0.7,0.2,1.2,0.7,1.6c0.5,0.4,1.1,0.8,1.9,1
			c0.8,0.3,1.7,0.5,2.7,0.7c1,0.2,2.1,0.4,3.1,0.7c1.1,0.2,2.2,0.5,3.2,0.9c1,0.4,2,0.8,2.8,1.4c0.8,0.6,1.5,1.3,2,2.2
			c0.5,0.9,0.7,1.9,0.7,3.2c0,1.8-0.4,3.3-1.1,4.5c-0.7,1.2-1.7,2.2-2.8,2.9c-1.2,0.7-2.5,1.3-4,1.6c-1.5,0.3-3,0.5-4.6,0.5
			c-1.6,0-3.1-0.2-4.7-0.5c-1.5-0.3-2.9-0.8-4.1-1.6c-1.2-0.7-2.2-1.7-2.9-2.9c-0.8-1.2-1.2-2.7-1.2-4.6h7.1
			C157.2,82.1,157.3,82.8,157.7,83.4z"/>
	</g>
</g>
<g id="Layer_5" class="st0">
	<g class="st2">
		<g>
			<path class="st3" d="M71.2,37.7c0.3,0.6,21.1-12.9,21.4-12.4c0.6,1-42.5,28.9-41.8,30c1,1.7,60.3-36.6,61.1-35.3
				c1.2,2.1-73.6,45.5-72.5,47.5c1,1.8,84.7-51.7,85.9-49.6c1.3,2.3-88.4,53.1-86.9,55.7c1.7,3,95.5-58.9,97.1-56.1
				c1.6,2.7-108.5,63.9-106.7,67c1.9,3.3,114-69.9,115.7-66.8c1.6,2.8-120.9,71.5-118.9,74.9c1.6,2.8,127.4-77.6,129.2-74.6
				c2.2,3.8-130.4,76.4-128.6,79.4c2,3.4,137.5-84.2,139.6-80.6c2,3.5-145.5,85.2-143.6,88.5c2,3.5,144-88.2,146.2-84.4
				c2.5,4.3-147.9,85.5-145.4,89.8c2.3,3.9,154-93.9,156.2-90.2c2.7,4.7-157.7,92.3-155.7,95.9c2,3.4,161.6-98.4,163.8-94.6
				c2.1,3.6-172.1,99.1-169.7,103.2c2.8,4.9,171.9-106,174.8-100.9c2.1,3.6-177,103.3-174.9,106.9c2.3,4,173.9-106.9,176.7-102
				c2.6,4.6-179.2,104.7-177,108.4c2.7,4.7,177.2-107.6,179.5-103.6C198.8,37.5,17.5,136.7,20,141.1
				c3.1,5.4,184.4-111.7,186.6-107.8C209.3,38,17.1,142.8,19.4,146.8c2.4,4.2,190-116.3,192.9-111.4c2.3,4-195.7,112-192.9,116.7
				c2.4,4.1,194.5-118.3,197.1-113.8c3.1,5.3-198.9,114.2-196.1,118.9C23,161.7,217.9,35.6,221.2,41.3
				C223.8,45.9,20.6,155.2,24,161.1c3.4,5.8,199-120.6,201.4-116.3c2.9,5-208.2,120.4-205.8,124.6c2.8,4.9,201.6-122,204-117.8
				C226.2,56,17.6,170.7,20,174.9c2.9,5,206.4-126.1,209.4-120.9c3,5.2-208.4,119.9-205.7,124.5c2.7,4.7,203.2-124.8,206.5-119.2
				c2.7,4.7-203.3,117-200.8,121.2c2.5,4.3,199.5-123.4,203.1-117.2c2.5,4.4-208,118.1-204.6,124c3.3,5.8,205.5-124.2,207.9-120
				c2.9,5.1-203.6,117.8-201.2,122.1C38.1,195.6,238.4,65,241.3,70c3.2,5.6-209,119.4-205.9,124.7c3.6,6.2,206-126.9,209.4-120.9
				C248.3,80,33.3,195.2,35.8,199.6c3.3,5.6,204-123.9,206.7-119.3c3.2,5.5-206,117.7-203,122.9C42,207.5,244.4,77.3,247.7,83
				c3.5,6-213.4,120.9-209.9,127.1C41,215.7,246,82.2,249.3,88c3.5,6-205,117.3-201.9,122.7C50.1,215.2,253,84.3,256.3,90
				c2.5,4.4-214.4,121.4-210.7,127.8c3.1,5.4,207.6-128.1,211.2-121.9c3.1,5.4-212.6,120.8-209.4,126.4
				c2.5,4.4,204.5-125.1,207.5-119.8c3.5,6.1-206.4,118.9-203.6,123.7c3.5,6,206.3-126.3,209.4-120.9
				c3.5,6.1-205.6,117.8-202.9,122.5c3.2,5.5,195.5-119,198.1-114.4c2.4,4.1-193.5,110.6-190.6,115.6
				c2.5,4.3,189.3-114.9,191.7-110.7c2.2,3.9-189,108.8-186.6,112.9c3.1,5.3,188.7-114.7,191.2-110.4
				c2.9,5.1-197.8,112.9-194.5,118.5c2.2,3.8,189.6-114.8,191.9-110.8c2.2,3.8-186.9,108.5-184.6,112.6
				c2.6,4.5,181.7-111.6,184.6-106.6c2.7,4.7-183.9,107-181.7,110.8c2.6,4.6,181.9-110.3,184.2-106.4
				c2.7,4.7-179.9,104.4-177.5,108.5c2.4,4.1,172.2-105.9,175-101.1c2.1,3.6-172.2,100-169.9,104c2.6,4.6,169.5-103.6,172-99.3
				c2.6,4.6-168.4,97.5-165.9,101.9c2.7,4.6,164.3-100.1,166.6-96.2c2.5,4.3-163,94.1-160.7,98.1c2.2,3.8,153.6-93.8,155.8-90
				c2.2,3.8-150.3,87-147.9,91.3c2.4,4.2,142.8-88.1,145.3-83.9c2,3.5-133.2,79.4-131.6,82.2c2.2,3.7,132.9-80.5,134.5-77.7
				c1.6,2.8-130.8,77.3-129.1,80.3c1.8,3.1,118.4-73.1,120.4-69.5c1.4,2.3-115,68.5-113.6,71c1.7,2.9,109.5-67.5,111.4-64.3
				c1.2,2.1-100,59.7-98.3,62.7c1.6,2.8,91.5-56,92.8-53.6c1.5,2.5-84.9,51.7-83.4,54.2c1.4,2.3,79.4-49,80.8-46.6
				c0.8,1.4-65.6,40.9-64.7,42.5c0.8,1.4,52.5-32.2,53.4-30.8"/>
		</g>
	</g>
	<circle class="st17" cx="140.5" cy="137.1" r="98.5"/>
	<path class="st2" d="M201.7,90.7c-0.3,3.2-0.5,6.4-0.8,9.5c-0.5,5.6-1,11.2-1.5,16.8c-0.6,6.7-1.2,13.4-1.8,20.1
		c-0.6,6.6-1.2,13.3-1.8,19.9c-0.6,6.8-1.2,13.6-1.8,20.4c-0.6,6.6-1.2,13.3-1.7,19.9c-0.4,4-0.7,8.1-1,12.1
		c-0.1,1.1-0.6,1.6-1.6,1.9c-15.2,4.2-30.3,8.4-45.5,12.6c-0.7,0.2-1.6,0.2-2.3,0c-15.2-4.2-30.3-8.4-45.5-12.6
		c-1.2-0.3-1.7-0.9-1.8-2.1c-0.9-10.3-1.7-20.6-2.7-30.9c-0.9-10.4-1.9-20.7-2.8-31c-0.8-9.1-1.6-18.2-2.4-27.3
		c-0.8-9.1-1.7-18.2-2.5-27.3c-0.1-0.6,0-1.2,0-1.9C123.2,90.7,162.3,90.7,201.7,90.7z M105.7,114.9c0.1,1,0.1,1.8,0.1,2.5
		c0.6,6.8,1.2,13.6,1.8,20.4c0.6,6.7,1.3,13.5,1.8,20.2c0.1,1.5,0.7,1.9,2.2,1.9c15.6,0,31.2,0,46.8,0c0.7,0,1.4,0,2.2,0
		c-0.1,1.7-0.3,3.2-0.4,4.6c-0.3,4.1-0.7,8.2-1,12.3c-0.1,1.4-0.7,2.1-2.1,2.4c-4.4,1.1-8.8,2.4-13.2,3.5c-0.8,0.2-1.7,0.3-2.5,0.1
		c-4.6-1.2-9.1-2.5-13.6-3.6c-1.1-0.3-1.5-0.8-1.6-1.9c-0.2-2.9-0.5-5.8-0.7-8.7c-0.1-1.1-0.4-1.6-1.6-1.6c-4.1,0.1-8.2,0-12.4,0
		c-0.4,0-0.8,0.1-1.2,0.2c0,0.6,0,1,0,1.4c0.6,6.8,1.2,13.6,1.8,20.4c0.1,1.2,0.6,1.7,1.7,2c9.2,2.5,18.4,5.1,27.7,7.6
		c0.9,0.3,2,0.2,3-0.1c8.4-2.3,16.8-4.6,25.2-6.9c3.5-1,3.5-1,3.9-4.6c0-0.2,0.1-0.3,0.1-0.5c0.5-5.6,1-11.2,1.5-16.8
		c0.5-5.5,1-11,1.5-16.5c0.2-2.7,0.4-5.5,0.7-8.4c-18.1,0-36,0-53.9,0c-0.4-5-0.9-9.8-1.3-14.8c0.7,0,1.3,0,1.9,0c4,0,8,0,12,0
		c13.6,0,27.2,0,40.8,0.1c1.2,0,1.9-0.1,1.9-1.6c0.2-3.7,0.6-7.4,1-11.1c0.3-2.5,0.4-2.5-2-2.5c-23.4,0-46.7,0-70.1,0
		C107.1,114.9,106.5,114.9,105.7,114.9z"/>
	<polygon class="st21" points="180.7,201.9 143,213.5 143,99.5 190.8,99.5 	"/>
	<circle class="st18" cx="140.5" cy="137.1" r="126"/>
	<path class="st2" d="M169.2,57.7c0,7.4,0,14.8,0,22.4c-2.4,0-4.8,0-7.4,0c0-3.4,0-6.9,0-10.3c-0.1,0-0.2-0.1-0.3-0.1
		c-1.6,2.4-3.1,4.8-4.9,7.5c-1.7-2.6-3.3-5-5.1-7.9c0,3.9,0,7.3,0,10.8c-2.6,0-4.9,0-7.4,0c0-0.7,0-1.3,0-2c0-6.2,0-12.3,0-18.5
		c0-0.6-0.1-1.3-0.2-1.9c2.7,0,5.4,0,8.1,0c1.5,2.5,3,5.1,4.7,7.8c1.7-2.7,3.2-5.3,4.8-7.8C164,57.7,166.6,57.7,169.2,57.7z"/>
	<path class="st2" d="M116.8,57.7c0,7.4,0,14.8,0,22.4c-2.6,0-5,0-7.6,0c0-2.4,0-4.8,0-7.3c-2.3,0-4.5,0-6.8,0c0,2.4,0,4.8,0,7.3
		c-2.6,0-5,0-7.7,0c0-7.5,0-14.9,0-22.4c2.6,0,5.2,0,7.8,0c0,2.4,0,4.8,0,7.3c2.2,0,4.3,0,6.5,0c0-2.5,0-4.9,0-7.3
		C111.6,57.7,114.2,57.7,116.8,57.7z"/>
	<path class="st2" d="M140.9,57.7c0,2.4,0,4.8,0,7.4c-2.4,0-4.5,0-6.7,0c0,5.1,0,10,0,15c-2.6,0-5,0-7.6,0c0-4.9,0-9.8,0-14.8
		c-2.3,0-4.4,0-6.8,0c0-2.6,0-5.1,0-7.5C126.8,57.7,133.8,57.7,140.9,57.7z"/>
	<path class="st2" d="M180.6,57.7c0,4.9,0,9.8,0,14.9c3.5,0,7,0,10.5,0c0,2.6,0,5,0,7.5c-6,0-12,0-18.1,0c0-0.7,0-1.3,0-2
		c0-6.2,0-12.4,0-18.5c0-0.6-0.1-1.3-0.2-1.9C175.4,57.7,178,57.7,180.6,57.7z"/>
	<path class="st17" d="M109,57.7c0,2.4,0,4.8,0,7.3c-2.2,0-4.3,0-6.5,0c0-2.5,0-4.9,0-7.3C104.7,57.7,106.8,57.7,109,57.7z"/>
	<path class="st17" d="M161.4,57.7c-1.5,2.5-3.1,5-4.8,7.8c-1.6-2.7-3.1-5.3-4.7-7.8C155.1,57.7,158.2,57.7,161.4,57.7z"/>
</g>
<g id="Layer_6" class="st0">
	<g class="st2">
		<g>
			<path class="st22" d="M61.7,38.8c0.3,0.6,25.7-15.7,26-15c0.6,1-45.7,30.7-45,31.9c1.1,1.8,66.1-40.7,67.2-38.8
				c0.9,1.6-74.2,46.5-73.2,48.2c1.5,2.6,90.7-54.9,91.8-53c1.5,2.5-103.6,62.3-102,65c1.8,3.1,110.8-67.6,112.3-64.9
				c1.8,3.1-111,65.9-109.3,69c1.9,3.2,114.8-69.6,116.2-67.1c1.5,2.7-129,75.5-126.8,79.2c2,3.4,130.4-80.2,132.5-76.5
				C153.8,20.7,19.5,95,21.3,98.1c1.7,2.9,139.8-85.9,142.1-82C165,19,17.7,100.5,19.9,104.3c2.6,4.6,148.2-89.6,149.9-86.6
				c2.3,3.9-153.6,90-151.4,93.8c1.9,3.3,161.5-98,163.5-94.4C184.1,21,9.5,115.3,12.4,120.4c2.8,4.8,170.2-103.6,172.5-99.6
				c2.4,4.2-176.3,102-173.7,106.5c3,5.1,178.2-108,180.4-104.2c2.2,3.9-179.6,103.3-176.9,108c2.5,4.2,177.1-107.5,179.4-103.6
				c2.3,4-178.6,102.7-176,107.1C20.4,138.7,199.6,24.4,202,28.6c3,5.2-188.5,106.9-185.4,112.3c2.5,4.3,183.2-111.7,185.8-107.2
				C204.7,37.6,10.9,144.7,13.3,149c3.3,5.7,197.6-120.4,200.4-115.7c2.8,4.8-202.9,116.8-200.2,121.5
				c3.2,5.6,201.6-123.3,204.6-118.1c3.2,5.6-206.4,118.7-203.7,123.4C17.6,165.6,217.6,35.8,220.6,41
				c3,5.3-210.3,119.7-206.9,125.5c2.5,4.3,203.7-124.8,206.8-119.4C223,51.4,12.8,165.6,15.9,170.9C19,176.3,221.3,44.3,224.8,50.3
				C228.3,56.5,17.7,169,20.7,174.2c2.9,5,206.2-126.5,209.4-120.9C233.5,59.1,18.9,175.6,21.5,180c2.5,4.3,210.3-127.5,213-122.9
				c3.7,6.3-213.2,121.7-210.3,126.7c3,5.1,209.1-128.5,212.5-122.7c3.2,5.6-216.7,123-213.3,129C26.6,195.5,235,59.4,238.7,65.7
				c2.6,4.6-211.1,120.8-208,126.1C33.3,196.4,240.8,63.2,244,68.6c3.2,5.5-215.3,124.5-212.7,129C33.8,202,245,68.2,247.6,72.7
				c2.7,4.7-221,126.7-218.1,131.6c3.6,6.2,216.4-132.5,219.7-126.8c2.7,4.7-219.4,124.4-215.9,130.3
				c2.6,4.4,212.5-129.3,215.4-124.3c3.5,6.1-217.7,123.1-214.2,129.1c2.9,5,218-132.8,221-127.6c3.1,5.4-218.6,124.4-215.1,130.4
				c2.9,5,211.6-128.7,214.4-123.8c3.2,5.6-215.9,124.8-213.3,129.4c2.5,4.3,207.5-126.7,210.5-121.5c2.9,5.1-208.2,119.7-205.7,124
				c2.7,4.6,204.4-125.2,207.5-119.8c3.4,5.9-203.6,115.5-200.3,121.3c3,5.2,204.4-125.3,207.6-119.8
				c3.1,5.4-212.9,121.1-209.9,126.4c3.3,5.7,202.8-122.9,205.4-118.6c3,5.3-200.1,113.6-196.7,119.6
				c2.4,4.2,194.6-119.2,197.6-114.1c2.3,4-193.5,110.5-190.5,115.7c2.6,4.5,190.8-117.5,194-112c2.9,4.9-197.3,112.6-194.2,117.8
				c2.3,3.9,193.7-118,196.4-113.4c3,5.2-189.9,109.7-187.5,113.8c2.4,4.2,179.9-110.3,182.7-105.5C261.3,140.2,70.9,241.6,74,247
				c2.9,5,188-115.6,191.1-110.3C268.1,142,80.5,242,83.3,246.8c2.5,4.3,178.1-108.6,180.6-104.2c2.4,4.2-175.7,102.4-173.6,106
				c2.3,3.9,172.5-105.1,174.9-101c3,5.2-173.2,100.9-171.1,104.6c1.9,3.4,165.1-100,167.1-96.5c2.4,4.2-166.8,95.2-164,100
				c2.4,4.1,156.1-96.2,158.7-91.6c2.5,4.4-153,88.9-150.8,92.9c2.5,4.3,152.2-93.3,154.5-89.2c1.8,3.1-145.7,83.9-143.2,88.2
				c2.2,3.7,135.6-82.8,137.6-79.4c2.2,3.9-136.7,79.3-134.6,83c1.6,2.7,130-79.2,131.8-76.1c2,3.4-128.1,76-126.5,78.8
				c1.7,3,119.9-72.5,121.4-70.1c1.7,3-114,67.9-112.3,70.9c1.4,2.4,111.9-68,113.4-65.5c1.5,2.5-97,58.3-95.6,60.7
				c1.5,2.5,87.6-53.4,88.9-51.3c1.2,2-83,51.7-82,53.4c1,1.8,67.6-41.7,68.7-39.7c0.9,1.5-51.5,33.4-50.7,34.7
				c0.7,1.1,39.2-23.7,39.6-22.9"/>
		</g>
	</g>
	<circle class="st17" cx="138" cy="137" r="100.5"/>
	<path class="st17" d="M133.5,10.6V39c0,0-24.1-1.7-58.5,22L55.5,40.5C71.7,23.5,109.5,8,133.5,10.6z"/>
	<circle class="st23" cx="138" cy="137" r="128.5"/>
	<text transform="matrix(1 0 0 1 80.9998 187.9997)" class="st2 st6 st24">Id</text>
</g>
<g id="Layer_7" class="st0">
	<g class="st2">
		<g>
			<path class="st22" d="M68,37.2c0.3,0.6,16.7-10.4,17-9.8c0.5,0.8-37.6,25.6-37,26.6c0.8,1.3,60.2-37,61.2-35.3
				c1,1.7-68,43.6-67.1,45.1c1.4,2.4,85.2-51.6,86.3-49.8c1.3,2.3-95.8,57.6-94.1,60.5c1.6,2.7,99.2-61.3,101-58.3
				C136.8,19,25.6,80.6,27.4,83.7c1.5,2.5,115.1-70.7,116.9-67.5c1.7,3-125.8,74.9-124.1,77.9c2.1,3.7,130.7-80.4,132.9-76.7
				c2,3.4-132.3,77.8-130.4,81.1c2,3.4,138.4-84.8,140.5-81.1c1.7,3-146.8,86.1-144.8,89.5c2.6,4.5,153.4-94.2,155.8-90
				c2.3,4-157,90.9-154.6,95c2.3,4,155.7-95.2,158-91.2C179.6,24.3,9.2,117,11.9,121.7c2,3.4,170.1-104.6,172.9-99.8
				c3,5.2-174.9,100.6-172,105.5c2.4,4.1,171.3-104,173.5-100.2c2.9,5-171.6,99.8-169.4,103.6c2.9,5,173.6-106.8,176.4-101.9
				c2.4,4.2-182.7,104.3-179.7,109.4c2.3,4,183.6-112.2,186.3-107.5c2.3,4-186.9,106.8-184,112c2.5,4.4,185.8-114.3,188.9-109.1
				c3.4,5.9-196,112.3-193.1,117.3c2.6,4.4,195.1-119.5,198.1-114.4c3.3,5.7-199.3,114-196.1,119.5c3.2,5.5,200.9-123.8,204.3-117.9
				c2.4,4.1-204.8,116.9-201.7,122.2c2.6,4.5,196-119.7,198.9-114.8c3,5.2-203.5,116.9-200.7,121.8c2.8,4.8,204.5-126.2,208-120.1
				c3.1,5.4-210,120.5-207.1,125.6c2.5,4.2,211.6-128.5,214.3-123.7C232.7,54.8,12.9,172.8,16,178.1
				c2.8,4.8,207.8-126.5,210.6-121.6C229.2,61,16.3,178.2,18.8,182.7c3.5,6,213.4-129.4,216.1-124.7c3,5.1-214.3,123-211.7,127.6
				c3.4,5.8,212.7-130.4,216-124.7C242.1,65.7,22.7,184.1,26.1,190c3.2,5.6,210.4-128.8,213.6-123.3
				c2.9,5.1-213.1,121.5-209.9,127.1c3.6,6.3,208.3-126.6,211-121.8C244,77.6,25.2,195.8,28,200.7c3.3,5.8,212.6-131,216.2-124.8
				C247.9,82.1,30.5,196.6,34,202.6c3,5.2,208.7-127.8,211.8-122.3c3.4,5.9-212.5,120.6-209.3,126.1C39.1,210.9,248.8,76,252.2,81.8
				C255,86.7,38.5,205.5,41.1,210C44,215,252,81.6,254.9,86.6c3.6,6.3-213.6,122.4-210.9,127c2.9,5.1,209.1-126.6,211.6-122.2
				c3,5.2-213.4,122.3-210.4,127.4C48.8,225.1,250,92.7,253.4,98.6c2.8,4.9-205.5,118.3-202.7,123.1
				c3.3,5.6,202.5-124.6,205.8-118.8c3.4,5.9-211.7,122.5-209.1,126.9c2.8,4.8,208.4-127,211.3-122c2.6,4.6-207.3,117.7-204.2,123.2
				c3.4,5.9,202.6-124.8,206-118.9c2.9,5.1-203.2,117.7-200.8,121.9c3.1,5.4,201.1-121.7,203.5-117.5c3.4,5.8-205.7,116.9-202.2,123
				c2.3,4.1,201-122.4,203.8-117.6C268,127.3,69.3,234,72.4,239.3c3.1,5.4,185.3-113.7,188.2-108.7c2.2,3.8-189,108.4-186.1,113.4
				c3.1,5.3,184.3-113.1,187.2-108.1c3.2,5.5-189.1,108.8-186.3,113.7c3.1,5.4,186.1-112.7,188.3-108.7
				c2.9,5-178.7,103.6-176.6,107.2c2.3,4,168.9-103.2,171.4-99c2.3,3.9-173,99.1-170,104.3c2.6,4.5,175.1-107,177.7-102.6
				c2.4,4.1-172.7,100-170.3,104.2c2.4,4.1,161.1-99.5,163.9-94.6c2.5,4.3-160.4,92.6-158,96.7c2.3,4.1,152.9-94.3,155.5-89.8
				c1.8,3.1-152.1,89.6-150.2,93c2.5,4.3,150.7-91.7,152.7-88.2c2,3.4-145,83.6-142.6,87.7c2.1,3.6,137.9-85.2,140.3-81
				c1.6,2.8-138.8,81.6-137.2,84.4c1.7,3,131.8-79.9,133.4-77c1.7,3-122.2,72.1-120.6,74.9c1.7,3,119.9-73.3,121.7-70.2
				c1.7,3-119.9,71.4-118.4,74.1c1.6,2.7,108.8-66.2,110.2-63.6c1.7,2.9-102.1,60.6-100.3,63.6c1.1,2,89.7-54.9,91-52.5
				c0.9,1.6-77.8,47.2-76.6,49.4c1,1.8,70.9-43,71.8-41.5c0.8,1.5-53.2,34.7-52.2,36.3c0.6,1,36.5-22.1,36.9-21.3"/>
		</g>
	</g>
	<circle class="st17" cx="138.6" cy="139.2" r="100.9"/>
	<path class="st17" d="M134.1,12.3v28.5c0,0,28.3,161.5,39.6,220.8c0,0-46.5,7.9-61.3,4l-56.7-27.3C-63,112.3,78.3-8.3,134.1,12.3z"
		/>
	<circle class="st23" cx="138.6" cy="139.2" r="129"/>
	<g id="XMLID_2_" class="st2">
		<g>
			<path d="M226.1,126.7l7.9,0c0,0-14.8,20-16,21.6c-0.4,0.5-1,1.1-1.3,1.8c-0.8,1.8-1.5,5.7-1.5,5.7l-7.3,0c0,0,1.1-4.1,1.1-6.2
				c0-1.9-1-3.8-1.5-5.7c-0.5-1.9-1.3-5.7-1.3-5.7h7.5l1,4.1L226.1,126.7z"/>
			<path d="M211.1,130.9c1.5,0.9,2.4,5.8,2.4,5.8s-7.7,0.1-11.8,0.1c-1,0-3.6,0-3.6,0l-4.4,19H187c0,0,4.2-20.7,5.1-24.5
				c0.3-1.2,2.2-1,5.3-1c1.5,0,3.8,0,5,0C205.7,130.3,209.5,129.9,211.1,130.9z"/>
			<path d="M170,140.1l10,0.1c0,0,0.2-1.2-0.7-2.6c-0.8-1.2-1.5-1.5-3.6-1.6C169.9,135.8,170,140.1,170,140.1z M179.3,130.1
				c1.9,0.2,4.8,0.9,6.2,2.8c0.4,0.5,0.6,1.6,0.8,2.3c0.9,3.1-0.8,10.3-0.8,10.3s-8.5-0.1-13.1,0c-1.4,0-3.2-0.2-3.6,0.5
				c-0.6,0.9,0.2,2.4,0.9,3c0.8,0.7,2.4,0.8,2.9,0.9c3.8,0.5,11.7,0.1,11.7,0.1l-1.4,6.1c0,0-11.2,0.6-16.7-0.8
				c-1.1-0.3-2.1-0.8-2.8-1.5c-0.2-0.2-0.4-0.5-0.5-0.7c-0.1-0.2-0.6-0.8-0.8-1.3c-1.3-3.4,0.1-9.9,1.5-13.4
				c0.2-0.4,0.4-0.9,0.6-1.4c0.3-0.5,0.5-1.2,0.7-1.5c0.1-0.2,0.3-0.4,0.5-0.6c0.2-0.2,0.4-0.5,0.6-0.7c0.5-0.6,1.1-1,1.8-1.5
				C170,130.9,174.3,129.6,179.3,130.1z"/>
			<path d="M139.9,130.3l6.7-0.1c0,0-1.9,9.1-2.7,13.7c-0.3,1.6-0.9,3.2-0.3,4.4c0.6,1.1,1.4,1.2,3.9,1.3c0.8,0,3.3,0,3.3,0
				l4.6-19.3l6.5,0c0,0-3.6,17.2-5.5,25.5c-2.8,0-5.2,0-7.5,0c-5.2,0-9.9,0.6-11.8-3.1c-1.9-3.6-0.1-9.6,0.8-13.6
				C138.7,136.2,139.9,130.3,139.9,130.3z"/>
			<path d="M123.6,123.6c1.7,0.2,4.1,0.9,5.7,1.8c0.1,0.1,0.5,0.4,0.6,0.4c2.1,1.3,3.9,4.4,4.3,7.3c0.7,5.4-2.1,11.3-4.1,16.5
				c2,0.2,3.7,0,3.9,0.1c0.1,0.2-1.3,6.2-1.9,6.2c-1.6,0-6.8,0.1-9,0.1c-7.1,0-13.8,0.5-17.2-3.1c-1.4-1.4-2.3-3.9-2.6-5.7
				c-0.4-2.9,0.1-6.1,0.8-8.8c0.6-2.4,1.4-4.6,2.6-6.7C109.7,126.6,114.9,122.7,123.6,123.6z M125.2,142.7c0.7-2.4,1.7-5,1.5-7.2
				c-0.1-2.3-2.1-4.4-3.3-4.9c-3.8-1.3-7.3,0.5-8.8,2.1c-1.8,2-2.4,4.3-3.1,7.5c-0.5,2.4-0.9,4.9,0,6.7c1.5,3.3,6.4,2.5,11.6,2.6
				C123.9,147.3,124.5,145,125.2,142.7z"/>
			<path d="M101.2,136.5c-2.4,0-4.8,0-7.2,0c0.6-2.2,1-4.3,1.5-6.2c2.3,0,4.5,0,7,0C102.1,132.3,101.7,134.5,101.2,136.5z"/>
			<path d="M100.7,138.3c-0.9,5-2.7,13.1-4.1,18.8c-0.9,3.5-1.5,6.1-3.9,8c-0.2,0.2-0.3,0.1-0.5,0.3c-0.4,0.4-2.5,0.9-3.6,1
				c-1.8,0.2-3.9,0-6.2,0c0.6-2.2,1.3-4.7,1.8-6.7c5.5,0.7,5.6-4.5,6.7-9.5c0.6-2.9,2.5-10.7,2.8-11.8
				C96.1,138.3,98.4,138.3,100.7,138.3z"/>
			<path d="M66.1,134.2c1,1.4,1.6,1.8,2.8,2.5c0.6,0.3,1.2,0.6,1.4,0.7c1.2,0.3,3.7,1.3,7.7-1.5c-0.5,1.1-3.1,3.1-4.3,3.3
				c-4.7,1-7.7-1.2-9.3-3.8c-0.2-0.4-0.7-1.4-0.7-1.7c-0.6-2.1-0.3-5.2,1.5-6.8c-0.5,1.5-0.6,3.3-0.3,4.5
				C65,132.2,65.6,133.4,66.1,134.2z"/>
			<path d="M78.3,142.9c-1.6,4.1-6.3,6.8-12.6,5.9c-5.3-0.7-10.3-6-10.8-11.3c-0.4-3.9,1-6.2,3.2-9c-0.8,1.5-1.1,2.6-1.1,3.3
				c-0.8,8.4,6.7,14.4,13.4,14.4C73.4,146.3,76.5,144.9,78.3,142.9z"/>
			<path d="M48.6,133.6c-4,12.5,8.3,23.1,20.2,21.9c2.9-0.3,6.5-1.9,8.8-4.1l-0.1,0.4c-2.5,4.9-7,8-13.4,8.1c-3,0.1-5.9-0.7-7.7-1.5
				c-4-1.8-7.4-5.2-9.3-8.8c-2.7-5.1-3.1-12.3,2.4-17.6c0.1,0-0.7,1.2-0.6,1.2L48.6,133.6z"/>
		</g>
		<g>
		</g>
	</g>
</g>
<g id="Layer_8" class="st0">
	<g class="st2">
		<g>
			<path class="st22" d="M67,35.2c0.3,0.6,16.7-10.4,17-9.8c0.5,0.8-37.6,25.6-37,26.6c0.8,1.3,60.2-37,61.2-35.3
				c1,1.7-68,43.6-67.1,45.1c1.4,2.4,85.2-51.6,86.3-49.8c1.3,2.3-95.8,57.6-94.1,60.5c1.6,2.7,99.2-61.3,101-58.3
				C135.8,17,24.6,78.6,26.4,81.7c1.5,2.5,115.1-70.7,116.9-67.5c1.7,3-125.8,74.9-124.1,77.9c2.1,3.7,130.7-80.4,132.9-76.7
				c2,3.4-132.3,77.8-130.4,81.1c2,3.4,138.4-84.8,140.5-81.1c1.7,3-146.8,86.1-144.8,89.5c2.6,4.5,153.4-94.2,155.8-90
				c2.3,4-157,90.9-154.6,95c2.3,4,155.7-95.2,158-91.2C178.6,22.3,8.2,115,10.9,119.7c2,3.4,170.1-104.6,172.9-99.8
				c3,5.2-174.9,100.6-172,105.5c2.4,4.1,171.3-104,173.5-100.2c2.9,5-171.6,99.8-169.4,103.6c2.9,5,173.6-106.8,176.4-101.9
				c2.4,4.2-182.7,104.3-179.7,109.4c2.3,4,183.6-112.2,186.3-107.5c2.3,4-186.9,106.8-184,112c2.5,4.4,185.8-114.3,188.9-109.1
				c3.4,5.9-196,112.3-193.1,117.3c2.6,4.4,195.1-119.5,198.1-114.4c3.3,5.7-199.3,114-196.1,119.5c3.2,5.5,200.9-123.8,204.3-117.9
				c2.4,4.1-204.8,116.9-201.7,122.2c2.6,4.5,196-119.7,198.9-114.8c3,5.2-203.5,116.9-200.7,121.8c2.8,4.8,204.5-126.2,208-120.1
				c3.1,5.4-210,120.5-207.1,125.6c2.5,4.2,211.6-128.5,214.3-123.7C231.7,52.8,11.9,170.8,15,176.1
				c2.8,4.8,207.8-126.5,210.6-121.6C228.2,59,15.3,176.2,17.8,180.7c3.5,6,213.4-129.4,216.1-124.7c3,5.1-214.3,123-211.7,127.6
				c3.4,5.8,212.7-130.4,216-124.7C241.1,63.7,21.7,182.1,25.1,188c3.2,5.6,210.4-128.8,213.6-123.3
				c2.9,5.1-213.1,121.5-209.9,127.1c3.6,6.3,208.3-126.6,211-121.8C243,75.6,24.2,193.8,27,198.7c3.3,5.8,212.6-131,216.2-124.8
				C246.9,80.1,29.5,194.6,33,200.6c3,5.2,208.7-127.8,211.8-122.3c3.4,5.9-212.5,120.6-209.3,126.1C38.1,208.9,247.8,74,251.2,79.8
				C254,84.7,37.5,203.5,40.1,208C43,213,251,79.6,253.9,84.6c3.6,6.3-213.6,122.4-210.9,127c2.9,5.1,209.1-126.6,211.6-122.2
				c3,5.2-213.4,122.3-210.4,127.4C47.8,223.1,249,90.7,252.4,96.6c2.8,4.9-205.5,118.3-202.7,123.1
				c3.3,5.6,202.5-124.6,205.8-118.8c3.4,5.9-211.7,122.5-209.1,126.9c2.8,4.8,208.4-127,211.3-122c2.6,4.6-207.3,117.7-204.2,123.2
				c3.4,5.9,202.6-124.8,206-118.9c2.9,5.1-203.2,117.7-200.8,121.9c3.1,5.4,201.1-121.7,203.5-117.5c3.4,5.8-205.7,116.9-202.2,123
				c2.3,4.1,201-122.4,203.8-117.6C267,125.3,68.3,232,71.4,237.3c3.1,5.4,185.3-113.7,188.2-108.7c2.2,3.8-189,108.4-186.1,113.4
				c3.1,5.3,184.3-113.1,187.2-108.1c3.2,5.5-189.1,108.8-186.3,113.7c3.1,5.4,186.1-112.7,188.3-108.7
				c2.9,5-178.7,103.6-176.6,107.2c2.3,4,168.9-103.2,171.4-99c2.3,3.9-173,99.1-170,104.3c2.6,4.5,175.1-107,177.7-102.6
				c2.4,4.1-172.7,100-170.3,104.2c2.4,4.1,161.1-99.5,163.9-94.6c2.5,4.3-160.4,92.6-158,96.7c2.3,4.1,152.9-94.3,155.5-89.8
				c1.8,3.1-152.1,89.6-150.2,93c2.5,4.3,150.7-91.7,152.7-88.2c2,3.4-145,83.6-142.6,87.7c2.1,3.6,137.9-85.2,140.3-81
				c1.6,2.8-138.8,81.6-137.2,84.4c1.7,3,131.8-79.9,133.4-77c1.7,3-122.2,72.1-120.6,74.9c1.7,3,119.9-73.3,121.7-70.2
				c1.7,3-119.9,71.4-118.4,74.1c1.6,2.7,108.8-66.2,110.2-63.6c1.7,2.9-102.1,60.6-100.3,63.6c1.1,2,89.7-54.9,91-52.5
				c0.9,1.6-77.8,47.2-76.6,49.4c1,1.8,70.9-43,71.8-41.5c0.8,1.5-53.2,34.7-52.2,36.3c0.6,1,36.5-22.1,36.9-21.3"/>
		</g>
	</g>
	<circle class="st17" cx="137.6" cy="137.2" r="100.9"/>
	<path class="st17" d="M133.1,10.3v28.5c0,0-24.2-1.7-58.7,22.1L54.9,40.3C71.1,23.3,109,7.7,133.1,10.3z"/>
	<circle class="st23" cx="137.6" cy="137.2" r="129"/>
	<text transform="matrix(1 0 0 1 50.6667 154.16)" class="st2 st25 st26">{less}</text>
</g>
<g id="Layer_9" class="st0">
	<circle class="st23" cx="138" cy="137.4" r="128.5"/>
	<g class="st2">
		<g>
			<path class="st22" d="M67.3,36c0.3,0.6,21.6-13.2,21.9-12.6c0.6,1.1-43.4,29.5-42.8,30.6c1,1.7,61.6-37.4,62.4-36
				c1.2,2.2-75,46.3-73.8,48.4c1.1,1.8,86.3-52.7,87.6-50.6c1.4,2.4-90.3,54.2-88.7,56.8c1.8,3,97.5-60.1,99.1-57.2
				C134.5,18.2,22.2,80.6,24,83.8c1.9,3.3,116.3-71.3,118.1-68.2c1.7,2.9-123.3,72.9-121.3,76.4c1.6,2.8,129.9-79.1,131.7-76
				c2.2,3.9-132.9,77.9-131.2,80.9c2,3.5,140.2-85.9,142.3-82.2c2,3.5-148.4,86.9-146.5,90.3c2.1,3.6,146.9-89.9,149.1-86.1
				c2.5,4.4-150.9,87.2-148.3,91.6c2.3,4,157.1-95.7,159.3-92c2.8,4.8-160.9,94.1-158.7,97.8c2,3.5,164.8-100.4,167.1-96.5
				c2.1,3.7-175.5,101-173.1,105.2C15.5,129.9,188,16.8,190.9,22c2.1,3.7-180.5,105.3-178.4,109c2.3,4,177.4-109.1,180.3-104.1
				C195.5,31.6,10,133.8,12.2,137.6C15,142.3,193,27.8,195.3,31.9c2.3,4-182.7,105.2-180.2,109.7c3.2,5.5,188-113.9,190.3-109.9
				c2.7,4.7-193.2,111.5-190.9,115.6C17,151.6,208.4,28.6,211.3,33.7c2.4,4.1-199.6,114.2-196.8,119c2.4,4.2,198.4-120.7,201-116.1
				c3.1,5.4-202.8,116.4-200,121.3c2.7,4.6,201.4-124.1,204.8-118.2C223,44.4,15.8,155.9,19.2,161.9c3.4,5.9,203-123,205.5-118.6
				c3,5.1-212.4,122.8-209.9,127.1c2.9,5,205.7-124.4,208.1-120.1C225.5,54.7,12.7,171.7,15.2,176c2.9,5.1,210.5-128.6,213.5-123.3
				C231.8,58,16.2,175,18.9,179.7c2.8,4.8,207.3-127.3,210.6-121.6c2.8,4.8-207.3,119.3-204.8,123.6
				c2.5,4.4,203.4-125.9,207.1-119.6c2.6,4.5-212.2,120.5-208.7,126.5c3.4,5.9,209.5-126.7,212-122.4c3,5.2-207.6,120.2-205.2,124.5
				C33.6,197.1,237.9,63.9,240.8,69c3.3,5.7-213.2,121.8-210,127.2c3.7,6.4,210.1-129.4,213.6-123.3C248,79.2,28.7,196.7,31.3,201.1
				c3.3,5.8,208.1-126.4,210.8-121.7c3.2,5.6-210.1,120-207,125.4C37.6,209.2,244,76.5,247.3,82.3c3.6,6.2-217.7,123.3-214,129.6
				C36.6,217.6,245.7,81.5,249,87.3C252.6,93.4,40,206.9,43.2,212.4c2.7,4.7,209.6-128.8,213-123c2.6,4.5-218.7,123.8-214.9,130.3
				C44.4,225.2,253,89.1,256.6,95.4c3.2,5.5-216.9,123.2-213.5,128.9c2.6,4.5,208.6-127.6,211.7-122.2
				c3.6,6.2-210.5,121.2-207.7,126.1c3.5,6.1,210.4-128.9,213.6-123.3c3.6,6.2-209.7,120.2-207,125c3.2,5.6,199.4-121.4,202.1-116.7
				c2.4,4.2-197.3,112.8-194.4,117.9c2.5,4.4,193.1-117.2,195.5-112.9c2.3,4-192.8,111-190.4,115.2c3.1,5.4,192.5-117,195.1-112.6
				c3,5.2-201.7,115.2-198.4,120.9c2.3,3.9,193.4-117.1,195.8-113c2.3,3.9-190.6,110.7-188.2,114.8C73.4,247.9,256,129.6,259,134.6
				c2.8,4.8-187.6,109.1-185.3,113c2.7,4.7,185.6-112.5,187.9-108.5c2.8,4.8-183.5,106.5-181.1,110.7c2.4,4.2,175.7-108,178.6-103.1
				c2.1,3.7-175.6,102-173.2,106.1c2.7,4.7,172.9-105.6,175.4-101.3C263.9,156.2,89.4,251,92,255.5c2.7,4.7,167.5-102.1,169.9-98.1
				c2.5,4.3-166.2,96-163.9,100c2.2,3.9,156.6-95.6,158.9-91.7c2.2,3.8-153.3,88.8-150.8,93.1c2.5,4.3,145.6-89.9,148.2-85.5
				c2,3.5-135.9,81-134.3,83.8c2.2,3.8,135.5-82.1,137.2-79.2c1.6,2.8-133.4,78.8-131.6,81.9c1.8,3.2,120.7-74.6,122.8-70.9
				c1.4,2.4-117.3,69.9-115.9,72.4c1.7,3,111.7-68.8,113.5-65.6c1.3,2.2-101.9,60.8-100.2,63.9c1.6,2.9,93.2-57.1,94.6-54.6
				c1.5,2.6-86.5,52.7-85.1,55.2c1.4,2.4,81.2-50,82.5-47.7c0.9,1.5-67.1,41.8-66.1,43.4c0.8,1.4,53.6-32.9,54.4-31.4"/>
		</g>
	</g>
	<circle class="st17" cx="138" cy="137.4" r="100.5"/>
	<path class="st17" d="M133.5,13v28.4c0,0-24.1-1.7-58.5,22L55.5,42.9C71.7,26,109.5,10.4,133.5,13z"/>
	<text transform="matrix(1 0 0 1 81 182.1949)" class="st2 st6 st27">Ps</text>
</g>
<g id="Layer_10" class="st0">
	<g class="st2">
		<g>
			<path class="st22" d="M67,36.2c0.3,0.6,16.7-10.4,17-9.8c0.5,0.8-37.6,25.6-37,26.6c0.8,1.3,60.2-37,61.2-35.3
				c1,1.7-68,43.6-67.1,45.1c1.4,2.4,85.2-51.6,86.3-49.8c1.3,2.3-95.8,57.6-94.1,60.5c1.6,2.7,99.2-61.3,101-58.3
				C135.8,18,24.6,79.6,26.4,82.7c1.5,2.5,115.1-70.7,116.9-67.5c1.7,3-125.8,74.9-124.1,77.9c2.1,3.7,130.7-80.4,132.9-76.7
				c2,3.4-132.3,77.8-130.4,81.1c2,3.4,138.4-84.8,140.5-81.1c1.7,3-146.8,86.1-144.8,89.5c2.6,4.5,153.4-94.2,155.8-90
				c2.3,4-157,90.9-154.6,95c2.3,4,155.7-95.2,158-91.2C178.6,23.3,8.2,116,10.9,120.7c2,3.4,170.1-104.6,172.9-99.8
				c3,5.2-174.9,100.6-172,105.5c2.4,4.1,171.3-104,173.5-100.2c2.9,5-171.6,99.8-169.4,103.6c2.9,5,173.6-106.8,176.4-101.9
				c2.4,4.2-182.7,104.3-179.7,109.4c2.3,4,183.6-112.2,186.3-107.5c2.3,4-186.9,106.8-184,112c2.5,4.4,185.8-114.3,188.9-109.1
				c3.4,5.9-196,112.3-193.1,117.3c2.6,4.4,195.1-119.5,198.1-114.4c3.3,5.7-199.3,114-196.1,119.5c3.2,5.5,200.9-123.8,204.3-117.9
				c2.4,4.1-204.8,116.9-201.7,122.2c2.6,4.5,196-119.7,198.9-114.8c3,5.2-203.5,116.9-200.7,121.8c2.8,4.8,204.5-126.2,208-120.1
				c3.1,5.4-210,120.5-207.1,125.6c2.5,4.2,211.6-128.5,214.3-123.7C231.7,53.8,11.9,171.8,15,177.1
				c2.8,4.8,207.8-126.5,210.6-121.6C228.2,60,15.3,177.2,17.8,181.7c3.5,6,213.4-129.4,216.1-124.7c3,5.1-214.3,123-211.7,127.6
				c3.4,5.8,212.7-130.4,216-124.7C241.1,64.7,21.7,183.1,25.1,189c3.2,5.6,210.4-128.8,213.6-123.3
				c2.9,5.1-213.1,121.5-209.9,127.1c3.6,6.3,208.3-126.6,211-121.8C243,76.6,24.2,194.8,27,199.7c3.3,5.8,212.6-131,216.2-124.8
				C246.9,81.1,29.5,195.6,33,201.6c3,5.2,208.7-127.8,211.8-122.3c3.4,5.9-212.5,120.6-209.3,126.1C38.1,209.9,247.8,75,251.2,80.8
				C254,85.7,37.5,204.5,40.1,209C43,214,251,80.6,253.9,85.6c3.6,6.3-213.6,122.4-210.9,127c2.9,5.1,209.1-126.6,211.6-122.2
				c3,5.2-213.4,122.3-210.4,127.4C47.8,224.1,249,91.7,252.4,97.6c2.8,4.9-205.5,118.3-202.7,123.1
				c3.3,5.6,202.5-124.6,205.8-118.8c3.4,5.9-211.7,122.5-209.1,126.9c2.8,4.8,208.4-127,211.3-122c2.6,4.6-207.3,117.7-204.2,123.2
				c3.4,5.9,202.6-124.8,206-118.9c2.9,5.1-203.2,117.7-200.8,121.9c3.1,5.4,201.1-121.7,203.5-117.5c3.4,5.8-205.7,116.9-202.2,123
				c2.3,4.1,201-122.4,203.8-117.6C267,126.3,68.3,233,71.4,238.3c3.1,5.4,185.3-113.7,188.2-108.7c2.2,3.8-189,108.4-186.1,113.4
				c3.1,5.3,184.3-113.1,187.2-108.1c3.2,5.5-189.1,108.8-186.3,113.7c3.1,5.4,186.1-112.7,188.3-108.7
				c2.9,5-178.7,103.6-176.6,107.2c2.3,4,168.9-103.2,171.4-99c2.3,3.9-173,99.1-170,104.3c2.6,4.5,175.1-107,177.7-102.6
				c2.4,4.1-172.7,100-170.3,104.2c2.4,4.1,161.1-99.5,163.9-94.6c2.5,4.3-160.4,92.6-158,96.7c2.3,4.1,152.9-94.3,155.5-89.8
				c1.8,3.1-152.1,89.6-150.2,93c2.5,4.3,150.7-91.7,152.7-88.2c2,3.4-145,83.6-142.6,87.7c2.1,3.6,137.9-85.2,140.3-81
				c1.6,2.8-138.8,81.6-137.2,84.4c1.7,3,131.8-79.9,133.4-77c1.7,3-122.2,72.1-120.6,74.9c1.7,3,119.9-73.3,121.7-70.2
				c1.7,3-119.9,71.4-118.4,74.1c1.6,2.7,108.8-66.2,110.2-63.6c1.7,2.9-102.1,60.6-100.3,63.6c1.1,2,89.7-54.9,91-52.5
				c0.9,1.6-77.8,47.2-76.6,49.4c1,1.8,70.9-43,71.8-41.5c0.8,1.5-53.2,34.7-52.2,36.3c0.6,1,36.5-22.1,36.9-21.3"/>
		</g>
	</g>
	<circle class="st17" cx="137.6" cy="138.2" r="100.9"/>
	<path class="st17" d="M133.1,11.3v28.5c0,0-77.1,82.2-65.7,141.5L20,190.7C-22,87.3,77.3-9.3,133.1,11.3z"/>
	<circle class="st23" cx="137.6" cy="138.2" r="129"/>
	<path class="st2" d="M206,142.8c-6,0-11.2,1.5-15.5,3.6c-1.6-3.2-3.2-6-3.5-8c-0.3-2.4-0.7-3.9-0.3-6.7c0.4-2.9,2-7,2-7.3
		c0-0.3-0.4-1.8-3.8-1.8c-3.4,0-6.4,0.7-6.7,1.6c-0.3,0.9-1,3-1.4,5.1c-0.6,3.1-6.9,14.3-10.4,20.1c-1.2-2.3-2.2-4.3-2.4-5.9
		c-0.3-2.4-0.7-3.9-0.3-6.7c0.4-2.9,2-7,2-7.3c0-0.3-0.4-1.8-3.8-1.8c-3.4,0-6.4,0.7-6.7,1.6c-0.3,0.9-0.7,3-1.4,5.1
		c-0.7,2.1-9.1,20.7-11.2,25.5c-1.1,2.5-2.1,4.4-2.8,5.8c0,0,0,0,0,0s0,0.1-0.1,0.2c-0.6,1.1-0.9,1.8-0.9,1.8s0,0,0,0
		c-0.5,0.8-1,1.6-1.2,1.6c-0.2,0-0.5-2.2,0.1-5.3c1.2-6.5,4.2-16.5,4.2-16.9c0-0.2,0.6-1.9-1.9-2.8c-2.4-0.9-3.3,0.6-3.5,0.6
		c-0.2,0-0.4,0.5-0.4,0.5s2.7-11.3-5.2-11.3c-4.9,0-11.8,5.4-15.1,10.3c-2.1,1.2-6.7,3.6-11.5,6.3c-1.9,1-3.7,2.1-5.5,3
		c-0.1-0.1-0.2-0.3-0.4-0.4c-9.6-10.2-27.2-17.4-26.5-31.1c0.3-5,2-18.1,33.9-34c26.2-13,47.1-9.4,50.7-1.5
		c5.2,11.4-11.2,32.5-38.4,35.5c-10.4,1.2-15.8-2.9-17.2-4.3c-1.4-1.6-1.6-1.6-2.2-1.3c-0.9,0.5-0.3,1.9,0,2.7
		c0.8,2.1,4.1,5.9,9.8,7.7c5,1.6,17.1,2.5,31.8-3.1c16.5-6.4,29.3-24.1,25.5-38.9c-3.8-15.1-28.8-20-52.4-11.6
		c-14.1,5-29.3,12.8-40.2,23.1c-13,12.2-15.1,22.8-14.2,27.2c3,15.7,24.7,26,33.4,33.6c-0.4,0.2-0.8,0.5-1.2,0.7
		c-4.4,2.2-20.9,10.8-25,19.9c-4.7,10.4,0.7,17.8,4.3,18.8c11.2,3.1,22.6-2.5,28.7-11.7c6.1-9.2,5.4-21.1,2.6-26.6
		c0-0.1-0.1-0.1-0.1-0.2c1.1-0.7,2.3-1.3,3.4-2c2.2-1.3,4.4-2.5,6.3-3.5c-1.1,2.9-1.8,6.4-2.2,11.4c-0.5,5.9,1.9,13.5,5.1,16.5
		c1.4,1.3,3.1,1.3,4.1,1.3c3.7,0,5.3-3.1,7.2-6.7c2.3-4.4,4.3-9.6,4.3-9.6s-2.5,13.9,4.3,13.9c2.5,0,5-3.2,6.1-4.9c0,0,0,0,0,0
		s0.1-0.1,0.2-0.3c0.3-0.4,0.4-0.6,0.4-0.6s0,0,0-0.1c1-1.7,3.2-5.7,6.6-12.3c4.3-8.5,8.5-19.1,8.5-19.1s0.4,2.6,1.6,6.9
		c0.7,2.5,2.3,5.3,3.6,8c-1,1.4-1.6,2.2-1.6,2.2s0,0,0,0c-0.8,1.1-1.7,2.2-2.6,3.3c-3.4,4.1-7.5,8.7-8,10c-0.6,1.6-0.5,2.7,0.7,3.7
		c0.9,0.7,2.5,0.8,4.2,0.7c3.1-0.2,5.2-1,6.3-1.4c1.7-0.6,3.6-1.5,5.4-2.8c3.3-2.5,5.4-6,5.2-10.6c-0.1-2.6-0.9-5.1-2-7.5
		c0.3-0.4,0.6-0.9,0.9-1.3c5.3-7.7,9.4-16.2,9.4-16.2s0.4,2.6,1.6,6.9c0.6,2.2,1.9,4.5,3,6.9c-5,4-8,8.7-9.1,11.8
		c-2,5.7-0.4,8.3,2.5,8.8c1.3,0.3,3.2-0.3,4.6-0.9c1.7-0.6,3.8-1.5,5.8-3c3.3-2.5,6.6-5.9,6.4-10.6c-0.1-2.1-0.7-4.2-1.4-6.3
		c4.2-1.8,9.6-2.7,16.6-1.9c14.9,1.7,17.8,11,17.2,14.9c-0.6,3.9-3.7,6-4.7,6.7c-1,0.6-1.4,0.9-1.3,1.3c0.1,0.7,0.6,0.7,1.5,0.5
		c1.2-0.2,7.8-3.2,8.1-10.3C230.2,152.8,221.5,142.8,206,142.8z M91.4,181.5c-4.9,5.4-11.8,7.4-14.8,5.7c-3.2-1.8-1.9-9.8,4.1-15.5
		c3.7-3.5,8.4-6.7,11.6-8.6c0.7-0.4,1.8-1.1,3.1-1.8c0.2-0.1,0.3-0.2,0.3-0.2l0,0c0.2-0.1,0.5-0.3,0.8-0.5
		C98.7,168.7,96.6,175.8,91.4,181.5z M127.3,157.1c-1.7,4.2-5.3,14.9-7.5,14.3c-1.9-0.5-3-8.6-0.4-16.6c1.3-4,4.2-8.8,5.8-10.7
		c2.7-3,5.6-4,6.4-2.8C132.5,142.8,128.3,154.5,127.3,157.1z M156.9,171.2c-0.7,0.4-1.4,0.6-1.7,0.4c-0.2-0.1,0.3-0.6,0.3-0.6
		s3.7-4,5.2-5.8c0.8-1.1,1.8-2.3,2.9-3.7c0,0.1,0,0.3,0,0.4C163.6,166.7,159,169.9,156.9,171.2z M179.8,166
		c-0.5-0.4-0.5-1.6,1.3-5.5c0.7-1.5,2.3-4.1,5.1-6.6c0.3,1,0.5,2,0.5,2.9C186.6,162.9,182.4,165.1,179.8,166z"/>
</g>
<g id="Layer_11" class="st0">
	<g class="st2">
		<g>
			<path class="st22" d="M67.6,36.4C68,37,84.2,26.1,84.6,26.6C85,27.4,47,52.2,47.6,53.2c0.8,1.3,60.1-36.9,61.1-35.2
				c1,1.7-67.8,43.5-67,45c1.4,2.4,85.1-51.5,86.1-49.7c1.3,2.3-95.6,57.5-93.9,60.4c1.6,2.7,99.1-61.1,100.8-58.2
				c1.6,2.8-109.3,64.3-107.5,67.4c1.5,2.5,114.9-70.5,116.7-67.4c1.7,3-125.6,74.8-123.8,77.8c2.1,3.7,130.5-80.2,132.6-76.5
				c2,3.4-132,77.7-130.2,80.9c2,3.4,138.1-84.6,140.2-80.9c1.7,3-146.5,85.9-144.6,89.4c2.6,4.5,153.1-94,155.5-89.8
				c2.3,4-156.7,90.7-154.3,94.8c2.3,4,155.3-95,157.7-91C179,23.6,9,116.1,11.7,120.8c2,3.4,169.8-104.4,172.5-99.6
				c3,5.2-174.5,100.4-171.7,105.3c2.4,4.1,170.9-103.8,173.1-99.9c2.9,5-171.2,99.6-169,103.4c2.9,5,173.1-106.5,176-101.6
				C195,32.5,10.3,132.4,13.3,137.5c2.3,4,183.2-111.9,185.8-107.3c2.3,4-186.5,106.5-183.5,111.7C18.1,146.3,201,27.9,204,33.1
				c3.4,5.8-195.6,112-192.6,117.1C13.9,154.6,206,31,209,36.1c3.3,5.7-198.8,113.7-195.6,119.3c3.1,5.4,200.4-123.5,203.8-117.7
				C219.6,41.8,12.9,154.3,16,159.6c2.6,4.5,195.5-119.4,198.4-114.5c3,5.2-202.9,116.6-200.2,121.4c2.8,4.8,204-125.8,207.5-119.8
				C224.7,52.1,12.2,167,15.1,172c2.4,4.2,211-128.1,213.8-123.4c3.2,5.5-216,123.2-212.9,128.5c2.7,4.8,207.2-126.1,210-121.3
				c2.6,4.5-209.7,121.4-207.2,125.8c3.5,6,212.7-129,215.4-124.4c2.9,5.1-213.7,122.6-211,127.2c3.4,5.8,212.1-130,215.4-124.3
				C241.3,65.1,22.7,183.1,26.1,189C29.3,194.6,235.8,60.6,239,66.1c2.9,5.1-212.4,121.1-209.2,126.7
				c3.6,6.3,207.6-126.2,210.3-121.4C243.3,76.9,25.2,194.8,28,199.6c3.3,5.7,211.9-130.6,215.5-124.4
				c3.6,6.3-212.9,120.4-209.5,126.3c3,5.2,207.9-127.3,211.1-121.9c3.4,5.9-211.7,120.1-208.5,125.7
				C39.1,209.8,248,75.4,251.4,81.3C254.2,86.1,38.5,204.5,41.1,209c2.9,5,210.1-128,213-123C257.7,92.2,41.4,207.9,44,212.5
				C47,217.6,252.2,86.4,254.8,90.8c3,5.1-212.5,121.8-209.6,126.9C48.8,224,249.1,92.2,252.5,98.1c2.8,4.8-204.5,117.8-201.8,122.6
				c3.2,5.6,201.6-124,204.9-118.3c3.4,5.9-210.7,121.9-208.1,126.3c2.8,4.8,207.4-126.4,210.3-121.4
				c2.6,4.5-206.3,117.2-203.1,122.7c3.4,5.8,201.6-124.2,205-118.3c2.9,5.1-202.2,117.1-199.7,121.3c3.1,5.4,200-121,202.4-116.9
				c3.4,5.8-204.5,116.3-201,122.3c2.3,4,199.9-121.7,202.6-117c3.1,5.4-194.4,111.5-191.3,116.7c3.1,5.3,184.2-113,187.1-108
				c2.2,3.8-187.8,107.7-184.9,112.7c3,5.3,183.1-112.4,186-107.4c3.1,5.4-187.8,108.1-185,112.9c3.1,5.3,184.7-111.9,187-108
				c2.9,5-177.3,102.9-175.2,106.4c2.3,4,167.6-102.3,170-98.1c2.3,3.9-171.6,98.3-168.6,103.4c2.6,4.5,173.7-106.1,176.2-101.7
				c2.4,4.1-171.2,99.2-168.8,103.3c2.4,4.1,159.5-98.6,162.3-93.7c2.5,4.3-158.7,91.7-156.3,95.8c2.3,4,151.2-93.2,153.8-88.8
				c1.8,3-150.3,88.6-148.4,92c2.4,4.2,148.8-90.6,150.8-87.1c1.9,3.4-142.9,82.5-140.6,86.6c2,3.5,135.8-83.9,138.2-79.8
				c1.6,2.8-136.6,80.3-135,83.2c1.7,3,129.6-78.5,131.2-75.7c1.7,2.9-119.9,70.8-118.3,73.6c1.7,2.9,117.5-71.9,119.2-68.8
				c1.7,3-117.2,69.9-115.7,72.5c1.5,2.7,105.8-64.4,107.3-61.9c1.6,2.8-98.8,58.8-97.1,61.8c1.1,1.9,86.2-52.7,87.5-50.5
				c0.9,1.5-73.9,45.1-72.6,47.2c1,1.7,66.5-40.3,67.4-38.9c0.7,1.3-45.6,30.6-44.8,32c0.4,0.7,26.4-15.9,26.7-15.4"/>
		</g>
	</g>
	<circle class="st17" cx="138" cy="138" r="100.5"/>
	<path class="st1" d="M138,266.5"/>
	<path class="st17" d="M101,14c0,0,45.2,90.3,44.7,127.3c88.6,22.3,118.4,21.5,118.4,21.5s2.4,42.2-56.1,83
		C188.3,269.7,50.3,303,9.5,158.2C3,44.3,94.3,12.4,101,14z"/>
	<circle class="st23" cx="138" cy="138" r="128.5"/>
	<g class="st2">
		<path d="M159.2,194.3c-3.3,1-5.7-1-7.9-4c-1.4-2-3.2-3.7-4.7-5.5c-2.4-3-5.4-4.6-9.3-5.5c-14.2-3.1-22-12.1-23.6-26.6
			c-0.9-8.8-0.2-17.3,4.6-25c6.6-10.8,16.9-14.1,28.8-13.3c16.4,1.1,24.6,13,26,26.9c1,10.1-0.4,19.5-6.6,27.9
			c-3.1,4.2-6.9,7.3-12,8.8c-2.4,0.7-2.5,1.6-0.8,3.3c3.5,3.5,6.9,7.1,10.4,10.7c0.5,0.5,1.4,1,1.1,1.9c-0.3,0.9-1.3,0.5-2.1,0.6
			C162,194.4,161,194.3,159.2,194.3z M143.6,121.6c-7.4-0.2-13.2,2.9-17.3,9c-5.4,8.2-5.3,17.2-3.1,26.1c2.5,9.8,11,15.9,20.3,15.6
			c10.8-0.4,17.8-6.2,20.3-16.7c1.3-5.7,1.2-11.4,0-17C161.7,127.4,155,121.8,143.6,121.6z"/>
		<path d="M105.3,120.6c0,0.7,0,1.4,0,2c0.1,1.9-0.7,2.2-2.3,1.5c-4.1-1.8-8.3-2.6-12.8-2.2c-4.1,0.4-7.2,2.1-8.8,6.1
			c-1.6,4.2,0.2,7.4,3.2,10.1c2.7,2.4,5.8,4.3,8.8,6.2c3.6,2.3,7.2,4.6,10.2,7.8c7.3,7.9,5.2,20-4.2,25.1
			c-8.5,4.5-17.1,3.3-25.7,0.2c-1.7-0.6-1.5-2.1-1.5-3.4c0.1-6.7-0.4-7,5.8-3.9c3.7,1.9,7.7,2.9,11.8,2.5c3.9-0.4,7.3-1.8,8.8-5.7
			c1.4-3.8,0.4-7.2-2.5-10.1c-2.5-2.5-5.4-4.4-8.4-6.2c-3.3-2-6.6-4.2-9.4-6.8c-4.8-4.5-7.4-9.6-5.4-16.4c2-6.8,6.7-10.8,13.5-12.2
			c4.8-1,9.6-1,14.4,0.2C105.3,116.1,105.3,116.1,105.3,120.6z"/>
		<path d="M182.6,146.6c0-9.4,0.1-18.9-0.1-28.3c-0.1-3.4,1.6-3.6,4.1-3.5c4.1,0.1,4.4,0.2,4.4,3.5c0,16,0,32.1,0,48.1
			c0,4.2,0,4.2,4.1,4.2c6,0,12.1,0.2,18.1-0.1c3.2-0.1,3.1,1.7,3,3.9c0,2.2,0.4,4.2-3.1,4.2c-9.1-0.2-18.3-0.1-27.4,0
			c-2.7,0-3.3-1.1-3.2-3.5C182.6,165.6,182.6,156.1,182.6,146.6z"/>
		<path d="M93.9,93.5c-1.8,3.9-3.5,7.9-5.3,11.8c-0.3,0.6-0.5,1.3-0.8,1.9c-0.3,0.7-0.7,1.5-1.6,1.5c-1,0-1.2-0.9-1.5-1.5
			c-1.9-4.2-3.7-8.3-5.6-12.5c-0.2-0.5-0.5-1-1.3-1.5c0,3.6,0,7.2,0,10.8c0,1,0,1.9,0,2.9c0,1.1-0.3,2-1.6,2c-1.3,0-1.5-1-1.5-2
			c0-4.1,0-8.2,0-12.2c0-1.8,0-3.7,0-5.5c0-1.2-0.2-2.6,1.6-2.9c1.6-0.2,2.6,0.4,3.2,1.9c2,4.5,4,9.1,6,13.6
			c0.2,0.4,0.4,0.9,0.9,1.8c1.8-4,3.5-7.7,5.2-11.3c0.7-1.6,1.5-3.2,2.2-4.8c0.6-1.3,1.8-1.3,3-1.1c1.1,0.2,1.3,1.1,1.3,2
			c0,6.2,0,12.4,0,18.7c0,1-0.3,2-1.6,2.1c-1.4,0.1-1.8-1-1.8-2.1c0-4.3,0-8.7,0-13C94.4,93.6,94.2,93.6,93.9,93.5z"/>
		<path d="M173.2,109.1c-4.8,0-8.1-3.5-8-8.5c0.1-5.2,3.6-8.8,8.6-8.7c4.6,0.1,7.9,3.7,7.8,8.7C181.5,105.8,178.2,109.2,173.2,109.1
			z M173.7,94.9c-3.2-0.1-5.1,2-5.2,5.7c0,3.4,1.9,5.7,4.8,5.8c2.9,0.1,4.9-2.1,4.9-5.6C178.4,97.1,176.8,95,173.7,94.9z"/>
		<path d="M134.7,100.5c0.1-5.2,3.3-8.6,8.2-8.6c4.7,0,7.9,3.4,7.9,8.5c0,5.3-3.3,8.7-8.4,8.6C137.5,109,134.6,105.8,134.7,100.5z
			 M137.9,100.6c0,3.5,1.8,5.7,4.8,5.8c2.9,0.1,4.8-2.2,4.9-5.7c0.1-3.7-1.6-5.7-4.7-5.8C139.5,94.9,137.9,96.8,137.9,100.6z"/>
		<path d="M192.6,86.1c-0.1,1-0.8,1.2-1.7,1.3c-1.7,0.1-2.3,1.1-2.4,2.7c-0.1,1.5,0.5,2.4,2.1,2.5c0.8,0,1.3,0.5,1.2,1.3
			c0,0.8-0.6,1.2-1.3,1.2c-1.9,0.1-2,1.4-2,2.9c0,2.6,0,5.3,0,7.9c0,1.3,0.3,3.1-1.8,3c-1.8-0.1-1.6-1.7-1.6-2.9c-0.1-2.3,0-4.7,0-7
			c0-1.6,0.4-3.3-1.8-4.1c-0.8-0.3-0.9-1.7-0.1-1.9c2.2-0.7,1.9-2.7,2.3-4.3c0.7-2.6,2.9-4.3,5.3-4.2
			C192,84.5,192.7,85.1,192.6,86.1z"/>
		<path d="M160.3,95c-1.6,0-3.2-0.4-3.6,1.4c-0.4,1.8,1.1,2.2,2.3,2.9c0.8,0.4,1.6,0.8,2.3,1.3c2.9,2.1,2.8,5.9-0.4,7.7
			c-2.1,1.2-4.3,1.1-6.5,0.4c-1.1-0.3-1.6-1.1-1.3-2.3c0.4-1.4,1.3-0.7,2.1-0.5c0.7,0.2,1.5,0.4,2.3,0.5c1,0.1,2-0.2,2.3-1.4
			c0.3-1.1-0.2-1.9-1.2-2.4c-1-0.6-2.1-1-3.1-1.7c-2.5-1.6-3.2-4.2-1.7-6.5c1.5-2.3,5.8-3.3,7.8-1.9c0.8,0.5,1,1.2,0.7,2
			C161.8,95.8,160.8,94.9,160.3,95z"/>
		<path d="M117.8,109.1c-3.7,0-6.2-1.3-7.5-4.3c-1.6-3.6-1.2-7.1,1.3-10.1c2.1-2.6,5-3.2,8.2-2.6c1.2,0.2,2.4,0.7,2.1,2.3
			c-0.3,1.8-1.7,0.7-2.6,0.6c-2.4-0.2-4.6,0-5.8,2.3c-1.1,2.4-1.3,5,0.3,7.2c1.4,2,3.5,2.2,5.8,1.5c0.7-0.2,1.7-1.1,2.2,0.3
			c0.4,1.3-0.5,2-1.6,2.3C119.2,109,118.2,109,117.8,109.1z"/>
		<path d="M200.2,109.1c-2.9,0-4.2-1.6-4.5-4c-0.2-2.2-0.1-4.5-0.2-6.7c0-1.4,0.3-3-1.7-3.6c-0.5-0.1-0.9-0.9-0.6-1.1
			c1.8-1.4,2-3.7,3.3-5.2c0.8-0.9,2.1-0.6,2.1,1c0,1.8,0.3,3.1,2.5,2.9c0.7-0.1,1.4,0.3,1.4,1.1c0.1,1-0.6,1.4-1.5,1.4
			c-2.3-0.1-2.5,1.3-2.4,3c0.1,1.8,0,3.7,0.1,5.5c0,1.2,0.4,2.3,1.7,2.7c0.9,0.3,2.5-0.3,2.1,1.5C202.3,109.2,201,109,200.2,109.1z"
			/>
		<path d="M125,100.6c0-2,0-4.1,0-6.1c0-1,0.4-2.3,1.5-1.9c2,0.6,3.7-0.1,5.5-0.4c0.9-0.2,1.7,0.3,1.8,1.4c0.1,1.1-0.4,1.6-1.5,1.6
			c-2.8-0.1-3.7,1.8-3.8,4.1c-0.1,2.4-0.1,4.8-0.2,7.2c0,1.1-0.1,2.3-1.6,2.3c-1.6,0.1-1.8-1.2-1.8-2.4
			C124.9,104.5,124.9,102.5,125,100.6C125,100.6,125,100.6,125,100.6z"/>
		<path d="M105.8,101c0,1.9,0,3.9,0,5.8c0,1.1-0.3,2-1.6,1.9c-1.1,0-1.5-0.9-1.5-1.8c0-4.2,0-8.4,0-12.5c0-1,0.3-2,1.7-1.9
			c1.4,0.1,1.4,1.1,1.4,2.1C105.9,96.8,105.8,98.9,105.8,101z"/>
	</g>
</g>
<g id="Layer_12">
	<g>
		<g>
			<path class="st22" d="M66.9,33.1c0.3,0.6,16.6-10.4,16.9-9.8c0.5,0.8-37.5,25.5-36.9,26.6c0.8,1.3,60.1-36.9,61.1-35.2
				c1,1.7-67.8,43.5-67,45C42.3,62,126,8.1,127.1,9.9c1.3,2.3-95.6,57.5-93.9,60.4c1.6,2.7,99.1-61.1,100.8-58.2
				C135.6,15,24.6,76.4,26.4,79.5C27.8,82.1,141.3,9,143.1,12.1c1.7,3-125.6,74.8-123.8,77.8c2.1,3.7,130.5-80.2,132.6-76.5
				c2,3.4-132,77.7-130.2,80.9c2,3.4,138.1-84.6,140.2-80.9c1.7,3-146.5,85.9-144.6,89.4c2.6,4.5,153.1-94,155.5-89.8
				c2.3,4-156.7,90.7-154.3,94.8c2.3,4,155.3-95,157.7-91c2.1,3.6-168,96.2-165.2,100.9c2,3.4,169.8-104.4,172.5-99.6
				c3,5.2-174.5,100.4-171.7,105.3c2.4,4.1,170.9-103.8,173.1-99.9c2.9,5-171.2,99.6-169,103.4c2.9,5,173.1-106.5,176-101.6
				c2.4,4.2-182.2,104.1-179.3,109.2c2.3,4,183.2-111.9,185.8-107.3c2.3,4-186.5,106.5-183.5,111.7c2.5,4.4,185.4-114,188.4-108.8
				c3.4,5.8-195.6,112-192.6,117.1c2.5,4.4,194.7-119.2,197.6-114.1C211.5,38.5,9.5,146.5,12.6,152c3.1,5.4,200.4-123.5,203.8-117.7
				C218.8,38.5,12.2,151,15.2,156.3c2.6,4.5,195.5-119.4,198.4-114.5c3,5.2-202.9,116.6-200.2,121.4c2.8,4.8,204-125.8,207.5-119.8
				C224,48.8,11.4,163.7,14.3,168.7c2.4,4.2,211-128.1,213.8-123.4c3.2,5.5-216,123.2-212.9,128.5c2.7,4.8,207.2-126.1,210-121.3
				C227.8,57,15.5,173.9,18,178.4c3.5,6,212.7-129,215.4-124.4c2.9,5.1-213.7,122.6-211,127.2c3.4,5.8,212.1-130,215.4-124.3
				c2.8,4.9-215.8,122.9-212.5,128.8C28.5,191.3,235,57.3,238.2,62.8C241.1,67.8,25.8,183.9,29,189.5
				c3.6,6.3,207.6-126.2,210.3-121.4c3.2,5.6-214.9,123.4-212.1,128.3c3.3,5.7,211.9-130.6,215.5-124.4
				c3.6,6.3-212.9,120.4-209.5,126.3c3,5.2,207.9-127.3,211.1-121.9C247.6,82.2,32.6,196.5,35.7,202
				c2.6,4.5,211.5-129.9,214.9-124.1c2.8,4.8-212.9,123.3-210.3,127.7c2.9,5,210.1-128,213-123C257,88.9,40.6,204.6,43.3,209.2
				C46.2,214.3,251.5,83.1,254,87.5c3,5.1-212.5,121.8-209.6,126.9C48,220.7,248.4,88.9,251.8,94.8C254.6,99.6,47.2,212.6,50,217.4
				c3.2,5.6,201.6-124,204.9-118.3C258.3,105,44.2,221,46.7,225.4C49.5,230.2,254.2,99.1,257,104c2.6,4.5-206.3,117.2-203.1,122.7
				c3.4,5.8,201.6-124.2,205-118.3c2.9,5.1-202.2,117.1-199.7,121.3c3.1,5.4,200-121,202.4-116.9c3.4,5.8-204.5,116.3-201,122.3
				c2.3,4,199.9-121.7,202.6-117c3.1,5.4-194.4,111.5-191.3,116.7c3.1,5.3,184.2-113,187.1-108C261,130.6,71.1,234.5,74,239.5
				c3,5.3,183.1-112.4,186-107.4c3.1,5.4-187.8,108.1-185,112.9c3.1,5.3,184.7-111.9,187-108c2.9,5-177.3,102.9-175.2,106.4
				c2.3,4,167.6-102.3,170-98.1c2.3,3.9-171.6,98.3-168.6,103.4c2.6,4.5,173.7-106.1,176.2-101.7c2.4,4.1-171.2,99.2-168.8,103.3
				c2.4,4.1,159.5-98.6,162.3-93.7c2.5,4.3-158.7,91.7-156.3,95.8c2.3,4,151.2-93.2,153.8-88.8c1.8,3-150.3,88.6-148.4,92
				c2.4,4.2,148.8-90.6,150.8-87.1c1.9,3.4-142.9,82.5-140.6,86.6c2,3.5,135.8-83.9,138.2-79.8c1.6,2.8-136.6,80.3-135,83.2
				c1.7,3,129.6-78.5,131.2-75.7c1.7,2.9-119.9,70.8-118.3,73.6c1.7,2.9,117.5-71.9,119.2-68.8c1.7,3-117.2,69.9-115.7,72.5
				c1.5,2.7,105.8-64.4,107.3-61.9c1.6,2.8-98.8,58.8-97.1,61.8c1.1,1.9,86.2-52.7,87.5-50.5c0.9,1.5-73.9,45.1-72.6,47.2
				c1,1.7,66.5-40.3,67.4-38.9c0.7,1.3-45.6,30.6-44.8,32c0.4,0.7,26.4-15.9,26.7-15.4"/>
		</g>
	</g>
	<circle class="st4" cx="137.2" cy="134.7" r="100.5"/>
	<path class="st4" d="M131.7,8.3v28.4c0,0-5.7,139.8,3.8,224.8c0,0-80,9.5-121.5-87.5c0,0-6.3-25.8-4.9-39
		C18.6,41.7,88.3,8.2,131.7,8.3z"/>
	<circle class="st28" cx="137.2" cy="134.7" r="128.5"/>
	<path d="M136.1,200.4c-37.8-0.2-67.5-30.2-67.3-68.1c0.2-37.8,30.2-67.7,67.9-67.6c38,0.1,67.9,30.2,67.7,68.4
		C204.3,170.5,173.8,200.5,136.1,200.4z M145.2,105.3c6.8,20.2,13.9,41.4,21.1,62.7c3.6-6.8,5.4-13.7,8-20.3
		c5.4-13.7,5.1-26.4-3.3-39.2c-7-10.6-5.1-15.9,5.6-21.9c-24.8-25.3-73.2-18.9-91.1,12.8c5.2-0.2,9.7-0.7,14.2-0.6
		c2.6,0.1,5.2,1.1,7.7,1.7c-2.3,1-4.6,1.9-6.8,2.9c-0.4,0.2-0.6,0.5-1.6,1.3c7.1,21,14.3,42.4,21.5,63.7c0.6-0.1,1.2-0.2,1.8-0.3
		c4-12,8.1-24,11.9-36c0.5-1.7,0.1-3.8-0.4-5.6c-2.2-6.4-4.4-12.8-7.1-19c-0.8-1.9-3.3-3.1-5.1-4.4c-1.4-1-2.9-1.7-4.4-2.5
		c1.7-0.7,3.4-2.1,5.1-2.1c7.8-0.1,15.6,0,23.4,0.2c2.7,0.1,5.4,0.8,8.1,1.3C151.3,101.5,149,103,145.2,105.3z M118.8,191.6
		c13.6,3.4,25.6,3.6,38.1-1.3c-6.4-17.5-12.6-34.4-18.8-51.2c-0.5,0.1-1,0.2-1.5,0.3C130.9,156.6,125,173.7,118.8,191.6z
		 M80.8,107.8c-14.8,27.5,0,68.8,28.7,78.8C99.9,160.3,90.5,134.4,80.8,107.8z M191.1,105.5c-2.5,28.1-16.5,52.3-23.1,79.1
		C194.2,173.4,206.8,129.6,191.1,105.5z"/>
</g>
</svg>
