<?xml version="1.0" encoding="utf-8"?>
<!-- Generator: Adobe Illustrator 19.2.1, SVG Export Plug-In . SVG Version: 6.00 Build 0)  -->
<!DOCTYPE svg PUBLIC "-//W3C//DTD SVG 1.1//EN" "http://www.w3.org/Graphics/SVG/1.1/DTD/svg11.dtd">
<svg version="1.1" id="Layer_1" xmlns="http://www.w3.org/2000/svg" xmlns:xlink="http://www.w3.org/1999/xlink" x="0px" y="0px"
	 viewBox="0 0 1476 908" style="enable-background:new 0 0 1476 908;" xml:space="preserve">
<style type="text/css">
	.st0{fill-rule:evenodd;clip-rule:evenodd;fill:#232323;}
	.st1{fill:#232323;}
</style>
<g>
	<path class="st0" d="M813.9,446c13.3,9.3,24.3,19.8,33,31.3c8.9,11.5,15.7,23.6,20.9,36c5.1,12.5,8.7,24.8,10.8,37.1
		c2.2,12.4,3.3,23.9,3.1,34.9c-0.1,14.5-2,26.9-5.7,37.3c-3.8,10.3-8.7,18.9-15,25.7c-6.2,6.8-13.1,12.1-20.5,16
		c-7.5,4-14.9,6.6-22.5,8.3c-7.5,1.6-14.5,2.4-20.9,2.3c-7.9,0.1-16.1-0.3-24.5-1.3c-8.3-1.1-17.1-3.4-26.6-7.1
		c-5.6-2.2-10-4.8-13.3-7.8c-3.3-3-5.7-7-7.3-11.9c-0.4-1.1-0.7-2.2-1-3.4c0.7-12.7,1-25.1,1-37.1c-0.1-17.5-0.5-34.6-1-51.2
		c-0.6-16.6-0.9-32.4-1.1-47.5v-78.5c0.6-0.4,1.4-0.6,2.4-0.6c5,0,9.8,0,14.2,0.1c4.4,0,9.8,0.2,15.9,0.6c9.1,0.5,17,1.3,23.9,2.7
		c6.9,1.3,13.2,3,18.7,5.4C803.8,439.6,809.1,442.5,813.9,446L813.9,446z M716.5,702.9c1.7,0.2,3.3,0.4,5,0.6v0.1
		c61.7,3.4,127.3,6.8,180.9-29.5c14.8-9.9,27.1-21.3,36.7-34.3c9.7-12.9,16.9-26.8,21.6-41.4c4.8-14.7,7.1-29.6,7.1-44.7
		c-0.1-16.3-2.7-31.5-7.7-45.3c-5.1-13.9-11.9-26.4-20.6-37.7c-8.6-11.3-18.4-21.3-29.4-30.1c-11-8.9-22.4-16.4-34.3-22.7
		c-12-6.4-23.8-11.4-35.3-15.4c13.1-10.1,24.8-21,35.6-32.7c10.8-11.7,19.4-24.8,25.9-39.4c6.4-14.6,9.8-31.4,9.9-50.4
		c0.1-7.6-1-16-3.4-25.2c-2.3-9.2-6.5-18.4-12.6-27.8c-6.1-9.3-14.7-18-25.9-25.8c-11.2-7.8-25.5-14.1-43-18.9
		c-14.7-4-32.2-6.4-52.3-7.1c-1.7-0.2-3.7-0.2-5.9-0.2c-6.9,0-14.6,0.1-23,0.4c-8.3,0.1-16.7,0.5-25.1,0.7
		c-8.4,0.2-16.1,0.5-23.1,0.7c-7,0.2-12.7,0.3-17,0.3c-4.7,0-10.6-0.1-18-0.3c-7.3-0.2-15.6-0.5-24.6-0.7
		c-9.1-0.2-18.4-0.6-28.2-0.7c-9.7-0.2-19.2-0.4-28.6-0.4c-5.2-0.1-9.1,0.4-11.7,1.3c-2.4,0.9-3.7,2.6-3.7,5c0,2.3,1.1,4.1,3,5
		c2.1,0.8,5,1.3,8.9,1.3c5.1,0,10.1,0.1,15.3,0.5c5,0.4,9.1,0.9,12,1.6c7.6,1.5,13.5,4,17.7,7.2c4.2,3.1,7.2,7.5,9.1,12.8
		c1.8,5.2,2.9,11.9,3.3,19.8c0.2,4.3,0.5,9,0.7,13.8c0.1,4.9,0.4,10.7,0.5,17.5c0,6.8,0.1,15.2,0.1,25.3c0.1,10.1,0.1,22.7,0.1,37.7
		v54.1V579c0.1,34.2-0.1,64.5-0.7,91.1c-0.6,26.5-2.4,50-5.6,70.7c-3,20.5-8.3,38.8-15.5,55.1c-7.3,16.1-17.5,30.9-30.7,44.2
		c-7,6.9-13.2,12.5-18.7,16.7c-5.5,4.2-10.4,7.6-14.9,9.9c-5.8,3-9.9,5.5-12.1,7.3c-2.3,1.9-3.4,3.6-3.3,5.2
		c0.1,1.7,0.7,3.1,1.8,4.1c1.2,1,2.4,1.5,3.8,1.5c1.9,0,4-0.3,6.5-1c2.4-0.7,5-1.8,7.5-3.1c7.3-3.5,13.9-6.6,19.6-9.7
		c5.7-2.9,10.8-5.7,15.4-8.5c22.4-13.9,41.5-28.2,57.5-43.2c15.9-14.9,28.9-30,39.1-45c10-15,17.5-29.7,22.4-44.1
		C711.7,721.3,714.3,712.2,716.5,702.9L716.5,702.9z M724.3,643.5c-0.1,1.3-0.2,2.6-0.2,4L724.3,643.5L724.3,643.5z M729.5,204.9
		c2.8-0.5,5.8-0.8,8.8-1c3.6-0.1,7.8-0.1,12.6-0.1c12,0.1,22.7,2.3,32.2,6.8c9.4,4.4,17.6,10.4,24.6,17.8c7,7.6,12.7,16,17.3,25.4
		c4.5,9.3,7.9,19.1,10.1,29.2c2.2,10,3.3,19.8,3.3,29.3c0,17.1-2.6,32-7.5,44.4c-5,12.5-12,22.4-21.2,29.7
		c-5.8,5.1-12.8,8.6-21,10.6c-8.2,1.9-18,2.8-29.4,2.7c-8,0-14.7-0.2-20.1-0.6c-5.5-0.3-9.7-0.8-12.8-1.5c-1.2-0.2-2.3-0.8-3.1-1.6
		v-18V324c0-14.9,0-27.5,0.1-37.7c0-10.1,0.1-18.5,0.2-25.3c0-6.8,0.2-12.6,0.3-17.5c0.2-4.8,0.5-9.4,0.7-13.8
		C725.1,219.4,726.7,211.1,729.5,204.9L729.5,204.9z"/>
	<g>
		<path class="st1" d="M1402.2,457.7c3.5,0,7-0.2,10.5-0.7c3.5-0.5,7.1-1.3,10.5-2.5c3.5-1.2,6.9-2.8,10.1-4.9
			c4.7-3.1,8.4-6.6,11-10.4c2.7-3.8,4.6-7.8,5.8-11.8c1.1-4.1,1.7-8,1.6-11.9c0-4.6-0.6-9-1.7-13.2c-1.1-4.2-3-8.2-5.5-12.1
			c-2.5-4-5.8-7.9-9.9-12c-4.1-4.1-9.1-8.3-15-12.7l-5.5-4.1c-5.4-4.1-9.6-7.7-12.6-10.8c-3-3.1-5.2-6.1-6.4-8.8
			c-1.2-2.8-1.8-5.7-1.8-8.6c0-4,0.9-7.5,2.8-10.5c1.9-3,4.5-5.4,8-7.1c3.5-1.7,7.6-2.6,12.5-2.6c4.2,0,7.7,0.6,10.6,1.7
			c2.8,1,5.1,2.3,6.8,3.8c1.7,1.5,3.1,2.8,4,4.1c1.4,1.7,2.4,3.5,3.2,5.2c0.7,1.8,1.2,3.3,1.5,4.7c0.3,1.4,0.4,2.4,0.4,3
			c0,1.2,0.2,2.1,0.5,2.6c0.3,0.6,0.8,0.9,1.5,0.9c0.8,0,1.3-0.4,1.7-1.3c0.3-0.9,0.5-2.4,0.5-4.5c0-5.1,0.1-9.2,0.2-12.4
			c0.1-3.1,0.3-5.6,0.4-7.4c0.1-1.7,0.2-3,0.2-3.8c0-0.7-0.2-1.2-0.7-1.5c-0.5-0.4-1.1-0.6-2-0.8c-2.5-0.8-5.9-1.5-10.2-2.2
			c-4.3-0.7-9.6-1.1-15.9-1.1c-6.8,0-13,0.9-18.6,2.7c-5.6,1.8-10.3,4.4-14.3,7.7c-4,3.3-7,7.2-9.2,11.7c-2.1,4.5-3.2,9.5-3.2,14.9
			c0,5.3,0.9,10.4,2.7,15.4c1.9,5,4.9,10,9.2,15.1c4.3,5.1,10,10.4,17.1,16l9,7.1c4.1,3.2,7.3,6.1,9.9,8.9c2.6,2.8,4.5,5.4,5.9,7.9
			c1.3,2.5,2.3,5,2.8,7.4c0.5,2.4,0.8,4.8,0.7,7.2c0,2.6-0.5,5.3-1.6,7.9c-1.1,2.6-2.7,5-4.9,7.2c-2.2,2.2-4.9,4-8.2,5.3
			c-3.3,1.3-7.2,2-11.6,2c-4.1,0-8-0.6-11.7-1.9c-3.7-1.3-7-3.4-9.9-6.3c-2.8-2.9-5-6.8-6.5-11.6c-0.5-1.7-0.9-3.5-1.2-5.3
			c-0.3-1.8-0.5-3.4-0.5-4.7c0-0.8-0.1-1.6-0.3-2.3c-0.2-0.7-0.8-1-1.6-1.1c-0.8,0-1.3,0.5-1.7,1.4c-0.4,0.9-0.6,2.2-0.7,3.7
			c-0.1,0.8-0.1,2.1-0.2,3.8c-0.1,1.7-0.2,3.8-0.3,6.1c-0.1,2.4-0.2,4.9-0.3,7.6c-0.1,2.7-0.1,5.4-0.1,8.1c0,1.4,0.1,2.5,0.3,3.3
			c0.2,0.8,0.6,1.5,1.1,2c0.5,0.5,1.3,0.9,2.4,1.4c4.2,1.8,8.6,3.2,13.2,4C1391.4,457.4,1396.6,457.8,1402.2,457.7L1402.2,457.7z"/>
		<path class="st1" d="M1343,312.2c0,4.1-0.4,8-1.2,11.8c-0.8,3.8-1.7,7.3-2.9,10.5c-1.2,3.2-2.4,6-3.6,8.3
			c-0.4,0.8-0.7,1.3-0.8,1.7c-0.1,0.4-0.2,0.7-0.2,0.9c0,0.4,0.1,0.7,0.4,0.9c0.2,0.2,0.5,0.3,0.8,0.3c0.6,0,1.1-0.1,1.6-0.4
			c0.5-0.2,1-0.6,1.6-1.2c1.8-1.8,3.7-4.1,5.6-6.7c2-2.6,3.9-5.5,5.8-8.5c1.9-3.1,3.6-6.2,5.1-9.4c1.5-3.2,2.7-6.3,3.7-9.3
			c0.9-3,1.4-5.7,1.4-8.1c0-1-0.1-1.8-0.4-2.5c-0.3-0.7-0.8-1.3-1.6-1.8c-0.8-0.5-2.1-1-3.7-1.4c-0.9-0.3-2.2-0.7-3.6-1.1
			c-1.4-0.4-2.9-0.8-4.5-1.2c-1.6-0.4-3.1-0.7-4.5-1c-1.4-0.3-2.6-0.4-3.7-0.4c-0.5,0-1,0.2-1.4,0.6c-0.5,0.4-0.7,0.7-0.7,1
			c0,0.5,0.1,0.9,0.4,1.4c0.3,0.5,0.8,1.2,1.8,2.1c0.6,0.6,1.3,1.5,2,2.8c0.8,1.3,1.4,2.9,1.9,4.7C1342.7,308,1343,310,1343,312.2
			L1343,312.2z"/>
		<path class="st1" d="M1234.1,398.1c0,6,0,11.7,0,17c0,5.3-0.1,10-0.3,14.3c-0.1,4.2-0.4,7.7-0.7,10.5c-0.2,1.9-0.6,3.6-0.9,5.1
			c-0.4,1.5-0.9,2.8-1.7,3.8c-0.7,1-1.7,1.6-3,1.9c-0.9,0.2-1.9,0.4-3.1,0.6c-1.2,0.1-2.5,0.2-4,0.2c-1.1,0-2,0.1-2.5,0.4
			c-0.5,0.3-0.7,0.7-0.7,1.1c0,0.7,0.3,1.2,1,1.5c0.7,0.3,1.6,0.5,2.9,0.5c2,0,4.2-0.1,6.5-0.2c2.4-0.1,4.7-0.2,7-0.2
			c2.4-0.1,4.6-0.2,6.5-0.2c2,0,3.5,0,4.6,0c2.9,0,6,0,9.3,0.1c3.3,0.1,7,0.3,11.1,0.5c4.2,0.1,9.1,0.2,14.6,0.4
			c5.6,0.1,12,0.2,19.3,0.2c2.5,0,4.4,0,5.8-0.2c1.4-0.2,2.4-0.6,3.1-1.3c0.7-0.7,1.3-1.9,1.7-3.6c0.3-1,0.5-2.5,0.8-4.4
			c0.3-1.9,0.6-4,0.8-6.2c0.3-2.3,0.5-4.4,0.7-6.4c0.2-2,0.3-3.6,0.3-4.7c0-1,0-1.8-0.2-2.5c-0.2-0.7-0.6-1-1.4-1
			c-0.7,0-1.1,0.2-1.4,0.7c-0.3,0.5-0.6,1.2-0.7,2.3c-0.7,4-1.7,7.1-3,9.4c-1.4,2.3-3.3,4-5.8,5.1c-1.7,0.8-3.7,1.3-5.9,1.7
			c-2.2,0.3-4.4,0.5-6.6,0.6c-2.2,0.1-4.2,0.1-5.9,0.1c-5,0-9-0.2-12.1-0.7c-3.1-0.5-5.4-1.3-7.1-2.5c-1.6-1.2-2.7-2.9-3.4-5
			c-0.6-2.2-0.9-4.9-1-8.3c0-1.2-0.1-2.7-0.1-4.7c0-2,0-4.2,0-6.5c0-2.4,0-4.8,0-7.2c0-2.4,0-4.7,0-6.8c0-2.1,0-3.8,0-5.2v-15.5
			c0-0.6,0.1-1.1,0.2-1.4c0.2-0.3,0.5-0.5,0.9-0.5c1,0,2.4,0,4.3,0c1.9,0,4.1,0,6.4,0.1c2.4,0,4.7,0.1,7,0.1
			c2.3,0.1,4.4,0.1,6.2,0.2c1.8,0.1,3.1,0.1,3.9,0.2c2.4,0.3,4.3,0.8,5.9,1.5c1.5,0.7,2.7,1.6,3.5,2.6c0.8,1,1.4,2.3,1.7,3.6
			c0.3,1.3,0.5,2.6,0.6,3.8c0.1,1.2,0.2,2.3,0.2,3.3c0,0.5,0.1,0.9,0.4,1.2c0.3,0.3,0.7,0.5,1.4,0.5c0.6,0,1-0.2,1.2-0.6
			c0.3-0.4,0.4-0.9,0.5-1.4c0.1-0.6,0.1-1.1,0.1-1.7c0-0.4,0-1.1,0.1-2.1c0.1-1,0.1-2.2,0.2-3.5c0.1-1.3,0.2-2.7,0.3-4
			c0.1-1.3,0.1-2.5,0.2-3.5c0.3-3.3,0.5-5.9,0.8-7.9c0.2-2,0.4-3.4,0.6-4.4c0.2-1,0.2-1.7,0.2-2c0-0.6-0.1-1-0.4-1.2
			c-0.3-0.2-0.6-0.3-1-0.3c-0.5,0-0.9,0.2-1.4,0.7c-0.5,0.5-1,1.1-1.7,1.9c-0.9,0.9-2.1,1.6-3.6,2.1c-1.5,0.4-3.5,0.7-5.8,0.9
			c-0.9,0.1-2.5,0.1-4.6,0.2c-2.1,0-4.5,0.1-7.2,0.1c-2.7,0-5.4,0.1-8,0.1c-2.6,0-5,0-7.1,0c-2.1,0-3.6,0-4.5,0
			c-0.6,0-0.9-0.2-1.1-0.6c-0.2-0.4-0.3-0.9-0.2-1.6v-49.6c0-0.7,0.1-1.2,0.3-1.5c0.2-0.3,0.6-0.5,1-0.5c0.8,0,2.2,0,4.1,0
			c1.9,0,4.1,0.1,6.4,0.1c2.4,0,4.8,0.1,7.2,0.2c2.4,0.1,4.5,0.1,6.3,0.2c1.8,0.1,3.1,0.1,3.8,0.2c3.2,0.4,5.7,0.9,7.5,1.6
			c1.8,0.7,3,1.4,3.9,2.4c0.8,0.9,1.4,2,1.8,3.1c0.3,0.8,0.6,1.7,0.8,2.6c0.2,0.9,0.3,1.8,0.3,2.6c0.1,0.8,0.1,1.4,0.1,1.9
			c0,0.9,0.1,1.6,0.4,2c0.3,0.5,0.7,0.7,1.4,0.7c0.7,0,1.1-0.3,1.4-0.7c0.3-0.5,0.5-0.9,0.5-1.4c0.1-0.6,0.2-1.5,0.3-2.7
			c0.1-1.2,0.2-2.5,0.3-3.9c0.1-1.4,0.2-2.6,0.3-3.8c0.1-1.1,0.1-2,0.2-2.5c0.2-3,0.4-5.3,0.7-7c0.3-1.7,0.5-3,0.7-3.8
			c0.2-0.8,0.3-1.5,0.3-1.9c0-0.5-0.1-0.9-0.2-1.2c-0.2-0.3-0.5-0.5-0.9-0.5c-0.5,0-1,0.1-1.6,0.3c-0.6,0.2-1.1,0.3-1.6,0.5
			c-0.8,0.2-1.9,0.4-3.4,0.6c-1.5,0.2-3.1,0.4-5,0.6c-0.7,0-2.2,0.1-4.5,0.1c-2.3,0-5.2,0.1-8.5,0.1c-3.3,0-6.9,0-10.6,0
			c-3.7,0-7.3,0-10.8,0c-3.5,0-6.5,0-9.1,0c-2.6,0-4.4,0-5.6,0c-1.4,0-3.2,0-5.3-0.1c-2.1-0.1-4.5-0.2-7.1-0.3c-2.5,0-5.1,0-7.8-0.1
			c-2.7-0.1-5.4-0.1-8.1-0.1c-1.5,0-2.6,0.1-3.3,0.4c-0.7,0.3-1,0.7-1,1.4c0,0.7,0.3,1.1,0.8,1.4c0.6,0.2,1.4,0.4,2.5,0.4
			c1.4,0,2.8,0,4.3,0.1c1.4,0.1,2.6,0.3,3.4,0.5c2.1,0.5,3.8,1.1,5,2c1.2,0.9,2,2.1,2.5,3.6c0.5,1.5,0.8,3.3,0.9,5.6
			c0.1,1.2,0.1,2.5,0.2,3.9c0,1.4,0.1,3,0.1,4.9c0,1.9,0,4.3,0,7.1c0,2.8,0,6.3,0,10.5c0,4.2,0,9.3,0,15.2V398.1L1234.1,398.1z"/>
		<path class="st1" d="M1116.9,398.1c0,6,0,11.7,0,17c0,5.3-0.1,10-0.3,14.3c-0.1,4.2-0.4,7.7-0.7,10.5c-0.2,1.9-0.6,3.6-0.9,5.1
			c-0.4,1.5-0.9,2.8-1.7,3.8c-0.7,1-1.7,1.6-3,1.9c-0.9,0.2-1.9,0.4-3.1,0.6c-1.2,0.1-2.5,0.2-4,0.2c-1.1,0-2,0.1-2.5,0.4
			c-0.5,0.3-0.7,0.7-0.7,1.1c0,0.7,0.3,1.2,1,1.5c0.7,0.3,1.6,0.5,2.9,0.5c2,0,4.2-0.1,6.5-0.2c2.4-0.1,4.7-0.2,7-0.2
			c2.4-0.1,4.6-0.2,6.5-0.2c2,0,3.5,0,4.6,0c2.9,0,6,0,9.2,0.1c3.3,0.1,7,0.3,11.1,0.5c4.2,0.1,9.1,0.2,14.6,0.4
			c5.6,0.1,12,0.2,19.3,0.2c2.5,0,4.4,0,5.8-0.2c1.4-0.2,2.4-0.6,3.1-1.3c0.7-0.7,1.3-1.9,1.7-3.6c0.3-1,0.5-2.5,0.8-4.4
			c0.3-1.9,0.6-4,0.8-6.2c0.3-2.3,0.5-4.4,0.7-6.4c0.2-2,0.3-3.6,0.3-4.7c0-1,0-1.8-0.2-2.5c-0.2-0.7-0.6-1-1.4-1
			c-0.7,0-1.1,0.2-1.4,0.7c-0.3,0.5-0.6,1.2-0.7,2.3c-0.7,4-1.7,7.1-3,9.4c-1.4,2.3-3.3,4-5.8,5.1c-1.7,0.8-3.7,1.3-5.9,1.7
			c-2.2,0.3-4.4,0.5-6.6,0.6c-2.2,0.1-4.2,0.1-5.9,0.1c-5,0-9-0.2-12.1-0.7c-3.1-0.5-5.4-1.3-7.1-2.5c-1.6-1.2-2.7-2.9-3.4-5
			c-0.6-2.2-0.9-4.9-1-8.3c0-1.2-0.1-2.7-0.1-4.7c0-2,0-4.2,0-6.5c0-2.4,0-4.8,0-7.2c0-2.4,0-4.7,0-6.8c0-2.1,0-3.8,0-5.2v-15.5
			c0-0.6,0.1-1.1,0.2-1.4c0.2-0.3,0.5-0.5,0.9-0.5c1,0,2.4,0,4.3,0c1.9,0,4.1,0,6.4,0.1c2.4,0,4.7,0.1,7,0.1
			c2.3,0.1,4.4,0.1,6.2,0.2c1.8,0.1,3.1,0.1,3.9,0.2c2.4,0.3,4.3,0.8,5.9,1.5c1.5,0.7,2.7,1.6,3.5,2.6c0.8,1,1.4,2.3,1.7,3.6
			c0.3,1.3,0.5,2.6,0.6,3.8c0.1,1.2,0.2,2.3,0.2,3.3c0,0.5,0.1,0.9,0.4,1.2c0.3,0.3,0.7,0.5,1.4,0.5c0.6,0,1-0.2,1.2-0.6
			c0.3-0.4,0.4-0.9,0.5-1.4c0.1-0.6,0.1-1.1,0.1-1.7c0-0.4,0-1.1,0.1-2.1c0.1-1,0.1-2.2,0.2-3.5c0.1-1.3,0.2-2.7,0.3-4
			c0.1-1.3,0.1-2.5,0.2-3.5c0.3-3.3,0.5-5.9,0.8-7.9c0.2-2,0.4-3.4,0.6-4.4c0.2-1,0.2-1.7,0.2-2c0-0.6-0.1-1-0.4-1.2
			c-0.3-0.2-0.6-0.3-1-0.3c-0.5,0-0.9,0.2-1.4,0.7c-0.5,0.5-1,1.1-1.7,1.9c-0.9,0.9-2.1,1.6-3.6,2.1c-1.5,0.4-3.5,0.7-5.8,0.9
			c-0.9,0.1-2.5,0.1-4.6,0.2c-2.1,0-4.5,0.1-7.2,0.1c-2.7,0-5.4,0.1-8,0.1c-2.6,0-5,0-7.1,0c-2.1,0-3.6,0-4.5,0
			c-0.6,0-0.9-0.2-1.1-0.6c-0.2-0.4-0.3-0.9-0.2-1.6v-49.6c0-0.7,0.1-1.2,0.3-1.5c0.2-0.3,0.6-0.5,1-0.5c0.8,0,2.2,0,4.1,0
			c1.9,0,4.1,0.1,6.4,0.1c2.4,0,4.8,0.1,7.2,0.2c2.4,0.1,4.5,0.1,6.3,0.2c1.8,0.1,3.1,0.1,3.8,0.2c3.2,0.4,5.7,0.9,7.5,1.6
			c1.8,0.7,3,1.4,3.9,2.4c0.8,0.9,1.4,2,1.8,3.1c0.3,0.8,0.6,1.7,0.8,2.6c0.2,0.9,0.3,1.8,0.3,2.6c0.1,0.8,0.1,1.4,0.1,1.9
			c0,0.9,0.1,1.6,0.4,2c0.3,0.5,0.7,0.7,1.4,0.7c0.7,0,1.1-0.3,1.4-0.7c0.3-0.5,0.5-0.9,0.5-1.4c0.1-0.6,0.2-1.5,0.3-2.7
			c0.1-1.2,0.2-2.5,0.3-3.9c0.1-1.4,0.2-2.6,0.3-3.8c0.1-1.1,0.1-2,0.2-2.5c0.2-3,0.4-5.3,0.7-7c0.3-1.7,0.5-3,0.7-3.8
			c0.2-0.8,0.3-1.5,0.3-1.9c0-0.5-0.1-0.9-0.2-1.2c-0.2-0.3-0.5-0.5-0.9-0.5c-0.5,0-1,0.1-1.6,0.3c-0.6,0.2-1.1,0.3-1.6,0.5
			c-0.8,0.2-1.9,0.4-3.4,0.6c-1.5,0.2-3.1,0.4-5,0.6c-0.7,0-2.2,0.1-4.5,0.1c-2.3,0-5.2,0.1-8.5,0.1c-3.3,0-6.9,0-10.6,0
			c-3.7,0-7.3,0-10.8,0c-3.5,0-6.5,0-9.1,0c-2.6,0-4.4,0-5.6,0c-1.4,0-3.2,0-5.3-0.1c-2.1-0.1-4.5-0.2-7.1-0.3c-2.5,0-5.1,0-7.8-0.1
			c-2.7-0.1-5.4-0.1-8.1-0.1c-1.5,0-2.6,0.1-3.3,0.4c-0.7,0.3-1,0.7-1,1.4c0,0.7,0.3,1.1,0.8,1.4c0.6,0.2,1.4,0.4,2.5,0.4
			c1.4,0,2.8,0,4.3,0.1c1.4,0.1,2.6,0.3,3.4,0.5c2.1,0.5,3.8,1.1,5,2c1.2,0.9,2,2.1,2.5,3.6c0.5,1.5,0.8,3.3,0.9,5.6
			c0.1,1.2,0.1,2.5,0.2,3.9c0,1.4,0.1,3,0.1,4.9c0,1.9,0,4.3,0,7.1c0,2.8,0,6.3,0,10.5c0,4.2,0,9.3,0,15.2V398.1L1116.9,398.1z"/>
		<path class="st1" d="M995.5,398.1c0,6,0,11.7,0,17c0,5.3-0.1,10-0.3,14.3c-0.1,4.2-0.4,7.7-0.7,10.5c-0.2,1.9-0.6,3.6-0.9,5.1
			c-0.4,1.5-0.9,2.8-1.7,3.8c-0.7,1-1.7,1.6-3,1.9c-0.9,0.2-1.9,0.4-3.1,0.6c-1.2,0.1-2.5,0.2-4,0.2c-1.1,0-2,0.1-2.5,0.4
			c-0.5,0.3-0.7,0.7-0.7,1.1c0,0.7,0.3,1.2,1,1.5c0.7,0.3,1.6,0.5,2.9,0.5c2,0,4.2-0.1,6.5-0.2c2.4-0.1,4.7-0.2,7-0.2
			c2.4-0.1,4.6-0.2,6.5-0.2c2,0,3.5,0,4.6,0c1,0,2.3,0,3.8,0.1c1.5,0,3.2,0.1,5.1,0.2c1.9,0.1,3.8,0.2,5.8,0.3
			c1.9,0.1,3.8,0.1,5.6,0.2c1.8,0.1,3.4,0.2,4.8,0.3c1.4,0.1,2.5,0.1,3.3,0.1c7.2,0,13.7-0.9,19.3-2.4c5.7-1.6,10.6-3.8,14.7-6.6
			c4.2-2.8,7.6-6,10.3-9.6c2.7-3.6,4.7-7.5,6-11.6c1.3-4.1,2-8.3,2-12.5c0-4.6-0.8-8.8-2.2-12.7c-1.4-3.9-3.3-7.4-5.8-10.6
			c-2.4-3.2-5.2-6-8.2-8.4c-3.1-2.5-6.3-4.6-9.6-6.4c-3.4-1.8-6.7-3.2-9.9-4.3c3.7-2.8,7-5.9,10-9.2c3-3.3,5.4-7,7.3-11
			c1.8-4.1,2.7-8.8,2.8-14.1c0-2.1-0.3-4.5-0.9-7.1c-0.7-2.6-1.8-5.2-3.5-7.8c-1.7-2.6-4.1-5-7.3-7.2c-3.1-2.2-7.2-4-12.1-5.3
			c-4.9-1.3-10.9-2-18-2.1c-3.3,0-6.9,0.1-10.9,0.3c-3.9,0.2-8.3,0.3-13.1,0.3c-1,0-2.5,0-4.3-0.1c-1.9-0.1-4.1-0.1-6.6-0.2
			c-2.5-0.1-5-0.2-7.7-0.2c-2.7-0.1-5.4-0.1-8-0.1c-1.5,0-2.6,0.1-3.3,0.4c-0.7,0.3-1,0.7-1,1.4c0,0.7,0.3,1.1,0.8,1.4
			c0.6,0.2,1.4,0.4,2.5,0.4c1.4,0,2.8,0,4.3,0.1c1.4,0.1,2.6,0.3,3.4,0.5c2.1,0.4,3.8,1.1,5,2c1.2,0.9,2,2.1,2.5,3.6
			c0.5,1.5,0.8,3.3,0.9,5.6c0.1,1.2,0.1,2.5,0.2,3.9c0,1.4,0.1,3,0.1,4.9c0,1.9,0,4.3,0,7.1c0,2.8,0,6.4,0,10.6c0,4.2,0,9.3,0,15.2
			V398.1L995.5,398.1z M1019,318.5c0-1.1,0.1-1.8,0.4-2.3c0.3-0.5,0.7-0.8,1.4-1c0.9-0.2,1.9-0.3,2.9-0.4c1,0,2.2,0,3.5,0
			c3.4,0,6.4,0.7,9,1.9c2.6,1.2,4.9,2.9,6.9,5c2,2.1,3.6,4.5,4.8,7.1c1.3,2.6,2.2,5.4,2.8,8.2c0.6,2.8,0.9,5.6,0.9,8.2
			c0,4.8-0.7,9-2.1,12.5c-1.4,3.5-3.4,6.3-5.9,8.3c-1.6,1.4-3.6,2.4-5.9,3c-2.3,0.5-5,0.8-8.2,0.8c-2.3,0-4.1-0.1-5.6-0.2
			c-1.5-0.1-2.7-0.2-3.6-0.4c-0.4-0.1-0.7-0.3-1-0.6c-0.3-0.3-0.4-0.8-0.4-1.6V318.5L1019,318.5z M1063.9,421.6
			c0,4.1-0.6,7.6-1.6,10.5c-1.1,2.9-2.5,5.3-4.2,7.2c-1.7,1.9-3.7,3.4-5.8,4.5c-2.1,1.1-4.2,1.9-6.3,2.3c-2.1,0.5-4.1,0.7-5.8,0.7
			c-2.2,0-4.5-0.1-6.9-0.4c-2.3-0.3-4.8-0.9-7.5-2c-1.6-0.6-2.8-1.3-3.7-2.2c-0.9-0.9-1.6-2-2.1-3.3c-0.5-1.3-0.8-3.1-0.9-5.3
			c-0.1-2.2-0.2-4.8-0.2-8v-46.5c0-0.5,0.1-0.8,0.3-1c0.2-0.2,0.5-0.3,0.9-0.3c1.4,0,2.7,0,4,0c1.2,0,2.7,0.1,4.4,0.2
			c2.6,0.1,4.8,0.4,6.7,0.8c1.9,0.4,3.7,0.8,5.2,1.5c1.5,0.7,3,1.5,4.3,2.5c3.7,2.6,6.8,5.6,9.3,8.8c2.5,3.2,4.4,6.6,5.9,10.1
			c1.4,3.5,2.5,7,3,10.4C1063.7,415.3,1063.9,418.6,1063.9,421.6L1063.9,421.6z"/>
	</g>
	<g>
		<path class="st1" d="M56.6,419.3c0,9.6,0,18.1-0.2,25.5c-0.2,7.4-0.7,14-1.6,19.8c-0.8,5.8-2.3,10.9-4.3,15.4
			c-2.1,4.5-4.9,8.7-8.6,12.4c-2,1.9-3.7,3.5-5.2,4.7c-1.5,1.2-2.9,2.1-4.2,2.8c-1.6,0.8-2.8,1.5-3.4,2.1c-0.7,0.5-0.9,1-0.9,1.5
			c0,0.5,0.2,0.9,0.5,1.1c0.3,0.3,0.7,0.4,1.1,0.4c0.5,0,1.1-0.1,1.8-0.3c0.7-0.2,1.4-0.5,2.1-0.9c2.1-1,3.9-1.9,5.5-2.7
			c1.6-0.8,3-1.6,4.3-2.4c6.3-3.9,11.6-7.9,16.1-12.1c4.4-4.2,8.1-8.4,11-12.6c2.8-4.2,4.9-8.3,6.3-12.4c1.3-3.7,2.3-7.5,3-11.4
			c0.7-3.9,1.1-7.8,1.4-11.8c0.3-4,0.4-7.8,0.4-11.5c0-4.9-0.1-9.7-0.3-14.4c-0.2-4.6-0.3-9.1-0.3-13.3V363c0-6,0-11,0-15.2
			c0-4.2,0-7.7,0-10.6c0-2.8,0-5.2,0.1-7.1c0-1.9,0.1-3.5,0.1-4.9c0.1-1.3,0.1-2.6,0.2-3.9c0.1-3.4,0.8-6,1.8-7.8
			c1-1.8,2.9-2.9,5.5-3.4c1.1-0.2,2.1-0.4,2.9-0.5c0.8-0.1,1.7-0.1,2.8-0.1c1.2,0,2.1-0.1,2.6-0.4c0.6-0.3,0.9-0.8,0.9-1.4
			c0-0.7-0.4-1.1-1-1.4c-0.7-0.3-1.7-0.4-3.1-0.4c-1.9,0-4.1,0-6.4,0.1c-2.3,0-4.7,0.1-7,0.2c-2.4,0.1-4.5,0.1-6.5,0.2
			c-2,0.1-3.6,0.1-4.8,0.1c-1.3,0-3,0-5-0.1c-2.1-0.1-4.4-0.1-6.9-0.2c-2.5-0.1-5.2-0.2-7.9-0.2c-2.7-0.1-5.4-0.1-8-0.1
			c-1.5,0-2.6,0.1-3.3,0.4c-0.7,0.3-1,0.7-1,1.4c0,0.7,0.3,1.1,0.8,1.4c0.6,0.2,1.4,0.4,2.5,0.4c1.4,0,2.8,0,4.3,0.1
			c1.4,0.1,2.6,0.3,3.4,0.5c2.1,0.4,3.8,1.1,5,2c1.2,0.9,2,2.1,2.5,3.6c0.5,1.5,0.8,3.3,0.9,5.6c0.1,1.2,0.1,2.5,0.2,3.9
			c0,1.4,0.1,3,0.1,4.9c0,1.9,0,4.2,0,7.1c0,2.8,0,6.4,0,10.6c0,4.2,0,9.2,0,15.2V419.3L56.6,419.3z"/>
		<path class="st1" d="M499.3,397.5c0,6,0,11.7,0,17c0,5.3-0.1,10-0.3,14.3c-0.1,4.2-0.4,7.7-0.7,10.5c-0.2,1.9-0.6,3.6-0.9,5.1
			c-0.4,1.5-0.9,2.8-1.7,3.8c-0.7,1-1.7,1.6-3,1.9c-0.9,0.2-1.9,0.4-3.1,0.6c-1.2,0.1-2.5,0.2-4,0.2c-1.1,0-2,0.1-2.5,0.4
			c-0.5,0.3-0.7,0.7-0.7,1.1c0,0.7,0.3,1.2,1,1.5c0.7,0.3,1.6,0.5,2.9,0.5c2,0,4.2-0.1,6.5-0.2c2.4-0.1,4.7-0.2,7-0.2
			c2.4-0.1,4.6-0.2,6.5-0.2c2,0,3.5,0,4.6,0c2.9,0,6,0,9.3,0.1c3.3,0.1,7,0.3,11.1,0.5c4.2,0.1,9.1,0.2,14.6,0.4
			c5.6,0.1,12,0.2,19.3,0.2c2.5,0,4.4,0,5.8-0.2c1.4-0.2,2.4-0.6,3.1-1.3c0.7-0.7,1.3-1.9,1.7-3.6c0.3-1,0.5-2.5,0.8-4.4
			c0.3-1.9,0.6-4,0.8-6.2c0.3-2.3,0.5-4.4,0.7-6.4c0.2-2,0.3-3.6,0.3-4.7c0-1,0-1.8-0.2-2.5c-0.2-0.7-0.6-1-1.4-1
			c-0.7,0-1.1,0.2-1.4,0.7c-0.3,0.5-0.6,1.2-0.7,2.3c-0.7,4-1.7,7.1-3,9.4c-1.4,2.3-3.3,4-5.8,5.1c-1.7,0.8-3.7,1.3-5.9,1.7
			c-2.2,0.3-4.4,0.5-6.6,0.6c-2.2,0.1-4.2,0.1-5.9,0.1c-5,0-9-0.2-12.1-0.7c-3.1-0.5-5.4-1.3-7.1-2.5c-1.6-1.2-2.7-2.9-3.4-5
			c-0.6-2.2-0.9-4.9-1-8.3c0-1.2-0.1-2.7-0.1-4.7c0-2,0-4.2,0-6.5c0-2.4,0-4.8,0-7.2c0-2.4,0-4.7,0-6.8c0-2.1,0-3.8,0-5.2V382
			c0-0.6,0.1-1.1,0.2-1.4c0.2-0.3,0.5-0.5,0.9-0.5c1,0,2.4,0,4.3,0c1.9,0,4.1,0,6.4,0.1c2.4,0,4.7,0.1,7,0.1
			c2.3,0.1,4.4,0.1,6.2,0.2c1.8,0.1,3.1,0.1,3.9,0.2c2.4,0.3,4.3,0.8,5.9,1.5c1.5,0.7,2.7,1.6,3.5,2.6c0.8,1,1.4,2.3,1.7,3.6
			c0.3,1.3,0.5,2.6,0.6,3.8c0.1,1.2,0.2,2.3,0.2,3.3c0,0.5,0.1,0.9,0.4,1.2c0.3,0.3,0.7,0.5,1.4,0.5c0.6,0,1-0.2,1.2-0.6
			c0.3-0.4,0.4-0.9,0.5-1.4c0.1-0.6,0.1-1.1,0.1-1.7c0-0.4,0-1.1,0.1-2.1c0.1-1,0.1-2.2,0.2-3.5c0.1-1.3,0.2-2.7,0.3-4
			c0.1-1.3,0.1-2.5,0.2-3.5c0.3-3.3,0.5-5.9,0.8-7.9c0.2-2,0.4-3.4,0.6-4.4c0.2-1,0.2-1.7,0.2-2c0-0.6-0.1-1-0.4-1.2
			c-0.3-0.2-0.6-0.3-1-0.3c-0.5,0-0.9,0.2-1.4,0.7c-0.5,0.5-1,1.1-1.7,1.9c-0.9,0.9-2.1,1.6-3.6,2.1c-1.5,0.4-3.5,0.7-5.8,0.9
			c-0.9,0.1-2.5,0.1-4.6,0.2c-2.1,0-4.5,0.1-7.2,0.1c-2.7,0-5.4,0.1-8,0.1c-2.6,0-5,0-7.1,0c-2.1,0-3.6,0-4.5,0
			c-0.6,0-0.9-0.2-1.1-0.6c-0.2-0.4-0.3-0.9-0.2-1.6v-49.6c0-0.7,0.1-1.2,0.3-1.5c0.2-0.3,0.6-0.5,1-0.5c0.8,0,2.2,0,4.1,0
			c1.9,0,4.1,0.1,6.4,0.1c2.4,0,4.8,0.1,7.2,0.2c2.4,0.1,4.5,0.1,6.3,0.2c1.8,0.1,3.1,0.1,3.8,0.2c3.2,0.4,5.7,0.9,7.5,1.6
			c1.8,0.7,3,1.4,3.9,2.4c0.8,0.9,1.4,2,1.8,3.1c0.3,0.8,0.6,1.7,0.8,2.6c0.2,0.9,0.3,1.8,0.3,2.6c0.1,0.8,0.1,1.4,0.1,1.9
			c0,0.9,0.1,1.6,0.4,2c0.3,0.5,0.7,0.7,1.4,0.7c0.7,0,1.1-0.3,1.4-0.7c0.3-0.5,0.5-0.9,0.5-1.4c0.1-0.6,0.2-1.5,0.3-2.7
			c0.1-1.2,0.2-2.5,0.3-3.9c0.1-1.4,0.2-2.6,0.3-3.8c0.1-1.1,0.1-2,0.2-2.5c0.2-3,0.4-5.3,0.7-7c0.3-1.7,0.5-3,0.7-3.8
			c0.2-0.8,0.3-1.5,0.3-1.9c0-0.5-0.1-0.9-0.2-1.2c-0.2-0.3-0.5-0.5-0.9-0.5c-0.5,0-1,0.1-1.6,0.3c-0.6,0.2-1.1,0.3-1.6,0.5
			c-0.8,0.2-1.9,0.4-3.4,0.6c-1.5,0.2-3.1,0.4-5,0.6c-0.7,0-2.2,0.1-4.5,0.1c-2.3,0-5.2,0.1-8.5,0.1c-3.3,0-6.9,0-10.6,0
			c-3.7,0-7.3,0-10.8,0c-3.5,0-6.5,0-9.1,0c-2.6,0-4.4,0-5.6,0c-1.4,0-3.2,0-5.3-0.1c-2.1-0.1-4.5-0.2-7.1-0.3c-2.5,0-5.1,0-7.8-0.1
			c-2.7-0.1-5.4-0.1-8.1-0.1c-1.5,0-2.6,0.1-3.3,0.4c-0.7,0.3-1,0.7-1,1.4c0,0.7,0.3,1.1,0.8,1.4c0.6,0.2,1.4,0.4,2.5,0.4
			c1.4,0,2.8,0,4.3,0.1c1.4,0.1,2.6,0.3,3.4,0.5c2.1,0.5,3.8,1.1,5,2c1.2,0.9,2,2.1,2.5,3.6c0.5,1.5,0.8,3.3,0.9,5.6
			c0.1,1.2,0.1,2.5,0.2,3.9c0,1.4,0.1,3,0.1,4.9c0,1.9,0,4.3,0,7.1c0,2.8,0,6.3,0,10.5c0,4.2,0,9.3,0,15.2V397.5L499.3,397.5z"/>
		<path class="st1" d="M417.3,397.5c0,6.4,0,12.3,0,17.7c0,5.4-0.1,10.3-0.3,14.5c-0.1,4.2-0.4,7.7-0.7,10.5
			c-0.3,2.8-0.8,5.1-1.6,6.7c-0.8,1.7-2.2,2.7-4.1,3.1c-0.9,0.2-1.9,0.4-3.1,0.6c-1.2,0.1-2.5,0.2-4,0.2c-1.1,0-2,0.1-2.5,0.4
			c-0.5,0.3-0.7,0.7-0.7,1.1c0,0.7,0.3,1.2,1,1.5c0.7,0.3,1.6,0.5,2.9,0.5c2,0,4.2,0,6.5-0.1c2.4-0.1,4.7-0.1,7.1-0.2
			c2.4-0.1,4.5-0.1,6.5-0.2c1.9-0.1,3.5-0.1,4.6-0.1c1.8,0,4.3,0.1,7.4,0.2c3.1,0.1,6.7,0.2,10.7,0.3c4,0.1,8.2,0.2,12.5,0.2
			c1.1,0,2-0.2,2.7-0.5c0.7-0.3,1-0.8,1-1.5c0-0.5-0.3-0.9-0.8-1.1c-0.5-0.3-1.3-0.4-2.4-0.4c-1,0-2.1,0-3.3-0.1
			c-1.2-0.1-2.4-0.2-3.5-0.3c-1.2-0.1-2.2-0.3-3.2-0.4c-1.9-0.3-3.4-0.8-4.5-1.7c-1.1-0.9-1.9-1.9-2.4-3.3c-0.5-1.3-0.8-2.9-1-4.7
			c-0.3-2.8-0.4-6.4-0.6-10.7c-0.1-4.3-0.2-9.1-0.2-14.6c0-5.5,0-11.3,0-17.7V363c0-5.9,0-11,0-15.2c0-4.2,0-7.7,0-10.6
			c0-2.8,0-5.2,0.1-7.1c0-1.9,0.1-3.5,0.1-4.9c0.1-1.3,0.1-2.6,0.2-3.9c0.1-3.4,0.8-6,1.8-7.8c1-1.8,2.9-2.9,5.5-3.4
			c1.1-0.2,2.2-0.4,3.1-0.5c0.9-0.1,1.9-0.1,2.8-0.1c1,0,1.8-0.1,2.3-0.4c0.6-0.3,0.8-0.8,0.8-1.6c0-0.6-0.4-1-1.1-1.2
			c-0.7-0.2-1.7-0.3-3-0.3c-1.9,0-4,0-6.2,0.1c-2.3,0-4.5,0.1-6.7,0.2c-2.3,0.1-4.3,0.1-6.2,0.2c-1.9,0.1-3.5,0.1-4.8,0.1
			c-1.4,0-3.2,0-5.3-0.1c-2.1-0.1-4.3-0.1-6.8-0.2c-2.4-0.1-4.7-0.2-7.1-0.2c-2.3-0.1-4.4-0.1-6.3-0.1c-1.6,0-2.7,0.1-3.5,0.3
			c-0.8,0.3-1.2,0.7-1.2,1.2c0,0.8,0.3,1.3,0.9,1.6c0.5,0.3,1.3,0.4,2.3,0.4c1.2,0,2.4,0,3.6,0.2c1.2,0.1,2.4,0.3,3.5,0.6
			c2.2,0.5,3.8,1.6,4.8,3.4c1.1,1.8,1.7,4.3,1.9,7.6c0.1,1.2,0.1,2.5,0.2,3.9c0,1.4,0.1,3,0.1,4.9c0,1.9,0,4.2,0,7.1
			c0,2.8,0,6.4,0,10.6c0,4.2,0,9.3,0,15.2V397.5L417.3,397.5z"/>
		<path class="st1" d="M329.8,363c0-5.9,0-11,0-15.2c0-4.2,0-7.7,0-10.6c0-2.8,0-5.2,0.1-7.1c0-1.9,0.1-3.5,0.1-4.9
			c0.1-1.3,0.1-2.6,0.2-3.9c0.1-3.4,0.8-6,1.8-7.8c1-1.8,2.9-2.9,5.5-3.4c1.2-0.2,2.5-0.4,3.9-0.5c1.4-0.1,2.6-0.1,3.8-0.1
			c1.2,0,2.1-0.1,2.6-0.4c0.6-0.3,0.9-0.8,0.9-1.4c0-0.7-0.4-1.1-1-1.4c-0.7-0.3-1.7-0.4-3.1-0.4c-2,0-4.2,0-6.7,0.1
			c-2.5,0-5.1,0.1-7.7,0.2c-2.6,0.1-5,0.1-7.2,0.2c-2.2,0.1-3.9,0.1-5.1,0.1c-1.3,0-3.1,0-5.1-0.1c-2.1-0.1-4.3-0.1-6.8-0.2
			c-2.5-0.1-5-0.2-7.6-0.2c-2.6-0.1-5-0.1-7.4-0.1c-1.5,0-2.6,0.1-3.3,0.4c-0.7,0.3-1,0.7-1,1.4c0,0.7,0.3,1.1,0.8,1.4
			c0.6,0.2,1.4,0.4,2.5,0.4c1.3,0,2.5,0,3.6,0.1c1.1,0.1,2.1,0.3,2.9,0.5c2.1,0.4,3.8,1.1,5,2c1.2,0.9,2,2.1,2.5,3.6
			c0.5,1.5,0.8,3.3,0.9,5.6c0.1,1.2,0.1,2.5,0.2,3.9c0,1.4,0.1,3,0.1,4.9c0,1.9,0,4.3,0,7.1c0,2.8,0,6.4,0,10.6c0,4.2,0,9.3,0,15.2
			v34.5c0,6,0,11.7,0,17c0,5.3-0.1,10-0.3,14.3c-0.1,4.2-0.4,7.7-0.7,10.5c-0.2,1.9-0.6,3.6-0.9,5.1c-0.4,1.5-0.9,2.8-1.7,3.8
			c-0.7,1-1.7,1.6-3,1.9c-0.9,0.2-1.9,0.4-3.1,0.6c-1.2,0.1-2.5,0.2-4,0.2c-1.1,0-2,0.1-2.5,0.4c-0.5,0.3-0.7,0.7-0.7,1.1
			c0,0.7,0.3,1.2,1,1.5c0.7,0.3,1.6,0.5,2.9,0.5c2,0,4.2-0.1,6.5-0.2c2.4-0.1,4.7-0.2,7-0.2c2.4-0.1,4.6-0.2,6.5-0.2
			c2,0,3.5,0,4.6,0c2.7,0,5.3,0,7.8,0.1c2.6,0,5.1,0.1,7.8,0.2c2.6,0.1,5.4,0.2,8.3,0.3c4.3,0.1,9.2,0.2,14.6,0.4
			c5.4,0.1,11.6,0.2,18.6,0.2c2.5,0,4.5-0.1,6.1-0.2c1.5-0.1,2.7-0.4,3.5-0.8c0.8-0.4,1.4-0.9,1.8-1.6c0.4-0.7,0.7-1.6,1-2.7
			c0.3-1.2,0.6-2.6,0.9-4.3c0.3-1.7,0.6-3.5,0.8-5.5c0.3-1.9,0.5-3.8,0.7-5.6c0.2-1.8,0.3-3.3,0.4-4.6c0.1-1.3,0.2-2.2,0.2-2.6
			c0-1.2-0.1-2-0.3-2.6c-0.2-0.5-0.7-0.8-1.3-0.8c-0.8,0-1.3,0.3-1.6,0.8c-0.3,0.5-0.5,1.2-0.6,2.1c-0.1,1.3-0.5,2.6-1,4.2
			c-0.5,1.5-1.1,2.9-1.8,4.2c-0.7,1.4-1.5,2.5-2.3,3.4c-1.6,1.7-3.6,3-5.8,3.8c-2.3,0.8-4.8,1.3-7.7,1.4c-2.8,0.2-6,0.3-9.5,0.3
			c-5,0-9.1-0.2-12.2-0.5c-3.1-0.3-5.5-0.8-7.3-1.4c-1.8-0.6-3.2-1.4-4.2-2.4c-1.3-1.2-2.3-3.5-2.9-6.9c-0.6-3.4-0.9-8.1-1-13.9
			c-0.1-5.9-0.2-12.9-0.2-21.3V363L329.8,363z"/>
		<path class="st1" d="M129.8,391.6c0,9.4,0.8,17.5,2.3,24.1c1.5,6.6,3.6,12.2,6.2,16.7c2.6,4.5,5.6,8.2,9,11.2
			c3.6,3.2,7.4,5.7,11.4,7.6c4,1.8,7.9,3.2,11.9,4c3.9,0.9,7.6,1.4,11.1,1.6c3.5,0.2,6.6,0.3,9.2,0.3c4.3,0,8.6-0.3,13.1-1
			c4.5-0.7,9.1-2.1,13.7-4.1c4.6-2.1,9.3-5,13.9-9c4.1-3.6,7.4-7.6,9.9-12.1c2.5-4.5,4.3-9.3,5.6-14.5c1.3-5.2,2.1-10.5,2.5-16
			c0.4-5.5,0.6-11,0.6-16.4v-21c0-5.9,0-11,0-15.2c0-4.2,0-7.7,0-10.6c0-2.8,0-5.2,0.1-7.1c0-1.9,0.1-3.5,0.1-4.9
			c0.1-1.3,0.1-2.6,0.2-3.9c0.1-3.4,0.8-6,1.8-7.8c1-1.8,2.9-2.9,5.5-3.4c1.1-0.2,2.1-0.4,2.9-0.5c0.8-0.1,1.7-0.1,2.8-0.1
			c1.2,0,2.1-0.1,2.6-0.4c0.6-0.3,0.9-0.8,0.9-1.4c0-0.7-0.3-1.1-1-1.4c-0.7-0.3-1.7-0.4-3.1-0.4c-2,0-4.1,0-6.4,0.1
			c-2.3,0-4.6,0.1-6.8,0.2c-2.2,0.1-4.1,0.1-5.8,0.2c-1.7,0.1-2.8,0.1-3.4,0.1c-0.1,0-0.8,0-2.2-0.1c-1.4-0.1-3.2-0.1-5.4-0.2
			c-2.2-0.1-4.6-0.2-7.3-0.2c-2.6-0.1-5.2-0.1-7.7-0.1c-1.4,0-2.4,0.1-3.1,0.4c-0.7,0.3-1,0.7-1,1.4c0,0.7,0.3,1.1,0.8,1.4
			c0.6,0.2,1.4,0.4,2.5,0.4c0.8,0,1.6,0,2.5,0.1c0.9,0,1.7,0.1,2.6,0.2c0.8,0.1,1.5,0.2,2.1,0.3c2.1,0.4,3.8,1.1,5,2
			c1.2,0.9,2,2.1,2.6,3.6c0.5,1.5,0.8,3.3,0.9,5.6c0.1,1.2,0.2,2.5,0.2,3.9c0.1,1.4,0.1,3,0.1,4.9c0,1.9,0,4.3,0,7.1
			c0,2.8,0,6.4,0,10.6c0,4.2,0,9.3,0,15.2v24.5c0,5.1-0.1,9.9-0.3,14.6c-0.2,4.7-0.7,9.1-1.4,13.2c-0.7,4.2-1.9,8-3.4,11.5
			c-1.6,3.5-3.7,6.6-6.3,9.3c-2.6,2.6-5.5,4.7-8.6,6.2c-3.1,1.5-6.2,2.6-9.3,3.3c-3.2,0.7-6.2,1-9.1,1c-2.2,0-4.7-0.1-7.4-0.5
			c-2.7-0.4-5.5-1.1-8.4-2.3c-2.9-1.1-5.8-2.9-8.8-5.3c-2.4-1.9-4.5-4.2-6.4-6.9c-1.9-2.6-3.5-5.8-4.8-9.5c-1.3-3.7-2.3-8.2-3-13.4
			c-0.7-5.2-1-11.4-1-18.4V363c0-5.9,0-11,0-15.2c0-4.2,0-7.7,0-10.6c0-2.8,0-5.2,0.1-7.1c0-1.9,0.1-3.5,0.1-4.9
			c0.1-1.3,0.1-2.6,0.2-3.9c0.1-3.4,0.8-6,1.8-7.8c1-1.8,2.9-2.9,5.5-3.4c1.1-0.2,2.1-0.4,2.9-0.5c0.8-0.1,1.7-0.1,2.8-0.1
			c1,0,1.8-0.1,2.3-0.4c0.5-0.3,0.8-0.8,0.8-1.4c0-0.7-0.4-1.1-1-1.4c-0.7-0.3-1.8-0.4-3.3-0.4c-1.8,0-3.8,0-6.1,0.1
			c-2.3,0-4.5,0.1-6.9,0.2c-2.3,0.1-4.4,0.1-6.4,0.2c-2,0.1-3.6,0.1-4.8,0.1c-2,0-4.6-0.1-7.7-0.2c-3.1-0.1-6.5-0.2-10.2-0.3
			c-3.7-0.1-7.2-0.2-10.8-0.2c-1.5,0-2.6,0.1-3.3,0.4c-0.7,0.3-1,0.7-1,1.4c0,0.7,0.3,1.1,0.8,1.4c0.6,0.2,1.4,0.4,2.5,0.4
			c1.4,0,2.8,0,4.3,0.1c1.4,0.1,2.5,0.3,3.4,0.5c2.1,0.4,3.8,1.1,5,2c1.2,0.9,2,2.1,2.6,3.6c0.5,1.5,0.8,3.3,0.9,5.6
			c0.1,1.2,0.1,2.5,0.2,3.9c0,1.4,0.1,3,0.1,4.9c0,1.9,0.1,4.3,0.1,7.1c0,2.8,0,6.4,0,10.6c0,4.2,0,9.3,0,15.2V391.6L129.8,391.6z"
			/>
	</g>
	<path class="st0" d="M736.3,79.8c0-33.5-27.2-60.6-60.6-60.6c-33.5,0-60.6,27.2-60.6,60.6c0,33.5,27.2,60.6,60.6,60.6
		C709.2,140.4,736.3,113.3,736.3,79.8L736.3,79.8z"/>
</g>
</svg>
